<?xml version="1.0" encoding="utf-8"?>
<!-- Generator: Adobe Illustrator 25.2.0, SVG Export Plug-In . SVG Version: 6.00 Build 0)  -->
<svg version="1.1" id="_x31_1_Dwarf" xmlns="http://www.w3.org/2000/svg" xmlns:xlink="http://www.w3.org/1999/xlink" x="0px"
	 y="0px" viewBox="0 0 160 160" style="enable-background:new 0 0 160 160;" xml:space="preserve">
<path d="M80,148.61c-37.83,0-68.61-30.78-68.61-68.61S42.17,11.39,80,11.39c37.83,0,68.61,30.78,68.61,68.61
	S117.83,148.61,80,148.61z M80,17.33c-34.56,0-62.67,28.11-62.67,62.67S45.44,142.67,80,142.67c34.56,0,62.67-28.11,62.67-62.67
	S114.56,17.33,80,17.33z"/>
<path id="XMLID_220_" d="M79.49,138.06c-1.73-4.2-3.15-7.39-4.36-10.67c-0.5-1.36-1.23-3.18-0.73-4.28
	c3.92-8.61,2.33-17.68,2.51-26.58c0.16-7.88,0.33-15.78-0.16-23.63c-0.24-3.9-1.37-8.02-3.17-11.47c-1.72-3.3-5.33-3.31-8.12-0.93
	c-1.64,1.4-3.07,3.45-3.76,5.49c-1.95,5.83-6.57,4.65-10.7,4.21c-0.82-0.09-1.98-2.5-2-3.86c-0.21-11.07-0.29-22.14-0.13-33.2
	c0.02-1.66,1.6-4.74,2.33-4.71c3.09,0.15,6.43,0.71,9.09,2.18c1.67,0.92,2.09,3.89,3.44,5.65c3.27,4.26,7.24,4.09,10.36-0.24
	c3.21-4.45,9.73-4.81,13.06-0.72c4.71,5.79,8.91,5.4,12.24-1.82c1.92-4.16,4.28-6.14,8.83-5.93c2.91,0.13,4.5,0.9,4.49,4.2
	c-0.05,11.44,0.17,22.89,0.03,34.33c-0.02,1.42-1.77,4.09-2.46,4.01c-3.1-0.37-6.4-1.02-9.04-2.56c-1.68-0.98-2.14-3.86-3.47-5.65
	c-3.41-4.56-8.1-4.18-10.13,1c-1.25,3.18-2.19,6.69-2.27,10.08c-0.26,11.06-0.17,22.14,0.02,33.21c0.07,3.89-0.14,8.21,1.43,11.56
	c3.34,7.13-2.36,12.37-2.93,18.6C83.82,137.1,80.77,137.59,79.49,138.06z"/>
<path d="M71.45,121.77c2.66-5.83,2.48-12.05,2.3-18.63c-0.06-2.18-0.12-4.43-0.08-6.67l0.01-0.45c0.14-6.94,0.28-14.09-0.07-21.08
	c-15.6,0-31.21,0-46.81,0.01c-1.56,0-3.12,0.15-4.6,0.23c-0.86,6.48-0.86,6.48,3.71,9.69c7.32,5.13,14.45,10.56,22.03,15.25
	c4.06,2.51,3.79,5.79,3.9,9.53c0.1,3.78-3.09,3.64-5.13,4.87c-1.1,0.67-2.34,1.12-3.54,1.69c0,4.4,0,8.72,0,13.78
	c5.89-0.26,11.7,0.36,17.05-0.93c3.81-0.92,7.61-1.51,11.4-1.84C71.06,125.57,70.61,123.6,71.45,121.77z"/>
<path d="M135.42,79.86c-8.13,0-16.25,0.1-24.38,0.03c-1.3-0.01-3.25-0.29-3.78-1.14c-2.13-3.45-5.27-3.82-8.8-3.82
	c-3.3,0-6.59,0-9.89,0c-0.22,11.17-0.1,21.99,0.06,31.19c0.01,0.53,0.01,1.06,0.02,1.6c0.02,3.13,0.05,6.37,1.11,8.64
	c1.98,4.22,1.47,7.96,0.42,11.2c2.54,0.28,5.09,0.63,7.65,1.05c5.74,0.94,11.62,1.06,17.86,1.59c-0.4-7.25,2.76-14.12-6.13-17.45
	c-1.58-0.59-2-5.69-1.93-8.69c0.03-1.31,2.47-2.94,4.14-3.74c4.22-2.04,8.82-3.33,12.92-5.57c6.23-3.41,11.52-8.07,16.37-14.57
	C138.51,80.03,136.96,79.86,135.42,79.86z"/>
<g>
</g>
<g>
</g>
<g>
</g>
<g>
</g>
<g>
</g>
<g>
</g>
</svg>
