<?xml version="1.0" encoding="utf-8"?>
<!-- Generator: Adobe Illustrator 25.2.0, SVG Export Plug-In . SVG Version: 6.00 Build 0)  -->
<svg version="1.1" id="_x31_5_Lizardkin" xmlns="http://www.w3.org/2000/svg" xmlns:xlink="http://www.w3.org/1999/xlink" x="0px"
	 y="0px" viewBox="0 0 160 160" style="enable-background:new 0 0 160 160;" xml:space="preserve">
<g>
	<path d="M58.56,46.99c0.98-1.05,2.02-2.03,3.1-2.95c-0.19-0.62-0.86-0.92-2.09-1.07c-0.99,1.39-2.01,2.82-3.01,4.23
		c0.06-0.01,0.11-0.01,0.17-0.02C57.35,47.12,57.95,47.06,58.56,46.99z"/>
	<path d="M133.82,76.83c-0.25-0.79-0.78-1.1-1.64-0.97c-0.85,0.13-1.71,0.14-2.54,0.2c-1.68,2.8-1.68,3.73-0.02,5.63
		c1.12,0,2.26,0,3.24,0c1.24-0.58,1.27-1.66,1.58-2.6C134.24,78.33,134.05,77.57,133.82,76.83z"/>
	<path d="M67.32,30.52c-0.56-0.82-1.23-0.84-1.98-0.59c-1.29,0.43-2.6,0.8-3.86,1.29c-0.33,0.13-0.51,0.62-0.73,0.9
		c1.46,2.68,2.09,3.33,4.17,4.26C66.83,34.76,67.8,32.9,67.32,30.52z"/>
	<path d="M67.53,28.31c0.71-1.39,1.45-2.84,2.08-4.09c-1-3.35-1-3.35-2.79-3.57c-2.74,2.2-2.14,2.99-2.08,5.61
		c0.02,0.89,0.26,1.82,0.94,2.54C66.29,28.65,66.83,28.5,67.53,28.31z"/>
	<path d="M52.83,115.32c-0.09,0.2-0.18,0.4-0.25,0.6c-0.93,2.54-2.81,2.96-3.85,2.99c-0.04,0-0.09,0.01-0.13,0.01
		c-0.01,0.76,0.26,1.55,0.98,2.39c0.38-0.03,0.8-0.17,1.16-0.06c0.45,0.13,0.85,0.46,1.22,0.68c1.71-1.26,2.11-2.2,1.92-4.32
		C53.77,116.47,53.42,115.71,52.83,115.32z"/>
	<path d="M126.8,85.55c-0.98-0.2-2.07-0.42-3.08-0.63c-1.63,1.24-1.91,2.6-0.79,4.1c1.05,1.41,2.51,2.27,4.13,2.8
		C128.45,90.39,128.37,88.56,126.8,85.55z"/>
	<path d="M53.47,25.07c-0.59,0.8-1.26,1.7-1.9,2.55c0.04,0.76,0.08,1.4,0.12,2.26c1.06,0.6,2.15,1.22,3.21,1.82
		c0.67-0.33,1.18-0.58,1.74-0.86C57.88,27.06,56.91,25.26,53.47,25.07z"/>
	<path d="M67.49,111.46c2.26-1.03,2.96-2.13,2.46-4.26c-0.29-1.24-0.88-2.43-1.46-3.58c-0.17-0.34-0.75-0.47-1.11-0.68
		C64.6,106.31,65.51,109.7,67.49,111.46z"/>
	<path d="M118.63,120.51c1.07,0,2,0,2.83,0c1.55-0.61,1.22-2.06,1.72-3.26c-0.46-0.63-0.95-1.31-1.39-1.91c-1.53,0-2.67,0-3.8,0
		c-0.67,1.22-1.21,2.37-0.82,3.83C117.66,119.61,118.18,120.09,118.63,120.51z"/>
	<path d="M61,34.68c-1.56,1.9-2.46,3.64-2.82,5.65c0.93,1.6,2.66,1.55,4.13,2.32c1.36-1.73,0.3-3.73,1.08-5.59
		C62.64,36.32,61.91,35.58,61,34.68z"/>
	<path d="M127.35,84.66c2.21-2.73,0.75-5.36-3.72-6.37c-0.38,0.69-0.8,1.44-1.23,2.22C123.31,83.12,122.73,83.62,127.35,84.66z"/>
	<path d="M53.38,122.53c0.58,0.76,0.03,2.09,1.36,2.86c2.69-0.75,3.85-2.67,4.36-5.3c-0.29-0.51-0.63-1.11-0.95-1.67
		C54.35,119.62,54.22,119.62,53.38,122.53z"/>
	<path d="M58.19,43.49c0.2-1.8-0.21-3.31-1.49-4.77c-0.97,0.61-1.87,1.18-2.95,1.86c-0.15,1.23-0.31,2.55-0.48,3.93
		c0.93,0.69,1.71,1.28,2.57,1.92C56.68,45.38,57.39,44.49,58.19,43.49z"/>
	<path d="M72.22,125.26c0.96,0,1.67,0,2.49,0c0.06-0.66-0.05-1.3,0.2-1.76c0.07-0.14,0.12-0.27,0.15-0.41
		c-0.05-0.1-0.1-0.2-0.14-0.31c-0.2-0.56-0.31-1.13-0.34-1.7c-0.65-1.04-1.52-1.95-2.36-2.85c-0.5-0.53-1.14-0.56-1.94,0.1
		c0.19,1.73,0.4,3.57,0.65,5.77C71.23,124.38,71.71,124.81,72.22,125.26z"/>
	<path d="M138.68,72.94l-1.13,1.74c-0.36,0.56-0.96,0.92-1.62,0.98c-0.07,0.01-0.13,0.01-0.2,0.01c-0.42,0-0.83-0.13-1.18-0.36
		c0.22,2.39,1.41,3.44,4.13,3.59c0.37-1.14,0.76-2.34,1.12-3.45C139.44,74.54,139.39,73.53,138.68,72.94z"/>
	<path d="M63.55,42.51c1.05-0.79,2.15-1.53,3.28-2.22c-0.26-1.01-0.76-1.99-1.29-2.99c-0.5,0-0.98,0-1.7,0
		c-0.14,1.85-0.51,3.51-0.31,5.11C63.54,42.44,63.55,42.47,63.55,42.51z"/>
	<path d="M133.04,82.72c-1.17,0.12-2.29,0.23-3.57,0.36c-1.23,1.74-1.23,1.74-0.9,3.84c1.37,1.23,3,0.96,4.57,0.8
		C134.58,85.33,134.54,84.51,133.04,82.72z"/>
	<path d="M54.26,47.42c0.27-0.02,0.52-0.03,0.74-0.06c0.01,0,0.03,0,0.04,0c-0.53-0.51-1.27-0.96-2.2-1.34
		c-1.31,0.63-2.01,1.41-2.09,2.3c0.19-0.1,0.37-0.21,0.56-0.3C52.34,47.53,53.4,47.47,54.26,47.42z"/>
	<path d="M71.79,26.1c0.17,0.99,0.31,1.83,0.49,2.87c0.52,0.36,1.15,0.8,2.01,1.39c1.52-2.27,2.33-4.41,2.24-6.92
		c-0.54-0.5-1.05-0.97-1.72-1.59C73.71,23.4,72.72,24.8,71.79,26.1z"/>
	<path d="M138.1,79.98c-0.86,0-1.71,0-2.63,0c-0.2,0.4-0.41,0.77-0.56,1.15c-0.19,0.46-0.33,0.93-0.46,1.31
		c0.83,2.89,0.83,2.89,3.96,3.57c0.11-0.15,0.34-0.35,0.43-0.61c0.35-1,0.64-2.02,0.94-2.96C139.52,81.33,139.09,80.45,138.1,79.98z
		"/>
	<path d="M52.33,127.92c0.35-0.38,0.74-0.79,1.05-1.13c0.12-3.59-1.95-5.34-4.59-4.02c-0.76,1.5-0.91,3,0.07,4.61
		C49.78,128.19,51.01,128.02,52.33,127.92z"/>
	<path d="M53.25,32.46c-1.16,1.59-0.98,3.55-1.54,5.37c0.31,0.5,0.65,1.04,0.96,1.53c2.54,0.33,3.1-1.49,3.87-3.17
		c-0.66-1.16-0.23-2.76-1.65-3.73C54.42,32.46,53.85,32.46,53.25,32.46z"/>
	<path d="M70.61,38.27c0.63-2.58-0.25-4.55-2.51-5.44c-1.59,2.35-2.14,4.6-0.46,6.99C68.59,39.27,69.59,38.75,70.61,38.27z"/>
	<path d="M50.19,30.26c-0.84,1.36-1.67,2.69-2.49,4.01c0.04,1.36-0.42,2.81,1.22,3.84c1.74-0.15,2.01-0.35,2.35-1.86
		c0.3-1.31,0.58-2.63,0.89-4.04C51.65,31.46,51.81,30.02,50.19,30.26z"/>
	<path d="M74.28,127.78c-1.06-1.19-1.06-1.19-2.73-1.63c-2.18,2.43-0.71,5.04-0.47,7.84C74.07,132.79,74.62,131.63,74.28,127.78z"/>
	<path d="M137.96,87.08c-0.44-0.17-1.03-0.4-1.73-0.68c-0.76,0.54-1.5,1.07-2.11,1.5c-0.1,3.61,1.16,4.89,4.26,4.59
		C139.23,90.93,139.09,88.41,137.96,87.08z"/>
	<path d="M130.02,50.5l4.17,0.51c0.07-0.93-0.13-1.79-1.07-2.32C131.61,48.94,130.66,49.61,130.02,50.5z"/>
	<path d="M126.57,76.16c-0.95,0-1.84-0.3-2.65-0.9c-0.2-0.15-0.42-0.31-0.64-0.47c-0.22,1.67,1.16,2.74,4.16,3.31
		c0.59-0.89,0.94-1.63,1.05-2.32c-0.07,0.02-0.13,0.05-0.2,0.07C127.69,76.06,127.13,76.16,126.57,76.16z"/>
	<path d="M61.54,128.34c1.87-1.77,1.04-3.95,0.84-5.91c-0.08-0.78-1.03-1.5-1.67-2.17c-0.18-0.19-0.63-0.13-1.08-0.2
		c-0.35,1.5-0.67,2.88-0.92,3.97C58.88,126.17,60.13,127.24,61.54,128.34z"/>
	<path d="M21.58,77.4c0.2-0.67,0.39-1.34,0.58-2.02c0.03-0.1,0.05-0.21,0.07-0.31c-0.99,0.22-1.85,0.42-2.62,0.59
		c-1,1.66-1.1,3.24-0.52,5.01c0.58,0.25,1.06,0.42,1.47,0.51C20.86,79.89,21.22,78.64,21.58,77.4z"/>
	<path d="M69.63,127.13c0.85-1.5,0.91-1.5,0.8-2.55c-0.14-1.42-0.31-2.85-0.58-4.25c-0.12-0.66-0.5-1.27-0.79-1.98
		c-2.75,2.78-2.82,3.05-1.94,7.1C67.89,125.96,68.76,126.54,69.63,127.13z"/>
	<path d="M115.64,74.15c-0.13,0.18-0.29,0.38-0.46,0.57c0.91,0.31,1.83,0.21,2.93-0.73c-0.07-0.47-0.13-0.94-0.2-1.42
		C116.97,72.81,116.26,73.3,115.64,74.15z"/>
	<path d="M110.99,121.53c-2.28-0.27-3.17,0.13-3.77,1.65c-0.61,1.53-0.25,2.78,1.13,3.9c1.09,0.1,2.16,0.12,2.84-0.58
		C112.15,124.71,111.96,123.16,110.99,121.53z"/>
	<path d="M67.86,101c0.12,0.4,0.36,0.84,0.74,1.37c0.45,0.64,0.97,1.24,1.54,1.97c1.72-0.06,2.02-0.17,2.58-1.66
		c-0.48-0.17-0.96-0.34-1.44-0.51C70.1,101.74,68.99,101.34,67.86,101z"/>
	<path d="M54.74,131.4c0.79,0,1.35,0,2.03,0c0.66-1.54,1.3-3.05,1.99-4.68c-0.3-0.45-0.61-0.92-0.93-1.37
		c-0.03-0.04-0.14-0.03-0.24-0.05c-0.91,0.34-1.85,0.68-2.79,1.03c-0.83,0.31-1.26,0.97-1.4,1.79c-0.1,0.56-0.02,1.15-0.02,2.01
		C53.79,130.51,54.31,131,54.74,131.4z"/>
	<path d="M74.38,138.91c0.64-0.42,1.4-0.93,2.13-1.41c0.11-3.25-0.11-3.73-2.1-5.04c-2.4,2.34-2.9,3.5-2.49,5.79
		C72.66,138.45,73.42,138.65,74.38,138.91z"/>
	<path d="M64.31,28.82c-0.15-2.22-0.24-4.22-0.45-6.21c-0.04-0.4-0.49-0.76-0.85-1.28c-0.75,0.86-1.36,1.55-2.24,2.55
		c-0.11,1.93,0.17,4,1.26,6.19C62.95,29.58,63.66,29.18,64.31,28.82z"/>
	<path d="M121.97,73.85c-0.56-0.4-1.15-0.81-1.75-1.21c-0.21-0.14-0.33-0.19-0.38-0.21c-0.17-0.01-0.33-0.01-0.49-0.01
		c-0.1,0-0.18,0.01-0.28,0.01c0.25,0.37,0.59,0.71,0.94,0.97C120.58,73.81,121.25,74.1,121.97,73.85z"/>
	<path d="M127.67,115.47c0.7-2.83,0.45-3.55-1.46-4.46c-0.97,0.22-1.92,0.44-2.84,0.65c-0.23,0.99-0.42,1.81-0.64,2.74
		c0.22,0.44,0.47,0.94,0.77,1.55C125.13,116.55,126.42,115.98,127.67,115.47z"/>
	<path d="M116.11,118.92c-1.16-0.22-2.21-0.42-3.38-0.65c-1.61,1.64-0.72,3.14-0.13,4.61c1.81,0.79,1.81,0.79,3.9,0.03
		C117.6,121.42,117.17,120.11,116.11,118.92z"/>
	<path d="M68.24,116.89c-0.26-1.12-0.49-2.31-0.83-3.47c-0.32-1.12-0.37-1.11-1.91-1.17c-2.09,2.55-1.14,4.95-0.18,7.34
		C67.08,119.54,67.08,119.54,68.24,116.89z"/>
	<path d="M115.48,106.6c-0.77,0-1.48,0-2.26,0c-1.46,2.57-1.38,3.78,0.25,5.57c1.36-0.44,3.18-0.17,3.59-2.12
		C117.37,108.55,116.69,107.41,115.48,106.6z"/>
	<path d="M124.96,104.59c1.24-0.56,1.58-1.61,0.95-3.04c-0.31-0.7-0.73-1.35-1.17-2.16c-1.26,0.84-2.54-1.14-3.65,0.35
		c0.1,0.82,0.17,1.59,0.31,2.35c0.09,0.48,0.22,0.98,0.45,1.41C122.5,104.71,123.78,105.13,124.96,104.59z"/>
	<path d="M70.57,110.38c-2.76,1.8-2.73,4.04-1.68,6.55c1,0.46,1.72-0.24,2.59-0.65c0.69-1.55,1.37-3.09,1-4.97
		C71.83,110.99,71.2,110.69,70.57,110.38z"/>
	<path d="M116.26,87.82c1.51-0.78,1.36-1.98,1.24-3.14c-0.14-1.38-0.94-2.2-2.27-2.53c-2.24,0.19-1.91,2.17-2.45,3.54
		C113.26,87.51,114.56,87.99,116.26,87.82z"/>
	<path d="M115.88,124.38c-1.62,0.27-3.49-0.04-3.96,2.12c-0.27,1.22-0.34,2.48,0.99,3.06c1.51-0.12,3.05,0.11,3.77-1.71
		C116.54,126.82,117.14,125.53,115.88,124.38z"/>
	<path d="M58.09,107.69l-0.02,0.01l-0.08,0.04c-0.16,0.09-0.35,0.2-0.58,0.3c-0.02,0.03-0.04,0.07-0.05,0.1
		c-0.31,0.61-0.61,1.19-0.96,1.75c0.3,0.06,0.63,0.11,1.03,0.15c1.25-1.07,1.75-1.81,1.6-2.9
		C58.72,107.34,58.41,107.51,58.09,107.69z"/>
	<path d="M47.74,132.74c-0.01,0-0.01-0.01-0.02-0.01c0,0,0,0,0,0C47.73,132.73,47.74,132.74,47.74,132.74
		C47.74,132.74,47.74,132.74,47.74,132.74z"/>
	<path d="M51.54,133.97c1.87-2.79,1.9-3.1,0.35-4.67c-1.59-0.27-3.25-0.74-4.14,1.22c0,0.79,0,1.5,0,2.22
		C48.88,133.61,50.07,134.29,51.54,133.97z"/>
	<path d="M52.62,40.33c-0.82-0.51-1.58-0.98-2.16-1.34c-0.75,0.24-1.22,0.39-1.9,0.61c-0.17,0.81-0.35,1.68-0.52,2.53
		c1.03,1.23,1.94,2.31,2.82,3.36C53.32,44.37,52.38,42.35,52.62,40.33z"/>
	<path d="M69.65,132.12c0.74-2.86-0.07-4.31-2.86-5.46c-1.23,0.58-1.26,1.81-1.67,2.96c0.52,0.97,1.06,1.96,1.62,3.01
		C67.98,132.42,68.86,132.26,69.65,132.12z"/>
	<path d="M81.14,79.17c0.33-0.13,0.68-0.27,1.01-0.4c0.34-0.77,0.07-1.36-0.74-2.83c-0.54,0.86-1.41,1.92-2.97,2.31
		c-0.11,0.32-0.22,0.65-0.33,0.98c0.3,0.35,0.62,0.56,1.05,0.71C79.83,79.68,80.49,79.42,81.14,79.17z"/>
	<path d="M55.4,111.4c-0.19,0.27-0.39,0.54-0.58,0.81c-0.11,0.15-0.22,0.3-0.33,0.45c-1,2.06-0.76,4.1,1.08,5.29
		c1.82,0.16,2.18-1.24,2.7-2.5c-0.54-1.38-1.07-2.7-1.58-4.01c-0.29-0.06-0.5-0.14-0.7-0.13C55.78,111.32,55.58,111.37,55.4,111.4z"
		/>
	<path d="M111.39,76c0,0.06-0.01,0.12-0.02,0.19c-0.03,0.24-0.07,0.46-0.11,0.67c0.4,0,0.81,0,1.25,0c0.18-0.27,0.32-0.53,0.42-0.79
		c-0.19,0.03-0.39,0.05-0.6,0.05C112.01,76.11,111.69,76.07,111.39,76z"/>
	<path d="M117.63,64.1c-0.09-0.38-0.19-0.77-0.28-1.15c-1.48-0.78-2.77-0.51-4.18,0.54c0.07,0.77,0.03,1.62,0.27,2.33
		C115.25,65.76,116.29,65.36,117.63,64.1z"/>
	<path d="M109.28,66.41c0.41-0.43,0.97-0.67,1.56-0.67c0.05,0,0.1,0,0.16,0.01c0.62,0.04,1.15,0.07,1.62,0.08
		c-0.29-0.56-0.71-1.09-1.27-1.55c-1.42,0.47-2.25,1.16-2.5,2.05c0.1,0.07,0.21,0.14,0.31,0.22
		C109.2,66.5,109.24,66.45,109.28,66.41z"/>
	<path d="M103.05,121.34c0-1.41,0-2.82,0-4.08c-0.64-0.83-1.31-0.8-2.04-0.53c-2.22,0.82-2.72,3.01-1.23,5.43
		C101.33,122.3,101.33,122.3,103.05,121.34z"/>
	<path d="M66.97,100.84c-0.4,0-0.76,0.12-1.16,0.68c-0.97,1.37-2.08,2.44-3.25,3.35c0,0.12,0,0.25,0,0.38
		c0.23,0.25,0.61,0.66,1.05,1.14c2.23-1.4,2.82-3.45,3.62-5.22c-0.04-0.12-0.08-0.22-0.13-0.32
		C67.05,100.85,67.01,100.84,66.97,100.84z"/>
	<path d="M90.83,114.69c-0.62,0.12-1.23,0.35-1.89,0.66c0.79,0.45,1.45,0.98,2,1.59C91.08,116.17,90.9,115.41,90.83,114.69z"/>
	<path d="M70.61,138.32c0.3-1.41,1.04-2.41,0.54-3.71c-0.33-0.44-0.71-0.95-1.15-1.54c-1.05,0.22-2.08,0.44-3.23,0.69
		c-0.88,1.96,0.71,3.16,1.29,4.71C68.92,138.42,69.69,138.38,70.61,138.32z"/>
	<path d="M71,105.36c-0.18,0.57-0.35,1.11-0.51,1.62c0.85,3.16,0.94,3.24,3.45,2.93c0.83-1.8,1.54-3.62,0.15-5.48
		C72.78,104.07,72.02,105.06,71,105.36z"/>
	<path d="M90.23,95.24c0.09,0.1,0.19,0.2,0.28,0.3c0.24,0.26,0.52,0.57,0.75,0.97c0.18,0.31,0.37,0.62,0.55,0.93
		c2.07,0.11,2.14-1.58,2.6-2.85c-0.93-2.8-0.93-2.8-3.15-2.87c-0.92,0.57-1.44,1.24-1.26,2.21C90.08,94.37,90.14,94.82,90.23,95.24z
		"/>
	<path d="M125.43,52.5c0.43,0,0.86,0,1.32,0l0.01-0.11c0.04-0.59,0.33-1.14,0.78-1.51c0.39-0.32,0.87-0.49,1.37-0.49
		c0.05,0,0.09,0.01,0.14,0.01c0.03-0.09,0.07-0.18,0.1-0.27c-0.71-2.37-2.71-1.82-4.18-2.28c-0.14,0.17-0.27,0.33-0.39,0.49
		c0.02,0.08,0.03,0.16,0.05,0.23c0.13,0.68,0.23,1.36,0.34,2.08c0.05,0.32,0.1,0.66,0.16,1.01c0.03,0.21,0.03,0.42,0,0.62
		C125.23,52.35,125.32,52.43,125.43,52.5z"/>
	<path d="M116.91,113.63c-1.01-1.01-2.28-0.42-3.34-0.52c-1.42,0.67-1.47,1.94-1.85,3.42c0.33,0.33,0.72,0.74,0.86,0.87
		C116.65,117.61,117.39,116.89,116.91,113.63z"/>
	<path d="M108.42,80.73c-0.05,0.45-0.03,0.94,0.09,1.51c0.75,0.48,1.68,1.08,2.6,1.67c0.67-0.48,1.18-0.83,1.6-1.14
		c0.06-1.7,0.34-3.24-1.08-4.48c-0.24,0-0.51,0-0.77,0C110.41,79.51,109.67,80.23,108.42,80.73z"/>
	<path d="M65.5,132.09c-0.23-0.82-0.7-1.58-1.13-2.33c-0.61-1.06-0.67-1.05-2.47-0.7c-0.25,0.63-0.52,1.36-0.75,1.94
		c1.23,3.04,1.42,3.28,3.39,4.22C65.99,134.41,65.83,133.21,65.5,132.09z"/>
	<path d="M35.84,82.41c-0.13-0.07-0.23-0.14-0.34-0.21c-0.1,1.23-0.01,2.44,1.19,3.43c0.36,0,0.73,0,1.1,0
		c-0.32-0.45-0.57-0.96-0.73-1.47C36.7,82.98,36.24,82.61,35.84,82.41z"/>
	<path d="M110.73,114.79c1.55-0.89,1.35-2.32,1-3.64c-0.32-1.18-1.3-1.65-2.56-1.51c-1.69,0.88-1.83,2.4-1.66,3.96
		C108.24,115.16,109.51,114.91,110.73,114.79z"/>
	<path d="M118.65,113.96c1.21,0.04,2.37,0.16,3.51-0.88c0.45-1.24,0.65-2.45-0.49-3.43c-1.21,0-2.35,0-3.41,0
		c-0.94,1.03-0.9,2.15-0.69,3.36C117.94,113.33,118.31,113.66,118.65,113.96z"/>
	<path d="M93.81,90.38c0.18-1.51,0.26-2.21,0.13-2.86c0,0,0,0,0,0c-0.47-0.29-0.77-0.65-0.93-0.85l-0.02-0.02
		c-0.29-0.32-0.49-0.73-0.55-1.16l-0.02-0.14c-1.5-0.2-2.08,0.36-2.86,2.46c0.19,0.62,0.39,1.3,0.58,1.94
		C91.22,90.71,92.46,90.45,93.81,90.38z"/>
	<path d="M18.52,82.98c-0.01,1.32-0.31,2.7,0.7,3.95c0.18,0,0.35,0,0.53,0c0.03-1.67,0.25-3.26,0.57-4.79
		C19.42,82.18,19.21,82.36,18.52,82.98z"/>
	<path d="M34.97,86.12c0.17,0.13,0.35,0.24,0.53,0.34c-0.13-2.02-0.73-2.75-2.26-2.96C33.49,84.6,34.04,85.44,34.97,86.12z"/>
	<path d="M106.38,65.47c0.53,0.05,1.02,0.16,1.47,0.33c1.31-1.45,1.35-2.48,0.29-4.46c-0.59-0.19-1.19-0.39-1.91-0.63
		c-0.09,0.05-0.18,0.1-0.27,0.15c0.59,1.43,0.65,3.03,0.12,4.59C106.18,65.45,106.28,65.46,106.38,65.47z"/>
	<path d="M103.11,123.92c-1.64-0.98-1.64-0.98-3.36-0.15c-0.72,1.59-0.72,1.59-0.44,4.26c0.75,0.26,1.47,0.52,2.16,0.76
		C103.84,127.67,103.06,125.65,103.11,123.92z"/>
	<path d="M81.98,87.53c0.94,0.73,1.84,1.49,2.71,2.26c0.01-0.01,0.03-0.02,0.04-0.02c0.28-0.72,0.61-1.59,0.92-2.37
		c-0.15-0.43-0.28-0.81-0.41-1.19L81.98,87.53z"/>
	<path d="M78.02,35.52c0.2-0.3,0.41-0.6,0.61-0.9c-0.28-0.83-0.46-1.36-0.65-1.94c-0.78-0.36-1.53-0.7-2.24-1.02
		c-1.11,1.36-1.57,3.49-1.29,5C75.61,36.25,76.8,35.87,78.02,35.52z"/>
	<path d="M84.89,125.63l-0.35,0.84c-0.27,0.65-0.84,1.12-1.51,1.28c1.05,1.16,2.31,0.89,3.13-0.71c0.09-0.18,0.16-0.35,0.22-0.52
		C85.78,126.44,85.24,126.12,84.89,125.63z"/>
	<path d="M95.27,117.84c0.49,1.15,0.94,1.37,2.63,1.2c0.92-1.48,2.09-2.95,0.4-4.89c-0.44-0.18-1.02-0.42-1.69-0.7
		C94.67,115.13,94.45,115.92,95.27,117.84z"/>
	<path d="M118.05,81.04c-0.41,1.96,0.19,3.5,2.08,4.66c0.51-0.04,1.14-0.09,1.77-0.13c0.72-1.7,0.6-3.17-0.45-4.54
		C119.13,80.35,119.13,80.35,118.05,81.04z"/>
	<path d="M79.57,25.28c-0.12-0.15-0.37-0.19-0.63-0.31c-0.5,0.2-1.02,0.41-1.65,0.67c-0.32,1.45-0.64,2.9-0.95,4.31
		c0.54,0.47,0.87,0.98,1.3,1.08c0.49,0.11,1.21,0.02,1.57-0.29C80.78,29.4,80.9,26.98,79.57,25.28z"/>
	<path d="M18.97,88.4c-0.86,2.14-0.49,3.53,0.99,4.11c0.08,0.03,0.16,0.05,0.24,0.07c-0.32-1.48-0.41-2.95-0.44-4.36
		C19.5,88.28,19.24,88.34,18.97,88.4z"/>
	<path d="M131.7,93.41c-1.07-0.54-2.22-0.93-3.28-1.36c-1.05,1.16-1.05,1.16-0.73,3.51c1.38,0.58,2.69,1.54,4.47,1.44
		C133.15,95.25,133.01,94.07,131.7,93.41z"/>
	<path d="M132.66,109.47c0.39-1.19-0.16-1.92-1.11-2.49c-1,0.19-1.98,0.38-3.09,0.59c-0.78,1.82-0.69,2.98,0.3,4.27
		C130.41,111.67,132.03,111.42,132.66,109.47z"/>
	<path d="M106.24,87.02C106.24,87.03,106.24,87.03,106.24,87.02c-0.16,0.5-0.35,1.05-0.6,1.6c-0.37,0.8-0.79,1.56-1.22,2.29
		c1.59,0.49,2.09,0.5,2.55,0.13c0.16-0.35,0.37-0.8,0.53-1.15c-0.24-0.94-0.45-1.75-0.67-2.6C106.63,87.2,106.44,87.11,106.24,87.02
		z"/>
	<path d="M61.2,109.17c1.02,1.16,0.6,3.35,2.83,4.1c0.59-1.13,1.13-2.18,1.64-3.17c-0.49-1.14-0.91-2.11-1.28-2.99
		C62.14,106.99,62.05,107.05,61.2,109.17z"/>
	<path d="M118.33,90.59c1.08,1.24,2.24,1.38,3.48,0.43c0.24-3.28,0.09-3.55-2.76-4.82C117.25,87.78,117.03,89.09,118.33,90.59z"/>
	<path d="M117.91,76.3c0.34,0.93,0.66,1.79,0.99,2.67c0.97,0.23,1.85,0.44,2.79,0.66c1.16-1.63,1.55-2.97,0.39-4.33
		c-0.62-0.18-1.16-0.38-1.72-0.48c-0.55-0.1-1.12-0.09-1.75-0.14C118.35,75.28,118.12,75.79,117.91,76.3z"/>
	<path d="M96.95,112.61c0.31,0.07,0.62,0.14,0.91,0.2c2.04-1.93,1.8-3.77-0.48-5.33c0.37,1,0.59,1.98,0.67,2.97
		c0.05,0.6-0.16,1.2-0.57,1.64C97.32,112.27,97.14,112.44,96.95,112.61z"/>
	<path d="M108.33,59.75c0.06-0.08,0.11-0.16,0.16-0.25c-0.1,0.01-0.2,0.02-0.3,0.02c-0.32,0-0.6-0.05-0.81-0.08
		c-0.05-0.01-0.1-0.02-0.14-0.02c-0.54-0.06-1.07-0.12-1.61-0.18C106.32,59.91,107.17,60.23,108.33,59.75z"/>
	<path d="M33.42,82.71c0.7-0.24,1.08-0.65,1.35-1.13c-0.69-0.77-0.94-1.68-1.08-2.24c-0.03-0.12-0.08-0.3-0.09-0.34
		c-0.31-0.66-0.27-1.43,0.11-2.05c-0.16,0-0.31,0-0.46,0c-0.22,2-0.34,3.75-0.17,5.46C33.19,82.51,33.31,82.61,33.42,82.71z"/>
	<path d="M131.84,104.99c0.16-1.91,0.16-1.91-0.97-3.1c-1.19,0.15-2.24,0.28-3.26,0.41c-0.92,1.06-0.52,2.2-0.46,3.25
		C128.95,106.58,130.17,106.42,131.84,104.99z"/>
	<path d="M45.07,54.61c0.03,0.16,0.06,0.33,0.1,0.48c0.17-0.25,0.32-0.53,0.46-0.86c0.4-0.97,0.9-1.85,1.47-2.65
		c-0.1-0.35-0.21-0.69-0.32-1.04c-0.18-0.58-0.73-0.88-1.43-0.61c-0.49,0.62-0.8,1.3-0.65,2.15C44.87,52.92,44.93,53.77,45.07,54.61
		z"/>
	<path d="M127.09,108.88c0.24-1.28-0.06-2.38-1.11-3.16c-0.78,0-1.49,0-2.15,0c-1.19,1.02-1.26,2.27-1.06,3.57
		C124.3,111,125.29,110.9,127.09,108.88z"/>
	<path d="M47.59,118.98c-0.31,0.02-0.64,0.04-0.99,0.05l-0.14,0c-0.18,0-0.52-0.01-0.91-0.09c-0.5,0.21-0.95,0.57-1.33,1.13
		c0.03,0.24,0.02,0.48,0,0.73c0.53,0.81,1.05,1.75,1.43,2.81c0.1,0.01,0.2,0.02,0.3,0.02c0.5,0.01,1,0,1.78,0
		C48.45,121.91,48.54,120.43,47.59,118.98z"/>
	<path d="M118.94,58.24c0.5-1.08,1.32-1.94,2.44-2.51c-0.86-0.38-1.65-0.18-2.54,0.56C118.81,57.08,118.84,57.72,118.94,58.24z"/>
	<path d="M101.7,104.11c-0.8-0.34-1.53-0.28-2.06,0.52c-0.95,1.44-0.54,3.65,0.91,4.98C103.62,108.64,103.92,107.23,101.7,104.11z"
		/>
	<path d="M121.34,108.28c0.93-1.39,0.75-2.62-0.19-3.87c-1.14,0-2.28,0-3.36,0c-1.12,1.6-1.07,2.02,0.41,3.87
		C119.14,108.28,120.14,108.28,121.34,108.28z"/>
	<path d="M57.98,37.53c2.05-2.38,2.49-4.03,1.59-6.24c-0.52-0.21-1.1-0.45-1.8-0.73C56.13,32.66,56.28,35.58,57.98,37.53z"/>
	<path d="M45.33,129.98c0.34,0.09,0.8,0.09,1.47,0.08c0.43-0.47,0.91-0.99,1.33-1.45c-0.11-1.94-0.53-3.21-1.31-3.77
		c-0.24,0.02-0.5,0.03-0.78,0.05c0.19,0.85,0.28,1.76,0.21,2.75C46.19,128.48,45.87,129.26,45.33,129.98z"/>
	<path d="M45.49,44.03c0.11-2.23-0.6-3.62-2.33-4.64c-1.24,0.71-1.24,0.71-1.98,2.39c0.39,0.98,0.36,2.24,1.7,2.87
		C43.67,44.65,44.62,44.98,45.49,44.03z"/>
	<path d="M113.6,77.26c0,0.82,0,1.54,0,2.36c2.01,2.41,2.95,2.29,4.17-0.41c-0.19-0.54-0.37-1.08-0.58-1.61
		c-0.34-0.84-0.84-1.53-1.85-1.6C114.36,75.93,113.94,76.61,113.6,77.26z"/>
	<path d="M89.84,130.52c1.36-0.98,1.22-2.06,0.76-3.34c-0.49-1.37-1.12-1.98-1.96-1.79c-0.12,0.15-0.26,0.3-0.43,0.48
		c-0.33,0.34-0.76,0.56-1.22,0.63c-0.13,1.52-0.2,2.94,1.03,4.02C88.71,130.52,89.34,130.52,89.84,130.52z"/>
	<path d="M80.73,126.81C80.73,126.8,80.73,126.8,80.73,126.81c-0.29-0.46-0.48-0.91-0.62-1.34c-0.14,0.04-0.31,0.07-0.51,0.09
		c-0.16,0.01-0.33,0.02-0.49,0.02c0,0-0.01,0-0.01,0c0.02,0.46,0.04,0.91,0.04,1.37C79.86,126.97,80.35,126.98,80.73,126.81z"/>
	<path d="M116.51,89.31c-1.37-0.57-2.69-1.11-3.7,0.11c-0.7,0.85-0.88,1.96-0.08,3.08c0.69,0.18,1.44,0.46,2.2,0.54
		c1.44,0.14,2.35-0.88,2.08-2.27C116.92,90.29,116.7,89.83,116.51,89.31z"/>
	<path d="M97.87,100.18c0.24,1.22,0.94,2.18,2.06,2.85c0.7,0,1.4,0,2.13,0c0.25-0.52,0.46-0.97,0.67-1.41
		c-0.2-0.52-0.36-1-0.58-1.45c-1.18-2.42-2.33-2.54-4.14-0.45C97.94,99.81,97.94,99.98,97.87,100.18z"/>
	<path d="M107.93,88.08c1.89,1.28,2.09,1.32,4.29,0.66c0-0.97,0-1.89,0-2.95c-0.33-0.3-0.75-0.67-1.1-0.99c-0.76,0-1.41,0-2.31,0
		c-0.3,0.26-0.72,0.63-0.99,0.86C107.87,86.74,107.9,87.45,107.93,88.08z"/>
	<path d="M89.52,92.01c0.36-1.61,0.05-2.98-1.31-4.01c-2,0.48-2.25,0.55-2.74,2.49c0.9,0.83,1.76,1.66,2.58,2.48
		C88.6,92.81,89.07,92.45,89.52,92.01z"/>
	<path d="M117.82,54.8c-0.59,0.04-1.16,0.07-1.7,0.11c-0.24,0.2-0.47,0.4-0.7,0.58c-0.02,0.01-0.03,0.03-0.05,0.04
		c0.58,0.17,1.05,0.31,1.47,0.44c0.87-0.15,1.43-0.54,1.73-1.22C118.32,54.77,118.06,54.79,117.82,54.8z"/>
	<path d="M19.54,74.27c0.73,0,1.51,0,2.22,0c0.3-0.31,0.54-0.59,0.75-0.87c0.12-1.17,0.06-2.39-0.17-3.66
		c-0.14-0.15-0.28-0.3-0.45-0.46c-0.85,0.37-1.67,0.73-2.57,1.12C19.65,71.77,18.22,72.98,19.54,74.27z"/>
	<path d="M74.81,119.18c0.14-0.45,0.34-0.87,0.59-1.26c-0.04-1.5-0.09-2.92-0.13-4.34c-0.01-0.43,0.03-0.88-0.08-1.29
		c-0.19-0.7-0.6-1.15-1.7-0.79c-0.07,1.96-1.26,3.69-0.84,5.79C73.46,117.77,73.75,119.14,74.81,119.18z"/>
	<path d="M46.62,33.76c1.47-1.24,1.97-3.05,2.86-4.85c-0.86-0.52-1.63-0.99-2.48-1.5C44.58,30.07,44.5,32.07,46.62,33.76z"/>
	<path d="M130.68,100.74c0.24-0.52,0.53-1.14,0.84-1.79c-1.33-1.43-2.95-1.74-4.48-2.06c-1.26,1.64-0.95,2.97,0.13,4.36
		C128.39,101.07,129.43,100.92,130.68,100.74z"/>
	<path d="M96.64,119.93c-0.48,0.45-0.98,0.91-1.37,1.28c-0.07,1.72-0.31,3.25,1.01,4.41c1.23,0.5,1.91-0.14,2.5-1.16
		C98.88,122.69,98.93,120.9,96.64,119.93z"/>
	<path d="M86.84,86.93c0.49,0,1.06,0,1.57,0c1.02-0.56,1.4-1.47,1.62-2.4c-0.03-0.09-0.05-0.17-0.08-0.25l-3.96,1.62
		C86.11,86.3,86.37,86.64,86.84,86.93z"/>
	<path d="M51.17,80.73c0.56-1.27,1.31-2.54,0.86-3.91c-0.07-0.13-0.13-0.26-0.2-0.39c-0.08-0.15-0.16-0.3-0.23-0.46
		c-0.09-0.12-0.18-0.25-0.29-0.37c-0.9,0.32-1.53,0.7-1.95,1.25c0.1,0.17,0.2,0.34,0.28,0.51C50.16,78.48,50.67,79.62,51.17,80.73z"
		/>
	<path d="M107.58,93.27c1.63,1.67,2.06,1.79,3.68,1c0.19-0.63,0.4-1.3,0.59-1.92c-0.25-0.74-0.48-1.4-0.77-2.23
		c-0.7-0.05-1.38-0.1-1.93-0.14C107.85,90.86,107.08,91.8,107.58,93.27z"/>
	<path d="M61.76,139.62c1.59-0.53,1.79-1.61,1.73-2.82c-0.07-1.48-0.9-2.33-2.42-2.8c-1.25,1.08-1.96,2.22-1.37,4.07
		C60.33,138.55,61.1,139.13,61.76,139.62z"/>
	<path d="M118.41,60.5c0.01-0.22,0.02-0.43,0.05-0.64c-0.04-0.83-0.46-1.67-0.7-2.56c-1.24,0.14-2.53-0.84-3.68,0.61
		c-0.11,2.64,1.12,3.84,3.77,3.62C118.15,61.19,118.33,60.85,118.41,60.5z"/>
	<path d="M138.24,94.19c-1.04-0.4-2.14-0.83-3.22-1.24c-0.54,0.32-0.96,0.56-1.31,0.77c-0.13,0.53-0.23,0.94-0.34,1.36
		c0.87,1.54,2.14,2.41,3.88,2.35C138.43,96.71,138.7,95.77,138.24,94.19z"/>
	<path d="M106.26,107.45c-0.37-0.02-0.8-0.05-1.23-0.05c-0.28,0-0.56,0.05-0.95,0.09c-0.99,1.27-0.5,2.7-0.49,4.21
		c0.78,0.23,1.51,0.44,2.12,0.63C107.93,110.44,108.06,109.05,106.26,107.45z"/>
	<path d="M37.42,87.01c0.47,0.01,0.97,0.02,1.48,0.03c-0.05-0.05-0.1-0.11-0.16-0.16c-0.66-0.62-1.47-0.55-2.05,0.04
		C36.94,86.97,37.18,87,37.42,87.01z"/>
	<path d="M128.06,46.82c0.32-1.01,0.59-1.87,0.84-2.64c-0.93-1.64-2.37-1.6-3.92-1.7c-0.36,0.64-0.71,1.25-1.12,1.98
		c0.56,0.84,1.09,1.65,1.56,2.35C126.38,46.82,127.09,46.82,128.06,46.82z"/>
	<path d="M48.82,49.68c0.39-0.34,0.8-0.65,1.23-0.93c0.15-0.69,0.3-1.35,0.44-1.98c-1.12-0.94-1.44-2.38-2.8-2.82
		c-0.11-0.04-0.25,0.02-0.48,0.05c-0.23,0.45-0.49,0.95-0.73,1.4c0.33,1.65,0.61,3.02,0.93,4.62C47.91,49.9,48.36,49.79,48.82,49.68
		z"/>
	<path d="M33.01,49.36c-0.23,0.85-0.48,1.58-0.62,2.33c-0.23,1.33,0.28,2.28,1.39,2.78c1.11,0.5,1.49,0.34,2.65-1.18
		C35.9,51.68,36.01,49.53,33.01,49.36z"/>
	<path d="M80.99,34.77c0.53-0.12,1.06-0.21,1.58-0.29c-0.06-0.68-0.17-1.32-0.34-1.88c-0.13-0.22-0.22-0.46-0.26-0.71
		c-0.29-0.66-0.67-1.19-1.13-1.56c-1.8,1.66-2.12,3.34-1.27,4.79C80.03,34.99,80.5,34.88,80.99,34.77z"/>
	<path d="M103.69,92.13c-0.05,0.09-0.11,0.18-0.16,0.26c-0.3,0.48-0.6,0.98-0.89,1.47c-0.07,0.12-0.15,0.23-0.24,0.33
		c0.14,0.92,0.87,1.58,2.14,1.95c0.77,0.22,1.53,0.35,2.16-0.35c0.51-0.56,0.51-1.5,0.08-2.42c-0.38-0.82-1.08-1.13-1.89-1.21
		C104.51,92.12,104.11,92.12,103.69,92.13z"/>
	<path d="M96.97,106.46c0.27,0,0.54,0,0.79,0c1.65-2.47,1.03-4.32-1.6-5.11c-0.63,0.48-1.05,0.9-1.27,1.35c0.5,0.86,1,1.73,1.48,2.6
		C96.6,105.69,96.79,106.08,96.97,106.46z"/>
	<path d="M110.6,127.98c-1.56-0.4-2.45,0.48-3.17,1.67c-0.69,1.15-0.53,2.18,0.6,3.29c0.85-0.25,1.78-0.52,2.97-0.87
		C110.81,130.49,112.1,129.15,110.6,127.98z"/>
	<path d="M136.23,101.31c0-0.83,0-1.45,0-2.27c-0.9-0.51-1.81-1.04-2.77-1.59c-0.51,0.31-0.81,0.49-1.03,0.63
		c-0.16,0.95-0.3,1.78-0.45,2.66c0.36,0.63,0.74,1.29,1.21,2.11C134.3,102.29,135.28,101.79,136.23,101.31z"/>
	<path d="M110.89,120.1c0.38-0.69,0.71-1.31,1.11-2.02c-0.5-0.8-0.98-1.57-1.42-2.27c-1.83-0.35-2.43,0.7-3.07,1.55
		c0,0.89,0,1.67,0,2.41C108.61,120.81,109.72,119.89,110.89,120.1z"/>
	<path d="M102.8,111.59c-0.53-1.07-0.58-1.09-2.29-0.93c-1.22,1.29-1,2.86-0.85,4.32c0.6,0.97,1.43,0.79,2.32,0.76
		C103.3,114.37,103.53,113.07,102.8,111.59z"/>
	<path d="M106.67,106.06c0.32-0.7,0.62-1.33,0.87-1.86c-1.14-2.52-2.38-3.01-4.36-1.79c-0.29,1.31-0.14,2.53,0.95,3.64
		C105.03,106.06,105.8,106.06,106.67,106.06z"/>
	<path d="M113.64,61.12c-1.01-2.59-2.57-3.29-3.87-1.83c-0.18,0.55-0.35,1.09-0.57,1.78c0.48,1.14,0.76,2.42,2.27,2.35
		C112.9,63.36,113.19,62.1,113.64,61.12z"/>
	<path d="M40.68,59.99c0.23-0.01,0.42-0.05,0.61-0.09c0.02-0.05,0.04-0.11,0.06-0.15l0.06-0.16c0.52-1.39,1.32-2.48,2.39-3.26
		c-0.92-1.13-2.2-1.46-3.38-2.05c-0.22,0.35-0.51,0.59-0.5,0.82c0.06,1.39,0.18,2.79,0.32,4.17C40.26,59.52,40.51,59.73,40.68,59.99
		z"/>
	<path d="M111.1,104.39c-0.65,0-1.35,0-1.98,0c-1.64,0.9-1.25,2.32-1.19,3.76c1.99,1.05,2.66,0.91,3.98-0.85
		C111.68,106.41,112.35,105.23,111.1,104.39z"/>
	<path d="M133.7,89.91c-0.38-0.41-0.76-0.82-1.14-1.23c-1.07,0-2.07,0-3.18,0c-0.52,1.03-0.52,1.03-0.38,2.23
		c1.22,0.68,2.51,1.4,3.85,2.14C134.22,92.28,133.52,91.02,133.7,89.91z"/>
	<path d="M91.37,126.75c1.41,1.57,1.82,1.63,3.45,0.5c0.24-1.75,0.14-3.4-1.66-4.59c-0.15,0.08-0.3,0.15-0.45,0.23
		c-0.01,0.08-0.01,0.16-0.02,0.24c-0.08,0.8-0.59,1.49-1.32,1.79C91.37,125.56,91.37,126.17,91.37,126.75z"/>
	<path d="M94.33,101.72c0.19-1.05-0.46-2-1.1-3.05c-0.22,0-0.46,0-0.7,0c0.01,0.01,0.02,0.03,0.03,0.04
		C93.15,99.7,93.74,100.71,94.33,101.72z"/>
	<path d="M106.17,113.07c-0.52,0.03-1.09,0.06-1.8,0.1c-0.52,1.5-0.65,3.01-0.78,4.56c0.55,0.26,1,0.46,1.55,0.71
		c0.6-0.32,1.22-0.64,1.91-1C107.06,115.75,107.49,114.27,106.17,113.07z"/>
	<path d="M59.11,134.45c1.85-0.98,1.82-2.71,1.73-4.45c-0.07-1.38-0.24-1.51-1.99-1.61C57.24,131.93,57.28,132.81,59.11,134.45z"/>
	<path d="M89.92,131.89c-0.65,0-1.28,0-1.92,0c-0.36,0.42-0.69,0.8-0.97,1.12c0,0.81,0,1.52,0,2.15c1.25,1.13,1.25,1.13,3.38,0.98
		C91.4,134.55,90.93,133.23,89.92,131.89z"/>
	<path d="M86.14,76.55c-0.06-0.96,0.16-1.98-0.09-2.84c-0.93,0.64-2.07,1.18-3.45,1.24c-0.01,0.46,0.03,1.01,0.11,1.69
		C83.79,77.55,84.88,77.59,86.14,76.55z"/>
	<path d="M78.9,18.57c-0.82,0.65-1.56,1.22-2.34,1.83c-0.34,1.84,0.43,2.94,1.81,3.87c0.6-0.32,1.15-0.6,1.72-0.9
		C79.75,21.68,80.84,19.78,78.9,18.57z"/>
	<path d="M63.07,114.64c-0.22-0.49-0.42-0.94-0.8-1.77c-0.63,0.24-1.29,0.3-1.61,0.66c-0.89,1.01-1.64,2.15-2.44,3.22
		c0.49,0.65,0.86,1.16,1.26,1.7C61.63,117.97,62.31,116.3,63.07,114.64z"/>
	<path d="M71.32,27.06c-0.1-0.83-0.5-1.33-1.43-1.14c-1.37,2.09-1.66,3.01-1.57,5.15c0.39,0.32,0.87,0.72,1.34,1.1
		c1.37-0.46,1.43-1.7,1.89-2.48C71.46,28.61,71.42,27.83,71.32,27.06z"/>
	<path d="M43.3,30.6c-1.1,0.91-1.48,2-1.16,3.29c0.31,1.23,0.69,2.44,1.12,3.9c1.62-0.96,1.95-2.35,1.88-3.79
		C45.06,32.67,44.77,31.31,43.3,30.6z"/>
	<path d="M66.06,125.43c0.13-1.27-0.02-2.57-0.04-3.96c-0.57-0.04-0.98-0.07-1.44-0.11c-1.4,2.22-1.44,4.54-0.97,7.13
		C65.1,127.76,65.92,126.78,66.06,125.43z"/>
	<path d="M52.18,82.82c0.28,0.13,0.58,0.28,0.88,0.42c0.13-0.64,0.18-1.36,0.14-2.06c-0.04-0.64-0.19-1.34-0.35-2.08l-0.09-0.42
		c0-0.02-0.01-0.04-0.02-0.06C52.12,79.36,51.98,80.67,52.18,82.82z"/>
	<path d="M21.44,66.46c-0.11-0.31-0.25-0.5-0.3-0.55c-0.39-0.4-0.76-0.81-1.11-1.21c-0.07,0.09-0.13,0.18-0.19,0.29
		c0,1.09,0,2.22,0,3.49c1.11,0.1,1.75,0.09,2.21-0.11C21.87,67.75,21.68,67.12,21.44,66.46z"/>
	<path d="M58.12,23.13c-0.34,0.4-0.63,0.59-0.69,0.83c-0.47,1.86,0.12,3.55,1.07,5.1c0.49,0.79,1.28,1.15,2.3,0.47
		C59.93,27.46,60.64,24.77,58.12,23.13z"/>
	<path d="M95.86,100.67c1.65-0.98,2.27-2.19,1.98-3.88c-0.6-0.72-1.05-1.58-2.21-1.61c-1.39,0.95-1.35,2.37-1.21,4.2
		C94.83,99.76,95.34,100.21,95.86,100.67z"/>
	<path d="M92.24,117.24c-0.23,0.12-0.45,0.35-0.62,0.6c0.71,1.13,1.09,2.46,1.12,4c0.74,0.08,1.52,0.19,2.08-0.76
		c0.22-1.37-0.09-2.71-1.03-4.1C93.29,117.05,92.69,117,92.24,117.24z"/>
	<path d="M43.97,117.98c-0.15-0.2-0.25-0.32-0.95-0.32c-0.21,0-0.43,0.01-0.64,0.02c-0.23,0.01-0.47,0.02-0.7,0.02
		c-0.63,0.01-0.87,0.11-1,0.23c-0.11,0.27-0.21,0.54-0.31,0.79c0.06,0.22,0.14,0.4,0.22,0.58c0.16-0.04,0.32-0.09,0.46-0.13
		c0.21-0.06,0.42-0.1,0.64-0.1c0.22,0,0.45,0.03,0.66,0.1c0.21,0.05,0.78,0.2,1.24,0.72c0.25-0.22,0.49-0.43,0.64-0.56
		c0.02-0.42,0.03-0.77,0.03-1.05C44.16,118.19,44.06,118.1,43.97,117.98z"/>
	<path d="M105.12,131.04c1.49-0.35,1.52-1.69,1.86-2.79c-0.7-2.48-0.7-2.48-2.49-2.4C102.76,128.78,102.9,129.83,105.12,131.04z"/>
	<path d="M122,39.14c-0.28,1.34-0.76,2.5-1.44,3.49c0.81,0.54,1.8,0.59,2.83,0.8c0.29-0.64,0.49-1.08,0.65-1.43
		C123.46,40.4,122.79,39.46,122,39.14z"/>
	<path d="M91.37,114.63c0,0.03,0,0.05,0,0.08c0.47,0.39,0.95,0.78,1.76,1.45c0.76-0.77,1.31-1.32,1.71-1.72c0-0.17,0-0.34,0-0.49
		c-0.98,0.41-2.07,0.63-3.27,0.66C91.5,114.61,91.43,114.62,91.37,114.63z"/>
	<path d="M29.76,114.39c0.09-0.29,0.15-0.61,0.15-0.86c-0.17,0.04-0.34,0.06-0.51,0.06c-0.41,0-0.82-0.12-1.18-0.35
		c-0.04-0.03-0.07-0.06-0.11-0.09c0.3,0.52,0.63,1.1,0.88,1.53c0.22,0.07,0.43,0.12,0.63,0.16
		C29.67,114.69,29.72,114.54,29.76,114.39z"/>
	<path d="M38.31,67.09c0.11-0.78,0.25-1.6,0.49-2.43c-0.27-0.2-0.58-0.35-0.95-0.46c-0.97,0.58-2.04,1.03-2.26,2.3
		c0.38,1.09,0.48,2.35,2.09,2.57c0.1-0.03,0.19-0.08,0.27-0.12C38.09,68.37,38.21,67.75,38.31,67.09z"/>
	<path d="M32.04,59.97c-0.17-0.94-0.8-1.53-1.7-1.76c-1.1-0.28-1.78,0.31-2.29,1.36c0.02,0.31,0.04,0.65,0.06,1.01
		c0.48,0.49,0.94,1.03,1.39,1.6c0.36,0.13,0.71,0.26,1.03,0.38C32.02,62,32.23,61.06,32.04,59.97z"/>
	<path d="M105.21,119.23c-1.66,1.01-1.84,2.49-1.59,4.29c0.45,0.34,0.93,0.72,1.37,1.05c1.54-0.96,2.15-1.9,2.1-3.12
		C107.04,120.32,106.46,119.59,105.21,119.23z"/>
	<path d="M107.04,134.92c0.06-0.99-0.23-1.84-0.99-2.58c-1.23-0.28-2.27-0.09-2.94,1.29c0.1,0.93-0.45,2.07,0.6,2.97
		C105.33,137.06,106.2,136.02,107.04,134.92c0.01,0,0.01-0.01,0.01-0.01c0,0,0,0,0-0.01L107.04,134.92z"/>
	<path d="M30.5,63.58c0.39,0.6,0.77,1.24,1.13,1.9c0.1-0.67-0.13-1.25-0.7-1.67C30.81,63.73,30.66,63.65,30.5,63.58z"/>
	<path d="M30.5,52.87c-0.72,0.27-1.49,0.55-2.36,0.87c0.22,1.22,0.38,2.11,0.53,2.97c0.91,0.23,1.72,0.44,2.49,0.64
		C32.81,55.62,32.6,54.19,30.5,52.87z"/>
	<path d="M101.82,97.17c0.03-0.9,0.11-1.75-0.08-2.47c-0.3,0.15-0.64,0.24-0.98,0.24c-0.34,0-0.69-0.08-1.01-0.25
		c-0.44-0.23-0.85-0.5-1.24-0.79c-0.03,0.02-0.06,0.03-0.09,0.05c0,1.16,0,2.13,0,3.15c0.81,0.28,1.48,0.51,2.13,0.74
		C100.99,97.6,101.37,97.4,101.82,97.17z"/>
	<path d="M88.36,74.75c0.74,0.16,1.27-0.11,1.7-0.6c0.02-0.34,0.06-0.68,0.14-1.03c0-0.01,0-0.03-0.01-0.04l-0.01-0.06l-0.1-0.57
		c-0.09-0.5-0.17-0.98-0.26-1.45c-0.16,0.05-0.34,0.09-0.52,0.11c-0.29,0.03-0.58,0.28-1.16,0.84c-0.11,0.11-0.23,0.21-0.34,0.32
		c-0.32,0.3-0.69,0.63-1.1,0.97C87.01,74.09,87.54,74.58,88.36,74.75z"/>
	<path d="M38.36,59.03c-0.98,0.27-1.89,0.65-2.45,1.83c0.03,0.53,0.07,1.22,0.11,2.01c0.96,0.21,1.84,0.41,2.74,0.61
		C40.35,61.12,40.22,60.22,38.36,59.03z"/>
	<path d="M112.15,97.41c1.15,0,2.23,0,3.3,0c0.77-1.05,1.27-2.03,0.07-3.04c-1.2,0-2.35,0-3.54,0
		C110.83,95.64,111.56,96.51,112.15,97.41z"/>
	<path d="M40.31,50.04c-0.94-0.68-1.84-1.17-3.02-0.97c-0.82,1.54-0.71,2.93,0.24,4.29c0.77,0,1.48,0,2.19,0
		C40.7,52.33,40.33,51.17,40.31,50.04z"/>
	<path d="M94.2,129.31c-0.97,0-1.82,0-2.79,0c0,1.03,0,1.94,0,2.83c1.26,1.21,2.29,1.41,3.19,0.64
		C95.58,131.95,95.5,131.11,94.2,129.31z"/>
	<path d="M82.66,131.96c-0.04-1.41,0.41-2.9-0.83-4.02c-1.62,0.12-1.81,0.24-1.86,1.43c-0.05,1.15-0.05,2.3,0.01,3.44
		c0.02,0.38,0.29,0.74,0.44,1.09C81.74,133.76,81.99,132.65,82.66,131.96z"/>
	<path d="M87.41,25.09c0.21-1.71-0.17-3.1-1.6-4.15c-1.75,2.34-1.89,3.74-0.6,5.9C86.39,26.63,86.89,25.83,87.41,25.09z"/>
	<path d="M101.89,129.63c-0.28,0-0.63-0.02-0.99,0.01c-0.42,0.03-0.83,0.11-1.47,0.21c-0.13,0.82-0.26,1.63-0.39,2.44
		c1.38,1.44,1.38,1.44,3.14,1.19C103.55,131.4,103.54,131.21,101.89,129.63z"/>
	<path d="M126.62,93.35c-1.83-2.22-2.52-2.42-4.8-1.29c0.05,0.63,0.09,1.19,0.13,1.67c2.64,1.4,3.57,1.71,4.19,1.32
		C126.29,94.51,126.46,93.9,126.62,93.35z"/>
	<path d="M84.97,29.24c0.16,0,0.31,0.01,0.47,0.02c-0.23-0.51-0.63-0.96-1.32-1.34c-0.31,0.55-0.62,1.08-0.92,1.61
		c0.14-0.06,0.29-0.12,0.45-0.15C84.11,29.29,84.55,29.24,84.97,29.24z"/>
	<path d="M24.17,57.6c0.84,0.45,1.64,0.98,2.4,1.58c0.29-0.17,0.61-0.45,1.1-0.88c0-0.69,0-1.4,0-2.17
		c-0.34-0.27-0.48-0.46-0.68-0.52c-0.68-0.21-1.37-0.37-2.01-0.54C24.3,55.93,24.07,56.45,24.17,57.6z"/>
	<path d="M79.88,139.61c0.29-0.72,0.6-1.51,0.89-2.22c-0.43-1.88-0.43-1.88-1.52-2.87c-0.59,0.43-1.21,0.89-1.81,1.33
		C77.28,139,77.75,139.7,79.88,139.61z"/>
	<path d="M46.88,42.18c1.15-1.62,0.8-3.05,0.41-4.4c-0.24-0.81-0.19-1.89-1.32-2.34c-0.93,0.95-1.01,2.18-1.43,3.46
		C45.35,39.88,45.59,41.32,46.88,42.18z"/>
	<path d="M40.5,33.31c-0.7,1.61-1.84,3.07-1.43,4.98c1,0.69,1.92,1.19,2.99,0.09C42.17,35.18,41.82,34.05,40.5,33.31z"/>
	<path d="M35.5,71.38c0.17,0.56,0.36,1.18,0.54,1.77c0.14-0.21,0.27-0.43,0.41-0.64c0.5-0.78,0.91-1.65,1.23-2.63
		C36.76,69.89,35.94,70.14,35.5,71.38z"/>
	<path d="M116.52,105.25c0.15-1.93,0.15-1.93-1.1-3.03c-1.08-0.11-2.2-0.27-2.91,0.87c-0.62,0.98-0.11,1.78,0.63,2.7
		C114.19,105.62,115.3,105.45,116.52,105.25z"/>
	<path d="M79.14,131.42c-0.05-1,0.44-2.27-1.32-2.7c-0.52,0.47-1.09,0.99-1.74,1.58c0,0.84,0,1.49,0,2.11
		c0.46,0.6,0.88,1.16,1.33,1.75C78.81,133.66,79.2,132.66,79.14,131.42z"/>
	<path d="M98.77,135.45c0-0.68,0-1.4,0-2.12c0.07-0.15,0.14-0.31,0.21-0.46c-0.41-0.29-0.8-0.62-1.25-0.85
		c-0.62-0.32-1.24-0.3-1.8,0.2c-0.86,0.77-0.95,2.45-0.16,3.34C96.57,136.44,97.6,136.42,98.77,135.45z"/>
	<path d="M85.28,128.88c-0.57,0.43-1.23,0.94-1.73,1.32c-0.34,1.69,0.37,2.76,1.15,3.83c0.39,0,0.74,0,1.23,0
		c0.35-0.85,0.7-1.7,1.03-2.51C86.58,130.55,86.64,129.4,85.28,128.88z"/>
	<path d="M72.55,36.34c1.94-0.76,1.07-2.61,2.1-4.12c-0.62-0.61-1.13-1.11-1.61-1.58c-2.37,1.15-1.74,2.99-1.75,4.73
		C71.75,35.72,72.18,36.05,72.55,36.34z"/>
	<path d="M105.39,100.84c0.46-0.59,0.91-1.16,1.26-1.61c-0.28-0.71-0.46-1.17-0.64-1.63c-1.66-0.85-1.68-0.85-3.63-0.39
		C102.16,99.41,102.65,100.07,105.39,100.84z"/>
	<path d="M91.79,134.26c-0.8,1-0.51,2.11-0.33,3.22c1.12,0.77,2.16,0.78,3.28-0.05C95.01,134.39,94.38,133.74,91.79,134.26z"/>
	<path d="M60.73,107.54c0.41-0.41,0.76-0.75,1.03-1.01c0-0.39,0-0.74,0-1.07c-0.61,0.43-1.23,0.82-1.85,1.19
		C60.11,106.95,60.38,107.25,60.73,107.54z"/>
	<path d="M35.14,56.45c-0.43-0.74-1.39-0.92-1.97-0.39c-0.66,0.6-0.96,2.36-0.56,3.23c0.42,0.9,1.01,1.11,2.61,0.84
		c0.22-0.45,0.46-0.96,0.7-1.44c-0.16-0.59-0.24-0.94-0.36-1.27C35.44,57.1,35.32,56.76,35.14,56.45z"/>
	<path d="M95.94,94.02c0.58,0.5,1.15,0.49,1.81,0.16c0.08-0.24,0.16-0.48,0.24-0.72c-1.04-0.91-1.86-2.05-2.44-3.4
		c-0.17-0.01-0.36-0.02-0.57-0.03C94.19,91.58,94.54,92.81,95.94,94.02z"/>
	<path d="M37.05,40.33c-0.76,0.18-1.46,0.34-2.15,0.5c-1.04,1.81-1.03,2.44,0.16,3.92c0.99-0.31,2.01-0.61,2.66-1.75
		C37.62,42.18,38.04,41.2,37.05,40.33z"/>
	<path d="M59.17,109.4c-0.45,0.8-0.89,1.61-1.48,2.67c0.17,0.49,0.42,1.21,0.69,2c1.94-0.37,2.51-1.72,2.98-3.19
		c-0.25-0.7-0.49-1.37-0.7-1.98C59.9,108.51,59.48,108.82,59.17,109.4z"/>
	<path d="M33.56,75.99c0.34-0.2,0.73-0.43,1.14-0.67c0.12-0.2,0.24-0.4,0.37-0.59c0.2-1.44,0.04-2.56-1.64-3.15
		c0.11,1.36,0.09,2.81-0.08,4.38C33.42,75.97,33.49,75.99,33.56,75.99z"/>
	<path d="M117.08,94.52c0.77,1.37,1.97,1.31,3.25,1.11c0.59-0.89,1.07-1.76,0.26-2.78c-0.94-0.56-1.92-0.99-3-0.56
		C116.82,92.96,117.01,93.76,117.08,94.52z"/>
	<path d="M121.71,95.06c-0.34,0.51-0.58,0.85-0.76,1.12c0.44,2.58,2.47,1.98,3.97,2.34c0.87-1.08,0.87-1.08,0.63-2.34
		C124.29,95.81,123.01,95.44,121.71,95.06z"/>
	<path d="M108.86,99.01c0.96,0.38,1.2,0.29,2.13-0.81c-0.43-1.12-0.3-2.63-2.16-3c-0.51,0.26-1.13,0.59-1.67,0.87
		C107.07,97.84,107.46,98.47,108.86,99.01z"/>
	<path d="M95.23,128.29c0.95,2.87,1.74,3.29,3.46,1.99c0.19-2.48,0.09-2.71-1.92-3.7C96.2,127.22,95.68,127.79,95.23,128.29z"/>
	<path d="M87.41,138.76c-0.14,1.42,0.55,2.39,1.59,3.12c1.82-0.48,1.34-2.11,1.94-3.17c-0.35-0.57-0.67-1.1-0.98-1.61
		C88.35,137.67,88.35,137.67,87.41,138.76z"/>
	<path d="M34.81,65.58c1.13-2.14,0.86-3.05-1.14-4.33c-1.06,0.51-1.46,1.45-1.66,2.62c0.35,0.57,0.72,1.16,1.05,1.71
		C33.73,65.58,34.23,65.58,34.81,65.58z"/>
	<path d="M108.59,103.01c1.01,0,1.85,0,2.7,0c0.4-1.31-0.19-2.14-0.98-2.96c-1,0-1.99,0-3.14,0
		C106.67,101.77,107.77,102.39,108.59,103.01z"/>
	<path d="M33.55,70.82c0.63,0.12,1.14-0.08,1.55-0.8c-0.05-0.98,0.37-2.16-0.68-3.19c-0.61,0.03-1.25,0.07-1.98,0.11
		c-0.02,0.04-0.04,0.08-0.05,0.12c0.46,1.15,0.78,2.38,0.95,3.71C33.4,70.78,33.47,70.8,33.55,70.82z"/>
	<path d="M78.28,127.82c-0.02-0.88,0.22-1.71-0.19-2.36c-0.4-0.08-0.78-0.2-1.12-0.37c-0.49,0.16-0.98,0.33-1.51,0.51
		c-0.26,0.6-0.5,1.18-0.76,1.79c0.31,0.61,0.59,1.17,0.94,1.89C76.63,128.73,77.47,128.27,78.28,127.82z"/>
	<path d="M83.91,25.81c-0.29-0.53-0.63-1.13-1.07-1.92c-0.7,0.32-1.55,0.43-1.72,0.83c-0.27,0.67-0.28,1.56-0.08,2.27
		c0.2,0.72,0.02,1.87,1.32,1.93C83.4,28.2,83.46,26.98,83.91,25.81z"/>
	<path d="M119.62,99.53c0.36-0.44,0.68-0.81,0.9-1.08c-0.33-2.11-1.91-1.66-3.54-1.89c-0.27,0.59-0.65,1.13-0.73,1.71
		c-0.06,0.41,0.29,0.88,0.43,1.26C117.78,99.53,118.7,99.53,119.62,99.53z"/>
	<path d="M31.04,48.67c-1.95-0.06-2.05,0-2.85,1.74c0.93,1.95,1.13,2.02,3.35,1.03C31.83,50.35,32.09,49.38,31.04,48.67z"/>
	<path d="M87.11,29.72c0-0.01,0.01-0.01,0.01-0.02c0.24-0.51,0.68-0.9,1.2-1.09c-0.06-0.45-0.15-0.9-0.25-1.35
		c-0.05-0.21-0.41-0.34-0.7-0.57c-0.47,0.42-0.88,0.79-1.23,1.11c-0.07,0.55-0.07,1.07-0.02,1.58
		C86.46,29.45,86.79,29.57,87.11,29.72z"/>
	<path d="M27.58,53.58c0.13-1.5,0.13-1.5-0.69-2.81c-0.61,0-1.25,0-1.93,0c-0.12,0.16-0.27,0.31-0.38,0.49
		c-0.11,0.18-0.18,0.39-0.26,0.59C25.11,54.41,25.85,54.8,27.58,53.58z"/>
	<path d="M32.55,42.9c-0.96,1.44-0.46,2.83-0.5,4.14c-0.02,0.64,0.37,1.12,1.07,1.12c0.69,0,1.03-0.48,1.11-1.12
		C34.41,45.46,34.16,44.02,32.55,42.9z"/>
	<path d="M39.42,57.3c-0.02-2.16-0.29-2.47-2.49-2.62c-0.79,1.22-0.8,2.31-0.03,3.37C38.3,58.12,38.3,58.12,39.42,57.3z"/>
	<path d="M64.31,119.19c-0.27-0.94-0.1-2.22-1.62-2.67c-0.48,0.86-0.94,1.7-1.4,2.52c0.68,0.87,1.25,1.59,1.82,2.32
		C64.38,120.24,64.57,120.08,64.31,119.19z"/>
	<path d="M89.21,25.53c0.44-0.39,1.09-0.74,1.42-1.28c0.58-0.96,0.44-2.03,0.09-3.18c-1.28-0.07-1.75,0.9-2.48,1.67
		C88.39,23.63,87.84,24.72,89.21,25.53z"/>
	<path d="M119.45,103.13c0.28-0.01,0.56-0.06,0.98-0.12c0.24-1.04,0.37-1.88-0.49-2.49c-1.21-0.35-2.21,0.2-3.46,0.71
		c0.31,0.69,0.58,1.3,0.85,1.91C118.16,103.13,118.81,103.14,119.45,103.13z"/>
	<path d="M39.31,43.82c-1.04,0.77-1.37,1.86-1.13,3.3c0.44,0.42,0.95,0.91,1.56,1.49c0.86-1.3,0.87-2.68,0.96-3.98
		C40.73,44.04,40.1,43.68,39.31,43.82z"/>
	<path d="M126.64,38.42c-0.57-0.89-1.23-1.47-2.47-1.09c-0.25,2.67-0.06,3.12,1.72,4.18C126.91,40.65,126.78,39.52,126.64,38.42z"/>
	<path d="M43.31,50.17c-0.52,0.17-1.09,0.37-1.67,0.56c0,0.96,0,1.74,0,2.63c0.57,0.36,1.15,0.72,1.69,1.07
		C44.64,52.83,44.63,52.18,43.31,50.17z"/>
	<path d="M115.58,99.66c-0.92-1.54-2.37-0.81-3.5-0.97c-0.8,0.72-0.86,1.34-0.18,2.05c0.39,0.12,0.85,0.29,1.33,0.42
		C114.73,101.56,114.95,101.41,115.58,99.66z"/>
	<path d="M100.97,25.45c1.13-0.53,1.5-1.45,1.78-2.65c-0.4-0.44-0.86-0.94-1.47-1.61c-0.68,0.55-1.21,0.98-1.61,1.3
		C99.45,23.88,99.63,24.88,100.97,25.45z"/>
	<path d="M83.91,136.38c0.25-1.2,0.02-2.18-1.29-2.76c-1.27,0.59-1.4,1.7-1.67,2.75c0.2,0.37,0.4,0.75,0.56,1.05
		C82.76,137.87,83.38,137.22,83.91,136.38z"/>
	<path d="M85.74,139.71c0.97-0.56,1.41-1.49,1.22-2.51c-0.15-0.84-0.41-1.9-1.83-1.89C83.94,137.46,84.05,138.23,85.74,139.71z"/>
	<path d="M74.85,103.31c0.16,1.63,0.63,2.3,1.67,2.4c0.24-0.17,0.53-0.38,0.84-0.6C76.52,104.49,75.68,103.88,74.85,103.31z"/>
	<path d="M99.1,26.12c0.28-2.77-0.04-3.56-1.79-4.18c-0.27,0.45-0.55,0.93-0.78,1.32C97.43,26.28,97.48,26.33,99.1,26.12z"/>
	<path d="M94.45,22.13c-0.06-1.09-0.47-1.92-1.66-2.22c-0.33,0.2-0.69,0.41-1.04,0.61c0,0.73,0,1.37,0,2.13
		c0.44,0.38,0.9,0.78,1.36,1.17C94.33,23.55,94.49,22.91,94.45,22.13z"/>
	<path d="M56.7,136.2c0.95,0.19,1.4-0.24,1.57-1.23c-0.46-0.85-0.97-1.78-1.63-2.98c-0.68,0.42-1.08,0.67-1.56,0.96
		C55.68,134.1,55.57,135.46,56.7,136.2z"/>
	<path d="M95.17,27.14c0.46-0.43,0.98-0.65,1.44-0.77c0.11-1.11-0.11-2.05-1.41-2.77c-1.02,1.06-1.36,2.16-1.08,3.54
		C94.48,27.14,94.83,27.14,95.17,27.14z"/>
	<path d="M37.2,45.75c-0.06-0.23-0.35-0.41-0.57-0.65c-0.52,0.34-0.99,0.65-1.59,1.04c0.17,1.2-0.46,2.41,0.76,3.27
		C36.98,48.36,37.59,47.23,37.2,45.75z"/>
	<path d="M93.08,27.93c0.79-0.79,0.44-1.74,0.45-2.62c-0.54-0.66-0.96-1.39-1.95-1.07C91.16,26.28,91.38,26.83,93.08,27.93z"/>
	<path d="M40.17,42.82c0.78-0.72,0.74-1.53,0.45-2.26c-0.15-0.37-0.69-0.58-1.22-0.99c-0.6,0.5-1.08,0.89-1.65,1.36
		C38.55,42.3,38.95,43.24,40.17,42.82z"/>
	<path d="M28.09,46.75c0.98,1.09,0.98,1.09,2.61,0.65c0-0.67,0-1.36,0-2.26c-0.8,0-1.41,0-2.04,0
		C28.44,45.76,28.25,46.28,28.09,46.75z"/>
	<path d="M83.29,142.01c0.41-0.66,0.77-1.24,1.07-1.74c-0.33-1.12-0.84-1.82-2.03-1.75c-0.18,0.17-0.38,0.37-0.71,0.68
		C82.04,140.26,82.2,141.26,83.29,142.01z"/>
	<path d="M41.74,45.63c-0.94,0.79-0.53,1.86-0.5,2.79c0.01,0.37,0.48,0.72,0.76,1.11C43.47,48.06,43.36,46.94,41.74,45.63z"/>
	<path d="M90.75,28.36c0.21,0,0.41,0.01,0.62,0.01c0.03-0.21,0.03-0.44,0.03-0.67c0-0.64-0.22-1.19-0.84-1.37
		c-0.77-0.22-1.21,0.22-1.45,0.96c0.09,0.42,0.2,0.8,0.4,1.12C89.91,28.38,90.31,28.36,90.75,28.36z"/>
	<path d="M45.9,48.31c0.35-1.04,0.05-1.93-0.7-2.85c-1.26,0.59-1.36,0.84-0.99,2.1C44.51,48.55,44.58,48.58,45.9,48.31z"/>
	<path d="M40.1,129.92c0.08,0.01,0.17,0.02,0.25,0.03c0.25-0.98,0.51-1.97,0.8-3.11c0.45-0.07,0.97-0.14,1.52-0.22
		c0.3,0.85,0.54,1.56,0.79,2.26c0.39-0.44,0.59-0.9,0.63-1.37c0.16-2.42-0.83-4.35-2.1-6.14c-0.05-0.07-0.17-0.07-0.31-0.12
		c-1.55,0.48-3.08,0.74-4.41-0.87c-0.4-0.48-0.89-0.8-0.73-1.54c0.16-0.76,0.51-1.34,1.27-1.48c0.34-0.07,0.77-0.21,0.97-0.5
		c0.76-1.07,1.8-1.29,2.87-1.3c1.41-0.02,2.9-0.34,4.03,1.12c0.17,0.21,0.61,0.21,0.92,0.2c0.69-0.01,1.39-0.1,2.08-0.11
		c0.95-0.02,1.5-0.57,1.87-1.57c0.3-0.82,0.71-1.61,1.17-2.32c0.86-1.32,1.84-2.54,2.7-3.86c0.54-0.83,0.96-1.76,1.53-2.83
		c-0.03,0,0.2,0.02,0.42-0.04c0.22-0.06,0.43-0.19,0.64-0.31c2.58-1.46,5.16-2.91,7.04-5.55c1.18-1.65,2.77-1.85,4.42-1.35
		c1.83,0.55,3.63,1.26,5.44,1.88c0.71,0.24,1.51,0.28,2.12,0.7c1.9,1.3,3.74,2.73,5.58,4.11c-0.05,0.94,0.21,1.79-0.33,2.52
		c-0.89-0.28-1.24-1.73-2.3-1.3c-0.9,0.36-1.37,1.27-1.75,2.15c0.62,0.16,1.15,0.3,1.87,0.49c-0.46,0.69-0.75,1.14-1.09,1.64
		c0.18,0.4,0.27,0.86,0.51,1.13c0.64,0.67,0.58,1.51,0.58,2.36c0,1.62-0.46,2.96-1.55,4.06c-0.89,0.9-1.02,2.24-0.6,3.4
		c0.4,1.12,1.43,1.42,2.47,1.34c0.14-0.01,0.27-0.06,0.41-0.1c0.26-0.37,0.52-0.73,0.77-1.09c1.48,0.4,1.12,2.16,1.93,3.43
		c0.38-0.92,0.66-1.6,1.08-2.62c0.53-0.25,1.24-0.58,1.92-0.9c0.99,0.34,0.66,1.54,1.1,2.25c0.63-0.65,0.63-0.65,0.83-1.92
		c0.22-1.35,1.24-1.79,2.14-0.89c0.33,0.33,0.55,0.81,0.91,1.36c0.27-2.84-0.72-4.68-2.93-5.83c-1.04,0.05-2.19,0.11-3.35,0.17
		c-0.22-0.51-0.45-1.01-0.71-1.6c1.21-0.61,2.34-1.19,3.47-1.77c1.43-0.74,2.85-1.41,4.49-1.45c1.56-0.04,3.12-0.46,4.39-1.83
		c-0.13-1.58-0.7-2.98-1.42-4.26c-1.64-2.95-3.38-5.83-5.09-8.74c-0.13-0.22-0.3-0.41-0.47-0.59c-3.23-3.45-6.58-6.72-10.39-9.31
		c-0.28-0.19-0.53-0.46-0.86-0.75c5.47-2.23,10.77-4.39,16.17-6.59c0.25,1.63,0.48,3.14,0.73,4.81c0.09,0.09,0.28,0.36,0.51,0.51
		c1.16,0.73,1.8,1.9,2.32,3.24c0.66,1.69,1.73,2.99,3.36,3.85c0.99-1.69,2.09-3.28,2.9-5.05c0.62-1.34,0.79-2.94,1.85-3.91
		c-0.7-2.53-0.7-2.53,1.01-4.74c2.01-0.5,2.36-0.91,2.7-3.2c-0.27-0.39-0.58-0.83-0.99-1.42c0.94-0.4,1.75-0.74,2.48-1.05
		c1.52,0.82,2.21,0.78,3.16-0.52c1.64-2.24,3.78-2.73,6.13-2.6c0.48,0.03,0.98,0.28,1.4,0.57c1.28,0.86,2.53,1.76,3.78,2.68
		c0.76,0.56,1.51,0.59,2.37,0.29c2.12-0.74,13.87-5.03,16.06-5.74c0.52,0.55,1.06,1.11,1.71,1.8c1.92-2.95,3.77-5.81,5.8-8.93
		c-0.52,0.2-3.84,1.73-5.27,2.36c-2.29,1.01-14.18,5.69-16.51,6.58c-1.38,0.53-2.81,0.54-4.03-0.56c-0.11-0.85,0.08-1.48,0.61-1.93
		c0.56-0.47,1.1-1,1.72-1.32c1.6-0.83,9.42-4.77,11.06-5.48c0.48-0.21,1.08-0.24,1.59-0.15c0.75,0.14,1.32-0.02,1.92-0.58
		c1.4-1.31,4.8-4.33,5.25-4.79c-2.79,0.28-5.31,0.54-7.87,0.8c-0.45,1.45-1.32,2.33-2.56,2.72c-2.01,0.62-10.2,4.42-12.22,5.03
		c-0.48,0.15-1.01,0.1-1.21-0.46c-0.16-0.43-0.17-1.03-0.05-1.48c0.27-0.96,0.99-1.49,1.74-1.96c2.83-1.75,11.83-5.91,14.87-7.04
		c1.44-0.54,2.88-1.06,4.32-1.59c0-0.08-6.34-1.03-9.58-1.43c-0.06,0.79-0.11,1.5-0.17,2.25c-0.45,0.18-6.84,3.2-7.23,3.37
		c-1.72,0.78-3.45,1.53-5.15,2.37c-1.15,0.57-1.78,1.59-1.82,3.11c-0.03,1.27-0.21,2.53-0.33,3.78c-2.83,3.09-4.56,3.71-9.38,3.36
		c-0.65,0.68-0.88,2.14-2.3,2.01c-0.11-1.58-1.12-2.18-2.35-2.3c-1.18-0.11-1.38,1.19-1.81,2.01c-0.15,0.06-0.23,0.11-0.32,0.13
		c-0.14,0.03-0.28,0.04-0.41,0.04c-1.25,0-1.68-0.78-1.12-2.06c0.31-0.71,0.72-1.37,1.09-2.04c1.15-2.07,0.82-4.23-0.89-5.73
		c-0.26-0.23-0.53-0.44-0.78-0.67c-0.9-0.82-0.91-0.92-0.31-2.5c0.5,0,1.09-0.04,1.67,0.01c1.38,0.13,2.76,0.31,4.15,0.45
		c0.36,0.04,0.86,0.19,1.07-0.02c0.93-0.91,2.18-0.9,3.16-1.56c1.14-0.77,2.19-1.74,3.57-2.85c2.35-0.26,5.12-0.18,7.74-0.83
		c-0.18-1.12-0.32-2.08-0.49-3.03c-0.2-1.06-0.53-2.07-1.31-2.74c-1.03-0.89-2.11-1.72-3.17-2.57c-0.24-0.19-0.49-0.38-0.83-0.65
		c1.84-1.28,2.61-3.14,2.87-5.36c0.1-0.84,0.22-1.68,0.34-2.52c0.34-2.53-1.81-4.97-4.1-4.58c0.26,0.75,0.53,1.48,0.76,2.22
		c0.35,1.12,0.34,2.27-0.31,3.2c-0.87,1.23-1.87,2.34-2.83,3.48c-0.09,0.11-0.28,0.11-0.58,0.22c0.13-0.51,0.2-0.81,0.28-1.1
		c0.52-1.96,0.83-3.93,0.31-5.96c-0.6-2.32-1.65-4.37-3.4-5.67c-1.88-1.39-4.07-1.19-6.2-0.75c-0.07,0.01-0.11,0.16-0.17,0.24
		c0.03,0.1,0.04,0.23,0.1,0.28c0.15,0.12,0.31,0.25,0.48,0.29c1.52,0.36,2.35,1.73,2.63,3.18c0.41,2.14,0.15,4.35-0.9,6.3
		c-0.3,0.56-0.71,1.04-1.51,1.12c0.18-0.62,0.38-1.05,0.42-1.5c0.1-0.94,0.28-1.92,0.13-2.82c-0.44-2.6-3.05-4.97-5.34-4.98
		c-0.92,0-1.84,0.09-2.77,0.15c-0.61,0.04-1.01,0.34-1.25,1.26c1.94,0.06,3.41,0.92,3.73,3.12c0.17,1.18,0.51,2.67-0.8,3.57
		c-0.18-0.58-0.24-1.14-0.5-1.56c-1.36-2.24-2.98-4.08-5.56-4.21c-1.29-0.06-2.58-0.18-3.94,0.02c0.11,0.19,0.13,0.26,0.17,0.27
		c0.12,0.06,0.25,0.14,0.38,0.16c1.71,0.2,2.3,1.77,2.98,3.21c0.35,0.76,0.08,1.8-0.46,2.12c-0.53,0.31-0.86,0.06-1.42-0.85
		c-0.34-0.54-0.74-1.07-1.21-1.46c-0.86-0.72-1.81-1.29-2.67-1.99c-0.8-0.64-1.63-0.81-2.75-0.58c0.39,0.46,0.71,0.77,0.95,1.13
		c0.4,0.58,0.83,1.15,1.1,1.81c0.44,1.04,0.14,1.61-0.83,1.79c-1.28,0.23-2.58,0.36-3.85,0.65c-8,1.8-15.35,5.18-21.41,11.68
		c-0.2,0.21-0.44,0.48-0.68,0.51c-1.37,0.18-2.75,0.29-4.12,0.45c-1.01,0.12-2.1,0.03-3,0.46c-2.07,0.99-3.64,2.76-4.61,5.09
		c-0.53,1.28-1.26,2.2-2.3,2.85c-0.9,0.56-1.5,1.38-1.9,2.45c-0.23,0.63-0.47,1.33-0.89,1.78c-1.34,1.44-1.82,3.28-2.1,5.26
		c-0.32,2.28-0.96,4.42-2.18,6.3c-0.9,1.39-1.76,2.83-2.72,4.37c0.33,0.7,0.29,1.9,1.28,2.42c1.17,0.61,1.86,1.63,2.29,3.02
		c0.2,0.64,0.68,1.31,1.19,1.63c1.86,1.17,3.79,2.2,5.69,3.3c0.26,0.15,0.47,0.41,0.87,0.76c-3.32,0-6.42,0.06-9.51-0.03
		c-1.3-0.04-2.56-0.49-3.68-1.31c-1.43-1.06-2.37-2.5-2.67-4.46c-0.38-2.5-0.12-4.98,0.16-7.46c0.36-3.14,0.17-6.29-1.21-8.99
		c-2.01-3.93-4.83-6.99-8.81-8.29c-0.49-0.16-0.98-0.37-1.48-0.43c-1.45-0.19-2.59-1.07-3.69-2.07c-0.23-0.21-0.47-0.4-0.83-0.71
		c0.09,2.48,1.36,3.77,2.94,4.65c1.85,1.03,3.13,2.8,4.61,4.32c0.33,0.34,0.6,0.83,0.78,1.31c1.22,3.31,1.75,6.66,0.77,10.24
		c-1.04,3.78-2.38,7.47-2.33,11.58c0.02,1.83,0.09,3.6,0.59,5.33c0.33,1.16,0.72,2.3,1.16,3.41c0.8,2.07,2.12,3.57,3.92,4.53
		c0.95,0.51,1.86,1.09,2.84,1.67c-0.84,0.75-1.74,0.66-2.61,0.73c-1.08,0.09-1.27,0.35-1.29,1.59c-0.01,0.37-0.01,0.75,0.05,1.11
		c0.4,2.22,1.81,2.82,3.34,1.43c0.07-0.07,0.14-0.14,0.21-0.2c1.88-1.64,3.89-2.61,6.3-1.79c0.53,0.18,1.1,0.18,1.64,0.33
		c0.34,0.09,0.65,0.3,0.96,0.45c-0.6,2.03-2.23,4.42-3.37,4.95c-0.72-1.36-1.82-2.18-3.14-2.65c-1.76-0.63-3.32,0.87-3.12,3.02
		c1.54-0.52,2.42-0.03,2.64,1.63c0.09,0.65-0.02,1.39-0.22,2.01c-0.28,0.86-0.42,1.61-0.3,2.58c0.22,1.82,0.22,3.53-1.46,4.9
		c-1.58,1.29-2.08,3.52-2.09,5.85c1.2,0.24,2.17,1.1,3.43,0.6c0.52-0.2,1.06,0.29,1.22,1.03c0.07,0.33,0.12,0.66,0.2,1.08
		c0.89-0.51,1.35-1.16,1.27-2.2c-0.06-0.71,0.11-1.26,0.45-1.4c1.71,0.1,3.15,0.18,4.79,0.28C39.53,128.35,39.81,129.13,40.1,129.92
		z M74.99,82.05c0.46-1.72,0.99-3.41,1.61-5.06c0.15-0.39,0.7-0.74,1.1-0.8c0.92-0.14,1.46-0.7,1.97-1.54
		c0.64-1.06,1.46-1.84,2.72-1.86c1.57-0.02,2.77-1.04,3.94-2.12c0.81-0.75,1.52-1.58,2.71-1.72c0.67-0.08,1.26-0.97,2.03-1.61
		c0.21,0.69,0.47,1.35,0.62,2.04c0.24,1.08,0.42,2.17,0.62,3.26c0.05,0.25,0.11,0.55,0.04,0.78c-0.32,1.17-0.16,2.21,0.87,3.25
		c-6.03,2.52-11.92,4.72-17.98,7.15C75.13,83.1,74.87,82.51,74.99,82.05z M45.86,75.92c0.05-0.46,0.09-0.92,0.13-1.35
		c0.15-0.14,0.24-0.27,0.36-0.33c0.46-0.23,0.92-0.58,1.41-0.64c1.47-0.2,2.33-1.12,2.76-2.71c0.12-0.44,0.35-0.84,0.58-1.36
		c0.68,1.58,1.28,3.05,1.94,4.49c0.42,0.94,0.94,1.82,1.37,2.75c0.21,0.46,0.36,0.97,0.47,1.48c0.2,0.93,0.42,1.86,0.48,2.81
		c0.05,0.88-0.01,1.79-0.18,2.64c-0.2,0.95-0.59,1.84-0.93,2.86c-2.5,0.64-2.53,0.64-3.75-2.03c-0.95-2.07-1.83-4.18-2.82-6.22
		C47.25,77.41,46.64,76.63,45.86,75.92z"/>
	<path d="M28.69,120.87c0.33-0.27,0.54-0.55,0.65-0.93l0,0c0,0,0,0,0,0c0.04-0.12,0.06-0.24,0.08-0.38c0,0,0,0,0,0
		c0.02-0.13,0.03-0.28,0.03-0.43c0-0.01,0-0.02,0-0.03c0-0.15,0-0.31-0.02-0.49c0-0.02,0-0.04,0-0.06c-0.01-0.2-0.03-0.41-0.06-0.64
		c-0.1-0.85-0.05-1.57,0.06-2.2c-0.2,0.04-0.43,0.12-0.69,0.23c-0.36-0.51-0.72-1.03-1.07-1.56c0-0.36,0-0.68,0-0.98
		c-0.41-0.63-0.89-1.03-1.42-1.29c-0.23-0.39-0.46-0.77-0.69-1.17c0.54,0.16,1.11,0.27,1.69,0.45c-0.02-0.44-0.01-0.88,0.06-1.3
		c-1.09-0.34-2.15-1.24-2.68-2.99c-0.27,0.06-0.56,0.14-0.88,0.24c0,0.07,0,0.13,0,0.2c-0.15-0.3-0.3-0.59-0.44-0.89
		c0.67-0.9,0.62-1.47-0.1-2.21c-0.4-0.41-0.8-0.67-1.22-0.79c-0.15-0.36-0.29-0.72-0.43-1.08c0.49,0.04,1.03,0.04,1.67-0.03
		c0.71-0.52,0.65-1.21,0.35-2.13c-0.48-0.5-1.07-1.13-1.68-1.77c-0.65,0.03-1.19,0.06-1.69,0.08c-0.11-0.36-0.23-0.72-0.34-1.08
		c0.61,0.31,1.35,0.26,2.1,0.24c-0.12-0.26-0.24-0.53-0.35-0.81c-0.47-1.22-0.86-2.36-1.18-3.47c-0.3,0.02-0.62,0.05-0.98,0.11
		c-0.2,0.37-0.32,0.61-0.41,0.85c-0.47-1.97-0.84-3.97-1.12-6c0.29-0.75,0.23-1.48,0.12-2.19c-0.14-0.23-0.28-0.41-0.44-0.56
		c-0.06-0.7-0.12-1.4-0.16-2.1c0.22-0.2,0.44-0.43,0.67-0.72c-0.18-1.37,0.54-2.93-0.67-4.27c-0.03,0-0.06,0-0.09-0.01
		c0.01-0.33,0.01-0.66,0.02-0.99c0.08-0.03,0.16-0.05,0.24-0.09c1.24-2.41,1.28-3.22,0.1-4.56c0.08-0.68,0.16-1.36,0.26-2.04
		c1.11-1.17,1.31-2.27,0.6-3.52c0.24-1.17,0.5-2.34,0.8-3.48c-0.02-0.02-0.03-0.04-0.05-0.05c0,0,0,0,0,0
		c-0.1-0.11-0.21-0.22-0.31-0.32c-0.07-0.08-0.15-0.16-0.22-0.23c-0.12-0.12-0.23-0.22-0.35-0.33c-0.07-0.07-0.15-0.14-0.22-0.21
		c-0.13-0.11-0.26-0.22-0.4-0.32c-0.06-0.05-0.13-0.11-0.19-0.16c-0.2-0.15-0.4-0.28-0.61-0.4c-0.05-0.03-0.09-0.06-0.14-0.09
		c0,0,0,0,0,0c-1.04-0.6-1.86-1.31-2.48-2.12c-1.97,6.38-3.03,13.16-3.03,20.18c0,16.42,5.79,31.5,15.44,43.33
		C27.29,122.31,27.91,121.5,28.69,120.87z"/>
	<path d="M17.43,54.55c0.56,0.51,1.06,0.9,1.56,1.17v0c0.08,0.04,0.15,0.09,0.23,0.13c0,0-0.01-0.01-0.01-0.01
		c0.25,0.11,0.49,0.2,0.74,0.24c0.26,0.03,0.49,0.09,0.72,0.15c0.08,0.02,0.16,0.04,0.23,0.06c0.22,0.07,0.42,0.13,0.61,0.2
		c0.1,0.04,0.21,0.07,0.31,0.11c0.01,0,0.01,0,0.02,0.01l0,0c0.22,0.07,0.43,0.15,0.64,0.23c0.08,0,0.15,0,0.23,0
		c1.09-1.27,1.09-1.27,1.03-3.29c-0.13-0.13-0.27-0.24-0.4-0.33c0.61-1.29,1.27-2.56,1.96-3.8c0.34,0.39,0.77,0.56,1.34,0.47
		c0.77-0.12,1.09-0.64,1.08-1.38c0-0.35-0.05-0.71-0.1-1.32c-0.29-0.12-0.54-0.23-0.8-0.35c0.74-1.19,1.52-2.35,2.34-3.48
		c0.39,0.3,0.93,0.34,1.99,0.28c0.2-0.8,0.41-1.68,0.7-2.85c-0.18-0.1-0.35-0.19-0.52-0.29c0.17-0.21,0.34-0.41,0.51-0.61
		c0.3,0.66,0.49,1.46,1.74,1.21c0.3-0.6,0.63-1.22,0.91-1.78c-0.13-0.67-0.25-1.28-0.4-2.01c0.36-0.39,0.74-0.77,1.11-1.15
		c-0.36,1.06-0.22,2.13,0.62,3.22c0.53,0,1.09,0,1.95,0c0.16-0.56,0.31-1.02,0.41-1.49c0.1-0.48,0.23-0.98,0.18-1.46
		c-0.11-1.02-0.67-1.37-2.12-1.31c0.39-0.38,0.78-0.76,1.17-1.13c0.25,0.13,0.53,0.22,0.87,0.24c0.25-0.28,0.52-0.59,0.83-0.94
		c-0.08-0.22-0.14-0.43-0.21-0.64c0.19-0.17,0.39-0.33,0.58-0.5c0.2,0.15,0.43,0.3,0.61,0.46c1.24-0.66,1.96-1.53,2.34-2.66
		c0.02-0.06,0.03-0.13,0.05-0.19c0.32-0.24,0.65-0.48,0.98-0.71c0.08,0.12,0.16,0.24,0.24,0.37c0.96-0.69,1.65-1.35,2.16-2.02
		c0.72-0.47,1.45-0.93,2.19-1.37c0.62,0.75,1.26,1.46,2.49,1.17c1.3-0.86,1.78-2.08,2.04-3.62c0.28-0.14,0.56-0.26,0.84-0.39
		c0.11,0.31,0.21,0.61,0.32,0.92c1.04,0,1.81,0,2.45,0c0.93-0.76,1.07-1.74,1.28-2.66c0.32-0.12,0.64-0.25,0.97-0.37
		c-0.21,0.54,0.23,0.92,0.54,1.34c0.5,0,1,0,1.78,0c0.44-0.44,0.99-0.99,1.51-1.52c-0.1-0.35-0.11-0.71-0.1-1.06
		c0.37-0.11,0.73-0.22,1.1-0.33c0.29,0.67,0.7,1.26,1.45,1.65c1.29-0.12,1.39-1.19,1.96-2.09c-0.07-0.12-0.14-0.24-0.19-0.36
		c0.28-0.06,0.56-0.12,0.84-0.18c0.18,0.64,0.49,1.22,1.5,1.27c0.35-0.56,0.64-1.14,0.92-1.72c0.26-0.04,0.53-0.09,0.79-0.13
		c-0.38,0.93-0.7,1.89-0.93,2.86c-0.33,1.33,0.08,2.82,1.49,3.67c1.15-1.16,2.2-2.22,3.21-3.24c0.09-1.57,0.09-2.77-0.03-3.75
		c0.2-0.02,0.4-0.04,0.6-0.06c0.14,0.58,0.34,1.21,0.61,1.92c1.42-0.08,2.13-1.02,2.54-2.1c0.44-0.01,0.89-0.02,1.34-0.03
		c0.22,0.27,0.58,0.43,1.16,0.41c0.11-0.13,0.19-0.26,0.29-0.4c0.38,0,0.77,0.02,1.15,0.03c-1.19,1.57-1.31,3.39-1.02,5.4
		c0.5,0.21,1.01,0.43,1.72,0.73c0.48-0.46,1.21-0.84,1.41-1.41c0.54-1.53,0.63-3.13-0.08-4.65c0.73,0.05,1.46,0.12,2.19,0.19
		c-0.3,0.35-0.49,0.79-0.56,1.36c0.31,0.53,0.67,1.13,0.99,1.68c1.31,0.21,2.42,0.25,3.41-0.72c0-0.5,0-1.06,0-1.81
		c0,0-0.01-0.01-0.01-0.01c0.36,0.06,0.72,0.1,1.08,0.16c0.17,0.21,0.36,0.43,0.6,0.69c0.7,0,1.41,0,2.13,0
		c0.03-0.04,0.05-0.07,0.07-0.11c0.23,0.05,0.46,0.09,0.68,0.14c-0.34,1.08,0.08,2.26,0.5,3.45c1.33,0.25,1.62-0.87,2.36-1.45
		c0.02-0.48,0.03-0.88,0.03-1.22c0.28,0.08,0.57,0.16,0.85,0.25c0.12,0.48,0.26,1.05,0.43,1.74c0.76-0.31,1.43-0.59,1.95-0.95
		c0.58,0.2,1.15,0.42,1.72,0.64c0.34,0.19,0.67,0.38,0.99,0.56c0.09-0.02,0.18-0.04,0.27-0.06c0.32,0.13,0.64,0.24,0.96,0.38
		c-1.03,0.44-1.54,1.27-1.79,2.36c0.35-0.32,0.74-0.47,1.05-0.54c0.83-0.17,1.94-0.37,3.11-0.37c0-0.14-0.02-0.26-0.04-0.37
		c0.25,0.12,0.5,0.22,0.74,0.34c0.01,0.02,0.02,0.04,0.03,0.06c0.07,0.01,0.14,0.02,0.21,0.03c0.3,0.03,0.58,0.07,0.86,0.13
		c0.11,0.02,0.22,0.05,0.33,0.08c0.97,0.24,1.86,0.65,2.68,1.25c0.34,0.25,0.67,0.54,0.97,0.84l0,0c0.72,0.71,1.34,1.56,1.87,2.53
		c0.12-0.25,0.19-0.49,0.24-0.73c0.18,0.12,0.37,0.24,0.55,0.37c0.01,0.12,0.02,0.23,0.06,0.33c0.13-0.05,0.27-0.1,0.42-0.12
		c0.28-0.05,0.57-0.07,0.85-0.07c0.25,0,0.5,0.03,0.75,0.06c0.05,0.01,0.09,0.02,0.14,0.02c0.24,0.04,0.49,0.1,0.72,0.18l0,0
		c0.29,0.1,0.57,0.22,0.85,0.36l0,0c0.32,0.17,0.62,0.37,0.91,0.59c0.01,0.01,0.02,0.01,0.02,0.02c0.29,0.23,0.56,0.48,0.8,0.76
		c0.26,0.3,0.48,0.62,0.68,0.95c0.05,0.09,0.09,0.18,0.14,0.26c0.14,0.26,0.26,0.52,0.36,0.79c0.17,0.46,0.3,0.94,0.37,1.43
		c0.07,0.54,0.08,1.09,0.01,1.63l-0.09,0.68c-0.09,0.62-0.17,1.2-0.24,1.8c-0.01,0.05-0.01,0.09-0.02,0.14c0.32,0,0.64,0,0.97,0
		c0.67-1.18,0.73-2.27,0.3-3.31c1.46,1.4,2.85,2.87,4.16,4.4c-0.18,0.39-0.34,0.76-0.5,1.09c0.25,0.72,0.44,1.25,0.62,1.79
		c0.34,0,0.62,0,1.17,0c-0.12-0.44-0.05-0.85,0.05-1.26c0.31,0.38,0.61,0.76,0.91,1.15c0.01,0.02,0.01,0.04,0.01,0.05
		c0.01,0,0.02,0,0.03,0c0.25,0.32,0.48,0.65,0.73,0.98c-0.03-0.02-0.05-0.04-0.08-0.05c-1.35,0.89-1.09,2.58-1.77,3.8
		c0.3,0.7,0.56,1.32,0.95,2.24c1.09-0.91,2.6-0.79,3.11-2.4c-0.31-0.39-0.47-0.86-0.64-1.34c0.5,0.75,0.99,1.51,1.46,2.28
		c0,0,7.12,0.7,7.11,0.47c-11.53-21.77-34.43-36.64-60.73-36.64c-28.62,0-53.19,17.6-63.5,42.53c0.11,0.1,0.22,0.18,0.31,0.26
		C17.09,54.25,17.26,54.4,17.43,54.55z"/>
	<path d="M145.98,73.19c0,0-2.48-2.25-2.9-2.4c-0.42-0.15-0.95,0.16-0.95,0.16c0.2,1.39,0.35,2.8,0.46,4.21
		c-0.64,0.19-1.28,0.39-1.99,0.6c-0.25,1.46-0.48,2.84-0.71,4.21c0.34,0.3,0.6,0.53,0.85,0.74c0.64-0.27,1.33-0.25,2.02-0.29
		c0,0.37-0.02,0.74-0.03,1.11c-0.55,0.1-1.09,0.2-1.61,0.29c-0.84,0.87-0.53,1.79-0.48,2.63c0.61,0.49,1.24,0.68,1.89,0.75
		c-0.03,0.32-0.04,0.63-0.07,0.95c-0.7-0.17-1.46-0.2-2.17-0.34c-1.42,1.5-1.34,2.67,0.41,5.36c0.33,0.07,0.66,0.15,1.01,0.23
		c-0.07,0.38-0.13,0.77-0.21,1.15c-0.59-0.07-1.29,0.03-2.13,0.32c0,0.87,0,1.77,0,2.75c0.42,0.23,0.82,0.45,1.23,0.68
		c-0.09,0.32-0.18,0.64-0.27,0.95c-0.16-0.09-0.33-0.18-0.48-0.27c-3.02,1.31-3.56,3.49-1.66,6.46c0,0,0,0,0,0
		c-0.29,0.71-0.59,1.41-0.9,2.11c-0.18-0.73-0.4-1.57-0.63-2.5c-3.47,0.31-4.16,1.02-3.69,3.52c1.68,0.99,2.7,0.81,4.26-0.88
		c-0.3,0.66-0.6,1.31-0.92,1.95c-1,0.49-1.85,0.91-2.67,1.31c-0.05,1.15-0.2,2.19,0.29,3.06c-0.19,0.31-0.38,0.62-0.57,0.93
		c-0.64-0.3-1.07-0.51-1.23-0.58c-1.68,0.31-3.06,0.37-3.49,2.27c-0.35,1.58-0.1,2.81,0.71,4.01c-0.41,0.52-0.82,1.04-1.25,1.55
		c-0.01-0.84-0.12-1.68-0.16-2.52c-1.22-1.15-2.43-0.7-3.78-0.08c-0.87,2.07-1.92,4.05,0.03,5.89c0.33,0,0.63,0,0.93,0
		c-0.5,0.52-1.02,1.03-1.54,1.54c-0.03,0.01-0.05,0.01-0.08,0.01c-0.01,0.03-0.02,0.06-0.02,0.08c-0.31,0.3-0.62,0.6-0.94,0.9
		c0.48-0.94,0.14-1.98,0.23-3c-0.38-0.4-0.77-0.82-1.09-1.17c-1.18-0.08-2.23-0.15-3.46-0.23c-0.37,0.58-0.79,1.23-1.34,2.09
		c0.83,0.91,0.14,2.31,1.41,2.9c1.2,0,2.41,0,3.6,0c-0.47,0.42-0.95,0.83-1.43,1.24c-0.6-0.07-1.22-0.13-1.93-0.21
		c-1.47,0.38-2.07,1.52-1.91,3.21c-0.24,0.17-0.48,0.34-0.72,0.51c-0.2-0.31-0.49-0.58-0.9-0.81c-1.27-0.15-2.52-0.01-3.23,1.37
		c-0.4,0.79-0.59,1.58-0.47,2.37c-0.28,0.16-0.56,0.33-0.85,0.49c0-0.29,0-0.58,0-0.88c-0.54-0.07-1.06-0.3-1.44-0.15
		c-0.7,0.28-1.32,0.76-1.98,1.17c0,0.54,0,1.08,0,1.64c-1.43,0.68-2.89,1.3-4.37,1.88c0-0.91,0-1.61,0-2.26
		c-1.15-1.37-1.15-1.37-3.14-1.05c-0.17,1.04-0.35,2.14-0.54,3.33c0.48,0.31,0.89,0.57,1.31,0.83c-0.67,0.23-1.35,0.46-2.03,0.67
		c0-0.65,0-1.27,0-2c-0.58-0.29-1.16-0.72-1.8-0.85c-0.38-0.08-0.85,0.33-1.22,0.5c-0.03,0.48-0.05,0.77-0.06,1.05
		c-0.01,0.51,0,1.01,0,1.92c0.1,0.05,0.2,0.11,0.3,0.16c-0.27,0.07-0.55,0.12-0.82,0.19c-0.93-2.14-1.9-2.63-3.23-1.59
		c-0.15,0.55-0.32,1.17-0.48,1.76c0.07,0.19,0.13,0.38,0.2,0.57c-1.26,0.23-2.52,0.42-3.8,0.57c-0.26-1.18-0.38-1.26-1.43-1.95
		c-1.15,0.3-1.63,1.15-1.53,2.23c-0.61,0.04-1.21,0.08-1.82,0.1c-0.47-0.88-1.21-1.6-1.88-2.34c-1.21,0.56-1.26,1.48-1.19,2.39
		c-0.24,0-0.49-0.01-0.73-0.01c-0.37-1.39-1.04-2.66-2.44-3.58c-0.43,0.33-0.75,0.57-1.09,0.82c0.2,0.88,0.37,1.75,0.55,2.63
		c-0.29-0.02-0.59-0.03-0.88-0.06c0.08-0.18,0.17-0.35,0.23-0.56c-0.36-0.94-0.36-2.06-1.81-2.62c-1.72-0.01-3.6-0.27-5.43,0.88
		c0,0.43,0,0.86,0,1.32c-0.32-0.06-0.63-0.13-0.95-0.2c0.15-0.16,0.3-0.36,0.42-0.61c-0.03-1.48-0.52-3-1.49-4.38
		c-0.17-0.24-0.55-0.33-0.95-0.56c-0.54,1.48-1.09,2.79-1.5,4.14c-0.05,0.17-0.09,0.35-0.1,0.53c-1.49-0.41-2.95-0.88-4.4-1.4
		c-0.68-1.16-1.82-1.64-3.13-1.86c-0.14,0.17-0.26,0.33-0.38,0.49c-0.26-0.11-0.52-0.23-0.78-0.34c0.21-0.5,0.25-1.09,0.29-1.62
		c0.07-1.19,0.04-2.58-1.44-3.28c-0.95,1.12-1.4,2.34-1.47,3.67c-0.22-0.11-0.43-0.22-0.65-0.33c-0.21-0.3-0.53-0.57-0.99-0.78
		c-0.15,0-0.32,0-0.47,0c-0.76-0.42-1.51-0.85-2.25-1.3c0.09-0.27,0.12-0.57,0.06-0.91c-0.65-0.59-0.85-1.68-2.26-1.75
		c-0.24,0.21-0.51,0.46-0.8,0.71c-0.29-0.2-0.57-0.39-0.86-0.59c0-0.03,0.01-0.07,0.01-0.1c-0.12,0.02-0.24,0.04-0.36,0.04
		c-0.14,0-0.28-0.01-0.41-0.04c-0.25-0.05-0.48-0.14-0.69-0.26c-0.07,0.19-0.18,0.36-0.3,0.51c-0.04,0.06-0.09,0.1-0.14,0.15
		c-0.08,0.09-0.17,0.17-0.27,0.25c-0.07,0.05-0.14,0.1-0.21,0.14c-0.09,0.05-0.18,0.1-0.28,0.14c-0.09,0.03-0.17,0.07-0.26,0.1
		c-0.18,0.05-0.36,0.09-0.56,0.09c-0.09,0-0.17-0.01-0.26-0.02l-0.12-0.01l-0.13-0.02c-0.81-0.1-1.5-0.64-1.77-1.41l-0.1-0.29h0
		l-0.08-0.21h0l-0.11-0.3l-0.68-0.04l-0.89-0.05c-0.1,0.7-0.38,1.45-0.99,2.14c12.04,10.4,27.72,16.7,44.84,16.7
		c37.86,0,68.67-30.8,68.67-68.67c0-3.79-0.31-7.51-0.9-11.13L145.98,73.19z"/>
</g>
<g>
</g>
<g>
</g>
<g>
</g>
<g>
</g>
<g>
</g>
<g>
</g>
</svg>
