<?xml version="1.0" encoding="utf-8"?>
<!-- Generator: Adobe Illustrator 25.2.0, SVG Export Plug-In . SVG Version: 6.00 Build 0)  -->
<svg version="1.1" id="_x35__Elven" xmlns="http://www.w3.org/2000/svg" xmlns:xlink="http://www.w3.org/1999/xlink" x="0px"
	 y="0px" viewBox="0 0 160 160" style="enable-background:new 0 0 160 160;" xml:space="preserve">
<g>
	<path d="M80,11.39c-37.83,0-68.61,30.78-68.61,68.61c0,37.83,30.78,68.61,68.61,68.61c37.83,0,68.61-30.78,68.61-68.61
		C148.61,42.17,117.83,11.39,80,11.39z M80,142.67c-34.56,0-62.67-28.11-62.67-62.67c0-34.56,28.11-62.67,62.67-62.67
		c34.56,0,62.67,28.11,62.67,62.67C142.67,114.56,114.56,142.67,80,142.67z"/>
	<path d="M119.99,97.09c8.16-6.02,19.45-4.05,19.45-4.05s0.27-0.91,1.26-5.23c0,0-14.65-2.02-23.3,4.98
		c-1.84,1.49-3.47,3.29-4.94,5.29c-7.15-3.65-15.32-9.85-23.64-20.37c-0.15-0.19,1.47-4.02,3.72-6.18
		c6.35-6.06,11.69-7.44,14.98-7.44c6.83,0,11.14,10.99,5.05,15.59c-6.09,4.6-10.69-1.63-8.76-4.6c1.93-2.97,1.49-3.42-0.74-2.38
		c-5.35,3.71-2.08,10.99,5.05,11.88s9.36-7.87,10.54-9.5c1.19-1.63,3.12-1.19,5.49,0c2.38,1.19,7.13,2.23,9.95,2.38
		s0.3-1.63-1.19-1.78c-1.48-0.15-7.87-2.23-8.76-3.12c-0.89-0.89,2.23-2.52,3.56-2.23s5.49,2.23,7.54,2.23s1.07-1.34,0-1.63
		s-6.5-1.04-5.9-2.38c0.59-1.34,1.63-2.08,3.86-2.38c2.23-0.3,2.82-1.93,0.84-1.93s-4.7,1.49-6.34,3.27s-7.13,3.42-8.32,2.67
		c-1.19-0.74,0-3.42-4.31-7.13c-4.31-3.71-5.05-4.9-3.86-7.57c1.19-2.67,4.6-2.52,7.43-1.19s3.42,3.82,0,3.71
		c-3.42-0.1-3.27,2.67-1.78,2.23c1.49-0.45,3.71,0,3.71,0c1.34,2.52,3.27,2.08,6.09,2.82c2.82,0.74,6.68-0.15,7.28-1.04
		c0.59-0.89-1.63-0.74-3.27-0.45s-5.79-0.45-7.28-1.63c-1.49-1.19-2.08-2.67,0-3.12c2.08-0.45,3.27,1.34,6.83,2.38
		c3.56,1.04,3.27-0.74,2.52-0.74c-0.74,0-6.24-2.67-5.35-3.42c1.63-1.63,3.86-2.23,3.12-2.67c-1.34-0.89-2.38,0.15-4.46,1.93
		c-3.33,2.86-5.2-3.42-11.58-3.56c-6.39-0.15-8.17-0.45-6.39,1.63s-0.74,6.68-6.53,7.13s-9.21-0.45-6.09-4.9
		c3.12-4.46,8.32-5.79,9.95-6.98s4.16-1.63,6.09-1.48s5.94,0.45,7.28,0.74s5.2,1.78,7.43,2.67c2.23,0.89,1.78-0.15,1.78-0.89
		s-3.12-1.49-5.94-2.52c-2.82-1.04-0.59-2.97,0.74-3.42c1.34-0.45,2.23-0.74,1.34-1.19c-0.89-0.45-3.71,0.3-4.75,1.63
		c-1.04,1.34-4.46,1.04-7.13,0.89c-2.67-0.15-1.93-3.27,0.45-3.42c2.38-0.15,5.35-0.15,8.32-0.3c2.97-0.15,1.78-1.93,0-1.93
		s-3.27,0.59-5.2,0.59s-2.23-0.74-0.45-2.38s2.52-1.93,1.63-2.67c-0.89-0.74-1.63,0.3-4.16,2.97c-2.52,2.67-5.2,4.01-9.06,5.64
		c-3.86,1.63-5.05-2.38-4.46-4.16c0.59-1.78,3.71-2.82,5.64-3.56c1.93-0.74,5.49-0.89,8.32-1.19s1.63-1.63,0-1.63
		s-3.42,0.45-5.49,0.45c-2.08,0,0.15-1.34,0.59-3.42c0.45-2.08-1.04-2.82-1.78-0.15c-0.74,2.67-4.31,5.05-6.53,6.09
		c-2.23,1.04-4.01,1.04-3.71-1.93s1.78-2.82,4.46-4.46c2.67-1.63,3.71-2.23,2.97-2.97c-0.74-0.74-2.82,0.59-4.9,1.63
		c-2.08,1.04-2.67,0.3-2.38-1.19s2.38-3.27,0.89-2.97s-2.82,4.6-2.82,7.43c0,2.82,0.3,6.98-1.04,6.98c-1.34,0-2.97-0.89-4.75-1.19
		s-0.45,1.34,0.74,1.93c1.19,0.59,4.75,0.15,6.68,5.2s-3.86,9.21-7.43,5.79c-3.56-3.42-2.82-12.77-1.34-15.89s5.79-8.17,6.68-9.95
		c0.89-1.78-0.74-2.82-1.49-1.19c-0.74,1.63-2.08,3.42-3.42,4.01c-1.34,0.59-2.52-3.12-3.27-5.2c-0.74-2.08-1.93-0.59-1.34,1.63
		c0.59,2.23,4.01,4.01,3.12,6.53c-0.89,2.52-2.67,1.78-4.16,0.89c-1.49-0.89-2.38-2.82-2.82-6.39s-2.97-3.27-1.93-1.49
		c1.04,1.78,0.45,4.46,0,5.49c-0.45,1.04-2.23,0.3-4.16-0.59c-1.93-0.89-0.59-3.56-0.59-5.59c0-2.02-1.63-2.88-1.49,0.84
		c0.15,3.71-2.08,2.52-4.46,0.59c-2.38-1.93-3.42-1.78-2.38-0.3c3.81,5.44,6.98,5.64,9.95,8.91s3.86,13.51-1.49,15
		s-7.13-2.97-8.32-5.2c-1.19-2.23-0.15-4.16,0.89-7.87c1.04-3.71,0.74-4.01,0.45-5.64s-0.89,1.63-1.93,5.05
		c-1.04,3.42-2.82,3.42-2.52,1.34c0.3-2.08-0.74-4.31-0.89-4.9c-0.15-0.59,0.89-4.01,0.89-6.09s-1.78-1.34-1.78,0
		s0.15,4.6-2.38,3.86c-2.52-0.74-5.05-3.56-5.05-1.78s3.86,2.52,5.94,3.86c2.08,1.34,1.63,6.24,0.3,7.28
		c-1.34,1.04-3.27-1.04-5.35-1.93c-2.08-0.89-2.08-4.6-2.82-6.24c-0.74-1.63-2.38-2.08-1.63,0c0.74,2.08,1.34,5.2-0.45,5.2
		s-1.49-0.15-3.65-1.63c-2.16-1.49-2.15-0.59-2.15,0c0,0.59,1.19,1.93,5.79,3.27c4.6,1.34,8.46,3.12,13.51,10.84
		c5.05,7.72,1.04,12.77-3.27,13.07c-3.42,0.24-9.21,0.59-11.88-1.34c-2.67-1.93-3.56-6.39-2.97-8.61c0.59-2.23,1.49-3.56,4.75-4.16
		c3.27-0.59,4.6,2.82,3.71,4.9c-0.89,2.08-6.83,2.52-5.05,2.97c2.82,0.59,4.75-0.59,6.09-1.63c1.34-1.04,1.34-0.74,2.52-0.15
		c3.22,1.61,4.31,1.63,3.42,0.74c-0.89-0.89-3.86-3.27-3.86-3.27s0.74-0.15-1.78-3.86c-2.52-3.71-8.02-1.04-9.65-1.34
		s-1.19-3.56-1.63-6.98s-2.23-3.27-2.08-1.93c0.15,1.34,1.19,4.01,0.3,3.86c-0.89-0.15-1.78-1.04-3.56-1.49s-1.78,1.19,1.04,1.93
		c2.82,0.74,3.12,1.04,3.42,6.53c0.3,5.49-1.19,5.64-3.27,5.05c-2.08-0.59-2.08-2.97-2.38-5.2s-1.19-5.79-1.78-4.01
		c-0.59,1.78,0.89,5.05,0.3,7.07c-0.59,2.02-1.63,0.95-4.01,0.21c-2.38-0.74-3.86,0.59,1.93,2.08c5.79,1.49,9.21,5.35,11.14,8.46
		s-1.19,5.2-2.38,5.2c-1.19,0-4.75-1.04-6.39-2.23c-1.63-1.19-2.08-4.01-4.75-6.83c-2.67-2.82-3.27-3.12-4.01-2.52
		c-0.74,0.59,0.59,0.89,3.71,4.6s2.38,4.01,1.04,4.6c-1.34,0.59-2.52-0.74-4.16-2.38s-3.27-0.89-2.67,0
		c0.59,0.89,1.49,1.63,2.67,2.97s-0.59,1.34-2.52,2.38c-1.93,1.04-4.16,2.97-1.93,2.38c2.23-0.59,7.87-4.01,9.8-3.57
		c1.93,0.44,5.49,1.79,6.39,3.12c0.89,1.34,0,3.27-1.04,3.86c-1.04,0.59-4.9,2.82-6.98,2.67s-5.64-3.12-7.43-4.16
		s-1.78,1.49,1.49,2.67c3.27,1.19,4.31,2.52,3.12,3.71c-1.19,1.19-4.75,1.48-5.94,1.93c-1.19,0.45,1.78,1.78,5.94,0.15
		c6.68-4.16,9.36-3.27,10.1-1.34c5.79,13.96,17.08,8.76,19.75,3.42c2.67-5.35-0.89-8.61-4.01-9.36c-3.12-0.74-2.52,0.59-0.45,0.89
		c3.12,1.34,4.16,8.76-1.78,9.65c-7.5,1.13-10.4-5.79-7.87-12.18c1.32-3.34,9.37-7.2,17.61-2.31c6.54,3.88,8.04,12.08,7.81,12.39
		C66,83.41,57.99,89.97,46.43,95.45c-0.65-0.81-1.34-1.59-2.08-2.3c-7.97-7.76-23.11-7.14-23.11-7.14c0.24,2.96,0.83,5.1,0.83,5.1
		s11.74-0.66,19.31,6.09c0.12,0.1,0.23,0.23,0.35,0.34c-4.84,2-10.2,3.78-16.04,5.18c0,0,15.86,39.53,56.02,37.32
		c36.53,1.03,54.74-36.85,54.74-36.85s-0.73,0.14-2.1,0.14c-2.89,0-9.22,0.02-17.38-3.2C117.93,98.91,118.94,97.87,119.99,97.09z
		 M103.46,97.2c2.17,1.72,4.35,3.26,6.54,4.65c-4.88,8.46-7.3,18.75-8.28,23.97c-2.29-2.91-4.86-6.96-7.15-12.16
		c0.56-0.57,1.1-1.17,1.62-1.78c2.47-2.93,4.44-6.32,5.86-10.08C102.67,100.17,103.12,98.61,103.46,97.2z M100.03,94.32
		c-0.31,1.71-0.82,3.82-1.67,6.09c-1.32,3.51-3.13,6.59-5.42,9.22c-0.95-2.56-1.81-5.35-2.54-8.34c4.69-3.89,7.99-6.06,9.56-7.02
		C99.99,94.28,100.01,94.3,100.03,94.32z M96.96,91.49c-1.65,1.06-4.18,2.81-7.48,5.46c-0.6-3.22-1.04-6.65-1.27-10.29
		c-0.11-1.68-0.12-3.23-0.04-4.67C91.06,85.46,93.99,88.63,96.96,91.49z M88.81,52.02c-1.21,6.04,6.41,10.92,6.41,10.92
		c-3.95,3.29-7.47,5.68-7.47,5.68C85.75,58.45,88.81,52.02,88.81,52.02z M86.13,104.98c0.09-0.08,0.17-0.15,0.26-0.23
		c0.83,2.57,1.83,5.41,2.99,8.32c-1.41,1.14-2.95,2.17-4.61,3.07c-0.48-2.32-1.37-4.58-2.67-6.75c-0.01-0.01-0.02-0.03-0.03-0.04
		C83.19,107.86,84.54,106.41,86.13,104.98z M81.07,41.88c0,0,2.22,6.08,1.35,10.06c-0.86,3.99-0.4,11.48-0.4,11.48
		c-3.79-5.44-5.86-1.18-5.86-1.18c0.7-6.1-0.63-10.45-0.63-10.45C82.76,49.14,81.07,41.88,81.07,41.88z M78.25,66.26
		c1.64-0.35,5.55,2.6,5.55,7.57c0,6.4-0.48,12.18-0.48,12.18s-0.76,6.12-4.98,6.12c-3.66,0-4.08-6.12-4.08-6.12
		c0.15-0.54-0.26-8.28-0.42-10.5C73.84,71.47,74.94,66.97,78.25,66.26z M73.19,104.93c0.02,0.01,0.03,0.03,0.05,0.04
		c1.59,1.43,2.94,2.88,4.06,4.36c-0.01,0.01-0.02,0.03-0.03,0.04c-1.3,2.17-2.19,4.44-2.67,6.75c-1.4-0.76-2.72-1.61-3.95-2.54
		C71.6,111.06,72.46,108.19,73.19,104.93z M63.74,61.8c0,0,7.66-3.98,6.45-10.01c0,0,3.18,5.81,1.17,15.99
		C71.36,67.77,66.7,63.22,63.74,61.8z M64.86,89.2c1.71-1.63,3.32-3.32,4.81-5.05c0.02,0.85,0.01,1.74-0.01,2.65
		c-0.1,3.36-0.36,6.47-0.75,9.35c-2.84-2.23-5.04-3.74-6.52-4.69C63.27,90.69,64.09,89.93,64.86,89.2z M68.16,100.62
		c-0.62,3.12-1.38,5.91-2.24,8.41c-2.02-2.46-3.64-5.29-4.86-8.48c-0.9-2.36-1.43-4.56-1.74-6.33
		C60.76,95.08,63.8,97.06,68.16,100.62z M55.78,96.6c0.35,1.57,0.84,3.33,1.55,5.2c1.42,3.76,3.39,7.15,5.86,10.08
		c0.37,0.44,0.75,0.86,1.14,1.28c-2.64,6.05-5.67,9.81-7.66,11.83c-0.76-6.3-2.6-16.43-6.98-24.55
		C51.88,99.18,53.92,97.9,55.78,96.6z M43.54,117.53c-3.66-3.87-6.37-7.77-8.13-10.66c3.63-1.24,6.95-2.66,10-4.17
		c3.54,6.69,5.77,16.31,6.92,22.42C49.21,122.96,46.27,120.43,43.54,117.53z M69.1,117.33c1.36,0.97,2.8,1.85,4.33,2.64
		c-4.45,2.97-8.12,5.5-10.79,7.38C64.45,125.38,66.86,122.18,69.1,117.33z M76.45,133.87c-2.47-0.23-4.88-0.62-7.21-1.17
		c-1.75-0.42-3.48-0.93-5.18-1.53c2.48-1.75,6.05-4.23,10.47-7.19c0.21,1.19,0.51,2.39,0.91,3.6c0.51,1.53,1.17,3.1,2,4.7
		C77.13,132.81,76.8,133.34,76.45,133.87z M79.69,127.71c-2.03-5.17-2.03-9.93,0-14.4C81.72,117.78,81.71,122.53,79.69,127.71z
		 M79.69,105.99c-1.11-1.34-2.38-2.66-3.81-3.95c-0.62-0.56-1.23-1.1-1.82-1.61c0.32-1.94,0.58-3.99,0.79-6.17
		c0,0,2.1,2.96,4.38,2.96c2.28,0,4.09-3.59,4.09-3.59s0.6,2.78,1.81,6.97c-0.53,0.46-1.07,0.94-1.63,1.44
		C82.07,103.33,80.79,104.65,79.69,105.99z M91.76,132.74c-2.88,0.79-5.8,1.24-8.69,1.35c-0.4-0.61-0.78-1.21-1.13-1.81
		c0.82-1.6,1.49-3.17,2-4.7c0.4-1.21,0.7-2.41,0.91-3.6c4.65,3.12,8.36,5.7,10.86,7.46C94.38,131.94,93.07,132.38,91.76,132.74z
		 M85.95,119.97c1.79-0.92,3.47-1.97,5.03-3.15c1.61,3.61,3.49,7.2,5.62,10.43C93.95,125.39,90.33,122.89,85.95,119.97z
		 M114.49,104.48c3.69,1.94,7.05,3.24,10.02,4.08c-2.1,2.65-4.71,5.65-7.77,8.67c-3.53,3.48-7.16,6.44-10.83,8.88
		c1.36-5.07,4.25-14.68,8.28-21.79C114.29,104.36,114.39,104.42,114.49,104.48z"/>
</g>
<g>
</g>
<g>
</g>
<g>
</g>
<g>
</g>
<g>
</g>
<g>
</g>
</svg>
