<?xml version="1.0" encoding="utf-8"?>
<!-- Generator: Adobe Illustrator 25.2.0, SVG Export Plug-In . SVG Version: 6.00 Build 0)  -->
<svg version="1.1" id="_x37__Halfling" xmlns="http://www.w3.org/2000/svg" xmlns:xlink="http://www.w3.org/1999/xlink" x="0px"
	 y="0px" viewBox="0 0 160 160" style="enable-background:new 0 0 160 160;" xml:space="preserve">
<path d="M80,148.61c-37.83,0-68.61-30.78-68.61-68.61S42.17,11.39,80,11.39S148.61,42.17,148.61,80S117.83,148.61,80,148.61z
	 M80,17.33c-34.56,0-62.67,28.11-62.67,62.67S45.44,142.67,80,142.67s62.67-28.11,62.67-62.67S114.56,17.33,80,17.33z"/>
<g id="XMLID_2673_">
	<path id="XMLID_1_" d="M62.68,38.91c0,0,14.12,8.81,14.79,10.47s-1,3.32-1,3.32c3.66,3.84,9.08,3.08,9.47,4.99
		c1,4.82-2.66,5.65-2.66,5.65c-0.69,0.14,1.4,4.32,4.5,4.32c0.05,0,0.1,0,0.15,0c0.01,0,0.02,0,0.03,0c0.85,0-0.03,1.83-0.03,1.83
		s-1.26,0.5,0.37,1.33c1.62,0.83,0,2.33,0,2.33s2.95,2.66,2.29,5.15c-0.66,2.49-9.14,6.15-10.63,8.64c-1.5,2.49-2.16,10.3-2.16,10.3
		s-12.95-4.32-24.36-4.32c-2.92,0-5.74,0.28-8.21,0.99c0,0,0.83-3.82-1.33-6.15l5.82-2.82c0,0-4.74,1.9-10.56,1.9
		c-0.62,0-1.26-0.02-1.9-0.07c-6.65-0.5-19.11-10.8-19.11-10.8s7.16-5.59,15.24-5.59c0.62,0,1.25,0.03,1.88,0.1
		c8.81,1,15.29,7.81,17.45,8.14c0,0,2.49-7.98-1-9.47c0,0,6.91-6.31,2.71-11.3s-4.2-4.99-4.2-4.99s8.31-7.04,1.16-12.16
		c0,0,0.78,0.05,1.95,0.05C55.92,40.76,60.4,40.51,62.68,38.91 M62.62,36.32l-1.17,0.82c-1.3,0.91-4.34,1.46-8.11,1.46
		c-1.08,0-1.8-0.05-1.81-0.05l-7.55-0.49l6.15,4.41c1.29,0.93,1.95,1.91,1.99,3c0.1,2.32-2.35,4.94-3.3,5.76l-1.63,1.4l1.38,1.64
		l4.2,4.99c2.81,3.33-2.46,8.26-2.52,8.31l-2.45,2.26l3.06,1.32c0.58,0.25,0.69,2.11,0.38,4.23c-0.23-0.16-0.47-0.32-0.69-0.47
		c-3.4-2.32-8.55-5.83-15.04-6.57c-0.69-0.08-1.4-0.12-2.12-0.12c-8.72,0-16.25,5.8-16.57,6.05l-2.12,1.66l2.07,1.71
		c1.33,1.1,13.2,10.76,20.33,11.29c0.67,0.05,1.37,0.08,2.06,0.08c0.97,0,1.92-0.05,2.82-0.13l0.34,0.37
		c1.12,1.21,0.96,3.46,0.8,4.23l-0.72,3.5l3.43-0.98c2.1-0.6,4.66-0.91,7.61-0.91c10.91,0,23.55,4.17,23.67,4.21l2.6,0.87l0.23-2.73
		c0.26-3.04,1.01-7.95,1.86-9.37c0.43-0.72,2.82-2.25,4.41-3.27c3.16-2.03,5.89-3.78,6.46-5.93c0.63-2.37-0.62-4.59-1.68-5.96
		c0.16-0.45,0.24-0.97,0.16-1.53c-0.06-0.44-0.26-1.17-0.92-1.81c0.39-1.16,0.34-2.14-0.15-2.91c-0.46-0.72-1.25-1.15-2.13-1.15
		c-0.04,0-0.08,0-0.12,0l-0.06,0c-0.69,0-1.37-0.56-1.85-1.13c1.6-1.27,2.85-3.61,2.12-7.12c-0.44-2.14-2.57-2.72-4.44-3.24
		c-1.4-0.39-2.93-0.81-4.3-1.72c0.45-1,0.71-2.31,0.15-3.71c-0.3-0.74-0.66-1.66-8.45-6.85c-3.6-2.4-7.17-4.62-7.2-4.65L62.62,36.32
		L62.62,36.32z"/>
	<path id="XMLID_3764_" d="M70.33,54.53c0,0-0.5,3.66-9.8,4.32c0,0,2.99,1.99,6.15,0.66C69.83,58.19,70.99,56.53,70.33,54.53z"/>
	<path id="XMLID_3763_" d="M70.51,49.55c0,0-6.66-2.16-8.82-2.16c-2.16,0-6.15,8.14-6.15,8.14s4.99-5.48,6.81-5.15
		c1.83,0.33,5.98,1.16,6.81,1.08C70,51.38,70.51,49.55,70.51,49.55z"/>
	<path id="XMLID_3762_" d="M82.13,63.01c0,0-0.33-2.16-3.99,0.66C74.48,66.5,79.63,64.84,82.13,63.01z"/>
	<path id="XMLID_3761_" d="M88.06,69.62c0,0,7.15-3.49,13.96,3.32c6.81,6.81,14.79,12.8,20.61,9.97c5.82-2.82,3.49-11.09,2.49-14.19
		c-1-3.09,12.46-4.26,12.63-1.43c0.17,2.82,4.49,15.95-10.3,18.94c-14.79,2.99-18.46-3.48-27.09-11.3
		c-5.32-4.82-10.3-4.82-12.3-4.15S85.74,70.31,88.06,69.62z"/>
	<path id="XMLID_3760_" d="M98.91,59.98"/>
	<path id="XMLID_3759_" d="M34.1,83.78c0,0-10.47-6.2-11.47-7.42c0,0,13.79-7.53,21.1,0.78c0,0-5.17-0.27-6.15,2.66
		c-0.33,1,5.98-0.66,5.15,0.17s-4.15,1.66-3.49,2.16c0.66,0.5,3.49,0.5,3.49,0.5s-3.82,1.83-5.65,1.16
		c-1.83-0.66-4.65-6.31-0.33-8.14c0,0-5.76-2.11-10.97,1.22L34.1,83.78z"/>
	<path id="XMLID_3757_" d="M41.25,97.24c0,0,19.95,1.21,21.78,2.1c1.82,0.89,13.35,11.86,16.47,14.19c0,0-1.96,1.83,0,7.31
		c0,0-16.81-8.81-19.8-10.47c-2.99-1.66-20.77,0.66-21.1,1.33C38.26,112.36,39.09,99.73,41.25,97.24z"/>
	<path id="XMLID_3756_" d="M79.5,123.61c-1-2.33-2.36-8.76-0.26-11.65c0.87-1.2,3.39-0.93,5.55,0.89c2.16,1.83,2.15,7.81,1.66,9.97
		C85.95,124.99,79.5,123.61,79.5,123.61z"/>
	<path id="XMLID_3755_" d="M45.24,93.92c0,0,23.71-0.83,33.04,5.98c0,0-1.22,5.67,0,9.65c0,0,0.52-6.28,3.85-10.21
		C82.13,99.34,62.85,88.93,45.24,93.92z"/>
	<path id="XMLID_3754_" d="M72.16,96.08c0,0,10.3,0.32,17.78,4.98c0,0-6.01,8.98-6.25,13.8c0,0,0.27-6.73,3.92-13.09
		C87.61,101.77,84.45,97.9,72.16,96.08z"/>
	<path id="XMLID_3753_" d="M86.71,105.47l-4.58,11.05l2.29,2.56c0,0,4.22-4.9,6.28-6.81S87.31,103.39,86.71,105.47z"/>
	<path id="XMLID_3751_" d="M84.42,119.08c0,0,4.02,11.58,12.83,16.47c8.81,4.89,13.01,4.73,11.82,0.74s-11.57-18.66-23.82-18.97
		C83.13,117.64,84.42,119.08,84.42,119.08z"/>
	<path d="M13.5,78.58l-0.66,3.54l2.33-1.33c0,0-2.25,3.24,4.99,10.47c4.49,4.49,9.31,3.32,9.31,3.32s8.64,11.13,15.79-0.66
		c0,0,0.83-3.82-1.33-6.15l5.82-2.82c0,0-5.82,2.33-12.46,1.83c-6.65-0.5-19.11-10.8-19.11-10.8s8.31-6.48,17.12-5.48
		c8.81,1,15.29,7.81,17.45,8.14c0,0,2.49-7.98-1-9.47c0,0,6.91-6.31,2.71-11.3c-4.2-4.99-4.2-4.99-4.2-4.99s8.31-7.04,1.16-12.16
		c0,0,7.98,0.53,11.3-1.8c0,0,9.35,5.83,13.19,8.9c0,0,4.09-3.47,1.6-7.1s-5.82-5.12-5.82-5.12s0.33-5.37-2.82-6.84
		c-3.16-1.47-8.31-1.47-8.31-1.47l5.98-0.93c0,0-6.81-2.73-10.97-1.56c0,0,4.99-2.33,8.47-2.82c0,0-10.63-0.17-15.29,2.99
		c0,0,0.66-2.16,0-4.65c0,0-1.64,4.12-6.65,5.32c-3.49,0.83-5.82,3.13-5.82,3.13s1.16-3.46,7.48-4.63c0,0-6.81-1.52-9.64,2.23
		c-2.82,3.75-2.99,5.91-4.15,6.58c-1.16,0.66-6.81,1.83-7.31,5.98c-0.5,4.15-0.5,4.15-0.5,4.15s-6.48,0.17-7.48,5.15
		c-1,4.99-1.16,6.31-1.16,6.31s-4.32,5.35-1.83,11.15C11.67,65.69,6.19,71.38,13.5,78.58z"/>
	<path d="M38.59,111.7c5.05-4.32,5.32-7.64,2.33-4.32c-2.37,2.63-8.68,8.92-12.12,16.7c0.57,0.66,1.15,1.31,1.74,1.95
		C33.38,118.5,38.59,111.7,38.59,111.7z"/>
	<path d="M84.45,120.84c-2.66-3.2-4.15-1.76-4.15-1.76s-7.64,16.05,1.83,24.85c0.12,0.11,0.23,0.22,0.35,0.32
		c3.29-0.08,6.7-0.2,9.78-0.39C90.92,136.97,88.07,125.19,84.45,120.84z"/>
</g>
<g>
</g>
<g>
</g>
<g>
</g>
<g>
</g>
<g>
</g>
<g>
</g>
</svg>
