<?xml version="1.0" encoding="utf-8"?>
<!-- Generator: Adobe Illustrator 25.2.0, SVG Export Plug-In . SVG Version: 6.00 Build 0)  -->
<svg version="1.1" id="_x31_0_Dragon" xmlns="http://www.w3.org/2000/svg" xmlns:xlink="http://www.w3.org/1999/xlink" x="0px"
	 y="0px" viewBox="0 0 160 160" style="enable-background:new 0 0 160 160;" xml:space="preserve">
<path d="M80,11.39c-37.83,0-68.61,30.78-68.61,68.61c0,16.18,5.64,31.05,15.04,42.79c-0.34,0.3-0.6,0.69-0.75,1.2
	c0,0-3.55-0.56-4.5,1.73c0,0-5-1.22-7.23,3.39c-2.86,10.8,7.62,13,7.62,13c-6.43-6.86-1.33-11.04-1.33-11.04
	c0.87,9.23,10.84,8.3,10.84,8.3c-7.77-1.63-5.06-9.27-5.06-9.27c2.43,9.3,12.5,7.07,12.5,7.07c-5.74-0.93-6.98-5.66-6.95-8.6
	c12.42,12.39,29.55,20.06,48.43,20.06c37.83,0,68.61-30.78,68.61-68.61S117.83,11.39,80,11.39z M36.09,124.66
	c0.92-0.15,1.86-0.27,2.65-0.35c1.48-0.17,2.25,2.76,2.61,4.97C39.52,127.83,37.76,126.3,36.09,124.66z M80,142.67
	c-13.91,0-26.76-4.56-37.17-12.25c1.7-2.18,3.84-6.88-3.88-11.67c-1.68-1.04-4.2,1.62-4.2,1.62s-2.7-8.62-2.01-9.92
	c0.69-1.3,5.58-1.42,8.43-0.24c2.05,0.85,2.5,1.15,5.31,2.01c-1.05,5.21-0.68,10.99,1.64,17.21c0.5,1.35,1.29,2.59,1.95,3.89
	c-0.64-7.24,0.03-8.58,0.21-8.59c0.99,1.76,1.73,3.73,3.01,5.25c2.26,2.69,4.66,5.29,7.2,7.72c5.05,1.69,13.54,3.55,24.97,2.58
	c-2.03-0.87-4.06-1.73-6.09-2.59c-9.05-3.85-12.06-16.48-9.57-15.1c0,0,1.46,8.35,9.31,11.92c7.85,3.57,12.85,4.28,12.85,4.28
	s15.14-2.25,21.85-9.85c-10,3.28-16.71-4.57-16.71-4.57c1.86-0.57,3.86-4.57,3.86-4.57s-17.42,5.71-17.85-6.72
	c-0.4-5.8,4.39-14.03,10.63-17.15c4.79,8.71,8.36,6.59,9.79,8.88c1.43,2.28,6.14,15.71,6.14,15.71c1.71,7,5.14,8.42,10.28,4.43
	c5.14-4,7.28-8.28,7.28-8.28s-5.28,4-8.71,5.85c-3.43,1.86-4.57-0.29-4.57-3.71c0-3.43,3-13.99,4.28-10.28
	c1.29,3.71,0.14,8.71,0.14,8.71c4.85-4.85,4.43-12.42,4.43-12.42c2.71,1.71,2.43,10.42,2.43,10.42c3-4.57,2.86-8.57,2.86-8.57
	c1.29,2.14,0.86,7.85,0.86,7.85c4.43-5.28,2-12.71,1.14-12.71s-3.28,0.29-3.28,0.29s-0.57-4.71-1.86-3.71
	c-1.29,1-3.43,3.14-3.43,3.14s-1.29-3.28-4.57-0.57c-3.28,2.71-5.85,10.42-5.85,10.42s-4.43-9.57-5-12.99
	c-0.57-3.43-2.71-12.28-2.71-12.28s-3.71-0.43-8.13,1.17c-8.82,4.16-15.44,10.68-20.34,19.19c-0.43-1.47-0.83-2.84-0.67-4.14
	c0.83-6.69,5.36-10.96,10.15-14.99c2.74-2.39,1.5,2.42,1.5,2.42C90.32,85.81,96,82.89,96.1,75.53c2.71,2.16,4.78,4.45,5.77,7.69
	c1.89-1.78,2.73-1.58,3.65,0.57c0.53,1.23,1.03,2.48,1.64,3.96c2.96-3.17,3.28-6.95,3.68-10.7c4.03,1.79,4.68,4.21,4.68,4.21
	c1.29-1.57,1-2.87,1-2.87c3.28,2.27,4.43,5.58,4.43,5.58c1.57-2.28,0.86-4,0.86-4c3,1.71,5.85,7,5.85,7
	c-4-20.85-19.1-22.94-19.1-22.94c-0.53,2.24-0.99,4.55-1.66,6.79c-0.16,0.54-1.5,3.04-2.3-0.25c-1.32-5.4-2.52-10.62-5.88-15.11
	c-0.28-0.37-0.47-0.81-0.71-1.22c0,0,8.95,0.75,14.23,3.17c0,0-1.57,0.57-2.28,1.57c0,0,15.76,7.47,19.9,26.35
	c0.2-0.67,0.34-1.3,0.18-1.85c1.69,1.43,3.19,10.34,3.19,10.34c1-27.13-11.99-33.41-11.99-33.41c1.29-0.86,4.71,0.86,4.71,0.86
	c-7.91-14.13-22.71-16.69-22.71-16.69c0.65-0.13,4.85,0.91,6.37,1.34c35.91,10.07,23.35,64.19,23.35,64.19
	c20.7-42.98-5.28-69.68-14.42-72.06c-1.2-0.28-2.39-0.71-3.51-1.24c-0.41-0.19-0.8-0.89-0.8-1.35c0-0.35,0.6-0.77,1.02-1.01
	c0.35-0.2,0.82-0.19,1.23-0.27c-0.64-0.75-1.36-1.13-2.11-1.43c-6.45-2.56-13.03-4.54-19.94-5.52c-1.71-0.25-2.43-0.81-2.68-1.92
	c-0.43-1.9,4.84-3.25,4.84-3.25c-0.97-0.05-1.96-0.27-2.9-0.11c-2.59,0.42-5.15,1.09-7.75,1.5c-3.89,0.62-7.79,1.18-11.71,1.58
	c-0.78,0.08-2.21-0.15-2.48-1.01c-0.75-2.33,3.66-4.8,3.66-4.8c-9.21,1.96-18.27,4.28-26.44,9.38
	c-7.32,4.57-13.12,10.71-18.64,17.38c13.36-11.03,28.45-11.5,44.37-7.73c-0.51-0.8-3.15-1.52-2.83-3.79
	c0.11-0.75,1.25-1.42,2.02-1.55c3.28-0.55,6.29,0.19,8.75,2.57c1.22,1.19,1.51,2.49,0.67,4.1c-1.53,2.92-1.17,4.28,0.92,6.97
	c1.28,1.64,2.17,3.59,3.32,5.53c-3.5-1.18-6.51-2.2-9.53-3.22c-2.26-1.23,3.73-2.34,3.73-2.34c-2.07-1.46-3.89-1.2-5.89-0.24
	c-1.19,0.57-2.67,1.11-3.9,0.91c-3.31-0.54-6.52-1.55-9.94-0.6c-0.58,0.16-2.01-0.11-2.14-0.96c-0.37-2.46,3.99-4.02,3.99-4.02
	c-3.88-0.19-6.79,1.34-9.34,3.99c-1.56,1.62-3.57,2.81-5.43,4.11c-8.9,6.21-7.85-2.36-7.85-2.36s-4.8,2.77-6.99,4.86
	c-2.19,2.09-5.84,8.04-5.72,19.71c0.02,2.25-1.54,3.74-3.14,4.03c-2.13,0.39-3.99-4.67-3.99-4.67c-1.02,4.38-0.84,8.15,1.33,11.75
	c2.18,3.63,5.48,5.61,9.77,7.1c-0.5-1.33-0.81-2.15-1.18-3.14c-0.26-0.69,2.94-0.54,2.94-0.54c-1.3-0.82-2.34-2.84-1.77-3.37
	c0.99-0.65,3.45,0.53,3.45,0.53c-1.04-2.43-0.22-3.28,0.44-4.11c3.17-3.98,5.8-3.94,5.8-3.94c-0.02,2.41-0.12,5.21-2.48,5.89
	c0,0,1.86,2.1,1.68,2.87c-1.08,4.44-2.83,2.97-2.56,3.5c0.44,0.85,0.87,1.72,1.41,2.76c-1.34,0.41-2.49,0.77-3.66,1.13
	c1.37,2.52,6.45,4.59,8.9,3.69c-0.39-0.75-0.78-1.51-1.33-2.57c3.97,0.04,7.54-0.06,10.78-1.96c-1.86,0.77-4.63-1.06-4.63-1.06
	c1.92-2,1.11-3.06-0.58-3.96c-0.63-0.33-1.18-0.85-1.67-1.38c-2.27-2.5-2.09-4.62,0.26-7.03c4.7-4.81,13.05-6.19,13.05-6.19
	s-2.68-2.56-5.24-2.36c0,0,8.31-1.64,11.28-0.65c0,0-4.66-4.82-10.6-3.4c0,0,2.63-3.58,6.82-3.99c0,0-1.22-1.83-4.73-1.96
	c6.49-2.31,13.05-5.06,18.22,2.52c0.2,0.29,1.43,0.31,1.72,0.01c1.07-1.09,2.2-1.77,3.69-1.18c1.59,0.63,2.15,2.03,2.37,3.61
	c0.38,2.65-0.47,5-2,7.05c-1.68,2.25-3.6,4.32-5.46,6.53c0.44,0.24,0.96,0.52,1.81,0.99c-1,0.73-1.77,1.29-2.54,1.84
	c-6.15,4.42-12.57,8.52-18.4,13.33c-4.24,3.49-7.73,7.78-9.91,12.74c-0.91-0.18-1.82-0.4-2.72-0.68c-6.89-2.13-17.37-0.78-17.88,1.7
	c-0.35,1.71,1.02,6.13,1.93,9.95C21.93,106.88,17.33,93.97,17.33,80c0-34.56,28.11-62.67,62.67-62.67
	c34.56,0,62.67,28.11,62.67,62.67C142.67,114.56,114.56,142.67,80,142.67z M34.82,73.18c0,0-1.3-1.45,0-4.82
	c0.65-1.68,1.3-3.37,1.99-5.04c0.35,0.05,0.35,3.88,0.48,5.74C37.5,72.1,34.82,73.18,34.82,73.18z"/>
<g>
</g>
<g>
</g>
<g>
</g>
<g>
</g>
<g>
</g>
<g>
</g>
</svg>
