<?xml version="1.0" encoding="utf-8"?>
<!-- Generator: Adobe Illustrator 25.2.0, SVG Export Plug-In . SVG Version: 6.00 Build 0)  -->
<svg version="1.1" id="_x31_4_Goblin" xmlns="http://www.w3.org/2000/svg" xmlns:xlink="http://www.w3.org/1999/xlink" x="0px"
	 y="0px" viewBox="0 0 160 160" style="enable-background:new 0 0 160 160;" xml:space="preserve">
<path d="M80,148.55c-37.83,0-68.61-30.78-68.61-68.61c0-37.83,30.78-68.61,68.61-68.61c37.83,0,68.61,30.78,68.61,68.61
	C148.61,117.77,117.83,148.55,80,148.55z M80,17.27c-34.56,0-62.67,28.11-62.67,62.67c0,34.56,28.11,62.67,62.67,62.67
	c34.56,0,62.67-28.11,62.67-62.67C142.67,45.38,114.56,17.27,80,17.27z"/>
<g id="XMLID_238_">
	<path id="XMLID_252_" d="M93.35,113.18c2.1-2.96,3.99-6.08,5.96-9.15c-0.14,8.19-0.27,16.38-6.25,24.54c0,0-1.94,3.01-2.4,5.08
		s-0.46,2.3-0.58,4.49s-2.19,3.34-2.19,2.53c0-0.81-1.27-5.64-1.27-5.64s-0.58,2.99-0.58,4.38c0,1.38-0.81,4.15-1.15,6.79
		c-0.35,2.65-1.61,2.88-1,4.61c0.62,1.73-1.94,5.89-1.94,5.89l-3.28,1.8c0.58-2.53-1.84-11.73-2.19-13.91s-0.58-7.37-0.23-9.1
		c0.35-1.73,0.58-4.49-0.46-3.8c-1.04,0.69-0.81,2.65-0.81,3.57c0,0.92-2.65,11.98-2.76,11.63c-0.12-0.35-0.58-3.8-0.46-4.84
		s-0.81-2.76-0.69-4.84c0.12-2.07-1.15-5.53-1.23-7.95c-0.07-2.42-1.54-5.3-2.69-8.41c-1.15-3.11-4.83-18.29-4.83-18.29
		c3.04,4.53,5.19,8.04,7.69,11.28c0.89,1.16,2.21-0.93,2.56-1.8c0.35-0.87,1.84-2.02,1.96-3.4c0.12-1.38,1.61-0.32,2.42,1.1
		c0.81,1.43,2.73-1.53,4.13-2.29c2.1-1.15,3.73,3.9,5.39,2.09c0.61-0.67,0.5-1.36,0.96-2.28c0.46-0.92,2.53,3.8,3.11,5.53
		S92.09,114.97,93.35,113.18z"/>
	<path id="XMLID_251_" d="M44.74,81.43c0.68,3.89,0.09,4.21,2.27,7.43s1.04,7.03,1.17,10.36s2.28,2.65,4.58,4.49
		c2.3,1.84,9.57,11.52,9.57,11.52s-0.88-7.05-1.79-9.44c-0.91-2.39-2.36-5.64-1.99-7.49c0.37-1.84-1.64-6.45-2.86-8.29
		c-1.22-1.84-1.2-3.34-2.72-5.06c-1.52-1.72-2.28-6.46-3.31-8.3c-1.04-1.84-3.22-3.34-4.92-4.72s-1.76-1.15-3.25-1.96
		c0,0,1.24,3.22,1.03,5.3C42.29,77.35,44.37,79.34,44.74,81.43z"/>
	<path id="XMLID_250_" d="M117.67,78.9c-0.68,3.89-0.09,4.21-2.27,7.43c-2.19,3.22-1.04,7.03-1.17,10.36
		c-0.14,3.34-2.28,2.65-4.58,4.49c-2.3,1.84-9.57,11.52-9.57,11.52s0.88-7.05,1.79-9.44s2.36-5.64,1.99-7.49
		c-0.37-1.84,1.64-6.45,2.86-8.29c1.22-1.84,1.2-3.34,2.72-5.06c1.52-1.72,2.28-6.46,3.31-8.3c1.04-1.84,3.22-3.34,4.92-4.72
		c1.7-1.38,1.76-1.15,3.25-1.96c0,0-1.24,3.22-1.03,5.3C120.11,74.81,118.04,76.8,117.67,78.9z"/>
	<path id="XMLID_249_" d="M100.68,93.93c-0.66-1-2.9-2.22-3.77-3.55c-1.36-0.44-2.1,3.09-2.33,3.78c-0.23,0.69-0.23,0.92-0.46,3.8
		c-0.23,2.88-2.88,9.56-3.11,7.42c-0.23-2.14,0-2.47-0.35-4.31c-0.35-1.84-1.73-6.33-2.42-5.76c-0.69,0.58-2.99,6.56-3.11,5.41
		c-0.12-1.15-1.61-2.3-1.23-2.88c0.39-0.58-2.34-4.72-3.08-4.03c-0.74,0.69-0.88,0.92-1.11,2.76c-0.23,1.84-1.61,4.49-1.84,3.69
		c-0.23-0.81-2.99-5.53-3.11-4.49s-2.3,3.8-2.19,6.33s-1.27,5.64-1.5,4.38s-1.38-3.11-1.96-5.64c-0.58-2.53-1.15-5.76-1.38-7.49
		s-1.73-4.61-1.93-2.81c-0.77,1.52-3.64,3.25-4.06,4.07c-1.21-5.53-4.87-12.01-7.3-18.2c-1.26-2.91-9.17-7.13-11.95-8.51
		c-2.78-1.38-3.25-4.2-1.95-5.53c1.31-1.33-0.35-4.95,0-7.38c0.35-2.43,2.88-3.86,2.88-3.86s1.39,1.61,3.92,5.83
		c2.53,4.21,3.5,5.08,4.46,5.69s4.54,2.28,5.68,2.49c1.14,0.21,4.67,1.15,6.02,0.23c0,0-2.94,2.53-4.65,3.34
		c-1.71,0.81-2.41,1.84-0.1,3.11s3.8,2.07,6.22,4.26c2.42,2.19,4.26,4.03,6.1,6.1c1.84,2.07,3.61,2.06,4.95,3.79
		c2.07,2.66,3.94,6.35,5.31,6.23c1.37-0.12,5.17-4.72,5.17-4.72c1.61-4.26,3.34-4.95,3.92-5.87c0.58-0.92,0.92-2.77,2.3-2.65
		c1.38,0.12,4.03-2.07,4.03-2.07s2.65-2.88,4.15-4.15s1.88-0.58,2.61-2.19s-2.1-2.76-3.45-3.11c-1.35-0.35-4.34-2.76-4.34-2.76
		s6.79,1.84,10.71,0.46c3.92-1.38,7.6-3.69,8.75-5.99c1.15-2.3,2.07-7.71,0.58-9.9c0,0,1.04,0.92,3.74,3.1
		c2.71,2.19,2.94,3.92,2.25,5.87c-0.69,1.96,0.2,3.22,0.33,4.15s-0.33,1.61-2.58,2.19c-2.25,0.58-2.02,2.3-3.63,2.88
		c-1.61,0.58-1.5,0.46-3.34,2.53c-1.84,2.07-2.84,7.08-4.72,9.79c-1.88,2.71-3.8,5.07-4.95,7.49
		C101.72,89.67,100.1,91.86,100.68,93.93z"/>
	<path id="XMLID_243_" d="M60.55,37.19c0,0,4.78,1.92,6.39,3.07c1.61,1.15,3.34,3.11,5.18,3.8s1.96-1.92,2.88-3.44
		c0.92-1.52,0.46,3.49,1.04,4.5c0.58,1.01,2.58,1.12,4.98,1.7c2.4,0.58,5.04-0.12,7.23-1.04c2.19-0.92,0-6.33,0-6.33
		s2.53,4.38,3.8,4.38s4.99-2.07,7.27-3.57c2.29-1.5,5.74-4.72,7.47-4.95c0,0-4.03-1.15-9.56-5.76c-5.53-4.61-10.48-2.88-12.21-8.87
		c-1.73-5.99-4.19-8.87-4.19-8.87s-1.68,6.1-8.13,11.75C66.24,29.21,61.07,35.97,60.55,37.19z"/>
	<path id="XMLID_242_" d="M105.75,41.89c0,0.56-0.44-1.86-1.26-1.51c-0.82,0.35-4.5,2.3-6.23,3.45c-1.73,1.15-3.92,1.83-5.64,3.11
		c-1.73,1.27-4.38,1.74-5.87,2.31c-1.29,0.49-0.95,2.3-0.84,2.79c0.02,0.08,0.03,0.12,0.03,0.12s-0.01-0.05-0.03-0.12
		c-0.12-0.41-0.6-1.74-2-1.64c-1.65,0.12-3.41-0.53-3.84,0.46c-0.66,1.5-0.92,7.14-0.92,7.14s-0.69-6.45-0.92-7.14
		c-0.23-0.7-3.69-3.34-3.92-2.3l-1.15,2.58c0,0-0.12-5-2.53-4.92s-2.76-2.49-7.41-4.78c-2.89-1.43-3.28-1.8-4.14-2.21
		c-0.46,1.02-1.43,2.68-3.37,4.46c2.38,0.72,4.75,1.32,6.63,2.53c3.35,2.15,4.37,3.27,7.52,6.84c3.15,3.57,3.18,3.57,3.87,6.56
		s-0.58,10.13-1.38,10.13c-0.58-1.38-1.15-3.69-1.73-5.07c-0.58-1.38-2.19,0.35-3.45,1.15c-1.27,0.81-5.76,2.76-5.41,3.92
		c0.35,1.15,6.53,5.87,8.1,6.45c1.57,0.58,0.07,1.04,2.49,2.53c2.42,1.5,6,4.97,6.57,6.97c0.57,2.01,1.17,3.97,2.43,3.87
		c1.83-0.14,2.29-1.43,2.98-3.6s0.69-3.33,2.19-4.48c1.5-1.15,2.76-3.57,3.34-3.22c0.58,0.35,1.84-0.58,2.76-1.38
		c0.92-0.81,1.06-2.65,3.06-3.34c2-0.69,2.12-1.04,3.16-2.19c1.04-1.15,2.3-1.96,0-2.65c-2.3-0.69-5.76-3.8-6.79-3.92
		c-1.04-0.12-1.61,1.24-1.61,1.77c0,0.53-2.53,4.45-2.65,4.91s-0.61-6.11,0.71-8.57c1.32-2.47,0.21-3.4,1.36-4.79
		c1.15-1.38,5.3-6.1,6.45-6.73c1.06-0.59,0.17-4.47,0.02-5.08c-0.01-0.05-0.02-0.09-0.02-0.09s0.01,0.03,0.02,0.09
		c0.13,0.51,0.9,3.38,2.05,2.96c1.27-0.47,5.76-3.63,7.14-4.12c1.38-0.49,2.53-1.48,4.15-1.91c0.56-0.15,1.02-0.47,1.46-0.84
		c-0.6-1.16-1.64-3.16-2.45-4.86C106.17,39.64,105.75,41.36,105.75,41.89z"/>
	<path d="M67.4,53.16c-0.81-1.15-3.11-1.38-4.19-3.11c-1.08-1.73-1.91-2.07-3.08-2.53c-1.17-0.46-7.24-2.39-7.24-2.39
		s-7.49,11.37,3.3,16.28s14.55-2.49,14.55-2.49s-0.46-1.84-0.88-2.42C69.44,55.93,68.2,54.31,67.4,53.16z M59.12,57.91
		c-2.2-0.73-3.1-2.64-3.21-4.67c-0.07-1.41,0.49-2.7,2.21-3.2l1.84,1.2c0,0-0.3,0.13-0.98,1.36c-1.2,2.19,1.73,4.11,3.52,2.62
		c0.8-0.67,1.36-1.62,1.36-1.62l2.22,1.44C64.26,58.19,61.94,58.85,59.12,57.91z"/>
	<path d="M111.18,45.13c0,0-6.08,1.93-7.24,2.39c-1.17,0.46-2,0.81-3.08,2.53c-1.08,1.73-3.38,1.96-4.19,3.11
		c-0.81,1.15-2.04,2.76-2.46,3.34c-0.42,0.58-0.88,2.42-0.88,2.42s3.76,7.39,14.55,2.49S111.18,45.13,111.18,45.13z M105.57,58.1
		c-2.82,0.93-5.14,0.28-6.95-2.87l2.22-1.44c0,0,0.55,0.96,1.36,1.62c1.79,1.49,4.71-0.43,3.52-2.62c-0.67-1.23-0.98-1.36-0.98-1.36
		l1.84-1.2c1.72,0.5,2.28,1.79,2.21,3.2C108.68,55.46,107.77,57.37,105.57,58.1z"/>
	<g>
		<path d="M62.76,130.93c-0.21-1.61-5.83-6.12-5.83-6.12s-2.5-1.44-4.97-4.68c-0.69-0.91-7.34-5.52-9.75-10.09
			c-4-7.58-2.54-5.91-7.68-10.09c-5.14-4.18-2.55-5.03-5.76-7.9c-3.21-2.87-4.15-6.58-7.23-8.95c-1.05-0.8,3.12-7.58,4.22-10.47
			c1.1-2.89,5.64-12.18,6.9-14.54c1.26-2.36,3.77-5.68,5.49-7.74c1.71-2.06,2.89-4.69,2.36-6.4s2-2.78,6.23-4.6
			c4.23-1.82,2.65-1.28,6.67-4.96c4.02-3.67,4.23-5.32,6.8-8.43c1.02-1.23,2.85-3.23,4.77-5.31C38.67,27.36,19.21,51.2,19.21,79.58
			c0,29.61,21.17,54.25,49.19,59.67c-0.16-0.45-0.27-0.89-0.29-1.3C68.01,135.7,62.98,132.54,62.76,130.93z"/>
		<path d="M101.17,22.59c1.18,0.79,2.1,1.2,4.55,2.42c3.43,1.71,3.53,3.21,5.16,7.72c1.62,4.51,2.55,4.17,4.24,6.2
			c1.69,2.03,3.13,2.57,6.1,5.59s0.67,2.23,2.82,5.84c2.14,3.61,0.74,3.86,4.17,5.79c3.43,1.93,3.65,3.52,4.5,8.98
			c0.68,4.34,1.31,4.75,3.24,7.96c1.93,3.21,2.83,3.75,3.78,7.34c0.54,2.04-3.96,14.03-5.94,14.79c-2.51,0.96-5.97,9.03-9.19,10.85
			s-7.02,9.79-7.02,9.79s-5.71,2.82-6.71,3.96c-5.44,6.18-9.69,12.19-17.63,18.33c0,0-1.14,0.46-2.49,1.25
			c28.44-5.08,50.04-29.92,50.04-59.82C140.79,53.46,124.3,31.19,101.17,22.59z"/>
	</g>
</g>
<path id="XMLID_237_" d="M83.91,150.82c0.39-1.79,0.65-1.96,1-4.61c0.35-2.65,1.15-5.41,1.15-6.79c0-1.38,0.58-4.38,0.58-4.38
	s1.27,4.84,1.27,5.64c0,0.81,2.07-0.35,2.19-2.53s0.12-2.42,0.58-4.49s2.4-5.08,2.4-5.08c5.98-8.16,6.11-16.35,6.25-24.54
	c-1.97,3.06-3.86,6.18-5.96,9.15c-1.27,1.79-2.23,1.36-2.81-0.36s-2.65-6.45-3.11-5.53c-0.46,0.92-0.35,1.61-0.96,2.28
	c-1.67,1.82-3.3-3.24-5.39-2.09c-1.4,0.77-3.32,3.72-4.13,2.29c-0.81-1.43-2.3-2.49-2.42-1.1c-0.12,1.38-1.61,2.53-1.96,3.4
	c-0.35,0.87-1.66,2.96-2.56,1.8c-2.5-3.24-4.64-6.74-7.69-11.28c0,0,3.68,15.18,4.83,18.29c1.15,3.11,2.62,5.99,2.69,8.41
	c0.07,2.42,1.34,5.87,1.23,7.95c-0.12,2.07,0.81,3.8,0.69,4.84s0.35,4.49,0.46,4.84c0.12,0.35,2.76-10.71,2.76-11.63
	c0-0.92-0.23-2.88,0.81-3.57c1.04-0.69,0.81,2.07,0.46,3.8c-0.35,1.73-0.1,6.91,0.23,9.1c1.27,8.3,3.03,9.27,4.49,10.59
	C82.45,156.51,82.91,155.43,83.91,150.82z"/>
<path id="XMLID_236_" d="M35.8,88.53c-1.46-1.74-2.08-4.58-2.84-6.57c-0.76-1.99,0.5-8.64,1.4-11.98s3.24-9.73,3.24-9.73
	s-3.42,3.13-4.5,4.76c-1.08,1.63-2.7,6.1-3.42,8.1s-2.16,6.29-2.52,6.48c-0.36,0.2-1.26,2.02-1.08,2.37s5.74,6.4,5.75,7.15
	c0.01,0.76,3.31,5.44,4.33,6.73c3.42,4.3,7.38,8.1,8.83,12.42c1.44,4.31,9.37,7.65,10.72,9.67c1.35,2.03,8.91,10.31,8.91,10.31
	s-7.38-13.77-8.91-15.53s-6.76-1.27-8.74-5.93c-1.98-4.66-2.13-8.4-5.48-10.94C38.14,93.29,37.24,90.25,35.8,88.53z"/>
<path id="XMLID_235_" d="M126.21,92.61c1.66-3.36,2.7-3.71,3.78-7.55c1.08-3.84,1.44-4.56,1.44-4.56s-4.32-6.46-4.86-10.52
	s1.44-4.16-1.08-11.86c0,0,3.24,1.29,3.96,6.88s5.58,13.66,6.48,14.58s0.9,0.2,0.9,1.64c0,1.44-2.7,7.2-3.96,9.36
	c-1.26,2.16-6.12,7.28-7.38,9.58c-1.26,2.31-2.34,2.72-2.34,2.72c-3.42,3.55-6.66,6.62-7.02,8.78c-0.36,2.16-4.59,4.41-7.34,6.26
	c-2.75,1.85-10.17,12.11-10.17,12.11s4.72-12.84,7.06-14.8c2.34-1.95,3.5-2.13,5.44-4.12c1.94-1.98,4.43-7.74,6.61-9.55
	C119.91,99.77,125.26,94.54,126.21,92.61z"/>
<g>
</g>
<g>
</g>
<g>
</g>
<g>
</g>
<g>
</g>
<g>
</g>
</svg>
