<?xml version="1.0" encoding="utf-8"?>
<!-- Generator: Adobe Illustrator 25.2.0, SVG Export Plug-In . SVG Version: 6.00 Build 0)  -->
<svg version="1.1" id="_x31_3_Orc" xmlns="http://www.w3.org/2000/svg" xmlns:xlink="http://www.w3.org/1999/xlink" x="0px" y="0px"
	 viewBox="0 0 160 160" style="enable-background:new 0 0 160 160;" xml:space="preserve">
<path d="M80,148.61c-37.83,0-68.61-30.78-68.61-68.61S42.17,11.39,80,11.39c37.83,0,68.61,30.78,68.61,68.61
	S117.83,148.61,80,148.61z M80,17.33c-34.56,0-62.67,28.11-62.67,62.67S45.44,142.67,80,142.67c34.56,0,62.67-28.11,62.67-62.67
	S114.56,17.33,80,17.33z"/>
<path d="M82.99,140.71c3.73-4.2,7.72-8.04,10.05-10.91c7.46-10.06,12.59-12.86,13.28-18.64c0.75-2.86,0.44-5.7-3.19-15.54
	s0.27-20.05-0.52-21.32c-1.5-1.97-7.29,9.32-8.05,15.65c-0.65,5.39-0.8,11.67,3.32,16.23c2.41,2.66,2,4.56-0.09,7.24
	c-3.96,5.1-7.47,10.55-11.13,15.87c-2.03,2.59-5.69,7.12-9.36,11.43c0.9,0.04,1.8,0.07,2.7,0.07C81,140.79,82,140.76,82.99,140.71z"
	/>
<path d="M80.58,60.6c-0.96-1.06-1.52-2.46-1.52-2.46l-3.28,1.52c1.84,4.61,4.85,5.94,8.84,5.22c3.11-0.56,4.71-2.97,5.24-5.69
	c0.37-1.89-0.14-3.74-2.37-4.75l-2.73,1.27c0,0,0.38,0.23,1.06,2.03C87.03,60.93,82.71,62.96,80.58,60.6z"/>
<path d="M21.81,62.4c2.86,1.2,5.26,2.21,5.56,2.4c0.72,0.45,5.94,6.12,5.94,6.12s-4.23,1.62-6.57,4.3
	c-1.71,1.96-2.16,6.05,2.34,4.77c4.5-1.28,2.16-3.76,3.24-3.47c1.08,0.29,3.28,8.21,11.71,7.82c10.99-0.73,10.09-6.81,10.9-7.13
	c0.81-0.32,2.7,2.35,4.46,1.77s2.57-1.04,2.46-2.69c-0.25-1.95-1.4-3.46-2.76-3.97c-1.28-0.48-2.68-1.03-4.52-1.66
	c2.64-2.51,4.48-5.15,7.65-6.48c6.01-2.53,11.97-5.18,17.89-7.9c4.26-1.96,8.36-4.25,12.65-6.15c4.5-1.99,8.42-4.72,11.63-8.42
	c1.69-1.95,1.58-2.14,0.21-4.43c-2.76-4.59-6.9-8.82-7.49-14.2c-0.05-0.48-0.15-0.99-0.26-1.51c-5.35-1.54-10.99-2.38-16.83-2.38
	C52.55,19.21,29.36,37.41,21.81,62.4z M46.37,60.39c-0.9-2.34-1.62-7.56-0.9-9.55c0.72-1.98,0.8,0.75,1.26,2.34
	c0,0,2.16,8.74,5.58,9.05C52.32,62.24,47.27,62.73,46.37,60.39z M94.64,37.15c3.92-1.08,2.43,5.81,2.43,5.81
	c0-1.62-1.08-2.97-2.16-3.24c-1.08-0.27-3.92,3.82-3.92,3.82c0.41,1.65,0,1.72,0,1.72s-0.41-3.38-4.57-0.68S56.64,59.91,55.74,60.21
	c-2.7,0.9-4.5-4.86-4.5-4.86s1.06,1.8,4.86,2.34c3.8,0.54,10.35-8.3,17.61-9.19c3.01-0.37,9.22-4.73,12.72-6.62
	C89.92,39.99,90.72,38.23,94.64,37.15z"/>
<path d="M114.23,42.42c-1.76,3.51-7.02,9.46-7.21,10.94c-0.18,1.49-1.03,7.43-0.63,11.35s-0.11,6.89-0.6,9.86
	c-0.33,1.98-1.97,8.15-1.2,7.56c1.69-1.29,9.23-5.83,14.18-9.14c1.81-1.21-2.52-8.06-1.98-10.63c0.52-2.48,4-22.75,4.47-27
	c-0.33-0.3-0.66-0.6-0.99-0.89C118.62,35.64,115.47,39.94,114.23,42.42z M114.63,69.57c0.51,1.27-4.17,3.7-4.17,3.7
	s-0.37-17.41,0.66-19c1.3-2,4.95-9.27,5.49-10.21c0.54-0.95-2.43,8.15-3.11,11.46C112.83,58.83,113.39,66.51,114.63,69.57z"/>
<path d="M74.63,140.54c4.09-4.31,8.04-8.88,10.15-10.94c1.91-3.16,4.11-6.15,5.82-9.41c2.02-3.85,2.86-8.13,1.38-12.3
	c-1.56-4.38-2-8.77-2.14-13.36c-0.1-3.34,0.46-6.12,2.46-8.82c1.78-2.4,1.61-2.71-0.28-4.87c-1.94-2.21-3.95-4.35-5.86-6.58
	c-2.28-2.58-9.2-3.47-8.8-4.01s4.86-0.95,10.23,3.05c2.14,1.33,4.19,2.81,6.81,3.19c1.62,0.24,2.08-0.76,3.74-1.52
	c3.54-1.62,5.17-3.92,5.17-5.94s1.22-10.14,1.25-16.18c0.01-1.94,1.23-6.12-0.82-5.45c-2.5,0.64-4.04,1.95-6.1,5.15
	c-2.43,3.78-5,7.49-7.21,11.4c-1.36,2.4-3.13,3.13-5.73,2.67c-0.78-0.14-1.57-0.25-2.36-0.29c-6.76-0.38-13.57-1.37-20.18,1.31
	c-3.06,1.16-2.66,2.6-0.14,4.81c1.88,1.65,3.87,3.86,3.26,6.23c2.62,0.97,7.66,2.96,10.53,4.8c4,2.57,3.99,2.86,7.1,5.68
	C86,92,87.86,94.7,85.44,99.83c0.28,1.49-2.2,2.9-1.09,6.66c0.65,1.78,1.12,3.63,1.47,5.49c2.3,3.14-2.62,9.25-8.49,12.35
	c-1.29,1.43-8.42-1.27-7.12-2.13c1.76-0.79,3.35-1.5,4.82-2.16c0.09-2.65-1.92-3.04-3.35-3.57c-3.96-1.48-8.03-2.67-12.2-4.02
	c-8.42-1.82-25.89,2.5-28.41,2.5c-0.23,0-0.24,0.36-0.06,1.01C41.07,129.66,56.74,138.97,74.63,140.54z M36.83,120.64
	c0.81-0.18,5.33-0.3,6.39-0.63c3.97-1.24,7.83-2.25,10.9-1.98c3.06,0.27,6.3,0.99,7.56,1.17c1.26,0.18-4.14,1.35-7.38,1.35
	s-4.86-0.54-7.74,1.08C43.67,123.25,36.01,120.82,36.83,120.64z"/>
<path d="M23.01,101.18c-0.16-0.92-0.25-1.63-0.23-1.98c0.09-1.8,1.35-1.89,1.71-0.36c0.36,1.53,3.78,10.63,4.77,12.52
	c0.42,0.8,5.76-0.54,5.76-1.8s-1.98-5.58-1.98-9.73s2.7-2.7,2.88-0.18c0.18,2.52,1.08,5.94,0.9,8.1c-0.18,2.16,6.48,2.17,6.12,0
	c-0.36-2.17-0.54-4.68-0.15-9.14c0.39-4.46,1.77-3.28,2.49-2.02c0.72,1.26-0.36,1.8-0.07,7.69s1.94,3.7,5.65,3.47
	c3.71-0.22,1.62-0.72,2.46-4.41c0.96-2.15,0.91-7.02,2.88-7.03c0.74,0.41,0.08,2.64-0.02,3.73c-0.15,1.58-0.55,3.14-0.63,4.72
	c-0.08,1.8,0.98,3.51,2.32,3.71c1.63,0.24,3.34,0.7,5.16-0.52c0-2.01-0.09-4.12,0.02-6.22c0.11-2.09-0.45-4.29,0.57-6.71
	c2.64-0.88,0.74,3.23,0.72,3.44c-0.46,4.5,1.32,6.4,1.43,10.82c0.04,1.43,0.71,2.17,1.75,2.72c1.13,0.6,2.04-0.07,2.87-0.77
	c1.43-1.21,2.38-2.65,2.32-4.64c-0.02-0.81-0.09-1.84,0.34-2.41c1.67-2.27,3.51-4.41,5.34-6.55c0.69-2.4,3.26-3.75,2.86-2.26
	s-6.35,8.53-5.76,9.78c1,1.78,1.38,3.63,0.36,5.65c-1.38,2.73-1.18,3.19,1.48,4.62c0.44,0.24,0.89,0.47,1.05,0.54
	c3.33-0.73,3.63-2.81,3.32-5.42c-0.23-1.93-0.05-3.92-0.05-5.88c0.1-1.44,0.6-2.68,1.21-3.59c0,0,0,0,0,0
	c2.03-6.1,2.99-7.44-4.41-13.73c-1.39-1.18-7.26-3.42-12.84-5.33c-0.84-0.29-1.52-0.57-2.05-0.84c-2.65,2.34-6.23-0.25-7.58-0.75
	c-1.35-0.5-1.08,6.98-10.83,6.92c-9.75-0.06-12.13-4.8-13.21-5.03c-1.08-0.23-5.4,4.82-7.93,0.68c-3.42-5.62,0.27-7.47,0.27-7.47
	c2.7-3.51,4.05-3.96,0.9-4.41c-1.21-0.17-3.26-0.15-5.33-0.06c-0.43,2.92-0.66,5.91-0.66,8.96C19.21,87.45,20.56,94.59,23.01,101.18
	z"/>
<g>
</g>
<g>
</g>
<g>
</g>
<g>
</g>
<g>
</g>
<g>
</g>
</svg>
