<?xml version="1.0" encoding="utf-8"?>
<!-- Generator: Adobe Illustrator 25.2.0, SVG Export Plug-In . SVG Version: 6.00 Build 0)  -->
<svg version="1.1" id="_x34__Mulhandi" xmlns="http://www.w3.org/2000/svg" xmlns:xlink="http://www.w3.org/1999/xlink" x="0px"
	 y="0px" viewBox="0 0 160 160" style="enable-background:new 0 0 160 160;" xml:space="preserve">
<style type="text/css">
	.st0{clip-path:url(#XMLID_2_);}
	.st1{fill:none;}
</style>
<path d="M80,148.61c-37.83,0-68.61-30.78-68.61-68.61S42.17,11.39,80,11.39c37.83,0,68.61,30.78,68.61,68.61
	S117.83,148.61,80,148.61z M80,17.33c-34.56,0-62.67,28.11-62.67,62.67S45.44,142.67,80,142.67c34.56,0,62.67-28.11,62.67-62.67
	S114.56,17.33,80,17.33z"/>
<g id="XMLID_154_">
	<defs>
		<circle id="XMLID_523_" cx="80" cy="80" r="65.64"/>
	</defs>
	<clipPath id="XMLID_2_">
		<use xlink:href="#XMLID_523_"  style="overflow:visible;"/>
	</clipPath>
	<g class="st0">
		<path class="st1" d="M80.6,82.63c-3.35,0-6.07,2.72-6.07,6.07c0,4.96,4.23,10.61,6.04,12.81c1.81-2.31,6.09-8.24,6.09-12.81
			C86.67,85.35,83.94,82.63,80.6,82.63z"/>
		<path d="M102.24,106.66H87.17c4.22-4.52,8.89-11.13,8.89-18.55c0-8.53-6.92-15.46-15.46-15.46c-8.53,0-15.46,6.92-15.46,15.46
			c0,7.82,4.39,14.22,8.5,18.55H58.96l-3.09,12.27l19.9-4.93l-4.44,32.84h18.55L85.43,114l19.9,4.93L102.24,106.66z M80.6,103.19
			c0,0-7.15-7.69-7.15-14.49c0-3.96,3.19-7.15,7.15-7.15c3.96,0,7.15,3.19,7.15,7.15C87.75,94.93,80.6,103.19,80.6,103.19z"/>
	</g>
	<path class="st0" d="M113.48,102.75c3.68-6.03,5.94-13.19,6.35-21.01c-0.76-21.48-16.54-40.32-40.24-40.32
		c-22.92,0-40.15,16.76-40.03,40.15c0.05,9.54,2.92,17.87,7.84,24.42l32.99-57.71L113.48,102.75z"/>
	<path class="st0" d="M113.09,54.5C113.09,54.5,113.09,54.5,113.09,54.5l-0.04,0.01C113.07,54.51,113.08,54.51,113.09,54.5z"/>
	<polygon class="st0" points="119.81,63.92 119.81,63.92 119.8,63.93 	"/>
	<path class="st0" d="M119.81,63.92c4.69-5.65,10.89-9.03,17.5-11.86c4.1-1.75,8.2-3.55,12.1-5.7c2.56-1.41,5.18-3.21,4.59-7.24
		c-3.94,4.97-9.7,5.47-15.04,6.88c-1.93,0.51-4.02,0.53-5.89,1.18c-6.7,2.35-13.33,4.87-19.98,7.33
		C114.64,58.13,115.55,62.22,119.81,63.92z"/>
	<polygon class="st0" points="52.51,47.77 52.51,47.77 52.51,47.78 	"/>
	<path class="st0" d="M61.92,41.04c-5.66-4.66-8.93-10.91-11.86-17.46c-1.99-4.46-4.33-8.77-6.65-13.07
		c-1.35-2.5-3.56-3.9-6.48-4.29c4.74,5.05,6.63,11.11,7.44,17.63c0.19,1.54,0.47,3.11,0.99,4.56c2.33,6.47,4.75,12.91,7.15,19.36
		C56.15,46.23,60.26,45.35,61.92,41.04z"/>
	<path class="st0" d="M61.92,41.03C61.92,41.03,61.92,41.03,61.92,41.03c0.01,0.01,0.01,0.02,0.02,0.03L61.92,41.03z"/>
	<path class="st0" d="M83.64,39.18c-0.29-2.98-0.59-5.15-0.71-7.33c-0.21-4-0.6-8.03-0.39-12.02c0.22-4.22,1.42-8.4,1.53-12.61
		C84.17,2.91,84.17-1.65,80.1-5c2.1,6.74-0.14,12.83-2.21,18.96c-1.14,3.39-2.05,6.85-3.03,10.29c-1.37,4.8-1.3,9.62-0.27,14.92
		C77.38,39.18,79.93,39.18,83.64,39.18z"/>
	<path class="st0" d="M39.05,98.92c-1.71,1.73-3.16,3.91-5.19,5.08c-5.4,3.11-10.98,5.94-16.63,8.57
		c-5.2,2.42-10.1,5.02-12.58,10.04c4.46-1.73,8.76-4.16,13.36-5.03c9.72-1.84,19-4.67,27.76-9.25
		C44.24,104.7,43.35,100.59,39.05,98.92z"/>
	<path class="st0" d="M45.77,108.34C45.77,108.34,45.77,108.34,45.77,108.34l0.01-0.01C45.78,108.34,45.78,108.34,45.77,108.34z"/>
	<polygon class="st0" points="39.04,98.92 39.05,98.92 39.05,98.92 	"/>
	<path class="st0" d="M104.91,46.49c0.46-0.44,0.92-0.87,1.38-1.31c1.59-4.13,2.69-8.54,4.87-12.32c3.12-5.41,7.03-10.36,10.6-15.51
		c1.82-2.63,3.02-5.35,0.89-10.04c-1.44,7.58-6.67,10.94-10.83,15.2c-4.19,4.29-8.27,8.7-12.28,13.16
		c-1.48,1.64-2.64,3.55-3.94,5.35c0,0,0.01,0,0.01,0C98.7,42.85,101.8,44.67,104.91,46.49z"/>
	<path class="st0" d="M23.25,52.61c4.57,5.37,10.01,9.93,17.5,12.47c1.41-3.51,2.56-6.36,3.71-9.21l-0.05-0.04
		c-7.9-2.14-14.71-6.3-21.19-11.17c-3.03-2.27-6.18-4.44-9.53-6.19c-2-1.04-4.48-1.17-6.74-1.71c-0.18,0.4-0.37,0.79-0.55,1.19
		C13.88,40.82,18.35,46.86,23.25,52.61z"/>
	<path class="st0" d="M135.08,117.59c3.11,2.49,6.41,4.87,9.94,6.68c2.39,1.23,5.34,1.38,8.77,2.18c-5-3.91-9.93-6.49-13.07-10.48
		c-5.91-7.5-13.04-13.29-20.92-18.39c0,0,0,0,0,0l0,0c-1.53,2.67-3.07,5.35-4.6,8.02l1.18,1.94
		C123.28,109.6,129.43,113.06,135.08,117.59z"/>
	<path class="st0" d="M21.2,85.99c5.22,1.31,10.46,1.53,16.01,0.15c0-2.84,0-5.38,0-8.45c-1.84-0.13-2.77-0.42-3.58-0.23
		c-7.09,1.66-14.1,1.39-21.26,0.13c-4.13-0.73-8.48-0.46-12.72-0.22c-2,0.11-3.95,1.18-5.93,1.82c0.08,0.48,0.15,0.96,0.23,1.44
		c7.49-1.69,14.13,1,20.85,3.36C16.91,84.73,19.04,85.45,21.2,85.99z"/>
	<path class="st0" d="M148.29,80.22c-3.26-0.75-6.41-1.99-9.63-2.92c-5.42-1.58-10.89-1.93-17.14-0.81c0.5,3.1,0.93,5.83,1.41,8.78
		c1.92,0,3.29,0.26,4.52-0.04c6.22-1.51,12.35-1.06,18.62-0.03c4.37,0.72,8.93,0.37,13.41,0.34c2.13-0.01,4.21-0.48,5.13-2.05
		C159.05,82.39,153.64,81.45,148.29,80.22z"/>
	<path class="st0" d="M99.82,21.8c0.95-1.73,1.66-3.71,1.93-5.66c0.22-1.55-0.39-3.22-0.77-5.7c-1.8,3.53-2.85,6.15-4.39,8.47
		c-1.71,2.58-3.95,4.81-5.79,7.31c-2.75,3.72-5.28,7.58-5.69,13.4c3.63,0.49,7.04,0.94,10.45,1.4C94.99,34.17,96.5,27.81,99.82,21.8
		z"/>
	<path class="st0" d="M95.59,41.02c-0.01,0-0.02,0-0.03,0c0,0.01,0,0.03,0,0.04C95.57,41.05,95.58,41.04,95.59,41.02z"/>
	<path class="st0" d="M95.6,41.03C95.59,41.03,95.59,41.02,95.6,41.03c-0.02,0.01-0.03,0.02-0.04,0.04L95.6,41.03z"/>
	<path class="st0" d="M72.44,38.73c-3.33-6.46-5.03-13.02-5.16-20.04c-0.07-3.89-2.23-6.87-5.29-9.6c0.38,3.97,1.59,7.6,0.87,10.81
		c-1.59,7.07-1.42,14.07-0.92,21.15C65.99,43,69.03,40.8,72.44,38.73z"/>
	<path class="st0" d="M61.94,41.04c-0.01,0-0.01-0.01-0.02-0.01l0.02,0.03C61.94,41.05,61.94,41.04,61.94,41.04z"/>
	<polygon class="st0" points="39.05,98.92 39.04,98.92 39.05,98.92 	"/>
	<path class="st0" d="M37.74,89.85c-7.54,1.37-14.51,2.48-21.4,3.94c-3.43,0.73-7.23,1.42-8.19,5.06c3.36-0.28,6.71-1.27,9.75-0.67
		c7.06,1.38,14.03,2.4,21.15,0.74C41.13,95.09,38.8,92.19,37.74,89.85z"/>
	<path class="st0" d="M119.82,97.56c-0.01,0-0.02,0-0.02,0c0.01,0,0.01,0.01,0.02,0.01C119.82,97.57,119.82,97.57,119.82,97.56z"/>
	<path class="st0" d="M135.89,100.19c3.14,1.57,6.61,2.57,10.02,3.46c1.06,0.28,2.44-0.65,3.22-0.89
		c-4.41-3.13-8.47-6.13-12.66-8.95c-4.36-2.93-8.6-6.22-14.97-6.74c-0.58,3.63-1.13,7.06-1.67,10.49
		C125.43,96.88,130.73,97.61,135.89,100.19z"/>
	<polygon class="st0" points="119.82,97.58 119.82,97.58 119.79,97.57 	"/>
	<path class="st0" d="M119.79,97.57l0.02,0.02c0,0,0,0,0,0C119.81,97.58,119.8,97.57,119.79,97.57z"/>
	<polygon class="st0" points="119.81,63.93 119.81,63.92 119.8,63.93 	"/>
	<path class="st0" d="M122.32,74.5c6.38-3.48,12.66-5.36,19.54-5.24c3.3,0.06,6.31-1.23,8.73-4.34c-3.43,0-6.35,0.46-9.05-0.09
		c-7.23-1.48-14.41-2.31-21.73-0.91C118.44,67.95,120.42,71.03,122.32,74.5z"/>
	<path class="st0" d="M113.07,54.48c2.67-5.58,7.22-9.46,11.91-13.26c2.41-1.95,4.81-3.97,6.85-6.29c0.95-1.08,1.04-2.93,1.8-5.28
		c-3.18,2.55-5.19,4.74-7.66,6.04c-6.45,3.37-13.1,6.36-19.68,9.49c-0.46,0.44-0.92,0.87-1.38,1.31
		C107.63,49.16,110.35,51.82,113.07,54.48z"/>
	<path class="st0" d="M113.09,54.49c0,0-0.01-0.01-0.01-0.01c-0.01,0.01-0.01,0.02-0.02,0.04L113.09,54.49z"/>
	<polygon class="st0" points="45.79,108.33 45.79,108.33 45.79,108.33 	"/>
	<path class="st0" d="M45.77,108.35C45.77,108.35,45.78,108.35,45.77,108.35c0.01,0,0.01-0.01,0.01-0.01L45.77,108.35z"/>
	<path class="st0" d="M45.78,108.35c-0.13,0.37-0.24,0.74-0.36,1.11l0.54-0.94C45.9,108.47,45.84,108.41,45.78,108.35z"/>
	<path class="st0" d="M33.56,121.89c-3.88,2.52-7.27,5.57-7.9,11.05c3.12-2.25,5.45-4.77,8.33-5.83c0.58-0.21,1.15-0.43,1.73-0.65
		l7.01-12.27C40.24,117.33,36.98,119.67,33.56,121.89z"/>
	<polygon class="st0" points="45.79,108.33 45.77,108.35 45.79,108.33 	"/>
	<path class="st0" d="M52.51,47.77c-5.51-2.38-9.51-6.46-12.9-11.31c-1.53-2.18-3.24-4.28-5.16-6.11c-1.62-1.55-3.58-2.93-6.21-2.31
		c1.91,2.37,4.22,4.17,5.09,6.52c2.81,7.58,6.42,14.68,11.08,21.26l0.05,0.04C47.14,53.17,49.82,50.47,52.51,47.77z"/>
	<polygon class="st0" points="52.51,47.77 52.51,47.77 52.51,47.78 	"/>
	<path class="st0" d="M8.92,59.5c4.66,3.23,8.09,5.53,11.43,7.95c4.99,3.6,9.82,7.49,16.77,8.42c0.9-3.07,1.73-5.88,2.36-8.03
		c-7.49-2.63-14.06-5.16-20.78-7.2C15.85,59.76,12.69,59.9,8.92,59.5z"/>
	<g class="st0">
		<path class="st1" d="M71,135.58c-1.18-0.04-2.35-0.21-3.53-0.21c-1.95,0.01-3.91,0.13-5.86,0.16c-0.9,0.01-1.84,0.9-1.68,1.85
			c0.37,2.22,0.38,4.42,0.05,6.65c-0.13,0.86,0.75,2.04,1.6,2.08c2.14,0.11,4.29,0.1,6.44,0.15c0.77,0.02,1.53,0.02,2.3,0.03
			l1.45-10.69C71.5,135.59,71.25,135.59,71,135.58z"/>
		<path class="st1" d="M72.58,123.96c-0.01-0.08-0.01-0.16-0.02-0.24c-1.42-0.05-2.25,0.71-2.32,2.12
			c-0.01,0.29,0.03,0.58,0.01,0.87c-0.11,2.15-0.22,4.31-0.36,6.46c-0.04,0.6,0.12,0.95,0.76,0.96c0.44,0,0.87,0.01,1.31,0.01
			l1.39-10.24C73.09,123.92,72.83,123.94,72.58,123.96z"/>
		<path class="st1" d="M62.68,89.29c-0.96,0.03-2.04-0.14-2.83,0.25c-0.9,0.44-1.66,1.33-2.28,2.17c-1.21,1.62-2.29,3.34-3.4,5.03
			c-0.13,0.19-0.26,0.55-0.17,0.67c0.14,0.19,0.46,0.33,0.72,0.35c2.88,0.24,3.73,0.45,6.61,0.67c0-0.03,0.4-0.06,0.84-0.09
			c0.4,0.03,0.8,0.06,1.2,0.09c0.01-0.07,0.01-0.14,0.02-0.21c0.23,0,0.45-0.01,0.68,0c1.41,0.06,1.67,0,1.82-1.19
			c-1.05-2.55-1.65-5.13-1.78-7.74C63.62,89.29,63.15,89.27,62.68,89.29z"/>
		<path class="st1" d="M89.15,160.91c-1.35-0.13-2.69-0.3-4.04-0.3c-2.03,0-4.05,0.1-6.08,0.2c-1.06,0.05-1.59,0.54-1.56,1.37
			c0.05,1.12,0.17,2.25,0.23,3.37c0.02,0.31-0.1,0.62-0.15,0.93c-0.1,0.62-0.27,1.23-0.29,1.85c-0.02,0.54,0.12,1.09,0.18,1.63
			c-0.05,0.01-0.09,0.02-0.14,0.03c0.09,0.43,0.04,1.1,0.29,1.24c0.79,0.46,1.68,1,2.54,1.01c2.93,0.04,5.86-0.12,8.79-0.22
			c0.65-0.02,1.32-0.15,1.4-0.92c0.29-2.94,0.91-5.86,0.21-8.84C90.34,161.43,89.95,160.98,89.15,160.91z"/>
		<path class="st1" d="M51.63,163.61c0.73-0.23,1.47-0.54,2.07-1c0.32-0.25,0.52-0.93,0.42-1.33c-0.08-0.33-0.69-0.53-0.87-0.65
			c-0.91,0.09-1.52,0.11-2.13,0.22c-0.88,0.15-1.03,0.78-0.92,1.53C50.33,163.21,50.97,163.82,51.63,163.61z"/>
		<path class="st1" d="M74.1,160.58c-1.15-0.05-2.31-0.08-3.47-0.13c-2.97-0.11-5.94-0.36-8.89,0.18c-0.82,0.15-1.44,0.55-1.46,1.53
			c-0.05,2.68-0.06,5.36-0.2,8.03c-0.06,1.07,0.44,1.54,1.32,1.83c0.33,0.11,0.7,0.18,1.04,0.18c2.71,0.01,5.42,0.01,8.13,0.01
			c0-0.05,0-0.11,0-0.16c1-0.06,2-0.13,3-0.17c1.99-0.09,2.69-0.92,2.63-2.87c-0.07-2.01-0.05-4.03,0.01-6.04
			C76.26,161.56,75.52,160.65,74.1,160.58z"/>
		<path class="st1" d="M63.11,81.24c-0.06,0.12-0.12,0.23-0.19,0.34c-0.73,1.22-1.53,2.4-2.17,3.66c-1.05,2.08-0.86,2.49,1.33,2.6
			c0.66,0.03,1.33,0.04,1.99,0.03c0.05-3.31,1.08-6.4,2.81-8.97C65.09,78.81,63.91,79.61,63.11,81.24z"/>
		<path class="st1" d="M65.95,157.53c0.2-1.73,0.29-3.48,0.6-5.19c0.45-2.45-0.49-3.94-2.89-4.29c-0.26-0.04-0.51-0.1-0.77-0.13
			c-1.41-0.16-2.85-0.56-4.23-0.42c-2.13,0.22-4.31-0.28-6.39,0.44c-0.06,0.02-0.13,0-0.19,0.01c-1.63,0.19-3.27,0.34-4.89,0.6
			c-0.37,0.06-0.88,0.41-1,0.74c-0.27,0.78-0.44,1.63-0.47,2.45c-0.07,1.55-0.02,3.1-0.02,4.65c0.06,0,0.13,0,0.19,0
			c0,0.52,0.04,1.04-0.01,1.55c-0.07,0.75,0.27,1.12,0.97,1.16c1.45,0.07,2.9,0.11,4.35,0.12c1.51,0.01,3.02-0.05,4.54-0.04
			c1.16,0,2.32,0.13,3.48,0.07c1.73-0.08,3.46-0.34,5.2-0.39C65.39,158.84,65.84,158.44,65.95,157.53z"/>
		<path class="st1" d="M95.89,95.72c-0.01-0.17-0.03-0.34-0.04-0.51c-0.36,1.01-0.8,2.02-1.31,3.03
			C95.54,97.93,95.99,97.07,95.89,95.72z"/>
		<path class="st1" d="M98.91,86.79c0,0.04,0.01,0.07,0.01,0.11c0.55,0,1.1,0.01,1.65,0c1.24-0.03,1.62-0.75,0.97-1.85
			c-1.04-1.74-2.11-3.45-3.1-5.22c-0.33-0.6-0.73-0.86-1.37-0.86c-0.91,0-1.81-0.01-2.72-0.01c1.54,2.31,2.52,5.04,2.72,7.97
			C97.7,86.89,98.31,86.84,98.91,86.79z"/>
		<path class="st1" d="M87.69,122.65c0.21,0,0.43-0.01,0.64-0.03c1.96-0.18,3.92-0.34,5.87-0.58c0.85-0.1,2.05-0.3,2.1-1.22
			c0.06-1,0.05-2,0.02-3l-9.61-2.38L87.69,122.65z"/>
		<path class="st1" d="M92.61,145.96c2.08-0.13,2.36-0.28,2.56-2.38c0.22-2.26,0.28-4.54,0.33-6.82c0.02-0.75-0.49-1.28-1.25-1.39
			c-0.54-0.07-1.09,0-1.64,0.02c-0.48,0.01-1.01,0.18-1.44,0.03c-0.6-0.2-1.2-0.3-1.8-0.34l1.46,10.76
			C91.42,145.89,92.02,145.93,92.61,145.96z"/>
		<path class="st1" d="M106.81,120.41l-1.75-0.43l-7.53-1.86c0.02,0.36,0.04,0.72,0.06,1.06c0,0.72-0.08,1.26,0.03,1.75
			c0.07,0.3,0.43,0.74,0.68,0.75c2.26,0.12,4.52,0.16,6.78,0.2c0.64,0.01,1.48,0.17,1.86-0.17c0.34-0.3,0.21-1.18,0.23-1.8
			c0.06-2.06,0.14-4.12,0.1-6.17c-0.01-0.41-0.45-1.1-0.78-1.16c-0.55-0.1-1.12-0.17-1.69-0.21l1.59,6.3L106.81,120.41z"/>
		<path class="st1" d="M88.78,125.61c0.18-0.72-0.15-1.25-0.88-1.38l0.51,3.74C88.47,127.19,88.59,126.4,88.78,125.61z"/>
		<path class="st1" d="M106.26,110.92c1.92-0.12,3.85-0.05,5.78-0.1c1.03-0.03,2.07-0.1,3.09-0.22c0.78-0.09,1.28-0.85,0.98-1.45
			c-0.37-0.71-0.73-1.46-1.26-2.05c-1.58-1.8-3.1-3.6-3.8-5.98c-0.25-0.85-0.93-1.54-1.94-1.5c-1.29,0.04-2.57,0.18-3.85,0.28
			c-0.75,0.06-1.03,0.45-1.06,1.21c-0.07,2.22-0.22,4.44-0.34,6.65c0.04,0,0,0.52-0.01,0.85l0.61,2.43
			C105.15,111.35,106.26,110.92,106.26,110.92z"/>
		<path class="st1" d="M97.15,97.22c0.23,1.23,0.55,1.41,1.75,1.31c2.17-0.17,4.33-0.61,6.52-0.17c0.31,0.06,0.64,0.01,0.97,0.01
			c0.26,0,0.52,0,0.78,0c1.42,0,1.77-0.47,1.1-1.68c-1.28-2.28-2.54-4.59-4.02-6.74c-0.52-0.76-1.59-1.38-2.52-1.59
			c-1.03-0.23-2.18,0.05-3.27,0.19c-0.71,0.09-1.25,0.46-1.4,1.22c-0.05,0.63-0.14,1.26-0.25,1.9
			C96.66,93.53,96.8,95.38,97.15,97.22z"/>
		<path class="st1" d="M58.23,161.09c-0.71-0.38-2.39,0.21-2.59,0.76c-0.44,1.23-1.45,1.88-2.52,2.41c-0.79,0.4-1.28,0.95-1.54,1.76
			c-0.16,0.49-0.26,1.02-0.51,1.46c-0.16,0.28-0.55,0.43-0.84,0.63c-0.09-0.32-0.23-0.64-0.26-0.97c-0.07-0.88,0.03-1.79-0.17-2.63
			c-0.17-0.72-0.7-1.36-1.01-2.06c-0.48-1.08-1.63-1.97-2.42-1.63c-1.34,0.58-2.66,0.26-4,0.2c-1.71-0.07-3.42-0.13-5.12-0.09
			c-0.79,0.02-1.7,0.16-1.84,1.22c-0.32,2.59-0.6,5.18-0.89,7.78c-0.2,1.95,0.92,2.26,2.36,2.24c0.13,0,0.26-0.02,0.39-0.02
			c2.88-0.05,5.75-0.14,8.63-0.12c2.02,0.02,4.01,0.51,6.08,0.16c1.38-0.24,2.83-0.15,4.25-0.08c1.39,0.08,2.45-0.63,2.52-2.02
			c0.13-2.54,0.2-5.09,0.2-7.63C58.94,162,58.61,161.29,58.23,161.09z"/>
		<path class="st1" d="M39.63,135.52c-1.48,0.05-2.03,0.66-2.07,2.11c-0.08,2.47-0.13,4.94-0.21,7.4c-0.04,1.17,0.14,1.45,1.36,1.49
			c1.48,0.04,2.98,0.06,4.45-0.1c1.72-0.19,3.4-0.17,5.11,0.13c0.98,0.17,2.03-0.05,3.05-0.12c1.63-0.11,3.27-0.36,4.9-0.33
			c1.52,0.02,2.14-0.35,2.24-1.9c0.11-1.61,0.18-3.22,0.26-4.84c-0.02,0-0.03,0-0.05,0c0-0.81,0.04-1.62-0.01-2.43
			c-0.06-0.99-0.63-1.43-1.61-1.34c-0.29,0.03-0.58,0.05-0.87,0.05c-3.55-0.04-7.09-0.1-10.64-0.13
			C43.57,135.49,41.6,135.46,39.63,135.52z"/>
		<path class="st1" d="M121.71,125.46c0.14,2.04,0.31,4.08,0.33,6.11c0.01,0.99,0.43,1.45,1.31,1.57c1.72,0.24,3.45,0.45,5.45,0.7
			c0.32-0.11,0.83-0.29,1.34-0.46c-0.19-0.52-0.29-1.09-0.58-1.54c-1.52-2.37-3.1-4.71-4.65-7.06c-0.47-0.71-1.43-1.06-2.21-0.78
			C122.04,124.25,121.66,124.67,121.71,125.46z"/>
		<path class="st1" d="M105.73,125.81c-0.12,2.09-0.37,4.17-0.46,6.26c-0.07,1.75,0.28,1.82,1.6,1.74c2.17-0.12,4.37-0.55,6.55,0.11
			c0.58,0.18,1.29,0.05,1.92-0.06c1.24-0.23,2.46-0.55,3.68-0.82c1.7-0.38,1.8-0.65,1.64-2.38c-0.18-1.89-0.23-3.8-0.24-5.69
			c0-1.26-0.32-1.71-1.62-1.7c-1.35,0.01-2.71,0.13-4.05,0.06c-1.83-0.1-3.66-0.33-5.49-0.51c0,0.02,0,0.04,0,0.06
			c-0.16,0-0.32,0-0.48,0C106.31,122.91,105.87,123.36,105.73,125.81z"/>
		<path class="st1" d="M44.4,158.25c0.07-0.34,0.09-0.71,0.09-1.06c0.03-2.36,0.06-4.71,0.04-7.07c0-0.33-0.19-0.84-0.44-0.96
			c-0.87-0.4-1.79-0.78-2.73-0.97c-1.74-0.34-3.5-0.54-5.26-0.76c-0.41-0.05-0.84,0.01-1.25,0.07c-1.56,0.24-3.1,0.57-4.67,0.72
			c-1.25,0.12-2.52,0.02-3.78,0.02c-2.4-0.06-2.43-0.08-3.73,1.97c-0.64,1-1.08,2.12-1.7,3.14c-0.8,1.32-1.71,2.56-2.51,3.88
			c-0.42,0.69-0.07,1.52,0.67,1.57c2.06,0.14,4.13,0.31,6.19,0.27c1.97-0.04,3.91-0.29,5.87,0.22c0.95,0.25,1.99,0.25,2.99,0.26
			c2.84,0.03,5.68,0,8.52,0.01C43.8,159.57,44.17,159.32,44.4,158.25z"/>
		<path class="st1" d="M105.54,158.18c0.07,1.1,0.29,1.35,1.39,1.39c0.81,0.03,1.62,0.01,2.77,0.01c2.71-0.4,5.85,0.26,8.86-0.9
			c0.87-0.33,1.29-0.75,1.32-1.63c0.03-0.77-0.03-1.56,0.13-2.31c0.43-2.08,0.63-4.13-0.07-6.19c-0.24-0.7-1.09-1.44-1.81-1.29
			c-1.27,0.26-2.49,0.33-3.72-0.17c-0.11-0.04-0.29-0.05-0.38,0.01c-0.91,0.61-1.88,0.21-2.83,0.18c-0.26-0.01-0.54-0.05-0.76,0.04
			c-2.04,0.81-4.15,0.38-6.23,0.31c-1.16-0.04-1.57,0.35-1.49,1.52c0.07,1.06-0.02,2.12,0.04,3.18c0.03,0.51,0.17,1.06,0.43,1.5
			c0.64,1.07,1.42,2.06,2.07,3.13C105.47,157.3,105.51,157.77,105.54,158.18z"/>
		<path class="st1" d="M110.87,120.92c0.17-0.68-0.59-1.91-1.25-2.23c-0.65-0.31-1.01-0.16-1.18,0.58
			c-0.39,1.72-0.15,2.07,1.89,2.19C110.43,121.37,110.8,121.18,110.87,120.92z"/>
		<path class="st1" d="M94.84,129.17c-0.66,0.42-0.82,0.94-0.4,1.64c0.43,0.71,1.01,1.41,1.16,2.19c0.21,1.06,0.78,1.38,1.68,1.3
			c1.99-0.18,3.98-0.43,5.97-0.65c0.75-0.08,0.91-0.51,0.86-1.22c-0.1-1.28-0.18-2.58-0.11-3.86c0.07-1.24,0.34-2.48,0.51-3.72
			c0.08-0.58,0.39-1.42-0.5-1.5c-2.38-0.21-4.77-0.39-7.16-0.34c-1.59,0.03-3.17,0.45-4.75,0.69c-1,0.16-1.66,0.64-2.06,1.65
			c-0.91,2.31-0.65,4.65-0.29,6.98c0.05,0.31,0.1,0.57,0.16,0.78c0.28,0.93,0.8,1.04,2.32,1.06c0.19,0,0.39,0.01,0.58,0
			c1.13-0.04,1.52-0.6,1.12-1.64c-0.09-0.24-0.21-0.49-0.38-0.67c-1.2-1.28,0.09-3.23,1.37-3.79c0.14-0.06,0.48,0,0.51,0.08
			c0.06,0.18,0.03,0.43-0.06,0.59C95.24,128.93,95.03,129.05,94.84,129.17z"/>
		<path class="st1" d="M125.65,134.92c-1.25-0.12-2.48-0.47-3.72-0.51c-2.45-0.07-4.88,0.14-7.23,0.99
			c-1.15,0.42-1.53,1.14-1.12,2.34c0.14,0.39,0.32,0.8,0.32,1.2c-0.01,1.43-0.06,2.86-0.16,4.28c-0.11,1.6,0.28,2.28,1.86,2.49
			c1,0.13,2.04-0.08,3.06-0.09c1.06-0.01,2.13,0.08,3.19,0.06c2.58-0.07,5.15-0.24,7.73-0.27c2-0.02,4,0.17,6.01,0.17
			c0.68,0,1.36-0.29,2.04-0.44c-1.52-2.71-2.93-5.23-4.34-7.75c-0.83-1.49-1.92-2.44-3.78-2.32
			C128.23,135.16,126.93,135.04,125.65,134.92z"/>
		<path class="st1" d="M98.77,159.19c1.42,0.12,2.83,0.25,4.07,0.36c1.29,0.06,1.8-0.44,1.37-1.33c-0.55-1.15-1.21-2.28-1.97-3.3
			c-0.27-0.36-1.08-0.69-1.45-0.54c-1.36,0.54-2.84,1.11-2.73,3.03c0.01,0.15-0.06,0.32-0.12,0.47
			C97.61,158.7,97.92,159.12,98.77,159.19z"/>
		<path class="st1" d="M97.2,145.77c2.63-0.19,5.22-0.03,7.8,0.52c0.34,0.07,0.71,0.04,1.06,0.01c1.83-0.13,3.66-0.3,5.49-0.39
			c0.53-0.03,0.78-0.18,0.81-0.71c0.1-1.88,0.22-3.76,0.3-5.64c0.01-0.31-0.14-0.62-0.22-0.93c-0.17-0.65-0.4-1.29-0.51-1.95
			c-0.18-1.14-0.51-1.53-1.67-1.58c-0.63-0.03-1.27,0.13-1.9,0.13c-1.17,0-2.35-0.02-3.52-0.09c-0.47-0.03-0.94-0.2-1.3-0.28
			c-1.85,0.25-3.59,0.42-5.3,0.74c-1.36,0.25-1.93,1.37-1.57,2.72c0.11,0.43,0.27,0.9,0.22,1.33c-0.17,1.63-0.39,3.25-0.63,4.87
			C96.12,145.39,96.38,145.83,97.2,145.77z"/>
		<path class="st1" d="M77.32,87.47c2.83,0.01,5.67-0.11,8.5-0.17c0.26,0,0.47-0.03,0.65-0.07c-0.66-2.64-3.04-4.6-5.88-4.6
			c-2.31,0-4.33,1.3-5.35,3.21C75.12,87.71,75.66,87.47,77.32,87.47z"/>
		<path class="st1" d="M26.37,146.5c0.67-0.05,1.35-0.09,2.03-0.12c1.89-0.06,3.77,0.29,5.66-0.3c1.4-0.44,2.1-1.1,2.09-2.59
			c-0.02-2.14-0.77-4.29,0.04-6.18c0.02-1.45-0.43-1.99-1.64-2.07c-0.77-0.05-1.59-0.13-2.3,0.07c-0.59,0.17-1.32,0.63-1.54,1.15
			c-1.23,2.97-3.27,5.44-4.92,8.14c-0.12,0.19-0.27,0.37-0.36,0.58C25.1,145.94,25.55,146.55,26.37,146.5z"/>
		<path class="st1" d="M67.94,124.24c-1.44-0.17-2.89-0.32-4.32-0.59c-2.25-0.43-4.49-0.3-6.74-0.04c-1.82,0.2-3.66,0.26-5.49,0.34
			c-1.43,0.07-2.04,0.66-2.08,2.23c-0.06,2.29-0.05,4.58-0.1,6.87c-0.01,0.75,0.31,1.04,1.05,1.04c2.87,0,5.73,0.02,8.6,0.04
			c1.45,0.01,1.93-0.42,2.01-1.91c0.05-0.98,0.6-1.62,1.32-2.14c0.17-0.12,0.51,0,0.77,0c-0.05,0.23-0.08,0.46-0.15,0.68
			c-0.03,0.08-0.13,0.14-0.2,0.2c-0.75,0.71-0.7,1.64-0.39,2.44c0.28,0.75,1.09,0.79,1.84,0.71c1.05-0.11,2.12-0.22,3.17-0.22
			c0.96,0,1.5-0.32,1.57-1.29c0.13-1.77,0.19-3.54,0.28-5.32c-0.02,0-0.03,0-0.05,0c0-0.58-0.02-1.16,0.01-1.74
			C69.06,124.76,68.74,124.34,67.94,124.24z"/>
		<path class="st1" d="M32.46,160.95c-2.34-0.49-4.69-0.68-7.1-0.54c-1.89,0.11-3.82,0.11-5.69-0.18c-1.75-0.27-3.02,0.19-3.94,1.58
			c-1,1.51-1.84,3.11-2.77,4.66c-0.6,0.99-1.23,1.96-1.85,2.93c-0.26,0.4-0.61,0.75-0.83,1.18c-0.19,0.37-0.24,0.81-0.35,1.21
			c0.46,0.1,0.92,0.27,1.38,0.28c0.87,0.01,1.74-0.12,2.61-0.12c2.28,0,4.56,0.09,6.84,0.04c3.15-0.08,6.27-0.77,9.45-0.07
			c1.61,0.35,2.85-0.72,3-2.32c0.19-1.99,0.27-3.99,0.4-5.98C33.83,162.24,33.37,161.13,32.46,160.95z"/>
		<path class="st1" d="M115.28,111.96c-1.73,0.34-3.45,0.4-5.19,0.13c-1.13-0.18-1.5,0.18-1.6,1.31c-0.04,0.48-0.11,0.96-0.17,1.44
			c-0.19,0.84,0.1,1.43,0.92,1.67c1.98,0.58,2.54,2.15,2.71,3.93c0.07,0.79,0.36,1.1,1.13,1.27c3.09,0.66,6.17-0.14,9.26-0.05
			c0.15,0,0.52-0.59,0.45-0.79c-0.32-0.94-0.68-1.88-1.16-2.75c-0.8-1.46-1.73-2.86-2.56-4.31
			C118.23,112.33,116.97,111.63,115.28,111.96z"/>
		<path class="st1" d="M33.82,133.85c2.13,0.03,4.25,0.04,6.38,0.01c0.28,0,0.73-0.32,0.79-0.56c0.28-1.21,0.6-2.44,0.62-3.66
			c0.02-1.18,0.38-2.07,1.27-2.78c0.17-0.14,0.46-0.12,0.7-0.17c0.01,0.24,0.08,0.49,0.03,0.71c-0.36,1.58-0.82,3.15-1.11,4.74
			c-0.24,1.32,0.4,1.95,1.77,1.97c0.39,0.01,0.77,0.06,1.16,0.11c1.96,0.22,2.34-0.12,2.44-2.07c0.09-1.64,0.19-3.28,0.29-4.92
			c-0.03,0-0.07,0-0.1-0.01c0.03-0.29,0.03-0.58,0.08-0.87c0.27-1.67-0.5-2.41-2.14-2.31c-2.17,0.13-4.37-0.13-6.55-0.11
			c-0.57,0.01-1.31,0.32-1.66,0.74c-1.05,1.3-1.99,2.69-2.87,4.1c-0.74,1.2-1.39,2.47-1.97,3.76
			C32.49,133.5,32.76,133.83,33.82,133.85z"/>
		<path class="st1" d="M74.29,63.44c0.96,0.05,1.93-0.06,2.89-0.06c3.16-0.01,6.33,0,9.49,0c1.6,0.2,1.79-0.02,1.13-1.47
			c-0.42-0.93-1.1-1.75-1.54-2.67c-1.49-3.09-2.91-6.21-5.32-8.75c-0.68-0.72-0.92-0.8-1.43,0.07c-0.69,1.19-1.28,2.44-1.9,3.68
			c-1.34,2.65-2.67,5.31-4.02,7.96C73.2,62.98,73.52,63.4,74.29,63.44z"/>
		<path class="st1" d="M49.14,111.54c1.07,0.14,2.13,0.31,3.18,0.42c1.37,0.15,1.76-0.18,1.91-1.52c0.21-1.79,0.44-3.58,0.66-5.38
			c0.15-1.24,0.48-2.5,0.4-3.73c-0.04-0.62-0.69-1.41-1.27-1.75c-0.63-0.36-1.21,0.22-1.64,0.83c-0.59,0.84-1.31,1.59-1.91,2.43
			c-0.37,0.51-0.68,1.08-0.95,1.66c-0.52,1.1-0.95,2.25-1.49,3.34c-0.45,0.92-1.03,1.78-1.5,2.7c-0.16,0.31-0.16,0.7-0.23,1.06
			c0.37,0.03,0.75,0.1,1.12,0.08C47.99,111.67,48.57,111.59,49.14,111.54z"/>
		<path class="st1" d="M96.32,105.58c-0.15-0.84-0.19-1.59,0.33-1.53c0.52,0.06,0.48,0.64,0.65,1.53h4.93h0.83
			c-0.01-0.21-0.01-0.42-0.02-0.62c-0.13-2.53-0.22-4.21-1.18-4.6c-0.96-0.39-4.01,0.19-5.2,0c-0.91-0.15-1.69-0.59-2.87-0.72
			c-1.12,1.97-2.52,3.95-4.21,5.94H96.32z"/>
		<path class="st1" d="M80.6,97.64c-0.03-0.71-0.17-0.78-0.06-2.01c0.11-1.23,0.09-1.94-0.19-3.64c0.62-1.64-0.28-2.82-2.02-2.91
			c-1.21-0.06-2.41-0.24-3.62-0.33c-0.06,0-0.12-0.01-0.17-0.01c0.02,3.24,1.83,6.77,3.58,9.43C79.23,98.15,80.62,98.19,80.6,97.64z
			"/>
		<path class="st1" d="M60.81,118.82c-0.01,0.42-0.02,0.83-0.03,1.25c-0.07,1.66-0.11,1.65,1.57,1.82c0.19,0.02,0.38,0.07,0.57,0.09
			c1.8,0.17,3.59,0.45,5.39,0.47c1.9,0.02,2.07,0.1,3.96-0.01c0,0.04,0.77-0.06,1.28-0.11l0.93-6.88L60.81,118.82z"/>
		<path class="st1" d="M78.91,99.33c0.64,0.89,1.22,1.64,1.67,2.17c0.44-0.56,1.03-1.34,1.66-2.25
			C81.14,99.24,79.98,99.26,78.91,99.33z"/>
		<path class="st1" d="M54.38,120.41l0.44-1.75l1.36-5.4c-0.2,0-0.46,0.01-0.46-0.01c-0.89,0.1-1.79,0.2-2.68,0.3
			c-0.83,0.1-1.09,0.66-1.37,1.39c-0.43,1.12-0.29,2.17-0.17,3.28c0.05,0.43-0.21,0.9-0.32,1.35c-0.2-0.4-0.44-0.78-0.58-1.2
			c-0.29-0.93-0.74-1.18-1.57-0.66c-0.45,0.28-0.76,0.78-1.19,1.11c-0.27,0.2-0.64,0.26-0.96,0.38c-0.03-0.35-0.2-0.78-0.07-1.05
			c0.42-0.84,0.92-1.6,1.95-1.88c1-0.27,1.41-1.08,1.3-2.32c-0.08-0.98-0.95-0.5-1.45-0.72c-0.09-0.04-0.19-0.05-0.29-0.05
			c-1.42,0.01-2.81,0.2-3.79,1.34c-0.75,0.88-1.35,1.89-2.04,2.83c-0.91,1.24-1.87,2.45-2.74,3.71c-0.59,0.84-0.42,1.25,0.63,1.29
			c1.96,0.08,3.93,0.04,5.89,0.03c1.61-0.01,3.22-0.03,4.83-0.08c2.54-0.08,5.09-0.16,7.63-0.31c0.24-0.01,0.65-0.48,0.66-0.74
			c0.03-0.71,0.05-1.42,0.06-2.13l-3.33,0.82L54.38,120.41z"/>
		<path class="st1" d="M58.12,105.58h0.84h12.26c-1.62-1.91-2.96-3.85-4.03-5.82c-1.03-0.03-2.04-0.16-2.46-0.14
			c-0.69,0.03-0.93-0.17-1.1,1s0.24,2.53,0,2.98c-0.24,0.45-1.26,0.26-1.1-0.45c0.16-0.71,0.43-1.49,0-2.27
			c-0.43-0.78,0.16-1.35-1.33-1.26s-3.17-0.48-3.69,0c-0.67,0.62-1.43,2.55-1.43,3.72s0.26,2.01,0,3.95
			c-0.26,1.94-0.52,3.5-0.32,4.08c0.1,0.29,0.33,0.52,0.73,0.69l1.43-5.66L58.12,105.58z"/>
		<path class="st1" d="M84.48,89.01c0-0.03-0.01-0.06-0.01-0.1c-0.48,0-0.97,0-1.45,0c-1.06-0.01-1.47,0.54-1.39,1.85
			c-0.03,1.56,1.05,3.64,0.61,4.29c-0.44,0.65-0.31,2.53-0.31,2.92c0,0.12,0.44,0.15,1.07,0.15c1.79-2.77,3.67-6.38,3.67-9.41
			C85.94,88.81,85.21,88.91,84.48,89.01z"/>
		<path class="st1" d="M80.33,71.59c0.03-1.61,0.06-3.23,0.09-4.84c0.01-0.74-0.32-1.36-1.03-1.43c-0.85-0.08-1.88-0.16-2.54,0.24
			c-1.64,0.98-3.18,2.16-3.34,4.35c-0.03,0.33-0.39,0.64-0.6,0.95c-0.21-0.39-0.66-0.85-0.57-1.15c0.28-0.94,0.79-1.8,1.16-2.71
			c0.14-0.35,0.15-0.75,0.22-1.13c-0.42-0.03-0.97-0.24-1.23-0.06c-0.68,0.5-1.38,1.1-1.81,1.81c-0.76,1.26-1.31,2.65-1.99,3.97
			c-0.86,1.66-1.8,3.28-2.65,4.95c-0.32,0.62-0.01,0.99,0.67,0.99c0.41,0,0.81,0,1.22,0C70.89,73.96,75.34,71.67,80.33,71.59z"/>
		<path class="st1" d="M79,148.15c0.18,1.76-0.33,3.29-1.35,4.7c-0.1,0.14-0.03,0.38-0.08,0.57c-0.06,0.23-0.17,0.44-0.29,0.75
			c-0.4-0.37-0.67-0.68-0.99-0.91c-0.55-0.38-0.49-0.79,0.02-1.05c1.68-0.86,1.58-2.26,1.23-3.76c-0.05-0.23-0.13-0.39-0.23-0.52
			h-5.98h0c-0.82,0.06-1.63,0.12-2.45,0.21c-0.92,0.1-1.05,0.73-0.96,1.56c0.09,0.95,0.07,1.92-0.01,2.86
			c-0.15,1.7-0.42,3.39-0.59,5.09c-0.11,1.05,0.11,1.21,1.2,1.23c1.64,0.03,3.28,0.12,4.92,0.15c2.92,0.06,5.85,0.09,8.77,0.15
			c0.79,0.02,1.2-0.29,1.22-1.13c0.04-1.96,0.15-3.92,0.16-5.88c0.01-1.31-0.09-2.63-0.2-3.94c-0.01-0.09-0.06-0.21-0.14-0.31h-4.1
			C79.04,148.01,78.99,148.09,79,148.15z"/>
		<path class="st1" d="M132.5,161.96c0.02-0.98-0.38-1.23-1.32-1.15c-0.88,0.07-1.78-0.01-2.66-0.06c-0.67-0.04-1.34-0.22-2-0.22
			c-1.57-0.01-3.14,0.03-4.71,0.06c-1.44,0.03-2.88,0.05-4.32,0.11c-1.15,0.05-2.31,0.13-3.46,0.23c-0.7,0.06-1.67-0.22-1.83,0.81
			c-0.25,1.65-0.32,3.33-0.5,5.36c0.12,0.78,0.29,1.89,0.48,3c0.15,0.88,0.68,1.39,1.58,1.41c1.96,0.06,3.92,0.19,5.88,0.13
			c2.08-0.06,4.19,0.39,6.26-0.2c1.46-0.42,2.92-0.3,4.38,0.01c0.43,0.09,0.91,0.02,1.34-0.08c0.24-0.06,0.61-0.3,0.63-0.49
			c0.14-1.46,0.23-2.93,0.27-4.39c0.02-0.54-0.2-1.08-0.19-1.62C132.35,163.89,132.48,162.93,132.5,161.96z"/>
		<path class="st1" d="M152.21,168.19c-1.18-1.77-2.32-3.56-3.48-5.34c-0.26-0.4-0.49-0.87-0.85-1.17
			c-1.76-1.42-3.82-1.62-5.95-1.26c-1.85,0.31-3.66,0.77-5.56,0.44c-1.73-0.3-3.02,0.76-2.76,2.52c0.3,2,0.33,3.97,0.18,5.97
			c-0.09,1.25,0.76,2.15,1.99,2.15c2.52,0,5.04-0.08,7.55-0.16c3.09-0.09,6.18-0.21,9.28-0.32c0.01,0.08,0.01,0.16,0.02,0.23
			c0.36-0.07,0.73-0.14,1.09-0.21c-0.08-0.39-0.05-0.84-0.25-1.16C153.11,169.28,152.6,168.78,152.21,168.19z"/>
		<path class="st1" d="M141.33,158.97c0.18,0.05,0.38-0.04,0.58-0.05c0.89-0.04,1.79-0.05,2.68-0.11c0.3-0.02,0.74-0.07,0.84-0.26
			c0.11-0.2-0.06-0.6-0.2-0.86c-1.39-2.54-2.86-5.03-4.19-7.6c-0.93-1.8-3.32-3.26-5.29-3.04c-0.7,0.08-1.41,0.12-2.12,0.12
			c-2.84,0.01-5.67,0.01-8.51,0.01c0,0.01,0,0.03,0,0.04c-0.68,0-1.36-0.05-2.03,0.01c-1.11,0.11-1.4,0.6-1.12,1.65
			c0.1,0.39,0.19,0.83,0.14,1.22c-0.21,1.66-0.57,3.3-0.69,4.96c-0.26,3.44-0.49,3.98,3.31,3.94c1.53-0.01,3.06,0.28,4.59,0.39
			c0.59,0.04,1.19-0.01,1.78-0.09c0.76-0.1,1.54-0.46,2.27-0.38C136.01,159.18,138.68,158.27,141.33,158.97z"/>
		<path class="st1" d="M109.19,161.23c-1.13,0.02-2.26-0.02-3.38-0.06c-2.03-0.06-4.07-0.14-6.1-0.21c-0.72-0.03-1.01,0.21-0.78,1
			c0.16,0.54,0.08,1.15,0.18,1.72c0.09,0.51,0.16,1.07,0.42,1.48c0.72,1.11,0.7,2.59-0.19,3.48c-0.25-0.8-0.36-1.59-0.73-2.22
			c-0.65-1.11-0.93-2.18-0.69-3.49c0.2-1.03-0.63-1.88-1.73-1.91c-1.22-0.02-2.45,0.09-3.68,0.19c-0.65,0.05-0.77,0.45-0.56,1.04
			c0.18,0.51,0.42,1.06,0.39,1.57c-0.11,2.1-0.3,4.19-0.5,6.28c-0.1,0.98,0.25,1.62,1.24,1.71c1.31,0.12,2.64,0.18,3.95,0.1
			c2.09-0.12,4.16-0.5,6.25-0.56c1.96-0.06,3.94,0.14,5.9,0.26c1.05,0.06,1.76-0.37,1.63-1.27c-0.36-2.44-0.09-4.83,0.24-7.24
			C111.27,161.7,110.62,161.2,109.19,161.23z"/>
		<path class="st1" d="M92.82,76.99c0.34,0.04,0.68,0.11,1.02,0.22c0.65,0.21,1.4,0.15,2.11,0.18c0.63,0.03,0.85-0.32,0.61-0.86
			c-0.36-0.82-0.71-1.67-1.22-2.41c-1.23-1.77-2.72-3.35-3.6-5.36c-0.16-0.35-0.35-0.69-0.56-1.02c-0.89-1.37-2.15-2.26-3.76-2.49
			c-1.26-0.19-2.55-0.2-3.83-0.3c-2.02-0.12-2.23,0.17-2.03,2.14c0.14,1.34,0.09,2.7,0.06,4.05c0,0.15-0.01,0.31-0.01,0.46
			C86.03,71.88,90,73.9,92.82,76.99z"/>
		<path class="st1" d="M96.68,157.3c0.19-1.85,1.19-2.82,2.67-3.57c0.29-0.15,0.6-0.24,0.89-0.38c0.7-0.31,1.2-0.79,1.18-1.61
			c-0.02-1.12-0.08-2.24-0.11-3.35c-0.02-0.72-0.36-1-1.1-1.02c-1.48-0.04-2.96-0.18-4.44-0.27c-0.13-0.01-0.26,0.02-0.38,0.03
			c-1.46,0.07-2.91,0.13-4.37,0.2l0.08,0.61h-1.24h-4.7c-0.18,0.23-0.25,0.56-0.21,0.97c0.06,0.72-0.04,1.46-0.07,2.19
			c-0.03,0.61-0.08,1.22-0.07,1.83c0.02,1.8,0.1,3.6,0.07,5.4c-0.01,0.67,0.23,0.87,0.81,0.91c1.58,0.09,3.15,0.19,4.73,0.29
			c0.93,0.06,1.85,0.12,2.78,0.17C95.93,159.38,96.49,159.17,96.68,157.3z"/>
		<path d="M157.12,170.98c-0.29-0.93-0.72-1.89-1.34-2.62c-1.56-1.85-3.27-3.57-4.35-5.79c-0.43-0.87-1.16-1.59-1.73-2.39
			c-0.21-0.3-0.38-0.64-0.51-0.98c-0.21-0.54-0.27-1.17-0.56-1.65c-1.35-2.23-2.77-4.43-4.15-6.64c-0.68-1.08-1.26-2.23-2.02-3.26
			c-0.52-0.7-1.44-1.12-1.04-2.25c0.07-0.2-0.17-0.54-0.33-0.78c-1.2-1.79-2.42-3.57-3.6-5.37c-0.55-0.84-1.14-1.68-1.47-2.61
			c-0.39-1.13-0.9-2.05-2.01-2.59c-0.55-0.27-0.95-0.63-0.71-1.38c0.09-0.29-0.01-0.75-0.2-1c-1-1.31-2.08-2.55-3.09-3.85
			c-0.74-0.97-1.41-1.99-2.11-2.99c-0.57-0.8-1.18-1.58-1.71-2.41c-0.23-0.36-0.34-0.81-0.45-1.23c-0.14-0.54-0.07-1.19-0.34-1.64
			c-1.13-1.92-2.32-3.79-3.53-5.66c-0.63-0.97-1.24-1.98-2.03-2.81c-0.47-0.49-0.96-0.78-0.7-1.58c0.08-0.25-0.06-0.65-0.23-0.89
			c-0.58-0.81-1.28-1.54-1.82-2.38c-1.2-1.87-2.31-3.79-3.51-5.66c-0.49-0.76-1.14-1.42-1.7-2.13c-0.2-0.25-0.56-0.56-0.53-0.79
			c0.14-0.92-0.32-1.54-0.87-2.16c-0.66-0.75-1.39-1.46-1.9-2.31c-0.64-1.06-1.17-2.21-1.61-3.38c-0.34-0.87-0.8-1.52-1.69-1.85
			c-0.53-0.2-0.66-0.57-0.61-1.15c0.05-0.58-0.01-1.23-0.25-1.75c-0.91-1.92-1.89-3.82-2.9-5.69c-0.37-0.69-0.71-1.46-1.71-1.56
			c-0.2-0.02-0.41-0.51-0.52-0.82c-0.29-0.79-0.33-1.78-0.84-2.36c-1.91-2.17-3.45-4.59-4.7-7.17c-0.71-1.45-1.36-2.77-3.09-3.18
			c-0.45-0.11-0.75-0.41-0.42-0.94c0.5-0.8,0.26-1.55-0.17-2.28c-0.64-1.08-1.26-2.17-1.92-3.23c-2.1-3.43-4.22-6.85-6.33-10.28
			c-0.47-0.76-1.3-1.12-2.05-0.68c-0.59,0.34-1.12,0.88-1.5,1.44c-0.52,0.76-0.9,1.63-1.3,2.46c-1.49,3.12-2.95,6.26-4.44,9.38
			c-0.3,0.64-0.9,1.18-1.04,1.84c-0.23,1.02-0.55,1.76-1.35,2.59c-1.22,1.25-1.91,3.03-2.78,4.61c-0.54,0.98-0.89,2.06-1.48,2.99
			c-1.01,1.58-2.21,3.04-2.35,5.02c-0.01,0.21-0.38,0.48-0.63,0.56c-0.74,0.24-1.15,0.69-1.46,1.41c-0.58,1.3-1.16,2.63-2,3.76
			c-1.01,1.36-1.72,2.78-1.94,4.45c-0.04,0.3-0.17,0.68-0.39,0.86c-1.66,1.39-2.63,3.24-3.58,5.13c-0.56,1.12-1.35,2.15-1.77,3.32
			c-0.36,0.99-0.38,2.08-1.62,2.49c-0.22,0.07-0.35,0.44-0.51,0.69c-0.33,0.52-0.56,1.13-0.99,1.55c-1,0.98-1.3,2.23-1.48,3.51
			c-0.19,1.29-0.84,2.35-1.72,3.17c-0.92,0.86-1.44,1.78-1.5,3.02c-0.01,0.27-0.2,0.68-0.41,0.77c-0.91,0.4-1.2,1.19-1.55,2
			c-0.76,1.78-1.37,3.72-2.99,4.9c-1.21,0.88-1.47,2.11-1.89,3.36c-0.12,0.34-0.48,0.6-0.73,0.9c-0.58,0.69-1.21,1.35-1.73,2.09
			c-0.33,0.46-0.43,1.07-0.73,1.56c-1.08,1.8-2.51,3.46-3.19,5.39c-0.6,1.69-1.47,3.08-2.45,4.51c-0.76,1.11-1.27,2.4-1.96,3.56
			c-0.65,1.09-1.23,2.2-2.36,3.01c-1.04,0.74-1.47,2.07-1.22,3.39c0.11,0.59,0.01,0.82-0.5,1.02c-0.98,0.39-1.73,1.07-2.01,2.1
			c-0.55,2.02-1.68,3.63-3.06,5.18c-0.68,0.76-0.98,2.01-1.11,3.08c-0.08,0.67-0.19,1.07-0.76,1.36c-1.15,0.58-1.95,1.46-2.42,2.67
			c-0.49,1.26-1.02,2.51-1.55,3.76c-0.14,0.32-0.36,0.6-0.57,0.89c-1.01,1.38-2.04,2.75-3.03,4.15c-0.62,0.87-0.44,1.75,0.23,2.49
			c0.92,1.02,2.14,1.39,3.48,1.38c2.45-0.01,4.9,0.02,7.35-0.05c2.91-0.09,5.81-0.3,8.72-0.41c0.83-0.03,1.66,0.14,2.5,0.21
			c0.73,0.07,1.48,0.24,2.2,0.17c0.86-0.09,1.6-0.13,2.42,0.32c0.51,0.28,1.26,0.25,1.88,0.19c1.57-0.15,3.13-0.41,4.69-0.61
			c0.41-0.05,0.83-0.1,1.24-0.09c1.54,0.05,3.17-0.15,4.61,0.28c1.39,0.42,2.58,0.23,3.88-0.01c0.8-0.15,1.65-0.17,2.46-0.09
			c1.92,0.19,3.84,0.65,5.7-0.35c0.21-0.11,0.58-0.08,0.82,0.02c1.46,0.63,2.95,0.51,4.48,0.34c1.53-0.17,3.1-0.29,4.63-0.16
			c2.43,0.21,4.83,0.49,7.13-0.68c0.33-0.17,0.83-0.06,1.24-0.02c2.36,0.23,4.72,0.52,7.09,0.7c0.93,0.07,1.87-0.05,2.8-0.15
			c0.76-0.08,1.5-0.28,2.25-0.38c0.52-0.07,1.08-0.19,1.57-0.08c0.99,0.23,1.93,0.74,2.92,0.9c1.49,0.24,3.09,0.65,4.49,0.33
			c2.57-0.59,5.13-0.53,7.7-0.61c1.5-0.05,3.02,0.53,4.5-0.22c0.24-0.12,0.7,0.19,1.06,0.3c0.6,0.18,1.2,0.52,1.8,0.53
			c1.52,0.03,3.03-0.13,4.55-0.15c1.67-0.02,3.35,0.1,5.02,0.01c1.89-0.11,3.78-0.54,5.67-0.55c1.46,0,2.88,0.11,4.3-0.39
			c0.4-0.14,0.93,0.06,1.4,0.14c0.84,0.16,1.68,0.52,2.52,0.5c3.02-0.04,6.04-0.19,9.06-0.32c1.96-0.08,3.92-0.2,5.88-0.3
			c0.01,0.11,0.03,0.22,0.04,0.34c1.25-0.29,2.54-0.49,3.75-0.9C156.76,173,157.41,171.93,157.12,170.98z M133.29,137.39
			c1.4,2.52,2.82,5.04,4.34,7.75c-0.68,0.16-1.36,0.44-2.04,0.44c-2,0-4-0.19-6.01-0.17c-2.58,0.02-5.15,0.2-7.73,0.27
			c-1.06,0.03-2.13-0.06-3.19-0.06c-1.02,0.01-2.06,0.22-3.06,0.09c-1.58-0.21-1.97-0.89-1.86-2.49c0.1-1.42,0.15-2.85,0.16-4.28
			c0-0.4-0.18-0.81-0.32-1.2c-0.41-1.2-0.03-1.92,1.12-2.34c2.34-0.84,4.78-1.06,7.23-0.99c1.24,0.04,2.47,0.39,3.72,0.51
			c1.28,0.12,2.58,0.24,3.86,0.16C131.37,134.95,132.46,135.91,133.29,137.39z M100.79,154.38c0.37-0.15,1.19,0.18,1.45,0.54
			c0.76,1.03,1.42,2.15,1.97,3.3c0.42,0.89-0.08,1.38-1.37,1.33c-1.24-0.11-2.65-0.24-4.07-0.36c-0.85-0.07-1.15-0.49-0.83-1.31
			c0.06-0.15,0.13-0.31,0.12-0.47C97.95,155.49,99.43,154.92,100.79,154.38z M95.42,128.15c-0.03-0.08-0.37-0.14-0.51-0.08
			c-1.28,0.55-2.57,2.5-1.37,3.79c0.17,0.18,0.29,0.43,0.38,0.67c0.39,1.05,0.01,1.61-1.12,1.64c-0.19,0.01-0.39,0-0.58,0
			c-1.52-0.02-2.04-0.13-2.32-1.06c-0.06-0.21-0.12-0.47-0.16-0.78c-0.36-2.33-0.62-4.67,0.29-6.98c0.4-1.01,1.06-1.5,2.06-1.65
			c1.58-0.25,3.16-0.67,4.75-0.69c2.38-0.04,4.78,0.13,7.16,0.34c0.89,0.08,0.58,0.92,0.5,1.5c-0.16,1.24-0.44,2.47-0.51,3.72
			c-0.07,1.28,0.01,2.58,0.11,3.86c0.06,0.71-0.11,1.14-0.86,1.22c-1.99,0.22-3.98,0.47-5.97,0.65c-0.9,0.08-1.47-0.24-1.68-1.3
			c-0.15-0.78-0.73-1.48-1.16-2.19c-0.42-0.7-0.26-1.22,0.4-1.64c0.19-0.12,0.41-0.25,0.52-0.43
			C95.45,128.59,95.48,128.33,95.42,128.15z M96.25,144.52c0.24-1.62,0.46-3.24,0.63-4.87c0.04-0.43-0.11-0.89-0.22-1.33
			c-0.35-1.35,0.21-2.46,1.57-2.72c1.71-0.32,3.45-0.49,5.3-0.74c0.36,0.08,0.83,0.25,1.3,0.28c1.17,0.07,2.34,0.09,3.52,0.09
			c0.64,0,1.27-0.16,1.9-0.13c1.16,0.05,1.49,0.45,1.67,1.58c0.1,0.66,0.34,1.3,0.51,1.95c0.08,0.31,0.23,0.62,0.22,0.93
			c-0.08,1.88-0.2,3.76-0.3,5.64c-0.03,0.53-0.28,0.68-0.81,0.71c-1.83,0.09-3.66,0.26-5.49,0.39c-0.35,0.02-0.72,0.06-1.06-0.01
			c-2.58-0.55-5.17-0.71-7.8-0.52C96.38,145.83,96.12,145.39,96.25,144.52z M108.78,122.88c0.16,0,0.32,0,0.48,0
			c0-0.02,0-0.04,0-0.06c1.83,0.18,3.65,0.41,5.49,0.51c1.35,0.07,2.7-0.05,4.05-0.06c1.29-0.01,1.61,0.44,1.62,1.7
			c0,1.9,0.06,3.8,0.24,5.69c0.16,1.73,0.06,2-1.64,2.38c-1.23,0.27-2.45,0.59-3.68,0.82c-0.63,0.11-1.33,0.24-1.92,0.06
			c-2.19-0.66-4.38-0.24-6.55-0.11c-1.32,0.07-1.67,0.01-1.6-1.74c0.08-2.09,0.33-4.17,0.46-6.26
			C105.87,123.36,106.31,122.91,108.78,122.88z M108.45,119.27c0.17-0.73,0.53-0.89,1.18-0.58c0.66,0.32,1.41,1.54,1.25,2.23
			c-0.06,0.26-0.44,0.45-0.53,0.54C108.29,121.34,108.06,120.99,108.45,119.27z M103.2,153.84c-0.26-0.43-0.4-0.99-0.43-1.5
			c-0.07-1.06,0.03-2.12-0.04-3.18c-0.08-1.18,0.33-1.56,1.49-1.52c2.08,0.06,4.19,0.5,6.23-0.31c0.23-0.09,0.51-0.05,0.76-0.04
			c0.95,0.03,1.92,0.43,2.83-0.18c0.09-0.06,0.27-0.06,0.38-0.01c1.22,0.49,2.45,0.43,3.72,0.17c0.72-0.15,1.57,0.58,1.81,1.29
			c0.7,2.06,0.51,4.11,0.07,6.19c-0.16,0.75-0.1,1.54-0.13,2.31c-0.03,0.88-0.45,1.3-1.32,1.63c-3.01,1.16-6.14,0.5-8.86,0.9
			c-1.15,0-1.96,0.02-2.77-0.01c-1.1-0.04-1.32-0.3-1.39-1.39c-0.03-0.41-0.06-0.87-0.27-1.21
			C104.62,155.9,103.84,154.91,103.2,153.84z M124.92,124.78c1.55,2.35,3.13,4.69,4.65,7.06c0.29,0.45,0.39,1.03,0.58,1.54
			c-0.51,0.18-1.03,0.35-1.34,0.46c-1.99-0.25-3.72-0.45-5.45-0.7c-0.88-0.12-1.3-0.58-1.31-1.57c-0.02-2.04-0.18-4.08-0.33-6.11
			c-0.06-0.79,0.32-1.21,0.99-1.46C123.48,123.72,124.45,124.07,124.92,124.78z M119.07,113.8c0.83,1.45,1.75,2.85,2.56,4.31
			c0.48,0.87,0.84,1.81,1.16,2.75c0.07,0.2-0.3,0.8-0.45,0.79c-3.09-0.09-6.17,0.71-9.26,0.05c-0.77-0.16-1.06-0.48-1.13-1.27
			c-0.16-1.78-0.73-3.35-2.71-3.93c-0.82-0.24-1.11-0.83-0.92-1.67c0.06-0.48,0.13-0.96,0.17-1.44c0.1-1.13,0.46-1.49,1.6-1.31
			c1.75,0.27,3.46,0.21,5.19-0.13C116.97,111.63,118.23,112.33,119.07,113.8z M73.61,62.19c1.35-2.65,2.68-5.31,4.02-7.96
			c0.62-1.23,1.21-2.48,1.9-3.68c0.5-0.87,0.75-0.78,1.43-0.07c2.4,2.54,3.83,5.66,5.32,8.75c0.45,0.92,1.12,1.74,1.54,2.67
			c0.66,1.45,0.47,1.67-1.13,1.47c-3.16,0-6.33-0.01-9.49,0c-0.96,0-1.93,0.11-2.89,0.06C73.52,63.4,73.2,62.98,73.61,62.19z
			 M46.53,110.55c0.47-0.92,1.05-1.78,1.5-2.7c0.54-1.09,0.97-2.24,1.49-3.34c0.27-0.58,0.58-1.15,0.95-1.66
			c0.61-0.83,1.32-1.59,1.91-2.43c0.43-0.61,1.01-1.19,1.64-0.83c0.59,0.34,1.23,1.12,1.27,1.75c0.08,1.23-0.25,2.48-0.4,3.73
			c-0.22,1.79-0.45,3.58-0.66,5.38c-0.16,1.34-0.54,1.67-1.91,1.52c-1.06-0.12-2.11-0.28-3.18-0.42c-0.57,0.05-1.15,0.13-1.73,0.16
			c-0.37,0.01-0.74-0.05-1.12-0.08C46.37,111.26,46.37,110.86,46.53,110.55z M32.93,132.53c0.58-1.29,1.23-2.55,1.97-3.76
			c0.88-1.42,1.82-2.81,2.87-4.1c0.34-0.43,1.09-0.74,1.66-0.74c2.18-0.03,4.38,0.24,6.55,0.11c1.65-0.1,2.41,0.64,2.14,2.31
			c-0.05,0.29-0.05,0.58-0.08,0.87c0.03,0,0.07,0,0.1,0.01c-0.1,1.64-0.2,3.28-0.29,4.92c-0.1,1.95-0.49,2.29-2.44,2.07
			c-0.38-0.04-0.77-0.1-1.16-0.11c-1.37-0.02-2.01-0.65-1.77-1.97c0.29-1.59,0.75-3.16,1.11-4.74c0.05-0.22-0.02-0.48-0.03-0.71
			c-0.24,0.05-0.53,0.04-0.7,0.17c-0.89,0.7-1.25,1.6-1.27,2.78c-0.02,1.23-0.34,2.46-0.62,3.66c-0.06,0.24-0.51,0.56-0.79,0.56
			c-2.13,0.04-4.25,0.02-6.38-0.01C32.76,133.83,32.49,133.5,32.93,132.53z M69.02,127.29c0.02,0,0.03,0,0.05,0
			c-0.09,1.77-0.16,3.55-0.28,5.32c-0.07,0.97-0.6,1.29-1.57,1.29c-1.06,0-2.12,0.11-3.17,0.22c-0.76,0.08-1.56,0.04-1.84-0.71
			c-0.3-0.8-0.36-1.73,0.39-2.44c0.07-0.07,0.18-0.12,0.2-0.2c0.07-0.22,0.1-0.45,0.15-0.68c-0.26-0.01-0.6-0.12-0.77,0
			c-0.72,0.52-1.27,1.16-1.32,2.14c-0.07,1.5-0.55,1.92-2.01,1.91c-2.87-0.02-5.73-0.04-8.6-0.04c-0.74,0-1.06-0.29-1.05-1.04
			c0.04-2.29,0.04-4.58,0.1-6.87c0.04-1.57,0.65-2.16,2.08-2.23c1.83-0.09,3.67-0.14,5.49-0.34c2.26-0.25,4.49-0.38,6.74,0.04
			c1.43,0.27,2.88,0.42,4.32,0.59c0.81,0.09,1.12,0.51,1.09,1.3C68.99,126.12,69.02,126.71,69.02,127.29z M56.18,135.64
			c0.29,0,0.58-0.02,0.87-0.05c0.98-0.09,1.55,0.35,1.61,1.34c0.05,0.81,0.01,1.62,0.01,2.43c0.02,0,0.03,0,0.05,0
			c-0.09,1.61-0.16,3.22-0.26,4.84c-0.1,1.55-0.72,1.93-2.24,1.9c-1.63-0.03-3.27,0.22-4.9,0.33c-1.02,0.07-2.07,0.29-3.05,0.12
			c-1.71-0.3-3.39-0.32-5.11-0.13c-1.47,0.16-2.97,0.15-4.45,0.1c-1.21-0.04-1.39-0.32-1.36-1.49c0.07-2.47,0.13-4.94,0.21-7.4
			c0.04-1.44,0.59-2.06,2.07-2.11c1.97-0.07,3.94-0.04,5.91-0.02C49.09,135.54,52.64,135.59,56.18,135.64z M25.42,145.18
			c0.09-0.21,0.24-0.38,0.36-0.58c1.65-2.7,3.69-5.16,4.92-8.14c0.22-0.52,0.95-0.98,1.54-1.15c0.72-0.21,1.54-0.12,2.3-0.07
			c1.21,0.08,1.65,0.62,1.64,2.07c-0.8,1.89-0.05,4.03-0.04,6.18c0.01,1.49-0.68,2.15-2.09,2.59c-1.89,0.59-3.77,0.24-5.66,0.3
			c-0.68,0.02-1.35,0.07-2.03,0.12C25.55,146.55,25.1,145.94,25.42,145.18z M33.63,163.61c-0.13,1.99-0.2,3.99-0.4,5.98
			c-0.16,1.6-1.4,2.67-3,2.32c-3.18-0.7-6.3,0-9.45,0.07c-2.28,0.05-4.56-0.04-6.84-0.04c-0.87,0-1.74,0.13-2.61,0.12
			c-0.46,0-0.92-0.18-1.38-0.28c0.11-0.41,0.16-0.84,0.35-1.21c0.21-0.42,0.57-0.78,0.83-1.18c0.63-0.97,1.26-1.94,1.85-2.93
			c0.93-1.55,1.78-3.16,2.77-4.66c0.92-1.38,2.19-1.85,3.94-1.58c1.86,0.29,3.8,0.3,5.69,0.18c2.41-0.14,4.76,0.05,7.1,0.54
			C33.37,161.13,33.83,162.24,33.63,163.61z M31.21,159.29c-1.96-0.51-3.91-0.26-5.87-0.22c-2.06,0.04-4.13-0.13-6.19-0.27
			c-0.74-0.05-1.09-0.88-0.67-1.57c0.8-1.31,1.71-2.56,2.51-3.88c0.62-1.02,1.06-2.14,1.7-3.14c1.3-2.05,1.33-2.03,3.73-1.97
			c1.26,0,2.53,0.09,3.78-0.02c1.56-0.15,3.11-0.48,4.67-0.72c0.41-0.06,0.84-0.13,1.25-0.07c1.76,0.22,3.52,0.43,5.26,0.76
			c0.94,0.18,1.85,0.56,2.73,0.97c0.25,0.11,0.44,0.63,0.44,0.96c0.02,2.36-0.02,4.71-0.04,7.07c0,0.35-0.02,0.72-0.09,1.06
			c-0.23,1.07-0.6,1.32-1.69,1.31c-2.84-0.02-5.68,0.02-8.52-0.01C33.19,159.54,32.16,159.54,31.21,159.29z M58.74,170.11
			c-0.07,1.39-1.13,2.1-2.52,2.02c-1.41-0.08-2.87-0.16-4.25,0.08c-2.06,0.35-4.05-0.14-6.08-0.16c-2.88-0.03-5.75,0.07-8.63,0.12
			c-0.13,0-0.26,0.02-0.39,0.02c-1.44,0.02-2.56-0.28-2.36-2.24c0.29-2.59,0.57-5.19,0.89-7.78c0.13-1.06,1.05-1.2,1.84-1.22
			c1.71-0.05,3.42,0.01,5.12,0.09c1.34,0.06,2.67,0.38,4-0.2c0.79-0.34,1.94,0.55,2.42,1.63c0.31,0.7,0.84,1.33,1.01,2.06
			c0.2,0.84,0.1,1.75,0.17,2.63c0.03,0.33,0.17,0.64,0.26,0.97c0.29-0.21,0.68-0.35,0.84-0.63c0.25-0.44,0.35-0.97,0.51-1.46
			c0.26-0.81,0.75-1.36,1.54-1.76c1.06-0.53,2.07-1.18,2.52-2.41c0.2-0.56,1.88-1.14,2.59-0.76c0.38,0.2,0.71,0.91,0.71,1.39
			C58.94,165.02,58.87,167.57,58.74,170.11z M51.12,160.84c0.6-0.1,1.22-0.13,2.13-0.22c0.18,0.12,0.78,0.32,0.87,0.65
			c0.1,0.4-0.11,1.08-0.42,1.33c-0.59,0.46-1.34,0.77-2.07,1c-0.66,0.21-1.3-0.4-1.42-1.24C50.09,161.62,50.25,160.99,51.12,160.84z
			 M59.21,159.25c-1.15,0.05-2.32-0.07-3.48-0.07c-1.51,0-3.02,0.05-4.54,0.04c-1.45-0.01-2.9-0.05-4.35-0.12
			c-0.7-0.03-1.04-0.41-0.97-1.16c0.05-0.51,0.01-1.03,0.01-1.55c-0.06,0-0.13,0-0.19,0c0-1.55-0.05-3.1,0.02-4.65
			c0.04-0.83,0.2-1.67,0.47-2.45c0.11-0.33,0.62-0.68,1-0.74c1.62-0.26,3.26-0.41,4.89-0.6c0.06-0.01,0.14,0.01,0.19-0.01
			c2.09-0.72,4.26-0.22,6.39-0.44c1.38-0.14,2.82,0.26,4.23,0.42c0.26,0.03,0.51,0.09,0.77,0.13c2.4,0.35,3.34,1.83,2.89,4.29
			c-0.31,1.71-0.41,3.46-0.6,5.19c-0.1,0.91-0.56,1.31-1.54,1.34C62.67,158.91,60.94,159.17,59.21,159.25z M76.21,169.01
			c0.06,1.95-0.64,2.78-2.63,2.87c-1,0.04-2,0.11-3,0.17c0,0.05,0,0.11,0,0.16c-2.71,0-5.42,0.01-8.13-0.01
			c-0.35,0-0.71-0.07-1.04-0.18c-0.87-0.28-1.37-0.76-1.32-1.83c0.14-2.67,0.15-5.35,0.2-8.03c0.02-0.98,0.64-1.38,1.46-1.53
			c2.95-0.54,5.92-0.29,8.89-0.18c1.16,0.04,2.31,0.08,3.47,0.13c1.42,0.06,2.16,0.98,2.12,2.39
			C76.16,164.98,76.14,167,76.21,169.01z M90.32,171.1c-0.08,0.77-0.75,0.9-1.4,0.92c-2.93,0.09-5.86,0.26-8.79,0.22
			c-0.86-0.01-1.76-0.55-2.54-1.01c-0.25-0.15-0.2-0.81-0.29-1.24c0.05-0.01,0.09-0.02,0.14-0.03c-0.07-0.54-0.2-1.09-0.18-1.63
			c0.02-0.62,0.19-1.23,0.29-1.85c0.05-0.31,0.17-0.62,0.15-0.93c-0.06-1.12-0.18-2.25-0.23-3.37c-0.04-0.83,0.5-1.31,1.56-1.37
			c2.02-0.1,4.05-0.21,6.08-0.2c1.35,0,2.7,0.17,4.04,0.3c0.8,0.08,1.19,0.53,1.38,1.35C91.23,165.24,90.61,168.16,90.32,171.1z
			 M90.42,159.51c-1.58-0.1-3.15-0.19-4.73-0.29c-0.58-0.03-0.82-0.24-0.81-0.91c0.04-1.8-0.05-3.6-0.07-5.4
			c-0.01-0.61,0.04-1.22,0.07-1.83c0.03-0.73,0.13-1.47,0.07-2.19c-0.04-0.41,0.03-0.74,0.21-0.97h-1.94
			c0.08,0.11,0.13,0.22,0.14,0.31c0.11,1.31,0.21,2.63,0.2,3.94c-0.01,1.96-0.13,3.92-0.16,5.88c-0.02,0.84-0.43,1.15-1.22,1.13
			c-2.92-0.06-5.85-0.09-8.77-0.15c-1.64-0.03-3.28-0.12-4.92-0.15c-1.09-0.02-1.3-0.18-1.2-1.23c0.17-1.7,0.44-3.39,0.59-5.09
			c0.09-0.95,0.11-1.92,0.01-2.86c-0.08-0.84,0.04-1.47,0.96-1.56c0.81-0.09,1.63-0.15,2.45-0.21h-1.24l0.17-1.23l0.06-0.42
			c-0.77-0.01-1.53-0.01-2.3-0.03c-2.15-0.05-4.29-0.05-6.44-0.15c-0.85-0.04-1.73-1.22-1.6-2.08c0.33-2.22,0.31-4.43-0.05-6.65
			c-0.16-0.94,0.78-1.83,1.68-1.85c1.95-0.03,3.91-0.15,5.86-0.16c1.18,0,2.35,0.17,3.53,0.21c0.25,0.01,0.51,0.01,0.76,0.01
			l0.2-1.45c-0.44-0.01-0.87-0.01-1.31-0.01c-0.64,0-0.8-0.36-0.76-0.96c0.14-2.15,0.25-4.3,0.36-6.46
			c0.02-0.29-0.03-0.58-0.01-0.87c0.07-1.41,0.91-2.16,2.32-2.12c0.01,0.08,0.01,0.16,0.02,0.24c0.25-0.02,0.51-0.04,0.76-0.06
			l0.21-1.58c-0.51,0.05-1.28,0.15-1.28,0.11c-1.9,0.12-2.07,0.04-3.96,0.01c-1.8-0.02-3.59-0.3-5.39-0.47
			c-0.19-0.02-0.38-0.07-0.57-0.09c-1.68-0.17-1.64-0.16-1.57-1.82c0.02-0.42,0.03-0.83,0.03-1.25l-1.35,0.34
			c-0.02,0.71-0.04,1.42-0.06,2.13c-0.01,0.27-0.42,0.73-0.66,0.74c-2.54,0.15-5.08,0.23-7.63,0.31c-1.61,0.05-3.22,0.07-4.83,0.08
			c-1.96,0.01-3.93,0.05-5.89-0.03c-1.04-0.04-1.22-0.45-0.63-1.29c0.88-1.26,1.84-2.47,2.74-3.71c0.69-0.94,1.29-1.95,2.04-2.83
			c0.98-1.14,2.37-1.34,3.79-1.34c0.1,0,0.2,0.01,0.29,0.05c0.49,0.22,1.37-0.26,1.45,0.72c0.11,1.25-0.3,2.05-1.3,2.32
			c-1.03,0.28-1.54,1.04-1.95,1.88c-0.13,0.27,0.04,0.7,0.07,1.05c0.33-0.12,0.7-0.18,0.96-0.38c0.43-0.33,0.74-0.83,1.19-1.11
			c0.83-0.52,1.28-0.28,1.57,0.66c0.13,0.42,0.38,0.8,0.58,1.2c0.12-0.45,0.37-0.92,0.32-1.35c-0.12-1.11-0.26-2.17,0.17-3.28
			c0.28-0.74,0.54-1.3,1.37-1.39c0.89-0.11,1.79-0.2,2.68-0.3c0,0.02,0.26,0.01,0.46,0.01l0.3-1.2c-0.4-0.17-0.64-0.4-0.73-0.69
			c-0.19-0.58,0.06-2.14,0.32-4.08c0.26-1.94,0-2.79,0-3.95s0.75-3.1,1.43-3.72c0.52-0.48,2.2,0.09,3.69,0s0.91,0.48,1.33,1.26
			c0.43,0.78,0.16,1.55,0,2.27c-0.16,0.71,0.87,0.91,1.1,0.45c0.24-0.45-0.17-1.81,0-2.98s0.41-0.97,1.1-1
			c0.42-0.02,1.43,0.11,2.46,0.14c-0.49-0.9-0.93-1.81-1.31-2.73c-0.14,1.19-0.41,1.25-1.82,1.19c-0.23-0.01-0.45,0-0.68,0
			c-0.01,0.07-0.01,0.14-0.02,0.21c-0.4-0.03-0.8-0.06-1.2-0.09c-0.44,0.03-0.84,0.06-0.84,0.09c-2.88-0.22-3.73-0.43-6.61-0.67
			c-0.26-0.02-0.58-0.16-0.72-0.35c-0.09-0.12,0.05-0.48,0.17-0.67c1.11-1.69,2.19-3.41,3.4-5.03c0.63-0.84,1.38-1.73,2.28-2.17
			c0.79-0.39,1.88-0.21,2.83-0.25c0.47-0.02,0.94,0,1.41,0.01c-0.02-0.39-0.03-0.79-0.03-1.18c0-0.09,0.01-0.17,0.01-0.25
			c-0.66,0.01-1.33,0-1.99-0.03c-2.19-0.1-2.37-0.51-1.33-2.6c0.64-1.26,1.44-2.44,2.17-3.66c0.07-0.11,0.13-0.22,0.19-0.34
			c0.79-1.63,1.97-2.43,3.76-2.34c0.32-0.47,0.67-0.93,1.03-1.37c-0.41,0-0.81,0-1.22,0c-0.68,0-0.99-0.37-0.67-0.99
			c0.85-1.66,1.79-3.29,2.65-4.95c0.68-1.31,1.23-2.7,1.99-3.97c0.43-0.71,1.13-1.31,1.81-1.81c0.26-0.19,0.81,0.03,1.23,0.06
			c-0.07,0.38-0.07,0.78-0.22,1.13c-0.37,0.91-0.88,1.78-1.16,2.71c-0.09,0.3,0.36,0.76,0.57,1.15c0.21-0.32,0.58-0.62,0.6-0.95
			c0.17-2.19,1.71-3.38,3.34-4.35c0.67-0.4,1.7-0.32,2.54-0.24c0.71,0.07,1.05,0.68,1.03,1.43c-0.03,1.61-0.06,3.23-0.09,4.84
			c0.09,0,0.18-0.01,0.27-0.01c0.34,0,0.67,0.01,1,0.03c0-0.15,0.01-0.31,0.01-0.46c0.03-1.35,0.08-2.71-0.06-4.05
			c-0.21-1.97,0.01-2.26,2.03-2.14c1.28,0.09,2.57,0.11,3.83,0.3c1.61,0.24,2.87,1.12,3.76,2.49c0.21,0.32,0.41,0.66,0.56,1.02
			c0.88,2,2.37,3.59,3.6,5.36c0.51,0.73,0.86,1.58,1.22,2.41c0.24,0.54,0.01,0.89-0.61,0.86c-0.71-0.03-1.46,0.03-2.11-0.18
			c-0.34-0.11-0.68-0.18-1.02-0.22c0.56,0.62,1.08,1.28,1.54,1.98c0.91,0,1.81,0.01,2.72,0.01c0.64,0,1.04,0.26,1.37,0.86
			c0.98,1.77,2.06,3.48,3.1,5.22c0.65,1.09,0.27,1.82-0.97,1.85c-0.55,0.01-1.1,0-1.65,0c0-0.04-0.01-0.07-0.01-0.11
			c-0.61,0.05-1.22,0.09-1.83,0.14c0.03,0.39,0.05,0.78,0.05,1.18c0,0.55-0.03,1.1-0.08,1.66c0.16-0.76,0.7-1.13,1.4-1.22
			c1.09-0.13,2.24-0.41,3.27-0.19c0.93,0.21,1.99,0.82,2.52,1.59c1.48,2.15,2.74,4.46,4.02,6.74c0.68,1.21,0.33,1.68-1.1,1.68
			c-0.26,0-0.52,0-0.78,0c-0.32,0-0.66,0.05-0.97-0.01c-2.19-0.44-4.35,0-6.52,0.17c-1.21,0.1-1.52-0.08-1.75-1.31
			c-0.35-1.85-0.49-3.7-0.34-5.55c-0.21,1.17-0.53,2.35-0.96,3.53c0.01,0.17,0.03,0.34,0.04,0.51c0.11,1.35-0.35,2.2-1.35,2.52
			c-0.23,0.47-0.49,0.93-0.75,1.4c1.18,0.13,1.96,0.57,2.87,0.72c1.19,0.19,4.25-0.39,5.2,0c0.96,0.39,1.05,2.07,1.18,4.6
			c0.01,0.2,0.02,0.41,0.02,0.62h0.01l0.21,0.82l0.56,2.23c0.01-0.34,0.05-0.85,0.01-0.85c0.12-2.22,0.26-4.43,0.34-6.65
			c0.03-0.76,0.31-1.16,1.06-1.21c1.28-0.1,2.57-0.24,3.85-0.28c1.01-0.03,1.69,0.66,1.94,1.5c0.7,2.38,2.22,4.18,3.8,5.98
			c0.52,0.59,0.89,1.34,1.26,2.05c0.31,0.6-0.19,1.35-0.98,1.45c-1.03,0.12-2.06,0.19-3.09,0.22c-1.93,0.05-3.86-0.02-5.78,0.1
			c0,0-1.11,0.43-1.8,0.14l0.33,1.31c0.57,0.04,1.13,0.11,1.69,0.21c0.33,0.06,0.78,0.75,0.78,1.16c0.04,2.06-0.04,4.11-0.1,6.17
			c-0.02,0.62,0.12,1.5-0.23,1.8c-0.37,0.33-1.22,0.18-1.86,0.17c-2.26-0.04-4.52-0.09-6.78-0.2c-0.25-0.01-0.61-0.45-0.68-0.75
			c-0.11-0.49-0.03-1.03-0.03-1.75c-0.02-0.34-0.04-0.7-0.06-1.06l-1.21-0.3c0.03,1,0.03,2.01-0.02,3c-0.05,0.92-1.25,1.12-2.1,1.22
			c-1.95,0.24-3.91,0.4-5.87,0.58c-0.21,0.02-0.43,0.03-0.64,0.03l0.21,1.58c0.73,0.12,1.06,0.65,0.88,1.38
			c-0.2,0.79-0.31,1.57-0.37,2.36l0.96,7.12c0.6,0.04,1.2,0.14,1.8,0.34c0.43,0.14,0.96-0.02,1.44-0.03
			c0.55-0.02,1.1-0.09,1.64-0.02c0.76,0.1,1.27,0.64,1.25,1.39c-0.05,2.27-0.12,4.55-0.33,6.82c-0.2,2.09-0.48,2.25-2.56,2.38
			c-0.6-0.03-1.19-0.08-1.79-0.12l0.12,0.85l0.08,0.62c1.46-0.07,2.91-0.13,4.37-0.2c0.13-0.01,0.26-0.04,0.38-0.03
			c1.48,0.09,2.96,0.23,4.44,0.27c0.74,0.02,1.08,0.3,1.1,1.02c0.03,1.12,0.09,2.24,0.11,3.35c0.02,0.83-0.49,1.3-1.18,1.61
			c-0.29,0.13-0.6,0.23-0.89,0.38c-1.48,0.75-2.48,1.72-2.67,3.57c-0.2,1.88-0.76,2.08-3.48,2.38
			C92.27,159.62,91.35,159.56,90.42,159.51z M111.07,163.1c-0.33,2.41-0.61,4.8-0.24,7.24c0.13,0.9-0.58,1.34-1.63,1.27
			c-1.97-0.12-3.94-0.31-5.9-0.26c-2.09,0.06-4.16,0.43-6.25,0.56c-1.31,0.08-2.64,0.01-3.95-0.1c-0.99-0.09-1.33-0.73-1.24-1.71
			c0.21-2.09,0.39-4.18,0.5-6.28c0.03-0.52-0.21-1.07-0.39-1.57c-0.21-0.59-0.09-0.99,0.56-1.04c1.22-0.1,2.45-0.22,3.68-0.19
			c1.1,0.02,1.93,0.88,1.73,1.91c-0.25,1.3,0.04,2.38,0.69,3.49c0.37,0.63,0.48,1.42,0.73,2.22c0.9-0.88,0.92-2.36,0.19-3.48
			c-0.27-0.41-0.34-0.97-0.42-1.48c-0.1-0.57-0.02-1.17-0.18-1.72c-0.23-0.79,0.06-1.02,0.78-1c2.03,0.07,4.07,0.15,6.1,0.21
			c1.13,0.03,2.26,0.08,3.38,0.06C110.62,161.2,111.27,161.7,111.07,163.1z M132.26,170.87c-0.02,0.19-0.39,0.43-0.63,0.49
			c-0.43,0.1-0.92,0.17-1.34,0.08c-1.47-0.31-2.92-0.43-4.38-0.01c-2.07,0.6-4.17,0.14-6.26,0.2c-1.96,0.06-3.92-0.07-5.88-0.13
			c-0.91-0.03-1.43-0.54-1.58-1.41c-0.19-1.11-0.36-2.23-0.48-3c0.18-2.02,0.26-3.7,0.5-5.36c0.15-1.03,1.13-0.75,1.83-0.81
			c1.15-0.1,2.31-0.18,3.46-0.23c1.44-0.06,2.88-0.08,4.32-0.11c1.57-0.03,3.14-0.08,4.71-0.06c0.67,0.01,1.33,0.18,2,0.22
			c0.89,0.06,1.78,0.13,2.66,0.06c0.94-0.08,1.34,0.18,1.32,1.15c-0.02,0.97-0.15,1.93-0.16,2.9c-0.01,0.54,0.21,1.08,0.19,1.62
			C132.49,167.95,132.4,169.41,132.26,170.87z M133.35,158.9c-0.73-0.08-1.51,0.28-2.27,0.38c-0.59,0.08-1.19,0.14-1.78,0.09
			c-1.53-0.11-3.06-0.4-4.59-0.39c-3.8,0.03-3.57-0.5-3.31-3.94c0.13-1.66,0.48-3.3,0.69-4.96c0.05-0.4-0.04-0.83-0.14-1.22
			c-0.28-1.05,0.01-1.54,1.12-1.65c0.67-0.06,1.35-0.01,2.03-0.01c0-0.01,0-0.03,0-0.04c2.84,0,5.67,0.01,8.51-0.01
			c0.71,0,1.42-0.04,2.12-0.12c1.97-0.22,4.35,1.24,5.29,3.04c1.33,2.57,2.8,5.06,4.19,7.6c0.14,0.26,0.3,0.66,0.2,0.86
			c-0.1,0.18-0.54,0.24-0.84,0.26c-0.89,0.06-1.78,0.07-2.68,0.11c-0.19,0.01-0.4,0.1-0.58,0.05
			C138.68,158.27,136.01,159.18,133.35,158.9z M152.63,171.25c-0.01-0.08-0.01-0.16-0.02-0.23c-3.09,0.11-6.18,0.23-9.28,0.32
			c-2.52,0.08-5.03,0.16-7.55,0.16c-1.23,0-2.08-0.89-1.99-2.15c0.15-2.01,0.12-3.97-0.18-5.97c-0.27-1.76,1.02-2.82,2.76-2.52
			c1.9,0.33,3.72-0.13,5.56-0.44c2.13-0.35,4.19-0.15,5.95,1.26c0.36,0.29,0.58,0.76,0.85,1.17c1.16,1.78,2.31,3.57,3.48,5.34
			c0.39,0.59,0.91,1.09,1.27,1.69c0.19,0.32,0.17,0.77,0.25,1.16C153.36,171.11,152.99,171.18,152.63,171.25z"/>
		<path d="M76.3,152.2c-0.5,0.26-0.56,0.67-0.02,1.05c0.33,0.23,0.6,0.54,0.99,0.91c0.12-0.31,0.23-0.52,0.29-0.75
			c0.05-0.18-0.02-0.43,0.08-0.57c1.03-1.41,1.53-2.94,1.35-4.7c-0.01-0.06,0.05-0.14,0.13-0.22H77.3c0.1,0.12,0.18,0.29,0.23,0.52
			C77.88,149.95,77.98,151.34,76.3,152.2z"/>
		<path d="M81.92,97.97c0-0.39-0.13-2.27,0.31-2.92c0.44-0.65-0.64-2.72-0.61-4.29c-0.09-1.31,0.32-1.85,1.39-1.85
			c0.48,0,0.97,0,1.45,0c0,0.03,0.01,0.06,0.01,0.1c0.73-0.1,1.46-0.21,2.19-0.31c0,0,0-0.01,0-0.01c0-0.51-0.07-1-0.19-1.47
			c-0.18,0.04-0.39,0.07-0.65,0.07c-2.83,0.05-5.67,0.17-8.5,0.17c-1.66,0-2.2,0.24-2.07-1.63c-0.46,0.85-0.72,1.83-0.72,2.86
			c0,0.02,0,0.03,0,0.05c0.06,0,0.12,0,0.17,0.01c1.21,0.09,2.41,0.27,3.62,0.33c1.74,0.09,2.63,1.27,2.02,2.91
			c0.28,1.7,0.3,2.41,0.19,3.64c-0.11,1.23,0.03,1.3,0.06,2.01c0.02,0.55-1.37,0.51-2.48,0.54c0.27,0.4,0.53,0.79,0.79,1.15
			c1.07-0.07,2.24-0.09,3.33-0.08c0.25-0.36,0.5-0.74,0.76-1.14C82.36,98.12,81.92,98.09,81.92,97.97z"/>
		<path d="M96.66,104.06c-0.52-0.06-0.49,0.68-0.33,1.53h0.98C97.14,104.7,97.18,104.12,96.66,104.06z"/>
	</g>
</g>
<g>
</g>
<g>
</g>
<g>
</g>
<g>
</g>
<g>
</g>
<g>
</g>
</svg>
