<?xml version="1.0" encoding="utf-8"?>
<!-- Generator: Adobe Illustrator 25.2.0, SVG Export Plug-In . SVG Version: 6.00 Build 0)  -->
<svg version="1.1" id="_x32_1_Celestial" xmlns="http://www.w3.org/2000/svg" xmlns:xlink="http://www.w3.org/1999/xlink" x="0px"
	 y="0px" viewBox="0 0 160 160" style="enable-background:new 0 0 160 160;" xml:space="preserve">
<g>
	<path d="M80,11.53c-37.83,0-68.61,30.78-68.61,68.61c0,37.83,30.78,68.61,68.61,68.61c37.83,0,68.61-30.78,68.61-68.61
		C148.61,42.3,117.83,11.53,80,11.53z M32.35,39.5c0.07,0.4,0.36,0.88,0.97,1.41c2.54,2.26,9.95,9.07,11.55,10.5
		c1.52,1.36,4.79,3.17,2.47,0.92c-2.33-2.26-9.23-10.5-11.45-12.76c-0.9-0.91-1.9-1.23-2.61-1.14c2.27-2.55,4.75-4.9,7.41-7.05
		c0.11,0.17,0.23,0.35,0.38,0.51c1.69,1.83,13.46,16,15.08,17.83c0,0-9.8-15.57-12.69-18.96c-0.31-0.36-0.6-0.64-0.87-0.87
		c2.48-1.85,5.1-3.52,7.84-4.99c-0.22,0.56-0.17,1.36,0.31,2.2c1.29,2.26,13.79,21.92,13.79,21.92S54.67,27.1,52.97,24.99
		c-0.37-0.46-0.74-0.72-1.09-0.83c1.59-0.8,3.21-1.53,4.87-2.2c1.96,3.55,5.21,9.99,5.21,9.99s-1.64-7.21-3.18-10.78
		c3.92-1.42,8.02-2.45,12.26-3.06c-0.02,0.29-0.04,0.6-0.02,0.95c0.21,4.23,3.1,25.16,3.1,25.16s0.21-19.1,0-24.1
		c-0.04-0.95-0.19-1.73-0.39-2.34c0.96-0.1,1.94-0.17,2.91-0.22c0.02,4.58,1.09,17.76,1.09,17.76s1.7-14.47,1.7-17.56
		c0-0.1-0.01-0.19-0.01-0.28c0.2,0,0.39-0.02,0.59-0.02c1.66,0,3.3,0.08,4.94,0.21c-0.22,4.78-0.48,16.68-0.48,16.68
		s2.46-12.24,3.2-16.41c1.48,0.18,2.95,0.41,4.39,0.69l-0.39,4.31c0,0,1.42-1.99,2.16-3.93c1.03,0.23,2.06,0.49,3.07,0.78
		c-0.68,2.93-2.71,11.14-2.71,11.14s4.7-6.88,5.4-10.19c0.01-0.04,0.01-0.08,0.02-0.13c2.4,0.79,4.73,1.72,6.99,2.78
		c-0.21,0.14-0.43,0.35-0.65,0.62c-1.69,2.11-11.56,24.03-11.56,24.03s12.51-19.66,13.79-21.92c0.36-0.63,0.47-1.23,0.41-1.74
		c2.65,1.37,5.2,2.92,7.62,4.63c-0.24,0.21-0.48,0.46-0.74,0.77c-2.9,3.38-10.88,16.11-10.88,16.11
		c1.62-1.83,11.58-13.15,13.27-14.98c0.13-0.14,0.24-0.29,0.33-0.43c0.88,0.68,1.74,1.38,2.59,2.11c-1.71,1.44-3.38,3.09-4.02,3.85
		c-1.13,1.34-11.98,15.5-11.98,15.5s14.05-13.67,17.28-16.77c0.27-0.26,0.52-0.51,0.75-0.76c0.5,0.47,1.01,0.94,1.49,1.42
		c-0.29,0.17-0.57,0.4-0.85,0.68c-2.22,2.26-9.13,10.5-11.45,12.76c-2.33,2.26,11.48-9.16,14.02-11.42c0.04-0.04,0.07-0.07,0.11-0.1
		c1.14,1.23,2.21,2.52,3.25,3.84c-1.98,1.91-5.11,5.39-5.11,5.39s4.2-1.92,6.6-3.41c0.44,0.61,0.88,1.23,1.3,1.86
		c-2.97,2.26-8.25,6.5-8.25,6.5s6.5-2.44,9.78-4.09c0.42,0.7,0.84,1.42,1.23,2.14c-0.18,0.09-0.37,0.19-0.57,0.31
		c-3.29,1.97-8.08,7.61-8.08,7.61s5.21-2.75,8.67-5.07c0.41-0.27,0.75-0.55,1.04-0.81c0.97,1.92,1.84,3.89,2.61,5.91
		c-0.31,0.09-0.65,0.21-1.04,0.38c-4.82,2.11-16.96,8.32-18.39,9.3c-0.03,0.02-0.05,0.03-0.07,0.05c0.33-0.7,0.68-1.55,1.11-2.54
		c0.92-2.11,0-2.61,1.54-4.09c1.54-1.48,1.07-2.54,1.27-3.95c0.2-1.41-0.76-1.83-0.14-3.38c0.62-1.55-0.97-2.89-0.83-3.38
		c0.14-0.49,0.42-3.03,0.78-4.02s-1.06-1.27-1.55-0.85c-0.49,0.42-4.44,2.11-6.84,5.07s-7.12,5.14-14.45,5.71
		c-2.86,0.22-5.31,1.07-7.33,2.11c0.36-0.61,0.72-1.21,1.05-1.77c1.76-2.96,0.35-3.88-2.15,0c-0.68,1.06-1.33,2.34-1.9,3.64
		c-1.5,1.12-2.56,2.18-3.13,2.79c-1.48,1.55-3.1,4.16-3.31,3.59c-0.21-0.56-0.7,0.07-0.7-0.92s-1.27-2.68-1.2-3.61
		s-1.55-3.93-3.31-4.42c-1.76-0.49-2.54,0.85-3.1,2.4c-0.56,1.55-0.35,2.11-0.49,3.31c-0.14,1.2-0.21,1.55-1.13,3.24
		c0,0-2.96-2.11-4.37-3.73c-1.41-1.62-2.89-1.9-5.29-3.88c-1.47-1.21-3.67-2.26-6.33-2.94c-3.59-4.43-11.05-13.48-11.93-14.53
		c-1.13-1.34-5.43-5.43-7.52-6.27s-1,1.9,2.22,5c2.63,2.53,12.45,12.08,15.99,15.52c-1.34-0.27-2.76-0.46-4.28-0.52
		c-5.14-0.21-5.14-0.49-6.34-1.06c-1.2-0.56-10.64-5.57-11.84-6.48c-1.2-0.92-2.82-0.7-3.17-0.42s0.42,1.69,0.85,2.47
		c0.42,0.78,2.47,3.66,3.1,4.16s0.49,0.78,0.49,2.61s1.13,2.89,0.92,4.09c-0.21,1.2,0.49,1.27,1.69,3.1
		c1.2,1.83,1.48,1.97,1.55,2.54c0.06,0.46,0.03,0.6,0.32,1.42c-4.23-2.25-12.01-6.17-15.65-7.76c-1.61-0.7-2.51-0.7-2.89-0.34
		c0.75-2.15,1.6-4.25,2.57-6.29c0.35,0.53,0.97,1.14,1.9,1.77c3.45,2.33,8.67,5.07,8.67,5.07s-4.79-5.64-8.08-7.61
		c-0.71-0.42-1.29-0.65-1.74-0.73C26.38,47.38,29.15,43.25,32.35,39.5z M118.71,129.37c-2.7-2.92-12.47-11.71-12.47-11.71
		s8.77,11.24,10.46,13.14c0.02,0.02,0.03,0.03,0.05,0.05c-2.73,1.98-5.62,3.75-8.66,5.28c-0.12-0.25-0.28-0.51-0.48-0.78
		c-1.85-2.54-7.07-8.88-7.07-8.88s3.18,7.79,5.04,10.86c-4.82,2.17-9.97,3.74-15.34,4.63c-1.12-4.34-4.87-17.66-4.87-17.66
		s1.37,13.32,1.74,18.09c-0.93,0.11-1.86,0.19-2.81,0.25c-0.69-3.95-2.14-10.06-2.14-10.06s-0.27,6.75-0.33,10.18
		c-0.61,0.02-1.22,0.05-1.84,0.05c-4.13,0-8.17-0.41-12.08-1.18c-0.02-2.94-0.34-8.58-0.34-8.58s-1.32,5.05-2.03,8.06
		c-4.02-0.95-7.89-2.29-11.57-3.98c1.87-3.52,4.39-9.69,4.39-9.69s-4.77,5.8-6.81,8.52c-2.97-1.52-5.81-3.26-8.48-5.22
		c2.77-3.37,9.59-12.11,9.59-12.11s-7.91,7.12-11.46,10.67c-3.54-2.8-6.78-5.96-9.64-9.45c3.07-2.66,8.32-8.21,8.32-8.21
		s-6.43,3.28-10.15,5.88c-1.64-2.2-3.13-4.51-4.47-6.91c0.27-0.05,0.56-0.17,0.87-0.41c2.11-1.59,14.8-9.09,14.8-9.09
		s-12.68,4.55-15.43,6.08c-0.68,0.38-1.12,0.85-1.35,1.33c-3.02-5.93-5.14-12.39-6.15-19.21c3.82-0.54,10.14-2.79,10.14-2.79
		s-6.14-0.32-10.49,0c-0.21-2.1-0.32-4.23-0.32-6.39c0-1.98,0.1-3.94,0.28-5.88c4.77,0.42,11.43,0.54,11.43,0.54
		s-6.96-1.83-11.17-2.78c0.53-4.07,1.45-8.02,2.72-11.81c0.07,0.93,1.3,2.38,3.1,2.97c3.42,1.13,14.69,5.21,14.69,5.21
		c0.49,0.18,1.03,0.37,1.56,0.56c0.91,1.23,2.83,2.49,2.95,2.97c0.14,0.56,0.35,1.27,1.06,2.04c0.7,0.78,3.52,2.11,3.45,2.33
		c-0.06,0.19,0.11,0.51,0.98,1.71c-3.44-0.45-8.85-1.12-10.48-1.08c-2.46,0.07-3.11,2.11,0.55,2.18c2.88,0.06,8.62,0.02,10.96,0.01
		c1.58,1.19,4.47,2.07,5.18,2.6c0.85,0.63,10.64,0.49,10.64,0.49s-0.49,0.28-1.41,1.62c-0.92,1.34-1.69,1.06-2.47,1.55
		c-0.78,0.49-1.83,0.78-2.68,0.78s-1.55,0-2.18,0.07c-0.63,0.07,0.56,1.06,1.62,1.13c1.06,0.07,0.35,0.49,0.14,0.78
		c-0.21,0.28-1.13,0.99-2.04,1.97c-0.92,0.99,0.28,1.55,0.85,2.47c0.56,0.92,2.68,0.21,3.59-0.7c0.92-0.92,1.34-2.04,2.82-3.59
		s3.73-3.52,5.21-4.93c1.48-1.41,4.23-2.96,4.23-2.96s0.78,4.09,1.27,6.55c0.49,2.47,0.21,5.5-0.42,7.89
		c-0.63,2.4,0.14,6.2,0.35,8.53c0.21,2.33,0.42,7.33,0.21,8.95s0.14,3.31,0.14,4.16s0.28,2.4,0.78,4.44s0.42,4.72,0.35,6.48
		c-0.07,1.76-0.35,3.81,0,5.64c0.35,1.83,1.83,1.06,2.82,0s0.56-3.24,0.35-4.16c-0.21-0.92,0-0.99,0.14-4.65s-0.78-6.2-0.63-7.05
		s0.42-2.26,0.42-3.88c0-1.62,0.35-3.95,0.99-6.48c0.63-2.54,0.28-5.21,0.63-7.47c0.35-2.26,1.06-3.88,1.13-3.03
		c0.07,0.85,0.99,2.68,1.48,4.09c0.49,1.41,1.41,3.95,2.11,5.07c0.7,1.13,0.63,1.2-0.42,2.61c-1.06,1.41-1.34,3.59-2.11,4.02
		c-1.97,1.08-2.89,0.56-2.75,2.04c0.14,1.48,0.35,1.83-0.07,5.29c-0.42,3.45,0.63,4.51,1.97,4.37c1.34-0.14,0.99-3.66,1.13-5
		s-0.21-1.83,1.34-3.81c1.55-1.97,2.89-3.66,4.02-4.58c1.13-0.92,1.76-1.2,2.11-1.62c0.13-0.16,0.13-0.51,0.06-0.96
		c0.15-0.42,0.24-1.05,0.2-1.9c-0.07-1.59-0.61-3.4-1.13-4.8c0.03-1.02,0.1-2.04,0.16-2.9c0.14-2.11-1.34-5.85-1.83-6.69
		s-1.55-9.09-1.55-9.09s0.56,0.99,2.11,1.97s4.51,3.1,4.86,3.45s0.49,0.85,0.78,1.48c0.28,0.63,0.42,0.85,1.06,1.34
		c0.63,0.49,0.99,1.41,1.34,1.9s1.62,1.27,1.84,1.27s1.05-0.14,1.54-0.49c0.49-0.35,0.99-0.99,1.48-1.2
		c0.49-0.21-0.63-0.99-1.13-1.34s-1.55-1.27-1.89-1.55c-0.34-0.28-0.15-0.56,0.49-0.63c0.63-0.07,0.99-0.21,0.63-0.7
		c-0.35-0.49-2.11-0.07-3.03-0.78c-0.92-0.7-5.5-4.37-5.5-4.37s1.69,0.85,4.65,1.2c2.96,0.35,6.34-1.41,8.39-2.04
		c2.04-0.63,4.65-2.54,6.2-3.73c0.02-0.01,0.03-0.03,0.05-0.04c2.59,0.02,7.75,0.04,10.43-0.01c3.66-0.07,3.01-2.11,0.55-2.18
		c-1.55-0.04-6.51,0.56-9.95,1.01c0.29-0.56,0.35-1.02,1.04-1.45c1.13-0.7,3.24-1.48,4.37-3.17c1.13-1.69,0.85-2.18,1.55-2.89
		c0.32-0.32,0.61-0.8,0.91-1.42c0.52-0.01,2.49-0.71,3.94-1.23c0,0,11.27-4.09,14.69-5.21c0.76-0.25,1.42-0.66,1.93-1.11
		c1.05,3.16,1.86,6.43,2.39,9.8c-4.16,0.91-11.56,2.86-11.56,2.86s7.08-0.12,11.87-0.58c0.3,2.49,0.48,5.02,0.48,7.59
		c0,1.86-0.1,3.71-0.26,5.53c-4.32-0.48-11.65-0.11-11.65-0.11s7.83,2.79,11.33,2.9c-1.43,10.74-5.59,20.64-11.76,28.96
		c-3.32-2.67-11.31-6.75-11.31-6.75s6.8,7.2,9.45,9.13C125.58,123.34,122.3,126.54,118.71,129.37z"/>
	<path d="M62.64,99.22c1.91-2.43,4.94-8.46,4.94-8.46s-5.32,4.39-6.8,6.29c-1.48,1.9-2.61,3.38-2.19,4.23
		C59.02,102.12,60.73,101.65,62.64,99.22z"/>
	<path d="M49.29,109.36c-1.69,3.01,0.42,2.7,2.38,1.06c1.96-1.64,5.71-8.3,5.71-8.3S50.98,106.35,49.29,109.36z"/>
	<path d="M37.08,119.77c-1.59,2.33,0.21,2.59,2.33,0.79c2.11-1.8,7.56-9.78,7.56-9.78C45.75,111.9,38.67,117.45,37.08,119.77z"/>
	<path d="M48.67,116.55c-1.92,2.7,0.78,2.85,3.26,0c2.48-2.85,4.6-8.19,4.6-8.19S50.59,113.85,48.67,116.55z"/>
	<path d="M56.22,114.06c-1.48,1.9-0.58,4.02,0.74,2.59c1.32-1.43,4.81-7.66,4.81-7.66S57.7,112.16,56.22,114.06z"/>
	<path d="M65.94,108.62c0,0-6.2,7.77-7.57,10.31s1.01,2.68,2.92-0.3C63.19,115.65,65.94,108.62,65.94,108.62z"/>
	<path d="M48.67,129.39c-1.18,1.96,0.09,3.59,2.47,1.16c2.38-2.43,5.39-8.46,5.39-8.46S49.85,127.44,48.67,129.39z"/>
	<path d="M64.2,123.05c0.9-1.8,2.43-8.32,2.43-8.32s-3.49,4.62-4.86,7.36C60.39,124.85,63.3,124.85,64.2,123.05z"/>
	<path d="M64.01,135.94c1.34-3.96,1.93-12.95,1.93-12.95s-3.65,9.94-4.86,13.16C59.86,139.38,62.67,139.91,64.01,135.94z"/>
	<path d="M69.9,114.96c0,0-1.74,6.18-1.48,8.56c0.26,2.38,2.27,1.5,2.59-1.78C71.33,118.45,69.9,114.96,69.9,114.96z"/>
	<path d="M70.27,107.51c0.48-2.75,0.26-7.82,0.26-7.82s-2.01,4.03-2.14,7.19C68.27,110.05,69.8,110.26,70.27,107.51z"/>
	<path d="M64.41,103.23c-1.53,3.28,0.58,3.38,2.22,0.37c1.64-3.01,2.59-8.19,2.59-8.19S65.94,99.95,64.41,103.23z"/>
	<path d="M45.01,108.99c1.74-2.01,9.88-9.3,9.88-9.3s-6.87,2.7-10.68,6.45C40.41,109.89,43.27,111,45.01,108.99z"/>
	<path d="M45.33,102.96c2.8-2.59,6.29-7.19,6.29-7.19s-6.82,4.07-8.72,6.13C40.99,103.97,42.53,105.55,45.33,102.96z"/>
	<path d="M29.84,112.21c-1.27,1.8,1.32,2.11,4.12,0c2.8-2.11,5.92-6.44,5.92-6.44S31.11,110.42,29.84,112.21z"/>
	<path d="M35.71,98.37c-1.59,0.74-0.42,2.48,2.59,1.32c3.01-1.16,9.46-4.92,9.46-4.92S37.29,97.63,35.71,98.37z"/>
	<path d="M39.26,94.77c3.23-0.53,12.09-5.34,12.09-5.34s-11.05,2.75-14.22,3.7C33.96,94.09,36.03,95.3,39.26,94.77z"/>
	<path d="M24.61,101.11c3.12-0.95,8.71-4.28,8.71-4.28s-6.91,0.63-10.13,2.01C19.96,100.22,21.49,102.07,24.61,101.11z"/>
	<path d="M25.98,95.41c2.7-0.79,9.02-3.96,9.02-3.96s-5.63,0.37-9.02,1.37S23.29,96.2,25.98,95.41z"/>
	<path d="M40.31,89.96c2.48-0.48,5.97-3.12,5.97-3.12s-4.68,0.42-7.02,1.32S37.82,90.44,40.31,89.96z"/>
	<path d="M33.32,85.36c-2.15,0.37-1.62,2.96,1.68,2.33c3.3-0.63,11.28-3.86,11.28-3.86S35.47,84.99,33.32,85.36z"/>
	<path d="M41.72,81.72c0,0-7.18-0.79-10.66-0.48c-3.49,0.32-4.86,1.85-1.71,1.96S41.72,81.72,41.72,81.72z"/>
	<path d="M20.06,77.49c-2.61-0.28-3.31,2.4,0,2.47c3.31,0.07,14.59-0.81,14.59-0.81S22.67,77.77,20.06,77.49z"/>
	<path d="M33.32,75.09c3.24,0.21,10.14,0.56,10.14,0.56s-6.27-3.38-9.72-3.1C30.28,72.84,30.07,74.88,33.32,75.09z"/>
	<path d="M23.7,66.78c-3.63-0.99-4.48,1.13-1.52,1.97c2.96,0.85,9.16,2.33,9.16,2.33S27.32,67.76,23.7,66.78z"/>
	<path d="M62.97,53.63c0.02,0.04,0.05,0.08,0.07,0.11C63.14,53.87,63.1,53.8,62.97,53.63z"/>
	<path d="M60.51,50.36c0,0,1.94,2.58,2.46,3.27c-0.63-1-3.06-6.87-4.01-8.7c-0.99-1.9-4.16-3.31-2.82-0.49
		C57.48,47.26,60.51,50.36,60.51,50.36z"/>
	<path d="M46.98,31.05c1.69,2.4,8.17,8.81,8.17,8.81s-4.23-6.27-6.13-9.16S45.29,28.65,46.98,31.05z"/>
	<path d="M66.43,53.81c1.76,2.96,4.3,7.26,4.3,7.26c1.34,2.27,2.33,3.43,2.33,3.43s-1.97-6.81-4.47-10.69S64.67,50.85,66.43,53.81z"
		/>
	<path d="M76.69,55.96c0,0,1.16-7.72,1.02-10.66c-0.14-2.94-2.33-5.87-1.97-0.37C76.09,50.43,76.69,55.96,76.69,55.96z"/>
	<path d="M74.21,56.35c0,0-0.38-4.2-1.15-8.44c-0.78-4.24-2.18-2.95-1.76,0C71.72,50.85,74.21,56.35,74.21,56.35z"/>
	<path d="M65.65,37.18c-1.47-3.88-3.44-1.06-1.47,2.68c1.97,3.73,6.2,10.15,6.2,10.15S67.12,41.06,65.65,37.18z"/>
	<path d="M70.38,41.13c0,0-2.59-13.67-3.52-17.9c-0.92-4.23-3.11-2.89-1.7,2.82C66.57,31.75,70.38,41.13,70.38,41.13z"/>
	<path d="M100.32,100.3c0.42-0.85-0.71-2.33-2.19-4.23c-1.48-1.9-6.8-6.29-6.8-6.29s3.03,6.03,4.94,8.46
		C98.18,100.68,99.9,101.15,100.32,100.3z"/>
	<path d="M107.24,109.45c1.96,1.64,4.07,1.96,2.38-1.06c-1.69-3.01-8.09-7.24-8.09-7.24S105.29,107.81,107.24,109.45z"/>
	<path d="M112.77,113.08c0,0,5.44,7.98,7.56,9.78c2.11,1.8,3.91,1.53,2.33-0.79C121.07,119.74,113.98,114.19,112.77,113.08z"/>
	<path d="M102.38,107.39c0,0,2.11,5.34,4.6,8.19s5.18,2.7,3.26,0C108.32,112.88,102.38,107.39,102.38,107.39z"/>
	<path d="M102.7,113.09c-1.48-1.9-5.55-5.07-5.55-5.07s3.49,6.24,4.81,7.66C103.28,117.11,104.18,115,102.7,113.09z"/>
	<path d="M92.97,107.65c0,0,2.75,7.03,4.65,10.01c1.9,2.98,4.28,2.83,2.92,0.3C99.18,115.42,92.97,107.65,92.97,107.65z"/>
	<path d="M107.77,129.58c2.38,2.43,3.65,0.79,2.47-1.16s-7.86-7.29-7.86-7.29S105.39,127.15,107.77,129.58z"/>
	<path d="M97.15,121.13c-1.37-2.75-4.86-7.36-4.86-7.36s1.53,6.52,2.43,8.32S98.52,123.88,97.15,121.13z"/>
	<path d="M92.97,122.03c0,0,0.58,8.98,1.93,12.95c1.34,3.96,4.15,3.44,2.94,0.21C96.62,131.96,92.97,122.03,92.97,122.03z"/>
	<path d="M87.9,120.77c0.32,3.29,2.33,4.16,2.59,1.78c0.26-2.38-1.48-8.56-1.48-8.56S87.58,117.48,87.9,120.77z"/>
	<path d="M94.51,102.26c-1.53-3.28-4.81-7.82-4.81-7.82s0.95,5.18,2.59,8.19C93.93,105.64,96.04,105.54,94.51,102.26z"/>
	<path d="M113.9,108.02c1.74,2.01,4.6,0.9,0.79-2.85c-3.81-3.75-10.68-6.45-10.68-6.45S112.16,106.01,113.9,108.02z"/>
	<path d="M110.81,99.96c2.8,2.59,4.33,1,2.43-1.06c-1.9-2.06-8.72-6.13-8.72-6.13S108.01,97.37,110.81,99.96z"/>
	<path d="M119.03,104.81c0,0,3.12,4.32,5.92,6.44c2.8,2.11,5.39,1.8,4.12,0C127.8,109.45,119.03,104.81,119.03,104.81z"/>
	<path d="M133.41,106.22c-2.75-1.53-15.43-6.08-15.43-6.08s12.68,7.51,14.8,9.09S136.15,107.76,133.41,106.22z"/>
	<path d="M123.21,97.4c-1.59-0.74-12.05-3.59-12.05-3.59s6.45,3.75,9.46,4.92C123.63,99.88,124.79,98.14,123.21,97.4z"/>
	<path d="M121.78,92.17c-3.17-0.95-14.22-3.7-14.22-3.7s8.86,4.81,12.09,5.34S124.95,93.12,121.78,92.17z"/>
	<path d="M134.3,100.15c3.12,0.95,4.65-0.9,1.43-2.27c-3.22-1.37-10.13-2.01-10.13-2.01S131.19,99.19,134.3,100.15z"/>
	<path d="M133.15,93.66c2.7,0.79,3.38-1.59,0-2.59s-9.02-1.37-9.02-1.37S130.46,92.87,133.15,93.66z"/>
	<path d="M113.64,85.52c-2.34-0.9-7.02-1.32-7.02-1.32s3.49,2.64,5.97,3.12C115.08,87.79,115.98,86.42,113.64,85.52z"/>
	<path d="M125.6,84.4c-2.15-0.37-12.96-1.53-12.96-1.53s7.98,3.22,11.28,3.86C127.21,87.36,127.75,84.77,125.6,84.4z"/>
	<path d="M129.57,82.23c3.15-0.11,1.78-1.64-1.71-1.96c-3.49-0.32-10.66,0.48-10.66,0.48S126.41,82.33,129.57,82.23z"/>
	<path d="M138.85,78.99c3.31-0.07,2.61-2.75,0-2.47c-2.61,0.28-14.59,1.65-14.59,1.65S135.54,79.06,138.85,78.99z"/>
	<path d="M125.18,71.59c-3.45-0.28-9.72,3.1-9.72,3.1s6.89-0.35,10.14-0.56S128.63,71.87,125.18,71.59z"/>
	<path d="M135.33,65.41c-3.63,0.99-7.64,4.3-7.64,4.3s6.2-1.48,9.16-2.33C139.81,66.54,138.96,64.42,135.33,65.41z"/>
	<path d="M95.87,52.77c0.02-0.02,0.05-0.07,0.07-0.11C95.82,52.84,95.77,52.9,95.87,52.77z"/>
	<path d="M102.77,43.47c1.34-2.82-1.83-1.41-2.82,0.49c-0.95,1.83-3.38,7.7-4.01,8.7c0.51-0.7,2.46-3.27,2.46-3.27
		S101.43,46.29,102.77,43.47z"/>
	<path d="M111.93,30.08c1.69-2.4-0.14-3.24-2.04-0.35c-1.9,2.89-6.13,9.16-6.13,9.16S110.24,32.48,111.93,30.08z"/>
	<path d="M85.44,51.58c0.42-2.95-0.99-4.24-1.76,0c-0.78,4.24-1.15,8.44-1.15,8.44S85.02,54.52,85.44,51.58z"/>
	<path d="M94.74,38.89c1.97-3.73,0-6.55-1.47-2.68c-1.47,3.88-4.73,12.83-4.73,12.83S92.76,42.62,94.74,38.89z"/>
	<path d="M89.49,29.1C88.57,33.33,85.98,47,85.98,47s3.81-9.37,5.21-15.08C92.6,26.21,90.41,24.87,89.49,29.1z"/>
	<path d="M82.17,40.16c0.23-2.85-1.72-4.54-2.17-1.27c-0.45,3.28,0,18.01,0,18.01S81.94,43.01,82.17,40.16z"/>
	<path d="M82.53,25.16c-0.21-2.1-1.4-3.16-1.54-1.07s-0.43,10.27-0.43,10.27S82.74,27.26,82.53,25.16z"/>
	<path d="M99.46,26.62c-1.13,1.99-2.52,6.77-2.52,6.77s3.88-4.07,4.6-6.02C102.26,25.43,100.59,24.63,99.46,26.62z"/>
	<path d="M89.56,50.37c-1.37,1.7-5.17,11.33-5.52,11.95c0.24-0.33,6.98-9.49,7.6-10.84C92.29,50.11,90.98,48.62,89.56,50.37z"/>
	<path d="M84.05,62.32c0,0.01-0.02,0.03-0.02,0.03C84.03,62.35,84.04,62.34,84.05,62.32z"/>
	<path d="M101.22,49.58c-0.63,0.92-3.89,5.78-3.89,5.78s4.29-3.32,5.39-4.58C103.81,49.5,101.85,48.66,101.22,49.58z"/>
	<path d="M70.04,140.43c-0.11,1.6,2,2.17,2.35,0.29c0.34-1.89,0.09-13.78,0.09-13.78S70.15,138.83,70.04,140.43z"/>
</g>
<g>
</g>
<g>
</g>
<g>
</g>
<g>
</g>
<g>
</g>
<g>
</g>
</svg>
