<?xml version="1.0" encoding="utf-8"?>
<!-- Generator: Adobe Illustrator 25.2.0, SVG Export Plug-In . SVG Version: 6.00 Build 0)  -->
<svg version="1.1" id="_x38__Gnome" xmlns="http://www.w3.org/2000/svg" xmlns:xlink="http://www.w3.org/1999/xlink" x="0px"
	 y="0px" viewBox="0 0 160 160" style="enable-background:new 0 0 160 160;" xml:space="preserve">
<g>
	<path d="M79.84,113.88c2.86,0,5.17-2.32,5.17-5.17V97.35l-3.24-3.24l-1.25,1.25l-0.68,0.68l-0.68-0.68l-1.25-1.25l-3.24,3.24v11.37
		C74.67,111.57,76.99,113.88,79.84,113.88z"/>
	<rect x="46.71" y="31.64" transform="matrix(0.7071 -0.7071 0.7071 0.7071 -10.1077 45.3787)" width="6.02" height="6.5"/>
	<polygon points="61.24,55.05 68.04,48.24 68.34,45.82 64.56,42.04 62.13,42.33 55.33,49.13 	"/>
	<polygon points="29.28,61.24 29.28,61.24 31.85,63.81 35.62,63.81 40.36,59.07 44.1,59.07 61.44,41.74 61.44,37.52 57.09,33.18 
		47.62,42.65 44.14,42.65 44.15,46.12 43.9,46.37 40.42,46.37 40.43,49.84 40.2,50.07 36.7,50.09 36.72,53.56 36.47,53.8 
		32.98,53.8 33,57.27 32.75,57.52 29.27,57.52 29.28,60.99 29.15,61.12 	"/>
	<polygon points="119.33,59.07 124.07,63.81 127.84,63.81 130.53,61.12 130.41,60.99 130.42,57.52 126.94,57.52 126.69,57.27 
		126.7,53.8 123.22,53.8 122.97,53.56 122.98,50.09 119.49,50.07 119.25,49.84 119.27,46.37 115.78,46.37 115.53,46.12 
		115.55,42.65 112.06,42.65 102.59,33.18 98.25,37.52 98.25,41.74 115.58,59.07 	"/>
	<rect x="106.72" y="31.88" transform="matrix(0.7071 -0.7071 0.7071 0.7071 7.5366 87.9757)" width="6.5" height="6.02"/>
	<polygon points="91.64,48.24 98.44,55.05 104.36,49.13 97.56,42.33 95.13,42.04 91.35,45.82 	"/>
	<path d="M102.25,105.33c2.23-2.23,2.23-5.85,0-8.09L90.44,85.44l-8.09,8.09l11.81,11.81C96.4,107.57,100.02,107.57,102.25,105.33z
		 M93.22,96.3c0.48-0.48,1.26-0.48,1.74,0l4.09,4.09c0.48,0.48,0.48,1.26,0,1.74s-1.26,0.48-1.74,0l-4.09-4.09
		C92.74,97.56,92.74,96.78,93.22,96.3z"/>
	<path d="M65.52,105.33l11.68-11.68v0l0.13-0.13l-8.09-8.09l-0.13,0.13L57.44,97.25c-2.23,2.23-2.23,5.85,0,8.09
		C59.67,107.57,63.29,107.57,65.52,105.33z M61.14,99.89l4.09-4.09c0.48-0.48,1.26-0.48,1.74,0s0.48,1.26,0,1.74l-4.09,4.09
		c-0.48,0.48-1.26,0.48-1.74,0C60.66,101.15,60.66,100.37,61.14,99.89z"/>
	<polygon points="66.54,51 61.27,56.27 54.56,49.55 46.47,57.64 69.3,80.47 69.64,80.81 77.73,72.72 77.38,72.38 68.16,63.16 
		68.16,52.62 	"/>
	<polygon points="105.13,49.55 98.41,56.27 93.14,51 91.52,52.62 91.52,63.16 81.96,72.72 90.05,80.81 113.22,57.64 	"/>
	<path d="M79.84,94.68L91.2,83.32L79.84,71.97L68.49,83.32L79.84,94.68z M84.36,78.83c1.21,1.21,1.87,2.81,1.87,4.51
		s-0.66,3.31-1.87,4.51c-1.21,1.21-2.81,1.87-4.51,1.87s-3.31-0.66-4.51-1.87c-2.49-2.49-2.49-6.54,0-9.03
		C77.82,76.34,81.87,76.34,84.36,78.83z"/>
	<polygon points="74.67,68.13 78.5,71.95 79.16,71.29 79.84,70.61 80.52,71.29 81.19,71.95 85.01,68.13 85.01,44.08 92.33,36.76 
		92.33,26.42 85.01,19.11 85.01,31.76 74.67,31.76 74.67,19.11 67.36,26.42 67.36,36.76 74.67,44.08 	"/>
	<path d="M79.84,88.76c1.45,0,2.81-0.56,3.83-1.59c1.02-1.02,1.59-2.38,1.59-3.83c0-1.29-0.45-2.5-1.26-3.48l-7.63,7.63
		C77.34,88.32,78.56,88.76,79.84,88.76z"/>
	<path d="M75.69,86.82l7.63-7.63c-1-0.84-2.24-1.26-3.48-1.26c-1.39,0-2.78,0.53-3.83,1.58C74.01,81.51,73.91,84.69,75.69,86.82z"/>
	<path d="M141.81,49.84l0.61-0.61v-5.4l-22.65-22.65h-4.02c-10.4-6.35-22.61-10.02-35.66-10.02c-13.05,0-25.26,3.67-35.66,10.02
		h-4.5L17.27,43.83v5.4l0.93,0.93c-4.31,8.97-6.73,19.02-6.73,29.62c0,37.83,30.78,68.61,68.61,68.61
		c37.83,0,68.61-30.78,68.61-68.61C148.69,69.05,146.21,58.89,141.81,49.84z M80.08,142.44c-34.56,0-62.67-28.11-62.67-62.67
		c0-9.46,2.12-18.44,5.89-26.49h1.75l-0.01-3.45c0.04-0.08,0.09-0.16,0.14-0.24l0.03-0.03h3.56l-0.01-3.55l0.16-0.16l3.57-0.01
		l-0.01-3.55l0.17-0.17h3.56l-0.01-3.55l0.17-0.17h3.56l-0.01-3.47h4.06l5.67-5.67v-3.54l-0.3-0.3l-0.15-0.15
		c9.12-5.19,19.66-8.17,30.88-8.17c11.1,0,21.53,2.91,30.58,8l-0.32,0.32l-0.3,0.3v3.54l5.67,5.67h4.06l-0.01,3.47h3.56l0.17,0.17
		l-0.01,3.55h3.56l0.17,0.17l-0.01,3.55l3.57,0.01l0.16,0.16l-0.01,3.55h3.56l0.17,0.17l-0.01,3.55h2.22
		c3.77,8.05,5.89,17.03,5.89,26.49C142.75,114.33,114.64,142.44,80.08,142.44z"/>
	<path d="M87.51,136.37c-0.29-1.9,0.75-3.03,2.54-3.68c-0.42-1.26-0.83-2.47-1.24-3.69c-1.77,0.47-3.22,0.25-4.13-1.3
		c-0.95-1.63-0.39-3.04,0.96-4.29c-0.74-0.87-1.45-1.69-2.16-2.52c-1.8,1.42-3.25,1.55-4.55,0.48c-1.29-1.06-1.47-2.5-0.49-4.56
		c-1.14-0.59-2.27-1.17-3.41-1.76c-1.13,1.98-2.36,2.66-3.94,2.25c-1.63-0.43-2.33-1.59-2.35-4.05c-1.26-0.09-2.53-0.19-3.79-0.28
		c-0.28,2.25-1.13,3.32-2.72,3.56c-1.67,0.25-2.7-0.48-3.79-2.79c-1.19,0.39-2.4,0.79-3.6,1.19c0.62,2.08,0.3,3.5-1.04,4.28
		c-0.56,0.32-1.34,0.61-1.91,0.48c-0.98-0.23-1.87-0.81-2.97-1.33c-0.6,0.52-1.42,1.23-2.23,1.94c1.28,1.6,1.49,3.07,0.55,4.26
		c-0.4,0.51-1.01,1.07-1.59,1.16c-0.96,0.15-1.97-0.06-3.17-0.13c-0.18,0.35-0.38,0.74-0.59,1.15c3.41,2.78,7.13,5.18,11.09,7.17
		c1.82-4.21,5.83-7.35,10.68-7.77c7.08-0.62,13.3,4.63,13.9,11.72c0.07,0.81,0.05,1.61-0.02,2.4c0.85,0.04,1.69,0.06,2.55,0.06
		c3.65,0,7.22-0.34,10.69-0.96c0.01-0.1,0.02-0.21,0.02-0.31C89,138.85,87.77,138.1,87.51,136.37z"/>
	<path d="M140.4,74.64c-0.23-2.75-0.65-5.45-1.23-8.08c-0.49-0.31-0.99-0.78-1.54-1.42c-0.92,0.63-1.86,1.27-2.79,1.91
		c1.22,1.73,1.34,3.08,0.34,4.26c-0.4,0.46-0.99,0.98-1.54,1.04c-0.99,0.11-2.01-0.1-3.21-0.19c-0.42,0.86-0.96,1.98-1.53,3.14
		c1.72,0.66,2.74,1.75,2.48,3.54c-0.28,1.98-1.72,2.71-3.65,2.75c0.11,1.31,0.21,2.54,0.32,3.81c1.79-0.28,3.22,0.17,3.88,1.86
		c0.73,1.86-0.15,3.2-1.81,4.18c0.7,1.01,1.34,1.94,2,2.89c1.37-1.08,2.72-1.32,4.04-0.37c1.67,1.2,1.66,2.81,0.73,4.58
		c0.23,0.11,0.44,0.21,0.67,0.32c1.06-3.18,1.87-6.47,2.39-9.85c-1.57-1.61-2.62-3.76-2.8-6.17
		C136.88,79.62,138.19,76.65,140.4,74.64z"/>
	<path d="M133.37,98.88c-0.51,2.29-1.66,3.55-3.39,3.56c-0.73,0-1.52-0.24-2.17-0.59c-1.23-0.66-1.56-1.92-1.69-3.2
		c-1.26,0.11-2.43,0.2-3.59,0.31c-0.25,0.02-0.49,0.1-0.72,0.16c0.09,2.65-0.68,4.03-2.52,4.55c-1.87,0.54-3.25-0.23-4.58-2.61
		c-1.32,0.62-2.64,1.25-3.97,1.88c1.03,2.14,0.84,3.82-0.61,4.91c-0.58,0.44-1.37,0.74-2.09,0.82c-1.36,0.15-2.42-0.59-3.27-1.7
		c-0.97,0.9-1.84,1.72-2.69,2.52c1.23,1.91,1.29,3.31,0.29,4.67c-1.01,1.38-2.5,1.69-4.86,0.97c-0.72,1.26-1.45,2.54-2.2,3.86
		c1.6,1.09,2.38,2.47,1.78,4.29c-0.66,2-2.24,2.64-4.31,2.44c-0.29,1.51-0.57,2.95-0.85,4.39c1.85,0.58,2.97,1.63,3.02,3.42
		c0.06,2.16-1.3,3.28-3.29,3.78c0.06,0.67,0.1,1.28,0.16,1.87c4.74-0.93,9.27-2.42,13.54-4.38c0.16-11.66,9.19-21.52,21.08-22.5
		c1.58-0.13,3.14-0.09,4.66,0.09c2.54-3.97,4.63-8.24,6.2-12.77c-0.63-0.15-1.22-0.3-1.8-0.41
		C134.78,99.08,134.07,98.99,133.37,98.88z"/>
	<path d="M126.52,114.41c-10.44,0.85-18.38,9.22-19.04,19.36c2.65-1.35,5.18-2.88,7.59-4.59c1.72-3.75,4.99-6.68,9.06-7.89
		c2.03-2.15,3.9-4.45,5.6-6.88C128.68,114.34,127.61,114.32,126.52,114.41z"/>
	<path d="M44.49,123.96c0.7-1.24,1.41-2.5,2.12-3.75c-2.02-1.45-2.68-2.83-2.05-4.49c0.25-0.65,0.69-1.43,1.26-1.71
		c0.99-0.49,2.14-0.64,3.45-1c0.22-1.1,0.5-2.52,0.77-3.9c-2.43-0.8-3.42-1.95-3.37-3.78c0.06-1.84,1.11-2.89,3.53-3.53
		c-0.12-1.45-0.24-2.89-0.36-4.32c-2.5,0-3.81-0.72-4.37-2.35c-0.6-1.75,0.01-3.04,2.3-4.74c-0.29-0.64-0.57-1.31-0.88-1.97
		c-0.31-0.65-0.64-1.28-0.96-1.91c-2.33,0.79-3.78,0.49-4.84-0.92c-1.13-1.51-0.95-2.84,0.71-5.17c-0.38-0.43-0.75-0.88-1.15-1.3
		c-0.42-0.44-0.85-0.86-1.27-1.28c-1.75,1.56-3.4,1.87-4.84,0.82c-0.59-0.43-1.09-1.09-1.39-1.76c-0.58-1.26-0.09-2.48,0.64-3.66
		c-1.35-0.75-2.6-1.45-3.85-2.15c-1.3,2.14-2.76,2.91-4.49,2.28c-0.68-0.25-1.35-0.74-1.84-1.29c-0.89-1-0.81-2.26-0.48-3.53
		c-0.81-0.19-1.51-0.38-2.22-0.52c-0.07-0.01-0.14-0.02-0.22-0.04c-0.75,3.81-1.15,7.74-1.15,11.77c0,0.69,0.03,1.37,0.05,2.05
		c9.09,2.42,16.12,10.34,16.96,20.26c0.47,5.56-1.1,10.82-4.09,15.06c2.11,2.69,4.43,5.2,6.96,7.49
		C40.49,123.28,41.95,123.07,44.49,123.96z"/>
	<path d="M34.47,102.26c-0.74-8.83-6.78-15.84-14.77-18.22c0.17,2.46,0.48,4.88,0.94,7.25c4.15,2.27,7.11,6.5,7.49,11.54
		c0.17,2.25-0.19,4.41-0.96,6.38c1.2,2.14,2.52,4.21,3.95,6.18C33.59,111.66,34.87,107.1,34.47,102.26z"/>
</g>
<g>
</g>
<g>
</g>
<g>
</g>
<g>
</g>
<g>
</g>
<g>
</g>
</svg>
