<?xml version="1.0" encoding="utf-8"?>
<!-- Generator: Adobe Illustrator 25.2.0, SVG Export Plug-In . SVG Version: 6.00 Build 0)  -->
<svg version="1.1" id="_x31_2_Duegar" xmlns="http://www.w3.org/2000/svg" xmlns:xlink="http://www.w3.org/1999/xlink" x="0px"
	 y="0px" viewBox="0 0 160 160" style="enable-background:new 0 0 160 160;" xml:space="preserve">
<g>
	<path d="M81.42,113.14c1.28,3.16,2,3.64,5.34,3.54c1.33-2.67,1.07-4.16-0.69-6.21c-1.21-1.41-2.21-3-3.29-4.52
		c-0.39-0.54-1.17-2.03-1.52-2.59c-0.75,0-0.94,0.9-1.4,0.9c-0.96,1.81-1.59,3.65-2.76,5.03c-1.65,1.94-1.71,4.19-2.14,6.34
		c1.24,1.12,1.24,1.12,3.86,1.96c0.7-0.53,1.51-1.14,2.25-1.7C80.87,114.81,80.28,113.86,81.42,113.14z"/>
	<path d="M60.82,108.01c2.28-0.7,4.38-0.28,6.59,0.37c3.2,0.94,5.87-0.22,7.35-2.8c0.7-1.22,1.45-2.41,2.38-3.97
		c-0.26-3.06-1.95-5.09-4.98-5.73c-1.39-0.29-2.81-0.43-4.18-0.78c-2.8-0.73-5.49-0.04-8.18,0.51c-2.32,0.47-3.25,2.28-2.49,4.56
		c0.78,2.34,1.72,4.63,1.31,7.38C59.46,107.75,60.23,108.19,60.82,108.01z M67.05,97.91c2.12,0,3.84,1.72,3.84,3.84
		s-1.72,3.84-3.84,3.84c-2.12,0-3.84-1.72-3.84-3.84S64.93,97.91,67.05,97.91z"/>
	<path d="M93.24,108.58c4.03,0.68,7.29-1,10.56-3.4c0-0.9,1.4-1.86,1.34-2.82c-0.05-0.89-0.27-1.77-0.32-2.65
		c-0.06-0.94-1.37-1.89-1.37-2.97c-0.65-0.3-1.04-0.56-1.46-0.65c-1.53-0.33-3.06-0.72-4.62-0.87c-2-0.2-4.02-0.52-5.98,0.4
		c-1.14,0.54-2.36,0.94-3.56,1.34c-1.48,0.49-2.72,1.23-3.37,2.81c0.06,0.25,0.14,0.54,0.2,0.83c0.79,4.24,4.49,5.7,7.49,7.82
		C92.41,108.59,92.87,108.52,93.24,108.58z M95.51,97.91c2.12,0,3.84,1.72,3.84,3.84s-1.72,3.84-3.84,3.84
		c-2.12,0-3.84-1.72-3.84-3.84S93.39,97.91,95.51,97.91z"/>
	<path d="M65.17,26.62c0.7-0.17,1.38-0.4,2.07-0.66c1.71-0.65,3.4-1.5,5.09-2.04c0.34-0.11,0.67-0.21,1.01-0.29
		c-0.24,0.19-0.48,0.35-0.72,0.5c-0.12,0.08-0.25,0.15-0.37,0.22c-0.12,0.07-0.25,0.14-0.37,0.21c-3.04,1.68-6.09,3.36-9.13,5.05
		c-0.05,0.03-0.1,0.06-0.16,0.09c-0.11,0.06-0.21,0.13-0.3,0.2c-0.04,0.04-0.08,0.08-0.12,0.13c-0.61,0.85-1.27,1.67-1.76,2.59
		c-0.15,0.28-0.26,0.6-0.34,0.93c-0.08,0.33-0.11,0.67-0.12,0.99c-0.04,3.55-0.01,7.1,0,10.66c0,0.06,0,0.11,0.01,0.17
		c0,0.06,0.01,0.12,0.02,0.18c0.01,0.13,0.03,0.27,0.04,0.45v0c0.15-0.12,0.26-0.21,0.36-0.28c0.08-0.06,0.15-0.12,0.22-0.18
		c0.02-0.02,0.04-0.03,0.06-0.04c0,0,0,0,0,0c0.22-0.19,0.44-0.35,0.62-0.48c0.5-0.37,1.13-0.43,1.57-0.44
		c0.46-0.01,0.96-0.02,1.55-0.02c0.41,0,0.83,0,1.24,0.01l0.53,0c0.33,0,0.6,0.03,0.85,0.1c0.92,0.25,1.8,1.01,2.38,1.91
		c0.14,0.18,0.29,0.35,0.44,0.53c0.07,0.09,0.15,0.18,0.25,0.3c0.03,0.04,0.06,0.07,0.1,0.12v0c0.43-0.62,0.98-1.08,1.45-1.42
		c0.57-0.42,1.29-0.51,1.67-0.52c0.43-0.02,0.9-0.02,1.47-0.02c0.31,0,0.63,0,0.94,0c0.3,0,0.61,0,0.91,0
		c0.85,0,1.62,0.32,2.24,0.93c0.05,0.05,0.11,0.1,0.16,0.16c0.23,0.22,0.51,0.48,0.72,0.84c0.01,0.01,0.01,0.02,0.02,0.03
		c0.1,0.12,0.19,0.25,0.29,0.37c0.2,0.25,0.4,0.5,0.61,0.76c0.15-0.16,0.3-0.31,0.44-0.46c0.09-0.1,0.19-0.2,0.29-0.3
		c0,0,0.01-0.01,0.01-0.01c0,0,0,0,0,0c0.45-0.53,1.25-1.11,2.56-1.14c0.49-0.01,0.98-0.01,1.46-0.01c0.5,0,1,0,1.5,0.01
		c1.04,0.02,1.6,0.35,2.33,1l0.16,0.15l0,0c0.04,0.04,0.09,0.07,0.13,0.11c0.14,0.12,0.27,0.23,0.38,0.33
		c1.23-0.25,2.38-0.48,3.56-0.72c0-0.74,0-1.44,0-2.17c-1.52-0.76-3.02-1.52-4.52-2.27c-1.5-0.75-2.99-1.5-4.47-2.25
		c-0.17-0.64-0.33-1.26-0.49-1.9c-0.49-1.9-0.98-3.77-1.46-5.64c0.23,0.51,0.45,1.02,0.67,1.53c0.49,1.16,0.96,2.33,1.41,3.51
		c0.14,0.37,0.29,0.75,0.43,1.12c0.06,0.16,0.14,0.3,0.23,0.42c0.15,0.2,0.34,0.36,0.61,0.46c2.96,1.12,5.92,2.26,8.87,3.4
		c0.08,0.03,0.16,0.05,0.24,0.07c0.03,0,0.05,0,0.07,0.01c0.04,0.01,0.08,0.01,0.12,0.01c0.01,0,0.02,0,0.02,0
		c0.06,0,0.11-0.01,0.16-0.02c0.03-0.01,0.05-0.01,0.08-0.01c0.08-0.02,0.16-0.05,0.25-0.1c0.25-0.13,0.51-0.25,0.76-0.36
		c0.26-0.12,0.51-0.23,0.77-0.35c-0.1,0.13-0.21,0.25-0.32,0.37c-0.11,0.12-0.22,0.23-0.34,0.34c-0.23,0.22-0.47,0.42-0.72,0.62
		c-0.05,0.04-0.09,0.08-0.13,0.12c-0.14,0.13-0.27,0.26-0.35,0.42c-0.05,0.1-0.09,0.21-0.12,0.33c-0.02,0.12-0.03,0.25-0.02,0.39
		c0.02,0.34,0.03,0.69,0.02,1.04c-0.01,0.35-0.02,0.69-0.04,1.04c-0.02,0.29,0.03,0.53,0.16,0.76c0.04,0.08,0.09,0.15,0.15,0.23
		c0.3,0.37,0.58,0.76,0.86,1.15c0.11,0.16,0.23,0.32,0.34,0.48c-0.16-0.08-0.32-0.16-0.48-0.25c-0.46-0.26-0.9-0.55-1.34-0.81
		c-0.1-0.06-0.22-0.1-0.33-0.14c-0.01,0-0.02-0.01-0.03-0.01c-0.11-0.03-0.23-0.05-0.34-0.05c-0.01,0-0.02,0-0.03,0
		c-0.02,0-0.04,0-0.06,0c-0.31,0.02-0.62,0.04-0.92,0.08c-0.31,0.04-0.61,0.08-0.92,0.13c-0.5,0.08-0.99,0.2-1.46,0.35
		c-0.23,0.08-0.46,0.16-0.69,0.26c-0.45,0.19-0.88,0.41-1.29,0.68c-0.62,0.39-1.19,0.87-1.71,1.43c-0.76,0.82-1.28,1.74-1.61,2.72
		c-0.25,0.74-0.4,1.51-0.48,2.31c-0.03,0.27-0.04,0.54-0.06,0.81c0,0.05,0,0.1,0.01,0.15c0.01,0.1,0.04,0.21,0.07,0.33
		c0.01,0.03,0.01,0.06,0.02,0.09c0.09,0,0.17,0,0.26,0c0.59,0,1.17-0.02,1.78-0.05c0.61-0.02,1.24-0.05,1.87-0.05
		c0.34,0,0.65,0.01,0.95,0.02l0.91,0.04l0.01,0.08c0.17,0,0.35,0,0.52-0.01c1.15-0.17,4.63-0.19,5.77-0.19
		c1.8,0,2.94,0.04,3.37,0.11l0.19,0.03c0.43,0,0.86,0,1.29,0c0.02,0,0.03,0,0.05,0c0.09,0,0.17-0.01,0.26-0.01
		c0.08,0,0.17,0,0.25-0.01c0.09-0.01,0.18-0.03,0.27-0.04c0.08-0.01,0.15-0.02,0.23-0.04c0.09-0.02,0.17-0.05,0.25-0.07
		c0.07-0.02,0.14-0.04,0.2-0.06c0.08-0.03,0.16-0.07,0.23-0.11c0.06-0.03,0.12-0.05,0.18-0.08c0.08-0.04,0.15-0.1,0.22-0.15
		c0.05-0.03,0.11-0.07,0.15-0.1c0.07-0.06,0.14-0.13,0.21-0.19c0.04-0.04,0.09-0.07,0.13-0.12c0.08-0.08,0.15-0.17,0.22-0.26
		c0.03-0.04,0.06-0.07,0.09-0.11c0.1-0.13,0.19-0.28,0.28-0.43c0.18-0.31,0.36-0.62,0.51-0.94c0.21-0.44,0.39-0.88,0.57-1.33
		c0.13-0.34,0.26-0.67,0.37-1.01c0.27-0.79,0.5-1.6,0.69-2.42c0.13-0.54,0.24-1.09,0.35-1.64c0.48-2.62,0.86-5.26,1.26-7.89
		c0.02-0.15,0.04-0.3,0.06-0.46c0.01-0.12,0.02-0.23,0.03-0.35c0.01-0.12,0.01-0.23,0.01-0.35c0-0.23-0.02-0.46-0.07-0.68
		c-0.12-0.58-0.41-1.19-0.78-1.66c-0.22-0.28-0.45-0.56-0.68-0.83c-0.46-0.55-0.93-1.09-1.41-1.61c-0.24-0.26-0.49-0.52-0.74-0.77
		c-1.04-1.04-2.12-2.03-3.23-2.98c-1.11-0.96-2.24-1.88-3.39-2.79c-0.38-0.3-0.77-0.6-1.15-0.9c-0.39-0.3-0.77-0.6-1.16-0.9
		c-0.41-0.31-0.88-0.57-1.36-0.76c-0.73-0.29-1.46-0.58-2.2-0.86c-0.73-0.28-1.47-0.56-2.2-0.84c-1-0.38-1.99-0.77-2.98-1.15
		c0.01-0.03,0.02-0.07,0.02-0.1v0c1,0.1,2,0.32,3,0.55c0.71,0.16,1.42,0.32,2.14,0.43c0.3,0.05,0.9,0.12,0.9,0.12
		s1.02-7.7,2.79-12.57c0,0-3.92-2.44-16.38-2.44s-17.27,2.14-18.58,2.5c0,0,0.93,3.04,2.12,7.09
		C64.94,23.19,65.17,26.62,65.17,26.62z"/>
	<path d="M78.74,66.51c0.13-0.15,0.24-0.31,0.34-0.47c0.15-0.24,0.26-0.51,0.33-0.8c0.04-0.18,0.07-0.36,0.08-0.56
		c0.01-0.15,0.02-0.31,0.03-0.46c0.01-0.15,0.02-0.31,0.02-0.46c0-4.12,0.01-8.24,0-12.36c0-0.17,0-0.33,0-0.5
		c0-0.18-0.01-0.36-0.01-0.53c-0.01-0.32-0.04-0.64-0.1-0.96c-0.02-0.09-0.04-0.17-0.07-0.25c-0.09-0.31-0.24-0.6-0.41-0.89
		c-0.02-0.04-0.05-0.08-0.07-0.12c-0.02-0.03-0.03-0.05-0.05-0.08c-0.18-0.3-0.47-0.54-0.72-0.79c-0.3-0.3-0.66-0.5-1.06-0.58
		c-0.13-0.03-0.27-0.04-0.42-0.04c-0.03,0-0.05,0-0.08,0c-0.53,0-1.07-0.01-1.6-0.01c-0.54,0-1.07,0-1.61,0.02
		c-0.09,0-0.19,0.01-0.28,0.02c-0.19,0.03-0.38,0.08-0.55,0.15c-0.09,0.04-0.16,0.08-0.24,0.13c-0.14,0.11-0.27,0.22-0.41,0.33
		c-0.01,0.01-0.02,0.01-0.03,0.02c-0.21,0.18-0.41,0.37-0.58,0.58c-0.11,0.14-0.21,0.28-0.31,0.44c-0.06,0.1-0.12,0.2-0.17,0.31
		c-0.12,0.27-0.21,0.56-0.25,0.89c-0.02,0.16-0.03,0.33-0.03,0.5v0c0.02,1.19,0.02,2.38,0.02,3.57c0,1.19-0.01,2.38-0.01,3.57
		c0,2.43,0.01,4.86,0,7.29c0,0.32,0.04,0.63,0.12,0.92c0.09,0.29,0.22,0.57,0.41,0.82c0.13,0.17,0.27,0.33,0.41,0.49
		c0.15,0.16,0.3,0.31,0.45,0.46c0.08,0.08,0.17,0.16,0.26,0.23c0.09,0.07,0.18,0.13,0.28,0.18c0.18,0.09,0.39,0.15,0.6,0.16
		c0.02,0,0.03,0.01,0.05,0.01c0.51,0.01,1.01,0.02,1.52,0.03c0.17,0,0.33,0,0.5,0.01c0.21,0,0.41,0.01,0.61,0.01
		c0.22,0,0.43,0,0.65-0.01c-0.18,0.53-0.99,1.92-1.05,2.12c-0.24,0.85-1.54,1.71-1.79,2.56c-0.09,0.31-0.07,0.56,0.1,0.84
		c0.25,0.4,0.46,0.81,0.69,1.22c0.2,0.35,0.39,0.7,0.57,1.02c-0.58,0.61-1.12,1.19-1.69,1.74c-0.24,0.24-0.36,0.48-0.36,0.82
		c0,0.87-0.02,1.75-0.02,2.62c0,0.25-0.07,0.44-0.24,0.63c-0.38,0.41-0.74,0.84-1.1,1.27c-0.06,0.07-0.1,0.15-0.15,0.23
		c0.68-0.34,1.32-0.69,1.94-1.08c0.14-0.09,0.26-0.27,0.32-0.43c0.24-0.66,0.46-1.32,0.69-1.99c0.16-0.47,0.33-0.94,0.49-1.41
		c0.56-0.18,1.11-0.35,1.67-0.53c0.07,0.08,0.11,0.15,0.16,0.2c1.7,1.98,3.39,3.95,5.1,5.92c0.18,0.21,0.23,0.43,0.19,0.69
		c-0.08,0.55-1.25,1.11-1.32,1.66c-0.06,0.45-4.43,1.44-4.48,1.9c0.03,0.01,4.92-0.52,4.95-0.51c0.21-0.45,0.95-0.91,1.16-1.36
		c0.13,0.75,0.2,1.48,0.26,2.21c0.09,0.96,0.16,1.92,0.26,2.89c0.05,0.56,0.04,1.1-0.18,1.65c-0.41,0.99-0.78,2-1.16,3.01
		c-0.09,0.24-0.19,0.49-0.28,0.73l-1.25,2.11l0.31,1.79l0.02,0.04c0,0,0.19-1.9,1.63-2.04c0.09-0.19,0.71-1.95,0.77-2.09
		c0.47-1.03,0.42-1.52,0.87-2.57c0.21-0.49,0.57-0.84,0.92-1.21c0.94,0.72,1.86,1.41,2.77,2.11c0.01-0.14-0.58-1.3-0.63-1.37
		c-0.72-0.98-0.89-0.89-1.63-1.86c-0.23-0.3-0.35-0.62-0.39-0.98c-0.04-0.4-0.08-0.81-0.12-1.21c-0.1-0.96-0.17-1.92-0.32-2.88
		c-0.11-0.68,0.5-0.75,0.97-1.35c1.06,0.1,4.31,0.73,5.4,0.83c-0.11-0.12-2.94-1.26-3.07-1.29c-0.71-0.19-1.42-0.37-2.12-0.56
		c-0.13-0.04-0.28-0.07-0.39-0.15c-0.57-0.46-1.12-0.94-1.68-1.41c0.07-0.49,0.14-0.95,0.2-1.38c0.61-0.34,1.18-0.65,1.76-0.96
		c-0.06-1.37-0.13-2.7-0.19-4.04c-0.03,0-0.07-0.01-0.1-0.01c-0.17,1.02-0.35,2.04-0.52,3.07c-0.46,0.1-0.88,0.2-1.31,0.29
		c-0.29,0.06-0.52,0.17-0.69,0.43c-0.13,0.2-0.3,0.38-0.46,0.59c-0.13-0.16-0.23-0.28-0.33-0.4c-1.89-2.4-2.69-2.65-4.6-5.04
		c-0.31-0.39-1.48-1.85-1.42-2.32c0.13-1.13,2.98-3.34,2.96-4.48c-0.01-0.26-0.22-0.52-0.51-0.78c0.16-0.13,0.32-0.26,0.46-0.4
		C78.52,66.75,78.63,66.63,78.74,66.51z"/>
	<path d="M60.23,63.82c0.07,0.17,0.15,0.32,0.25,0.47c0.1,0.15,0.22,0.29,0.36,0.43c0.12,0.12,0.24,0.23,0.34,0.36
		c0.06,0.08,0.12,0.14,0.19,0.21c0.02,0.02,0.04,0.04,0.07,0.06c0.04,0.04,0.09,0.08,0.13,0.12c0.03,0.02,0.06,0.04,0.09,0.06
		c0.04,0.03,0.08,0.06,0.13,0.09c0.03,0.02,0.06,0.03,0.1,0.05c0.04,0.02,0.09,0.05,0.13,0.07c0.03,0.01,0.07,0.03,0.11,0.04
		c0.04,0.02,0.09,0.03,0.13,0.05c0.04,0.01,0.08,0.02,0.11,0.03c0.05,0.01,0.09,0.02,0.14,0.03c0.04,0.01,0.08,0.01,0.12,0.02
		c0.05,0.01,0.09,0.01,0.14,0.02c0.04,0,0.08,0,0.13,0.01c0.04,0,0.07,0,0.11,0c0.02,0,0.05,0,0.07,0c0.48-0.01,0.95-0.01,1.43-0.01
		c0.48,0,0.95,0,1.43,0c0.41,0,0.8-0.09,1.16-0.25c0.09-0.04,0.18-0.08,0.27-0.13c0.61-0.33,1.1-0.86,1.38-1.5
		c0.08-0.18,0.14-0.37,0.19-0.56c0.04-0.19,0.07-0.4,0.07-0.6c0.02-4.74,0.01-9.48,0-14.22c0-0.14-0.02-0.29-0.05-0.44
		c-0.07-0.3-0.2-0.61-0.38-0.91c-0.02-0.03-0.04-0.06-0.06-0.09c-0.07-0.11-0.15-0.23-0.23-0.34c-0.43-0.55-1-1-1.54-1.15
		c-0.18-0.05-0.38-0.06-0.56-0.06c0,0,0,0,0,0c-0.56,0-1.12-0.01-1.67-0.01c-0.54,0-1.08,0-1.61,0.02c-0.08,0-0.17,0.01-0.25,0.01
		c-0.17,0.02-0.35,0.04-0.5,0.1c-0.08,0.03-0.15,0.06-0.21,0.11c-0.13,0.09-0.25,0.19-0.37,0.28c-0.05,0.04-0.09,0.08-0.13,0.11
		c0,0,0,0,0,0c-0.12,0.1-0.23,0.2-0.34,0.31c-0.02,0.01-0.03,0.03-0.05,0.04c-0.02,0.02-0.04,0.04-0.06,0.06
		c-0.34,0.35-0.63,0.73-0.78,1.21c-0.05,0.15-0.08,0.3-0.11,0.46c-0.02,0.16-0.03,0.33-0.03,0.52c0.03,1.14,0.03,2.29,0.03,3.43
		s-0.01,2.29-0.01,3.43c0,1.17,0,2.33,0,3.5c0,1.17,0,2.33-0.01,3.5C60.04,63.13,60.1,63.49,60.23,63.82z"/>
	<path d="M87.12,49.56c0.43-0.35,0.9-0.68,1.43-0.99c0,0,0,0,0.01,0c-0.08-0.07-0.15-0.13-0.22-0.19c-0.14-0.12-0.27-0.21-0.39-0.28
		c-0.12-0.07-0.24-0.13-0.37-0.17c-0.19-0.06-0.39-0.08-0.64-0.09c-0.08,0-0.15,0-0.23,0c-0.41-0.01-0.83-0.01-1.24-0.01
		c-0.49,0-0.97,0-1.45,0.01c-0.18,0-0.35,0.02-0.52,0.05c-0.17,0.03-0.33,0.08-0.48,0.15c-0.15,0.07-0.3,0.15-0.44,0.26
		c-0.14,0.1-0.26,0.23-0.38,0.37c0,0,0,0,0,0c0,0,0,0,0,0c-0.18,0.23-0.37,0.44-0.56,0.66c-0.03,0.03-0.06,0.07-0.09,0.1
		c-0.03,0.04-0.05,0.08-0.08,0.12c-0.15,0.21-0.28,0.42-0.36,0.66c-0.05,0.14-0.09,0.28-0.11,0.43c-0.02,0.15-0.04,0.3-0.04,0.45v0
		c0,0,0,0,0,0.01c0,5.1,0,10.19,0.01,15.29c0,0.22,0.03,0.48,0.13,0.67c0.01,0.03,0.03,0.06,0.04,0.08
		c0.45,0.58,0.92,1.17,1.47,1.64c0.15,0.13,0.34,0.22,0.55,0.28c0.21,0.06,0.43,0.1,0.63,0.12c0.28,0.02,0.57,0.03,0.86,0.03
		c0.02,0,0.04,0,0.07,0c0.04,0,0.07,0,0.11,0c0.16,0,0.31,0,0.47-0.01c0.23,0,0.46-0.01,0.69-0.01c0.01,0,0.01,0,0.02,0c0,0,0,0,0,0
		h0c0.01,0,0.03,0,0.04,0c0.05,0,0.09,0,0.13,0c0.07,0,0.14,0,0.2,0c0.06,0,0.11,0,0.17,0c0.05,0,0.11,0,0.16,0c0.05,0,0.1,0,0.15,0
		c0.05,0,0.09,0,0.14,0c0.05,0,0.09-0.01,0.13-0.01c0.04,0,0.08,0,0.12-0.01c0.04,0,0.08-0.01,0.12-0.01c0.03,0,0.07-0.01,0.1-0.01
		c0.04-0.01,0.07-0.01,0.11-0.02c0.03-0.01,0.06-0.01,0.09-0.02c0.03-0.01,0.07-0.02,0.1-0.03c0.03-0.01,0.05-0.01,0.08-0.02
		c0.03-0.01,0.06-0.03,0.1-0.04c0.02-0.01,0.05-0.02,0.07-0.03c0.03-0.02,0.06-0.03,0.09-0.05c0.02-0.01,0.04-0.02,0.06-0.03
		c0.03-0.02,0.06-0.04,0.09-0.07c0.02-0.01,0.04-0.03,0.06-0.04c0.03-0.03,0.07-0.05,0.1-0.08c0.02-0.02,0.04-0.03,0.06-0.05
		c0.03-0.03,0.07-0.07,0.11-0.1c0.02-0.02,0.04-0.03,0.06-0.05c0.04-0.04,0.08-0.08,0.12-0.13c0.02-0.02,0.03-0.04,0.05-0.06
		c0.04-0.05,0.09-0.1,0.14-0.15c0.02-0.02,0.04-0.04,0.06-0.06c0.04-0.04,0.08-0.09,0.11-0.13c0.1-0.12,0.22-0.25,0.34-0.4
		c0.1-0.11,0.18-0.23,0.25-0.34c0.14-0.23,0.23-0.48,0.27-0.74c0.02-0.13,0.03-0.27,0.03-0.41c-0.01-1.95,0-3.91-0.01-5.86
		c0-0.1-0.01-0.21-0.03-0.32c-0.01-0.09-0.03-0.2-0.04-0.3c-0.01-0.05-0.01-0.08-0.02-0.13c-0.29-0.01-0.57-0.02-0.85-0.02
		c-0.1,0-0.19,0-0.29,0c-0.19,0-0.39,0-0.58,0.01c-0.12,0-0.25,0.01-0.37,0.01c-0.21,0.01-0.41,0.01-0.61,0.02
		c-0.21,0.01-0.42,0.02-0.64,0.02c-0.12,0-0.24,0.01-0.37,0.01c-0.19,0.01-0.39,0.01-0.58,0.01c-0.08,0-0.16,0-0.24,0
		c-0.02,0-0.03,0-0.05,0c-0.17,0-0.35-0.01-0.53-0.01c-0.1,0-0.19,0-0.29-0.01c-0.1,0-0.2-0.01-0.3-0.02l0,0
		c-0.17-0.01-0.35-0.02-0.52-0.04c-0.13-1.42-0.11-2.78,0.1-4.04C84.15,53.13,85.17,51.15,87.12,49.56z"/>
	<path d="M100.4,59.79c-0.01-0.1-0.02-0.19-0.04-0.28c0-0.01,0-0.03-0.01-0.04c-0.04-0.01-0.1-0.01-0.17-0.02c-0.02,0-0.03,0-0.05,0
		c-0.07-0.01-0.15-0.01-0.24-0.02c0,0-0.01,0-0.02,0c-0.09,0-0.18-0.01-0.28-0.01c-0.03,0-0.05,0-0.08,0
		c-0.11,0-0.22-0.01-0.34-0.01c-0.02,0-0.03,0-0.05,0c-0.11,0-0.23-0.01-0.35-0.01c-0.04,0-0.07,0-0.11,0c-0.13,0-0.27,0-0.42-0.01
		c-0.03,0-0.05,0-0.08,0c-0.13,0-0.25,0-0.39,0c-0.04,0-0.09,0-0.14,0c-0.15,0-0.31,0-0.46,0c-0.05,0-0.09,0-0.14,0
		c-0.09,0-0.18,0-0.28,0c-0.06,0-0.12,0-0.18,0c-0.08,0-0.16,0-0.24,0c-0.07,0-0.14,0-0.2,0c-0.08,0-0.16,0-0.24,0
		c-0.06,0-0.13,0-0.19,0c-0.13,0-0.27,0-0.4,0.01c-0.05,0-0.1,0-0.14,0c-0.1,0-0.19,0-0.29,0c-0.06,0-0.11,0-0.16,0
		c-0.08,0-0.17,0-0.25,0c-0.05,0-0.11,0-0.16,0c-0.09,0-0.18,0-0.26,0.01c-0.05,0-0.1,0-0.14,0c-0.12,0-0.25,0.01-0.37,0.01
		c-0.04,0-0.07,0-0.1,0c-0.09,0-0.18,0.01-0.26,0.01c-0.04,0-0.08,0-0.12,0c-0.07,0-0.14,0.01-0.21,0.01c-0.04,0-0.09,0-0.13,0.01
		c-0.07,0-0.13,0.01-0.19,0.01c-0.03,0-0.07,0-0.1,0.01c-0.09,0-0.18,0.01-0.26,0.01c-0.01,0-0.03,0-0.04,0
		c-0.07,0-0.13,0.01-0.19,0.01c-0.02,0-0.04,0-0.07,0.01c-0.04,0-0.08,0.01-0.12,0.01c-0.02,0-0.04,0-0.06,0.01
		c-0.04,0-0.07,0.01-0.09,0.01c-0.01,0-0.03,0-0.04,0.01c-0.03,0.01-0.06,0.01-0.08,0.02c0,0,0,0,0,0c0,0,0,0,0,0
		c-0.01,0.02-0.02,0.04-0.03,0.06c-0.01,0.02-0.02,0.04-0.02,0.07c0,0.86-0.03,1.72-0.04,2.57c-0.01,0.86,0,1.72,0.05,2.57
		c0.09,1.3,1,2.17,2.12,2.76c0.2,0.11,0.46,0.13,0.69,0.14c0.57,0.01,1.13,0.02,1.7,0.02c0.04,0,0.07,0,0.11,0
		c0.49,0,0.99-0.01,1.48-0.03c0.19-0.01,0.4-0.04,0.6-0.1c0.2-0.06,0.38-0.14,0.54-0.25c1.05-0.78,1.8-1.76,1.77-3.17
		c-0.01-0.68-0.01-1.36-0.01-2.04c0-0.68,0.01-1.36,0-2.04C100.43,60.02,100.41,59.9,100.4,59.79z"/>
	<path d="M148.61,80.13c0-31.7-21.61-58.44-50.87-66.28l-1.79,5.68c26.85,7.08,46.71,31.55,46.71,60.6
		c0,23.65-13.3,44.89-33.59,55.52c-0.74-0.56-1.66-1.06-2.82-1.5c-1.4-0.52-1.77-5.03-1.71-7.68c0.03-1.15,2.19-2.6,3.66-3.31
		c3.73-1.8,7.8-3.9,11.42-5.89c5.51-3.02,10.18-6.18,14.47-11.93c4.17-4.17-2.55-4.64-14.73-4.64c-2.09,0-4.41,0-6.91,0
		c-0.27,0.58-0.54,1.17-0.8,1.75c0.57-1.29,1.18-2.59,1.77-3.86c0.53-1.14,1.08-2.32,1.61-3.5c0.36-0.8,0.73-1.78,0.7-2.89l-0.03-1
		c-0.06-2.3-0.12-4.68-0.37-7.06c-0.63-5.86-2.75-11.52-6.68-17.81c-1.78-2.85-4.07-5.12-6.9-6.84c-0.1,0-0.21,0-0.31,0c0,0,0,0,0,0
		c0.02,0.17,0.05,0.38,0.05,0.61c0,0.53,0,1.06,0,1.59c0,0.29,0,0.58,0,0.87c1.88,1.34,3.53,3.05,4.88,5.2
		c3.22,5.15,5.63,10.58,6.28,16.67c0.28,2.6,0.31,5.23,0.38,7.85c0.02,0.57-0.22,1.17-0.46,1.71c-1.11,2.46-2.29,4.9-3.38,7.36
		c-1.5,3.38-2.04,6.84-0.9,10.47c0.6,1.91-0.41,4.15-2.13,5.16c-1.17,0.68-2.39,1.08-3.74,1.08c-0.03,0-0.07,0-0.1,0
		c-0.16,0-0.32,0-0.48,0c-1.19,0-2.39,0.06-3.58,0.08c-1.05,0.02-1.94,0.41-2.43,1.36c-0.77,1.52-2.06,2.29-3.58,2.86
		c-0.61,0.23-1.13,0.68-1.55,0.93c-0.47,1.38,0.24,2.82-1.13,3.92c-0.35-0.52-0.67-0.99-0.99-1.45c-0.29-0.43-0.58-0.85-0.96-1.42
		c-0.65,0.18-1.27,0.35-1.97,0.54c-0.07,1.29-0.14,2.47-0.21,3.78c-0.54,0.05-1.02,0.09-1.61,0.14c-0.15-0.75-0.28-1.38-0.42-2.07
		c-0.6,0-1.11,0-1.67,0c-0.37,0.64-0.74,1.27-1.16,2c-0.56-0.17-1.04-0.32-1.53-0.47c-0.26-0.67-0.5-1.28-0.67-1.7
		c-0.37-0.3-0.71-0.41-1.03-0.41c-0.95,0-1.7,0.98-2.59,0.98c-0.13,0-0.26-0.02-0.4-0.07c-1.58-1.79,0.51-4.08-1.01-5.87
		c-0.42,0.1-0.82,0.2-1.34,0.32c0.13,0.74,0.24,1.38,0.35,1.97c-0.41,0.64-0.77,1.21-1.1,1.72c-1.84-0.02-2.12-0.18-2.54-1.62
		c-0.16-0.56-0.02-1.24-1.22-1.55c-0.14,0.33-0.38,0.87-0.62,1.4c-0.17-0.08-0.34-0.16-0.5-0.24c-0.11-0.55-0.28-1.1-0.33-1.66
		c-0.13-1.52-0.24-3.05-1.68-3.98c-1.22-0.79-2.59-1.46-3.97-1.46c-0.45,0-0.9,0.07-1.35,0.23c-0.65,0.23-1.24,0.35-1.78,0.35
		c-1.34,0-2.38-0.7-3.37-2.04c0-0.46-0.1-1.07,0.02-1.64c0.82-3.87,0.5-7.58-1.36-11.13c-1.11-2.12-2.31-4.22-3.19-6.44
		c-1.24-3.12-2.2-6.31-2.4-9.76c-0.31-5.33,1.52-10.01,3.68-14.65c0.98-2.1,2.52-3.74,4.45-4.96c1.3-0.83,2.61-1.64,3.94-2.42
		c-0.06-0.29-0.1-0.6-0.1-0.92c0-0.71,0-1.42,0-2.13c-1.83,1.02-3.6,2.11-5.29,3.19c-2.46,1.56-4.3,3.61-5.46,6.1
		c-2.09,4.49-4.29,9.8-3.93,15.95c0.19,3.31,0.99,6.58,2.59,10.6c0.6,1.5,1.31,2.92,2.03,4.3c-6,0-11.41,0-15.83,0.01
		c-1.38,0-2.76,0.13-4.07,0.2c-0.76,5.73-0.76,5.73,3.28,8.57c6.47,4.53,12.78,9.33,19.48,13.48c3.59,2.22,3.35,5.12,3.45,8.43
		c0.09,3.26-2.58,3.23-4.39,4.23c-20.29-10.59-33.51-31.68-33.51-55.51c0-28.43,19.03-52.48,45.02-60.12l-2.41-5.5
		c-28.08,8.6-48.55,34.76-48.55,65.62c0,15.53,5.33,30.74,15.01,42.84c5.81,7.26,13.05,13.24,21.16,17.6c0,2.79,0,5.64,0,8.83h17.35
		c0,0,6.69-4.81,17.08-4.81s14.22,5,14.22,5h15.48c-0.17-3.07,0.38-6.06,0.14-8.67C134.04,129.28,148.61,106.03,148.61,80.13z"/>
</g>
<g>
</g>
<g>
</g>
<g>
</g>
<g>
</g>
<g>
</g>
<g>
</g>
</svg>
