<svg xmlns="http://www.w3.org/2000/svg" xml:space="preserve" style="enable-background:new 0 0 160 160" viewBox="0 0 160 160"><path d="M80 11.39c-37.83 0-68.61 30.78-68.61 68.61 0 16.18 5.64 31.05 15.04 42.79-.34.3-.6.69-.75 1.2 0 0-3.55-.56-4.5 1.73 0 0-5-1.22-7.23 3.39-2.86 10.8 7.62 13 7.62 13-6.43-6.86-1.33-11.04-1.33-11.04.87 9.23 10.84 8.3 10.84 8.3-7.77-1.63-5.06-9.27-5.06-9.27 2.43 9.3 12.5 7.07 12.5 7.07-5.74-.93-6.98-5.66-6.95-8.6 12.42 12.39 29.55 20.06 48.43 20.06 37.83 0 68.61-30.78 68.61-68.61S117.83 11.39 80 11.39zM36.09 124.66c.92-.15 1.86-.27 2.65-.35 1.48-.17 2.25 2.76 2.61 4.97a65.832 65.832 0 0 1-5.26-4.62zM80 142.67c-13.91 0-26.76-4.56-37.17-12.25 1.7-2.18 3.84-6.88-3.88-11.67-1.68-1.04-4.2 1.62-4.2 1.62s-2.7-8.62-2.01-9.92c.69-1.3 5.58-1.42 8.43-.24 2.05.85 2.5 1.15 5.31 2.01-1.05 5.21-.68 10.99 1.64 17.21.5 1.35 1.29 2.59 1.95 3.89-.64-7.24.03-8.58.21-8.59.99 1.76 1.73 3.73 3.01 5.25 2.26 2.69 4.66 5.29 7.2 7.72 5.05 1.69 13.54 3.55 24.97 2.58-2.03-.87-4.06-1.73-6.09-2.59-9.05-3.85-12.06-16.48-9.57-15.1 0 0 1.46 8.35 9.31 11.92 7.85 3.57 12.85 4.28 12.85 4.28s15.14-2.25 21.85-9.85c-10 3.28-16.71-4.57-16.71-4.57 1.86-.57 3.86-4.57 3.86-4.57s-17.42 5.71-17.85-6.72c-.4-5.8 4.39-14.03 10.63-17.15 4.79 8.71 8.36 6.59 9.79 8.88 1.43 2.28 6.14 15.71 6.14 15.71 1.71 7 5.14 8.42 10.28 4.43 5.14-4 7.28-8.28 7.28-8.28s-5.28 4-8.71 5.85c-3.43 1.86-4.57-.29-4.57-3.71 0-3.43 3-13.99 4.28-10.28 1.29 3.71.14 8.71.14 8.71 4.85-4.85 4.43-12.42 4.43-12.42 2.71 1.71 2.43 10.42 2.43 10.42 3-4.57 2.86-8.57 2.86-8.57 1.29 2.14.86 7.85.86 7.85 4.43-5.28 2-12.71 1.14-12.71s-3.28.29-3.28.29-.57-4.71-1.86-3.71-3.43 3.14-3.43 3.14-1.29-3.28-4.57-.57c-3.28 2.71-5.85 10.42-5.85 10.42s-4.43-9.57-5-12.99c-.57-3.43-2.71-12.28-2.71-12.28s-3.71-.43-8.13 1.17c-8.82 4.16-15.44 10.68-20.34 19.19-.43-1.47-.83-2.84-.67-4.14.83-6.69 5.36-10.96 10.15-14.99 2.74-2.39 1.5 2.42 1.5 2.42 4.42-3.95 10.1-6.87 10.2-14.23 2.71 2.16 4.78 4.45 5.77 7.69 1.89-1.78 2.73-1.58 3.65.57.53 1.23 1.03 2.48 1.64 3.96 2.96-3.17 3.28-6.95 3.68-10.7 4.03 1.79 4.68 4.21 4.68 4.21 1.29-1.57 1-2.87 1-2.87 3.28 2.27 4.43 5.58 4.43 5.58 1.57-2.28.86-4 .86-4 3 1.71 5.85 7 5.85 7-4-20.85-19.1-22.94-19.1-22.94-.53 2.24-.99 4.55-1.66 6.79-.16.54-1.5 3.04-2.3-.25-1.32-5.4-2.52-10.62-5.88-15.11-.28-.37-.47-.81-.71-1.22 0 0 8.95.75 14.23 3.17 0 0-1.57.57-2.28 1.57 0 0 15.76 7.47 19.9 26.35.2-.67.34-1.3.18-1.85 1.69 1.43 3.19 10.34 3.19 10.34 1-27.13-11.99-33.41-11.99-33.41 1.29-.86 4.71.86 4.71.86-7.91-14.13-22.71-16.69-22.71-16.69.65-.13 4.85.91 6.37 1.34 35.91 10.07 23.35 64.19 23.35 64.19 20.7-42.98-5.28-69.68-14.42-72.06-1.2-.28-2.39-.71-3.51-1.24-.41-.19-.8-.89-.8-1.35 0-.35.6-.77 1.02-1.01.35-.2.82-.19 1.23-.27-.64-.75-1.36-1.13-2.11-1.43-6.45-2.56-13.03-4.54-19.94-5.52-1.71-.25-2.43-.81-2.68-1.92-.43-1.9 4.84-3.25 4.84-3.25-.97-.05-1.96-.27-2.9-.11-2.59.42-5.15 1.09-7.75 1.5-3.89.62-7.79 1.18-11.71 1.58-.78.08-2.21-.15-2.48-1.01-.75-2.33 3.66-4.8 3.66-4.8-9.21 1.96-18.27 4.28-26.44 9.38-7.32 4.57-13.12 10.71-18.64 17.38 13.36-11.03 28.45-11.5 44.37-7.73-.51-.8-3.15-1.52-2.83-3.79.11-.75 1.25-1.42 2.02-1.55 3.28-.55 6.29.19 8.75 2.57 1.22 1.19 1.51 2.49.67 4.1-1.53 2.92-1.17 4.28.92 6.97 1.28 1.64 2.17 3.59 3.32 5.53-3.5-1.18-6.51-2.2-9.53-3.22-2.26-1.23 3.73-2.34 3.73-2.34-2.07-1.46-3.89-1.2-5.89-.24-1.19.57-2.67 1.11-3.9.91-3.31-.54-6.52-1.55-9.94-.6-.58.16-2.01-.11-2.14-.96-.37-2.46 3.99-4.02 3.99-4.02-3.88-.19-6.79 1.34-9.34 3.99-1.56 1.62-3.57 2.81-5.43 4.11-8.9 6.21-7.85-2.36-7.85-2.36s-4.8 2.77-6.99 4.86c-2.19 2.09-5.84 8.04-5.72 19.71.02 2.25-1.54 3.74-3.14 4.03-2.13.39-3.99-4.67-3.99-4.67-1.02 4.38-.84 8.15 1.33 11.75 2.18 3.63 5.48 5.61 9.77 7.1-.5-1.33-.81-2.15-1.18-3.14-.26-.69 2.94-.54 2.94-.54-1.3-.82-2.34-2.84-1.77-3.37.99-.65 3.45.53 3.45.53-1.04-2.43-.22-3.28.44-4.11 3.17-3.98 5.8-3.94 5.8-3.94-.02 2.41-.12 5.21-2.48 5.89 0 0 1.86 2.1 1.68 2.87-1.08 4.44-2.83 2.97-2.56 3.5.44.85.87 1.72 1.41 2.76-1.34.41-2.49.77-3.66 1.13 1.37 2.52 6.45 4.59 8.9 3.69-.39-.75-.78-1.51-1.33-2.57 3.97.04 7.54-.06 10.78-1.96-1.86.77-4.63-1.06-4.63-1.06 1.92-2 1.11-3.06-.58-3.96-.63-.33-1.18-.85-1.67-1.38-2.27-2.5-2.09-4.62.26-7.03 4.7-4.81 13.05-6.19 13.05-6.19s-2.68-2.56-5.24-2.36c0 0 8.31-1.64 11.28-.65 0 0-4.66-4.82-10.6-3.4 0 0 2.63-3.58 6.82-3.99 0 0-1.22-1.83-4.73-1.96 6.49-2.31 13.05-5.06 18.22 2.52.2.29 1.43.31 1.72.01 1.07-1.09 2.2-1.77 3.69-1.18 1.59.63 2.15 2.03 2.37 3.61.38 2.65-.47 5-2 7.05-1.68 2.25-3.6 4.32-5.46 6.53.44.24.96.52 1.81.99-1 .73-1.77 1.29-2.54 1.84-6.15 4.42-12.57 8.52-18.4 13.33-4.24 3.49-7.73 7.78-9.91 12.74-.91-.18-1.82-.4-2.72-.68-6.89-2.13-17.37-.78-17.88 1.7-.35 1.71 1.02 6.13 1.93 9.95A62.074 62.074 0 0 1 17.33 80c0-34.56 28.11-62.67 62.67-62.67S142.67 45.44 142.67 80 114.56 142.67 80 142.67zM34.82 73.18s-1.3-1.45 0-4.82c.65-1.68 1.3-3.37 1.99-5.04.35.05.35 3.88.48 5.74.21 3.04-2.47 4.12-2.47 4.12z"/></svg>
