<?xml version="1.0" encoding="utf-8"?>
<!-- Generator: Adobe Illustrator 25.2.0, SVG Export Plug-In . SVG Version: 6.00 Build 0)  -->
<svg version="1.1" id="_x36__Drow" xmlns="http://www.w3.org/2000/svg" xmlns:xlink="http://www.w3.org/1999/xlink" x="0px" y="0px"
	 viewBox="0 0 160 160" style="enable-background:new 0 0 160 160;" xml:space="preserve">
<g>
	<path d="M80,11.39c-37.83,0-68.61,30.78-68.61,68.61S42.17,148.61,80,148.61c37.83,0,68.61-30.78,68.61-68.61
		S117.83,11.39,80,11.39z M80,142.67c-34.56,0-62.67-28.11-62.67-62.67c0-34.56,28.11-62.67,62.67-62.67
		c34.56,0,62.67,28.11,62.67,62.67C142.67,114.56,114.56,142.67,80,142.67z"/>
	<path d="M124.87,99.55c-5.08-0.05-9.61-1.23-13.06-5.42c-0.41-0.5-1.9-2.03-3.25-3.09c0.86-2.84,1.57-5.69-2.74-7.87
		c1.72-2.7,3.17-5.49,5.11-7.89c3.18-3.93,6.42-7.88,10.11-11.31c2.63-2.44,2.68-5.19,2.97-8.3c0.35-3.68-3.82-11.89-6.19-12.68
		c-1.9-0.87-3.72-1.68-5.48-2.46c-0.24-2.99-1.84-5.47-3.72-8c0,0-6.66-3.89-9.98-5.79s-16.2-5.26-16.2-5.26s10.82,6.49,16.2,10.22
		c5.68,3.94,7.1,3.8,8.76,5.28c0.39,0.35,0.6,0.93,0.69,1.7c-17.45-7.45-26.83-9.99-26.83-9.99s16.46,8.64,26.62,13.86
		c-0.36,2.54-1.06,5.82-1.78,9.7c-5.24-9.07-13.09-14.49-23.09-17.61c-0.94,7.93,1.31,10.15,7.83,9.24
		c0.24,2.05,0.27,4.15,0.77,6.13c0.44,1.73,1.23,3.37,1.93,5.03c-3.01,1.93-2.8,5.48-2.43,9.04c-5.92-1.18-8.02,0.34-8.5,5.89
		c-0.32,3.74-0.59,7.48-0.88,11.22c-1.1-2.88-1.4-5.79-1.51-8.71c-0.29-7.56-1.12-8.53-8.58-9.29c0.24-4.12,0.12-8.18-5.48-9.23
		c5.11-2.21,6.33-4.9,5.02-10.33c6.92,1.41,9.53-1.2,8.56-8.88c-11.55,2.37-18.88,9.72-24.43,20c-1.2-2.97-2.11-5.87-2.18-8.79
		c-0.04-1.33,1.58-2.76,2.33-4.07c2.33-4.07,23.64-16.58,23.64-16.58s-21.9,7.57-29.87,14.26c-3.37,2.83-3.25,5.81-1.13,9.56
		c2.2,3.89,5.34,8.3,5.06,12.27c-0.33,4.66,1.16,8.1,2.77,11.89c-2.62-2.06-5.64-3.78-7.76-6.26c-2.73-3.19-6.21-6.55-6.92-10.58
		c-0.85-4.86-1.11-7.36-2.04-10.02c-0.94-2.65-1.33-8.88,7.39-13.58c8.72-4.7,27.18-11.38,27.18-11.38s-32.21,8.97-34.57,11.38
		c-2.36,2.41-5.2,11.26-5.2,13.58s-2.63,8.78,0.82,11.11c0,0.57,0,1.14,0,1.71c4.5,4.55,9.05,9.07,13.49,13.67
		c1.62,1.68,5.55,5.8,8.68,9.13c-0.01,1.16-0.2,2.17-0.78,2.85c-2.42,2.86-2.31,5-1.64,7.88c0.02,0.03,0.04,0.05,0.06,0.08
		c-5.77,4.83-13.94,11.65-17.79,14.89c-1.84,1.54-0.23,6.25,3.32,8.41s12.78,14.65,23.2,18.75s26.82,0.87,26.82,0.87
		s-20.35-1.18-24.61-3.66c-4.26-2.48-17.83-12.2-21.99-18.41c-1.64-2.45,1.26-6.55,3.72-8.37c3.19-2.36,6.48-4.58,9.63-6.99
		c0.24-0.18,2.41-1.66,4.06-2.93c2.42,1.23,3.08,3.14,2.16,5.82c-0.74,2.14-1.09,4.42-1.81,6.56c-2.25,6.75-4.76,11.25-2.2,11.96
		c1.38,0.38,10.28,1.99,19.75,3.48c-7.6,3.53-14.59,6.7-14.59,6.7s9.97-2.99,19.39-5.96c6.48,0.97,12.68,1.79,16.35,2.02
		c0,0-5.99-1.42-12.91-3.11c5.78-1.85,10.82-3.54,12.44-4.31c4.5-2.13,5.04-2.86,5.64-6.03c0.6-3.17,0.01-5.45-2-8.05
		c-4.01-5.2-3.53-7.58,1.65-9.5c1.11,0.62,2,1.1,2.11,1.19c3.53,2.74,7.3,5.21,10.68,8.13c3.93,3.4,0.44,9.84-4.11,16.86
		c-5.68,8.76-14.94,15.08-35.57,17.75c0,0,26.04,2.6,39.76-16.35C130.2,105.35,128.7,100.35,124.87,99.55z M115.68,46.43
		c1.18,0.29,3.55,6.58,3.55,8.42c0,1.84-5.92,10.7-9.83,14.49c-0.22-3.13-0.96-6.53-0.57-9.81c0.6-5.04,1.67-10.06,3.02-14.95
		C114.01,45.67,115.45,46.37,115.68,46.43z M86.87,81.15c1.44-3.3,4.69-4.05,7.89-3.57c3.17,0.48,6.4,1.42,7.73,6.55
		c-1.54,1.28-3.3,3.94-5.02,3.92c-3.18-0.04-6.47-1.39-9.44-2.77C87.14,84.87,86.4,82.22,86.87,81.15z M83.14,101.49
		c-0.24-3.83-0.44-6.89-0.69-10.86C87.24,94.77,87.39,97.11,83.14,101.49z M81.26,91.88c-0.34,2.74-0.68,5.49-1.02,8.23
		C76.63,96.97,77.62,94.27,81.26,91.88z M70.8,77.91c3.24-0.15,5.36,1.06,5.62,4.38c0.24,2.94-4.72,6.58-9.14,6.64
		c-2.56-0.04-5.08-0.94-5.46-4.29C61.42,81.15,65.74,78.14,70.8,77.91z M97.69,114.07c-1.18,0.86-8.16,4.2-15.44,7.6
		c-7.43-1.84-14.59-3.68-15.57-4.17c-2.13-1.07-1.41-3.05-0.47-6.23c1.14-3.86,1.95-7.84,2.9-11.76c1.36,2.01,3.01,14.56,3.25,15.98
		c0.24,1.42,2.45-3.27,4.06-3.77c1.62-0.5,1.55,7.55,1.55,7.55s3.18-9.05,4.47-7.48c1.28,1.57,1.87,5.71,1.87,5.71
		s1.27-6.42,3.43-5.71c2.6,0.86,3.08,3.7,3.08,3.7s1.9-12.61,4.85-16.48c0,0,0.35,5.89,2.96,8.7
		C101.24,110.52,100.3,112.18,97.69,114.07z"/>
</g>
<g>
</g>
<g>
</g>
<g>
</g>
<g>
</g>
<g>
</g>
<g>
</g>
</svg>
