<?xml version="1.0" encoding="utf-8"?>
<!-- Generator: Adobe Illustrator 25.2.0, SVG Export Plug-In . SVG Version: 6.00 Build 0)  -->
<svg version="1.1" id="_x39__Giant" xmlns="http://www.w3.org/2000/svg" xmlns:xlink="http://www.w3.org/1999/xlink" x="0px"
	 y="0px" viewBox="0 0 160 160" style="enable-background:new 0 0 160 160;" xml:space="preserve">
<g>
	<path d="M80,11.52c-37.83,0-68.61,30.78-68.61,68.61c0,37.83,30.78,68.61,68.61,68.61c37.83,0,68.61-30.78,68.61-68.61
		C148.61,42.3,117.83,11.52,80,11.52z M136.53,53.11c-0.78-0.24-1.78-0.07-2.74,0.53c0.97,0.1,2.06,0.21,3.12,0.32
		c0.56,1.22,1.09,2.45,1.57,3.71c-1.48-2.11-3.59-2.74-6.09-2.21c-1.06,0.22-1.44-0.15-1.74-1.11c-0.12-0.41-0.26-0.81-0.4-1.21
		c0.01-0.2,0.01-0.39-0.04-0.56c1.7-0.6,3.29-1.42,4.78-2.44C135.54,51.11,136.05,52.1,136.53,53.11z M134.16,48.66
		c-2.78,1.61-5.95,2.49-9.31,2.95c-0.07,0.01-0.15-0.09-0.63-0.38c1.19-0.35,2.08-0.65,2.99-0.87c2.45-0.6,4.54-1.57,6.19-3
		C133.65,47.79,133.9,48.23,134.16,48.66z M130.8,43.51c0.79,1.1,1.55,2.22,2.27,3.37c-2.18,1.93-4.88,2.64-7.83,2.85
		c0.36-0.22,0.72-0.46,1.09-0.66c2.15-1.18,3.6-2.89,4.36-5.28C130.72,43.69,130.77,43.6,130.8,43.51z M129.81,42.16
		c0.08,0.1,0.16,0.2,0.24,0.3c-0.19,1.37-1.81,3.04-3.32,4.23c1.29-1.7,1.11-2.59,1.65-3.83C128.9,42.74,129.48,42.35,129.81,42.16z
		 M123.3,34.9c1.28,1.23,2.51,2.5,3.68,3.83c-0.46,0.13-0.92,0.18-1.34,0.1c-1.22-0.23-2.3-1.73-2.37-3.25
		C123.26,35.34,123.27,35.12,123.3,34.9z M120.9,34.4c0.11-0.48,0.24-0.93,0.38-1.35c0.51,0.44,1.01,0.9,1.5,1.36
		c-0.03,0.09-0.06,0.17-0.08,0.25c-0.39,1.7,0.7,3.84,2.29,4.53c0.64,0.28,1.52,0.23,2.36-0.03c0.31,0.36,0.62,0.7,0.92,1.07
		c-1.66,0.51-3.68,0.5-5.13-0.18C121.19,39.13,120.33,36.96,120.9,34.4z M119.28,31.36c-0.1,0.3-0.23,0.59-0.43,0.68
		c-0.3,0.14-0.88-0.12-1.24-0.35c-1.16-0.74-2.2-1.71-3.42-2.29c-1.09-0.51-2.37-0.6-3.24-0.81c-1.18,0.13-2,0.35-2.78,0.27
		c-0.58-0.06-1.43-0.39-1.58-0.81c-0.17-0.45,0.17-1.34,0.59-1.71c0.76-0.67,1.72-1.08,2.76-1.27
		C113.24,26.9,116.37,29,119.28,31.36z M106.78,23.49c0.49,0.23,0.98,0.48,1.47,0.73c-0.01,0.01-0.03,0.01-0.05,0.01
		c-0.52,0.2-1.17,0.03-1.75,0.03C106.56,24.02,106.67,23.75,106.78,23.49z M43.49,29.25c0.02,0.14,0.04,0.26,0.06,0.4
		c-0.1-0.08-0.19-0.16-0.29-0.24C43.34,29.36,43.41,29.3,43.49,29.25z M34.11,37.52c0.46,0.13,1.06-0.05,1.53-0.07
		c1.34-0.08,2.19-0.9,2.55-2.18c0.18-0.63,0.17-1.22-0.01-1.76c0.69-0.62,1.39-1.23,2.11-1.82c0.4,0.67,0.56,1.4,0.4,2.21
		c-0.26,1.31-0.94,2.53-1.36,3.6c1.12-0.33,1.95-1.74,1.95-3.82c0-0.93-0.2-1.7-0.62-2.29c0.37-0.3,0.75-0.6,1.13-0.89
		c2.03,2.5,1.73,5.63-0.89,7.89c-1.7,1.47-3.67,2.23-5.93,2.1c-1.03-0.06-1.92-0.4-2.54-1.1C32.99,38.76,33.54,38.13,34.11,37.52z
		 M23.64,52.76c0.66,1.05,0.48,1.83-0.65,2.36c-0.2,0.09-0.4,0.19-0.57,0.3C22.81,54.53,23.21,53.64,23.64,52.76z M22.03,56.36
		c0.03,0.06,0.05,0.12,0.09,0.19c0.2,0.31,1.1,0.42,1.58,0.27c1.96-0.6,2.7-2.31,1.96-4.21c-0.25-0.66-0.63-1.23-1.08-1.7
		c0.34-0.64,0.69-1.27,1.05-1.89c0.26,0.21,0.5,0.45,0.72,0.72c2.53,3.09,1.86,6.71-1.73,9.42c-1.1,0.84-2.25,0.98-3.49,0.39
		c-0.09-0.04-0.17-0.1-0.26-0.15C21.23,58.37,21.62,57.36,22.03,56.36z M20.68,59.98c1.23,0.69,2.78,0.79,3.84-0.12
		c1.41-1.2,2.84-2.69,3.54-4.35c1.02-2.43-0.13-5.27-2.17-6.93c0.12-0.2,0.23-0.4,0.35-0.6c0.01,0.01,0.02,0.03,0.03,0.04l0.02,0.02
		c0.7,0.72,1.46,1.39,2.26,1.99c0.02,0.01,0.03,0.03,0.05,0.04c0.54,0.4,1.1,0.77,1.68,1.11c0,0,0,0,0,0
		c0.24,0.73,0.37,1.48,0.36,2.26c-0.08,4.71-4.64,9.24-9.19,9.11c-0.54-0.02-1.04-0.1-1.51-0.25
		C20.17,61.52,20.42,60.75,20.68,59.98z M32.33,52.2C32.33,52.2,32.33,52.2,32.33,52.2c0.25,0.1,0.5,0.2,0.75,0.29
		c0.01,0,0.03,0.01,0.04,0.01c0.24,0.09,0.48,0.17,0.73,0.24c0.01,0,0.03,0.01,0.04,0.01c0.25,0.07,0.49,0.14,0.74,0.2
		c0.01,0,0.02,0,0.03,0.01c0.26,0.06,0.52,0.12,0.78,0.17c0,0,0,0,0,0c0.13,1.91-0.1,3.96-0.56,6.12c1.66-1.78,1.53-3.91,1.2-6.01
		c0.11,0.02,0.22,0.03,0.34,0.05c0,0,0,0,0,0c1.29,0.14,2.58,0.29,3.86,0.44c0,0,0,0,0,0c0.37,2.72-1.37,4.99-4.62,6.08
		c-1.17,0.4-2.4,0.65-3.62,0.88c-1.28,0.23-1.67-0.3-1.23-1.57c0.11-0.32,0.25-0.62,0.41-0.92C32.34,56.05,32.62,54.02,32.33,52.2z
		 M17.92,71.63c2.62,0.35,4.93-0.09,5.8-1.14c-1.99,0.48-3.9,0.64-5.72,0.47c0.14-0.96,0.31-1.91,0.49-2.85
		c0.81,0.12,1.63,0.19,2.47,0.2c1.34,0.01,2.68-0.02,4.01,0.11c0.5,0.05,1.22,0.41,1.37,0.8c0.13,0.36-0.26,1.06-0.62,1.44
		c-1.72,1.81-3.86,2.8-6.35,2.98c-0.57,0.04-1.15,0.03-1.72-0.01C17.74,72.97,17.83,72.3,17.92,71.63z M25.55,76.03
		c-0.01,0.01-0.02,0.01-0.02,0.02c-0.33,0.28-0.65,0.56-1.01,0.79c-0.25,0.16-0.65,0.08-1.4,0.15c-0.19-0.1-0.68-0.37-1.16-0.64
		c0.48-0.43,0.94-0.9,1.46-1.28c0.2-0.15,0.58-0.18,0.83-0.11c0.39,0.11,0.78,0.26,1.16,0.41c0.01,0,0.01,0,0.02,0.01
		C25.46,75.6,25.5,75.81,25.55,76.03z M17.52,75.47c0.81,0.06,1.61,0.08,2.4,0.03c-0.06,0.05-0.11,0.09-0.17,0.14
		c-0.12,0.09-0.23,0.19-0.35,0.29c-0.67,0.59-1.29,1.25-2.01,1.76C17.42,76.94,17.47,76.2,17.52,75.47z M17.35,79.28
		c1.97-0.46,3.93-0.94,5.91-1.35c0.91-0.19,1.82-0.29,2.73-0.34c0.02,0,0.03,0,0.05,0c0.35,0.85,0.82,1.57,1.4,2.16
		c-0.05-0.01-0.1-0.02-0.16-0.04c-2.09-0.51-4.35-0.6-6.74-0.37c-1.07,0.1-2.13,0.27-3.2,0.43C17.34,79.61,17.35,79.44,17.35,79.28z
		 M17.35,80.78c1.26-0.21,2.55-0.32,3.84-0.31c5.02,0.1,8.56,0.86,11.37,3.64c2.16,2.13,3.65,4.69,4.36,7.62
		c0.72,2.97-1.04,5.48-4.51,6.65c-1.17,0.39-2.4,0.65-3.62,0.87c-1.28,0.23-1.67-0.29-1.23-1.57c0.11-0.32,0.25-0.62,0.41-0.92
		c4.23-7.98-3.26-14.43-9.16-14.33c-0.47,0.01-0.93,0.05-1.39,0.12C17.37,81.97,17.35,81.38,17.35,80.78z M41.65,87.62
		c-0.85-2.64-2.95-5.23-5.09-6.6c-0.05-0.03-0.1-0.07-0.15-0.1c0.64-0.16,1.27-0.36,1.88-0.57c0.05,0.03,0.1,0.06,0.15,0.08
		c3.97,2.22,7.23,5.8,7.92,10.56c0.34,2.36-0.12,4.56-1.18,6.66c-0.15,0.3-0.53,0.69-0.81,0.7c-2.51,0.05-5.02,0.03-7.63,0.03
		c0.04-0.38,0.01-0.5,0.06-0.56c3.05-4.56,1.46-8.55-1.39-12.51c-1.09-1.51-2.3-2.69-3.62-3.6c-0.07-0.05-0.14-0.1-0.22-0.15
		c0.71,0.05,1.47,0.03,2.29-0.1c0.62-0.1,1.23-0.22,1.83-0.35c0.05,0.03,0.09,0.07,0.14,0.1c5.4,3.69,6.81,8.97,5.6,15.43
		C42.93,93.67,42.61,90.6,41.65,87.62z M18.54,92.38c0.01,0,0.03,0,0.04-0.01c-0.02-0.02-0.04-0.03-0.05-0.05
		c-0.17-0.87-0.33-1.74-0.47-2.62c0.9,0.22,1.73,0.74,2.27,1.56c0.72,1.09,0.55,1.89-0.61,2.43c-0.29,0.14-0.59,0.29-0.79,0.48
		C18.8,93.58,18.66,92.99,18.54,92.38z M19.21,95.35c0.36,0.13,0.9,0.15,1.24,0.05c1.96-0.6,2.7-2.3,1.96-4.21
		c-0.77-1.99-2.59-3.19-4.59-3.36c-0.06-0.47-0.13-0.94-0.17-1.41c2.2-0.33,4.18,0.35,5.45,1.9c2.53,3.09,1.86,6.69-1.73,9.4
		c-0.43,0.33-0.87,0.54-1.32,0.66C19.74,97.38,19.47,96.37,19.21,95.35z M20.23,98.98c0.37-0.1,0.72-0.28,1.03-0.54
		c1.41-1.2,2.84-2.68,3.54-4.34c1.56-3.7-1.91-8.36-5.91-8.32c-0.42,0-0.85,0.05-1.28,0.12c-0.06-0.63-0.11-1.26-0.14-1.9
		c0.43-0.05,0.86-0.08,1.29-0.08c4.65,0.09,8.69,3.88,8.62,8.1c-0.06,3.79-3.04,7.45-6.57,8.67
		C20.61,100.11,20.41,99.55,20.23,98.98z M28.83,114.17c-0.25-1.59,0.47-3.6,1.64-4.07c0.47-0.19,1.31-0.1,1.67,0.21
		c0.27,0.24,0.42,0.63,0.54,1.05L28.83,114.17z M37.24,107.6c-0.87-1.24-2.33-1.74-3.18-1.41c0.79,0.66,2.05,1.29,2.64,2.21
		l-2.54,1.86c-0.37-0.67-0.89-1.26-1.51-1.65c-1.42-0.9-3.2-0.57-4.37,0.82c-0.97,1.14-1.41,2.55-1.37,3.95
		c-0.42-0.67-0.83-1.36-1.23-2.05c0.44-1.65,1.52-2.98,3.14-4c-1.59,0.2-2.85,1.6-3.46,3.45c-0.25-0.44-0.5-0.89-0.74-1.34
		c1.96-2.96,4.79-4.93,8.55-5.58c3.81-0.66,7.05,1.5,7.73,5.09c0.2,1.04,0.04,1.97-0.36,2.83l-2.62-2.52
		C37.8,108.65,37.58,108.09,37.24,107.6z M80,142.8c-15.28,0-29.29-5.5-40.18-14.62c1.58-0.69,4.04-1.51,7.76-2.26
		c-0.04,0.19-0.11,0.36-0.14,0.55c-0.04,0.2-0.16,0.4-0.26,0.59c-0.33,0.59-0.67,1.19-1.01,1.77c-0.34,0.58-0.34,1.16,0,1.72
		c0.76,0.35,1.48,0.79,2.26,1.01c1.2,0.33,2.42,0.56,3.69,0.59c0.79,0.02,1.51,0.05,1.97-0.75c1.49,1.31,3.04,1.18,4.69,0.39
		c0.1-0.8,0.07-1.56-0.46-2.24c-0.13-0.17-0.31-0.4-0.28-0.56c0.15-0.86-0.11-1.67-0.18-2.5c-0.06-0.68,0.05-1.38,0.15-2.07
		c5.79-0.57,13.13-0.94,22.45-0.94c6.41,0,11.91,0.11,16.66,0.29c0.05,0.23,0.11,0.46,0.16,0.68c0.14,0.57,0.21,1.09,0.49,1.34
		c-0.08,1.17-0.2,2.16-0.22,3.16c-0.02,1.09,1.06,1.65,1.34,2.67c1.49,0.07,3.06-0.43,4.34,0.69c0.31,1.79,0.87,2.3,2.65,2.36
		c0.77,0.03,1.46,0.22,2.15,0.6c0.31,0.17,0.63,0.3,0.95,0.39C100.3,140.22,90.45,142.8,80,142.8z M64.85,106.62
		c-0.07-1.26,0.18-2.34,1-3.3c0.88-1.03,1.85-2.02,2.14-3.43c0.03-0.17,0.17-0.32,0.26-0.47c1.96-3.15,3.93-6.29,5.9-9.44
		c0.2-0.32,0.46-0.61,0.7-0.93c1.05,0.74,1.05,1.85,0.89,2.71c-0.23,1.22-0.05,2.38,0.23,3.48c0.66,2.6,0.96,5.23,0.99,7.98
		c0.2,0.17,0.44,0.38,0.74,0.63c0.26-0.51,0.47-0.93,0.76-1.51c0.24,0.72,0.51,1.29,0.59,1.88c0.19,1.23,0.99,1.91,2.05,2.6
		c0.29-0.89,0.74-1.68,0.79-2.49c0.15-2.66,0.15-5.33,0.2-7.99c0.01-0.39,0-0.78,0-1.21c0.34-0.03,0.62-0.05,0.86-0.06
		c0.43-0.81,0.84-1.57,1.26-2.37c1.18,2.01,2.25,3.92,3.41,5.77c0.47,0.75,1.19,1.35,1.67,2.1c1.04,1.6,1.99,3.25,2.97,4.85
		c-0.61,3.13,0.31,5.91,1.44,8.65l-3.11,2.32c-0.69,0.07-1.38,0.1-2.06,0.09l-1.8-1.62c1.79,0.23,3.61,0.06,5.32-0.55
		c-0.07-0.18-0.14-0.36-0.21-0.54c-0.72,0.26-1.48,0.43-2.2,0.5c-1.36,0.14-2.66,0.02-3.9-0.31l-2.91-2.63l-1.11,0.74
		c-0.29-0.2-0.58-0.42-0.86-0.65c-0.93-0.75-1.75-2.01-1.99-3.17c-0.09-0.43-0.13-0.85-0.15-1.27c-0.17-0.18-0.34-0.37-0.48-0.57
		l-0.02,0.03l-0.16-0.14c-0.11,1.83,0.32,3.71,1.58,5.01c0.44,0.45,0.9,0.85,1.39,1.22l-0.57,0.38l-3.69-3.44l-1.93,1.35
		c-0.5-1.43-0.59-3.12-0.09-4.63c0.23-0.71,0.78-2.08,0.78-2.08c-0.57-0.58-0.2-1.79-0.22-2.24c-0.44,0.81-0.85,1.63-1.3,2.44
		c-0.22,0.4-0.42,0.8-0.76,1.47c-0.33-0.86-0.52-1.43-0.75-1.98c-0.65-1.52-1.49-2.87-2.5-4.08l-0.35,0.56
		c-0.03,0.05-0.07,0.1-0.1,0.15c-0.11,0.46-0.28,0.88-0.48,1.27c0.82,0.26,1.48,1.01,2.15,2.35c1.68,3.34,0.95,5.31-2.51,6.82
		c-1.03,0.45-2.08,0.81-3.17,1.11l-1.46-1.1C64.68,109.58,64.94,108.16,64.85,106.62z M74.15,111.28l-0.9,0.63
		c-0.21-0.22-0.39-0.44-0.5-0.69c-0.56-1.24,0.02-2.33,0.79-3.47C73.74,108.93,73.94,110.04,74.15,111.28z M71.71,112.99l-2.49,1.75
		l-1.85-1.39c0.38-0.07,0.75-0.15,1.13-0.22C69.6,112.93,70.66,112.87,71.71,112.99z M115.04,132.06c-0.35-0.66-0.73-1.31-1.5-1.63
		c-0.16-0.83-0.5-1.49-1.15-2.04c-1.37-1.16-2.69-2.39-4.03-3.59c-0.14-0.12-0.24-0.26-0.36-0.4c7.29,0.59,11.68,1.36,14.23,1.97
		C119.99,128.45,117.58,130.35,115.04,132.06z M113.73,109.03l-0.1-0.08c0.15-0.11,0.29-0.23,0.44-0.35c0.12-0.1,0.24-0.2,0.37-0.31
		c0.17-0.15,0.34-0.29,0.51-0.45c0.12-0.11,0.24-0.22,0.36-0.33c0.16-0.16,0.32-0.32,0.48-0.48c0.11-0.11,0.22-0.22,0.33-0.34
		c0.17-0.17,0.33-0.35,0.49-0.53c0.09-0.11,0.19-0.21,0.29-0.32c0.21-0.24,0.41-0.49,0.6-0.75c0.04-0.05,0.08-0.1,0.12-0.15
		c0,0,0,0,0,0c0.56,0.35,1.06,0.85,1.48,1.49c0.54,0.83,0.49,1.57-0.07,2.23c-0.03,0.04-0.06,0.07-0.1,0.11l-1.51-1.24l-1.62,3.24
		l-1.63-1.38c0.78-0.7,1.49-1.48,2.07-2.34C115.41,107.77,114.57,108.42,113.73,109.03z M125.16,113.93l-0.2-0.16
		c0.11,0.01,0.22,0.02,0.33,0.03L125.16,113.93z M126.8,112.24c-1.2,0-2.42,0-3.68,0l-3.32-2.74c0.23-0.34,0.44-0.69,0.55-1.06
		c0.34-1.13,0.83-1.37,1.85-1.07c0.5,0.15,1.02,0.28,1.54,0.32c1.54,0.13,2.78,0.42,3.17,2.33c0.1,0.48,0.43,0.92,0.79,1.31
		L126.8,112.24z M133.51,112.73c-1.72-0.38-3.31-1.06-4.58-2.41c-0.35-0.37-0.51-1.12-0.41-1.63c0.07-0.33,0.76-0.54,1.15-0.79
		c0.59,0.24,1.07,0.35,1.45,0.6c1.18,0.76,2.34,1.54,3.49,2.33C134.25,111.47,133.89,112.1,133.51,112.73z M135.22,109.73
		c-0.16-0.14-0.32-0.28-0.47-0.43c-1.14-1.14-1.05-1.76,0.32-2.55c0.49-0.29,1.03-0.52,1.56-0.72c0.18-0.07,0.34-0.12,0.5-0.17
		C136.53,107.18,135.9,108.47,135.22,109.73z M134.87,104.82c-4.01,1.98-8.2,1.92-12.45,1.1c-1.76-0.34-2.78-1.53-3.46-3.01
		c0,0,0-0.01,0-0.01c0.11-0.19,0.21-0.38,0.31-0.57c0.01-0.01,0.01-0.02,0.02-0.03c0.1-0.19,0.19-0.37,0.28-0.55
		c0.01-0.01,0.01-0.03,0.02-0.04c0.09-0.18,0.17-0.37,0.25-0.55c0-0.01,0-0.01,0.01-0.02c0.04-0.1,0.08-0.2,0.12-0.29
		c0.27,1.39,0.95,2.82,2.48,3.56c3.58,1.74,6.43,0.32,6.43,0.32s-1.33,0.56-4.48-0.3c-3.15-0.86-4.07-4.57-4.07-4.57
		c0.22-0.7,0.38-1.38,0.49-2.06c0-0.02,0.01-0.03,0.01-0.05c0.05-0.33,0.08-0.66,0.11-0.98c0-0.01,0-0.02,0-0.03
		c0.02-0.33,0.03-0.65,0.03-0.97c0,0,0,0,0,0c0.01-0.01,0.01-0.03,0.02-0.04c-0.01,0.01-0.01,0.01-0.02,0.02c0,0,0,0,0,0
		c-0.01-0.46-0.04-0.9-0.1-1.34c0,0,0,0,0,0c-0.03-0.21-0.06-0.42-0.1-0.63c0-0.02-0.01-0.03-0.01-0.04c-0.04-0.2-0.08-0.4-0.13-0.6
		c0-0.01,0-0.01,0-0.02c1.45-1.33,3.3-1.69,5.33-1.22c2.21,0.5,3.98,1.67,4.61,4.02c0.74,2.8-1.61,5.38-4.46,4.92
		c-1.76-0.28-2.42-1.97-1.55-3.06c0.93,0,1.49,0,2.05,0c-0.2-0.59-0.24-1.32-0.62-1.73c-0.99-1.08-2.63-0.55-3.11,1.03
		c-0.86,2.82,0.65,5.76,4.64,5.26c2.35-0.29,4.21-1.72,5.09-4.12c0.85-2.33,0.49-4.43-1.17-6.27c-1.01-1.12-2.14-1.96-3.38-2.55
		c0.62,0.11,1.23,0.21,1.85,0.29c0.14,0.02,0.28,0.04,0.42,0.05c0.25,0.03,0.49,0.06,0.74,0.08c0.42,0.04,0.84,0.08,1.26,0.1h0
		c0.68,0.74,1.26,1.63,1.72,2.75c0.12-0.93-0.22-1.86-0.87-2.72c0.8,0.03,1.6,0.04,2.4,0.02c0.03,0,0.05,0,0.08,0
		c1.26,1.38,2.29,3.03,3.08,4.93C140.5,99.21,139.03,102.78,134.87,104.82z M116.72,86.75c2.28,0.44,4.57,0.87,6.79,1.53
		c-0.27-0.02-0.53-0.03-0.8-0.03c-1.45-0.02-2.84,0.17-4.17,0.52c0,0,0,0,0,0c-0.54-0.74-1.16-1.42-1.82-2.02c0,0,0,0,0,0
		C116.71,86.75,116.72,86.75,116.72,86.75z M114.92,85.33c2.45-2.04,4.95-3.03,7.72-2.4c2.2,0.5,4.28,1.55,6.37,2.44
		c1.12,0.47,2.16,1.12,3.28,1.71c-0.66,1.29-1.66,1.11-2.57,0.92c-2.99-0.64-5.94-1.42-8.94-2
		C118.99,85.67,117.13,85.58,114.92,85.33z M118.97,89.4c0.64-0.14,1.28-0.25,1.95-0.32c1.07-0.12,2.19-0.21,3.31,1.06
		c-0.77,0.17-1.24,0.34-1.72,0.38c-0.94,0.08-1.79,0.3-2.58,0.68c0,0,0,0,0,0C119.66,90.57,119.34,89.97,118.97,89.4
		C118.97,89.4,118.97,89.4,118.97,89.4z M140.67,95.86c-0.1-0.52-0.26-1.08-0.05-1.39c0.07-0.11,0.23-0.16,0.42-0.19
		C140.92,94.81,140.8,95.34,140.67,95.86z M141.23,93.46c-0.18-0.02-0.35-0.03-0.53-0.06c-0.35-0.06-0.69-0.26-1.03-0.4
		c0.21-0.32,0.36-0.74,0.65-0.94c0.32-0.22,0.77-0.26,1.26-0.39C141.47,92.27,141.36,92.87,141.23,93.46z M141.7,91.02
		c-0.58-0.02-1.18,0.1-1.82,0.35c-0.32,0.13-0.74-0.01-1.11-0.02c0.1-0.42,0.07-0.95,0.32-1.24c0.15-0.17,0.34-0.32,0.57-0.46
		c0.78-0.1,1.56-0.23,2.33-0.37C141.91,89.87,141.8,90.44,141.7,91.02z M142.46,85.06c-2.05-0.25-3.91-0.67-5.7-1.55
		c-2.61-1.28-5.23-2.57-7.94-3.6c-1.8-0.68-3.76-1-6.07-0.2c0.49,0.14,0.64,0.22,0.78,0.21c3.73-0.24,7.13,0.91,10.19,2.86
		c2.72,1.74,5.5,3.22,8.62,3.75c-0.05,0.45-0.11,0.89-0.17,1.34c-3.68,0.13-7.2-0.62-10.55-2.22c-1.34-0.64-2.65-1.33-3.97-2
		c-2.33-1.18-4.74-2.03-7.42-1.8c-0.36,0.03-0.73-0.07-1.06-0.11c-0.05-0.2-0.12-0.31-0.09-0.38c1.74-3.69,6.8-6.16,10.68-5.12
		c1.24,0.33,2.5,0.76,3.58,1.42c3.11,1.93,6.16,3.95,9.22,5.97C142.54,84.11,142.49,84.59,142.46,85.06z M130.97,75.21
		c-3.11-1.06-6.05-0.8-8.68,1.28c-1.84,1.46-3.6,3-5.39,4.51c-0.32,0.27-0.61,0.55-1.14,1.03c0.56-2.49,0.07-4.38-1.75-5.73
		c-0.14,0.17-0.29,0.33-0.47,0.48c1.35,0.97,1.92,2.83,1.35,4.7c-0.3,0.99-0.75,1.86-1.33,2.6c-0.03,0.04-0.06,0.07-0.08,0.1
		c-0.14,0.17-0.29,0.33-0.44,0.49c-0.06,0.07-0.12,0.13-0.19,0.2c-0.18,0.18-0.38,0.35-0.58,0.5c-0.09,0.07-0.18,0.13-0.27,0.2
		c-0.11,0.08-0.22,0.16-0.34,0.23c-1.37,0.81-3.14,1.25-5.08,1.62c-2.17,0.32-4.27,0.3-6.28-0.07l-0.45,0.17
		c0.04,0.13,0.08,0.26,0.11,0.39c0.26,0.89,0.32,1.74,0.18,2.62c-0.05,0.3-0.03,0.67-0.02,1.07l0.01,0.25
		c0.01,0.19,0.02,0.4,0.04,0.62c0.02,0.25,0.04,0.54,0.05,0.84c0.16-0.64,0.38-1.29,0.66-1.93c0.33-0.77,0.72-1.47,1.16-2.1
		c0.03-0.05,0.06-0.09,0.09-0.14c0.92,0.09,1.84,0.11,2.76,0.06c-0.09,0.05-0.17,0.11-0.26,0.17c-1.66,1.11-3,3.2-3.08,4.9
		c-0.07,1.44,0.53,2.61,1.66,3.46c1.03,0.78,2.05,0.42,2.45-0.8c-1.77,0.68-3.11,0.07-3.23-1.82c-0.07-1.18,0.42-2.51,1.03-3.57
		c0.47-0.81,1.23-1.46,2.06-2.24c0.06-0.05,0.12-0.11,0.17-0.16c0.19-0.02,0.38-0.05,0.57-0.08c0.13,0,0.27-0.01,0.42-0.04
		c0.05-0.01,0.09-0.02,0.13-0.03c0.62-0.1,1.24-0.22,1.85-0.39l-0.06-0.03c0.41-0.1,0.83-0.21,1.32-0.36
		c0.58-0.2,1.15-0.43,1.73-0.69c0.07,0.02,0.13,0.04,0.2,0.06c1.58,0.41,2.9,1.46,4.02,2.95c1.93,2.57,1.96,6.86,0.41,9.71
		c-1.49,2.73-5.46,6.88-9.99,8.67c0.02,0.08,0.04,0.16,0.06,0.24c0.01,0.04,0.06,0.15,0.09,0.23c0,0,0,0,0,0.01
		c3.47-1.34,5.5-3.26,5.79-3.54c2.11-2.05,2.95-3.21,4.42-5.65c2.84-4.69,0.03-11.03-3.41-12.76c-0.2-0.1-0.41-0.19-0.62-0.27
		c-0.05-0.02-0.1-0.05-0.15-0.07c0.32-0.17,0.65-0.34,0.97-0.52c0.14-0.08,0.31-0.14,0.49-0.19c0.06,0.03,0.11,0.08,0.17,0.11
		c1.1,0.68,2.14,1.6,3.07,2.79c3.17,4.09,3.23,9.3,0.17,13.6c-1.4,1.97-3.15,3.57-5.07,4.93l-1.18-1l-4.04,4.07
		c-0.01,0-0.01,0.01-0.02,0.01c0,0,0,0.01,0,0.01l-1.28,1.29c-0.21-0.67-0.46-1.33-0.72-1.98c-0.09-0.23-0.21-0.46-0.27-0.71
		c-0.53-2.4-1.78-4.45-3.11-6.47c-1.23-1.87-2.23-3.87-2.34-6.18c-0.02-0.31-0.11-0.64-0.25-0.93c-0.38-0.77-0.48-1.57-0.47-2.41
		c0-0.54-0.08-1.07-0.1-1.61c-0.01-0.54-0.05-1.09,0.03-1.61c0.1-0.66,0.05-1.28-0.14-1.91c-1.03-3.52-2.04-7.05-3.06-10.58
		c-0.85-2.93-1.71-5.86-2.57-8.79c-0.23-0.79-0.6-1.57-0.65-2.37c-0.1-1.61-0.03-3.23-0.03-4.79c0.85-0.69,1.4-1.45,1.43-2.64
		c0.22,0.29,0.34,0.42,0.43,0.57c0.59,0.99,1.15,2,1.75,2.98c0.47,0.77,1.02,1.45,1.84,1.93c0.44,0.25,0.79,0.72,1.09,1.15
		c0.68,0.96,1.2,2.06,1.98,2.91c0.94,1.03,2.05,1.93,3.17,2.76c0.91,0.67,1.42,1.56,1.9,2.49c-0.86,0.09-1.66,0.19-2.47,0.24
		c-0.19,0.01-0.42-0.11-0.58-0.24c-0.34-0.26-0.63-0.57-0.95-0.84c-0.24-0.2-0.46-0.46-0.93-0.24c0.3,0.38,0.57,0.73,0.83,1.07
		c-0.25,0.11-0.46,0.2-0.73,0.31c0.54,0.32,1,0.59,1.46,0.87c-0.03,0.06-0.05,0.12-0.08,0.17c-0.23-0.02-0.46-0.04-0.68-0.07
		c-0.03,0.21-0.05,0.37-0.08,0.57c-0.86-0.19-1.66-0.37-2.47-0.54c-0.39-0.08-0.74-0.06-0.89,0.36c1.27,0.26,2.49,0.5,3.72,0.75
		c0.01,0.25,0.02,0.42,0.03,0.51c-0.61,0.51-1.16,0.97-1.69,1.41c-0.07,0.53-0.14,1.01-0.2,1.48c0.04,0.01,0.07,0.02,0.11,0.04
		c0.17-0.27,0.34-0.54,0.46-0.72c0.67-0.42,1.26-0.78,1.91-1.19c0.38,1.02-0.75,1.57-0.58,2.59c0.32-0.37,0.55-0.64,0.79-0.92
		c0.18,0.19,0.32,0.34,0.42,0.45c-0.08,0.84-0.14,1.59-0.21,2.34c-0.07,0.73-0.35,1.31-1.04,1.66c-0.07,0.04-0.1,0.15-0.21,0.32
		c0.32-0.03,0.55-0.05,0.94-0.09c-0.27,0.29-0.43,0.47-0.68,0.74c1.06-0.4,1.25-0.62,2.62-2.99c0.48,0.94-0.56,2.06,0.5,2.88
		c0.2-0.42,0.36-0.77,0.53-1.11c0.16-0.35,0.33-0.69,0.56-1.19c0.18,2.39,0.31,2.72,1.16,3.24c-0.34-1.07-1-2.09-0.53-3.47
		c0.28,1.14,0.27,2.17,1,2.91c-0.22-1.17-0.44-2.35-0.61-3.28c0.38-0.85,0.66-1.46,0.92-2.04c1.35,1.5,1.84,1.71,2.6,1.13
		c-1.47-0.74-1.89-1.24-2.51-2.96c0.1-0.45,0.2-0.93,0.3-1.42c0.96,0,1.85,0,2.69,0c0.45-0.39,0.84-0.74,1.25-1.07
		c1.16-0.94,1.06-2.65,2.2-3.59c0.02-0.02,0.03-0.07,0.04-0.1c0.44-1.31,0.05-2.38-1.12-3.13c-0.04-0.02-0.02-0.12-0.03-0.19
		c0.92-0.51,1.08-0.48,1.85,0.02c0.32,0.21,0.69,0.38,1.06,0.46c1.63,0.33,3.83-0.41,4.09-0.68c0.24,1.06,1.3,1.41,2.04,0.73
		c0.87,0.45,3.97-1.12,4.49-2.54c0.52-1.42,0.49-1.76,0.77-2.14c0.01-0.84-0.33-1.33-1.01-1.64c0.58-0.4,0.69-1.39,0.19-1.33
		c0.16-0.88,1.81-2.78-1.15-3.5c1.3-0.42,1.4-0.58,1.1-1.81c-0.14-0.56-0.29-1.12-0.53-1.64c-0.33-0.73-0.81-1.27-1.9-0.83
		c-0.72-0.21-1.37-0.39-2.11-0.6c-0.71-1.27-1.96-1.95-3.32-2.51c-0.52-0.21-0.98-0.56-1.62-0.94c-0.11,0-0.43,0-0.71,0
		c-0.16,0.24-0.28,0.43-0.4,0.62c-0.51-0.29-0.93-0.56-1.38-0.78c-1.31-0.63-1.78-0.5-2.61,0.67c-1.75,0.25-1.85,0.33-2.05,1.33
		c-0.43,0.52-0.77,0.92-1.09,1.3c-0.29-0.06-0.56-0.11-0.77-0.15c-0.27,0.32-0.5,0.58-0.7,0.81c-0.32-0.1-0.68,0.07-0.87,1.43
		c-0.03,0.18-0.3,1.21,0.05,2.07c-0.41,0.26,0.98,2.12,0.81,1.88c-0.69,0.77,0.36,1.53-0.53,2.72c-0.11,0.2,1.35,2.19,2.68,2.49
		c-0.24,0.26-0.42,0.46-0.7,0.75c0.47,0.54,0.9,1.04,1.39,1.59c-0.11,0.16-0.25,0.34-0.37,0.5c-1.06-0.36-1.68-1.06-2.08-2
		c-0.11-0.26-0.24-0.58-0.45-0.71c-0.72-0.45-1.05-1.17-1.43-1.86c-0.51-0.91-1.07-1.8-1.52-2.74c-1.04-2.18-2.49-4.02-4.3-5.61
		c-0.52-0.46-0.89-1.11-1.25-1.73c-0.87-1.51-1.19-3.22-1.77-4.85c-0.29-0.81-0.59-1.62-0.86-2.44c-0.73-2.21-1.98-4.1-3.75-5.57
		c-2.2-1.83-4.03-3.98-5.91-5.86c0.1-1.12,0.24-2.07,0.25-3.02c0.01-0.57-0.17-1.14-0.29-1.7c-0.29-1.48-0.6-2.95-0.92-4.52
		c-0.5-0.53-1.06-1.19-1.69-1.76c-0.59-0.54-1.34-0.99-2.14-0.87c-1.52,0.22-2.95,0.73-3.83,2.14c-0.36,0.58-0.68,1.18-1.03,1.77
		c-0.19,0.03-0.37,0.03-0.54,0.08c-1.25,0.38-1.5,1.12-0.74,2.17c0.25,0.35,0.48,0.71,0.73,1.08c-0.07,0.37-0.14,0.72-0.2,1.04
		c-0.19,0.13-0.33,0.27-0.49,0.33c-0.86,0.34-1.54,0.84-2.07,1.63c-0.28,0.42-0.8,0.74-1.28,0.96c-1.19,0.55-2.22,1.3-3.23,2.14
		c-0.74,0.62-1.59,1.1-2.4,1.63c-0.62,0.41-1.33,0.73-1.88,1.21c-2.62,2.28-4.53,5.11-6.08,8.19c-0.56,1.1-1.23,2.11-2.02,3.05
		c-0.46,0.54-0.9,1.16-1.14,1.81c-0.36,1.01-1.01,1.72-1.81,2.36c-1.15,0.92-2.25,1.9-3.41,2.82c-1.9,1.51-3.16,3.48-3.86,5.75
		c-1.09,3.49-2.89,6.74-3.44,10.4c-0.03,0.21-0.13,0.41-0.23,0.61c-0.6,1.23-0.64,2.57-0.73,3.89c-0.03,0.42,0.02,0.87,0.16,1.27
		c0.36,1.05,0.72,2.12,1.22,3.1c0.41,0.79,0.99,1.52,1.97,1.65c1.2,1.54,1.54,1.51,2.77-0.23c0.28,0.32,0.55,0.64,0.89,1.02
		c0.47-0.11,0.93-0.22,1.38-0.33c-0.12-1.36-0.3-2.6-0.32-3.84c-0.03-1.31,0.45-2.52,0.96-3.82c0.33,0.1,0.6,0.19,0.91,0.29
		c-0.07,0.36-0.13,0.6-0.17,0.84c-0.17,1.04,0.46,1.96,1.48,2.17c0.92,0.19,1.76-0.62,1.4-1.45c-0.27-0.61-0.26-1.17-0.18-1.78
		c0.1-0.76-0.09-1.41-0.71-1.93c-0.24-0.2-0.47-0.48-0.55-0.77c-0.21-0.75-0.56-1.37-1.27-1.75c0.48-1.21,1.05-2.24,1.97-3.12
		c0.93-0.89,1.69-1.96,2.44-3.02c0.36-0.52,0.62-1.15,0.76-1.77c0.33-1.39,0.81-2.67,1.91-3.65c0.48-0.43,0.85-0.98,1.31-1.44
		c0.6-0.61,1.23-1.18,1.86-1.79c0.5,1.47,0.95,2.83,1.45,4.18c0.18,0.5,0.24,0.97,0.07,1.47c-0.34,1.01-0.28,2.05-0.18,3.09
		c0.1,1.04,0.14,2.08,0.21,3.06c-0.13,0.19-0.22,0.3-0.28,0.43c-0.65,1.26-1.57,2.42-1.45,3.98c0.03,0.37-0.17,0.77-0.27,1.15
		c-0.61,2.16-1.43,4.23-2.64,6.13c-0.23,0.36-0.4,0.76-0.58,1.16c-0.16,0.34-0.29,0.7-0.44,1.05c1.39-1.85,2.42-3.9,3.88-5.68
		c-0.44,2.01-0.97,3.99-1.47,5.97c-0.36,1.43-0.64,2.88-1.05,4.29c-0.7,2.38-0.21,4.99-1.38,7.28c-0.02,0.03-0.01,0.07-0.02,0.11
		c-0.2,0.53-0.4,1.07-0.59,1.6c-0.21,0.57-0.46,1.12-0.61,1.7c-0.12,0.46-0.26,0.87-0.6,1.23c-0.96,1.03-1.94,2.05-2.77,3.17
		c-0.61,0.83-1.2,1.76-1.46,2.74c-0.03,0.12-0.07,0.24-0.11,0.36l-3.52,2.82c-0.66-0.15-1.32-0.32-1.98-0.52
		c0.46,0.32,1.01,0.59,1.61,0.82l-2.08,1.67c-0.59-0.56-1.13-1.19-1.6-1.9c-0.76-1.13-0.58-1.88,0.75-2.26
		c1.13-0.32,2.34-0.41,3.53-0.49c0.53-0.04,1.05-0.07,1.58-0.09c0.09-0.27,0.17-0.55,0.25-0.82c0.05-0.17,0.1-0.35,0.17-0.52
		c-1.77,0.09-3.54,0.16-5.31,0.18c-2.07,0.02-4.2-0.38-6.21-0.94c-4.31-1.2-8.41-0.97-12.4,1.07c-1.46,0.74-2.92,1.26-4.4,1.6
		c-0.16-0.36-0.33-0.72-0.48-1.08c0.93-0.18,1.83-0.47,2.66-0.88c-0.92,0.07-1.9,0.17-2.9,0.26c-0.21-0.5-0.41-1.01-0.6-1.52
		c2-0.28,3.98-0.68,5.91-1.22c3.95-1.11,7.89-1.35,11.93-1.15c5.03,0.25,10.06,0.4,14.97-1c0.33-0.36,0.66-0.72,0.99-1.07l0.3-0.32
		c0.07-0.07,0.12-0.17,0.22-0.55c0.01-0.02,0.01-0.04,0.02-0.06c-0.97,0.4-1.98,0.73-3.05,0.99c-2.49,0.61-3.93-0.67-3.73-3.19
		c1.03-0.12,2.06-0.21,3.1-0.35c1.97-0.26,3.71-0.92,5.3-1.84c0.12-0.36,0.2-0.74,0.27-1.14c-2.02,1.21-4.25,1.99-6.77,2.19
		c-1.67,0.13-1.9-0.04-2.12-1.67c-0.16-1.22-0.42-2.43-0.65-3.76c0.64,0.2,1.21,0.38,1.79,0.55c1.4,0.41,3.58,0.96,5.97-0.3
		c0.86-0.37,1.65-0.89,2.35-1.54c0.05-0.2,0.09-0.4,0.15-0.6c0.17-0.58,0.32-1.17,0.46-1.77l-0.28,0.37c0.02,0,0.03-0.01,0.05-0.01
		c-0.24,0.45-0.58,0.88-0.99,1.26l-0.28,0.37c-1.12,0.69-3,2.05-5.57,1.62c-2.08-0.35-3.76-1.15-5.19-2.63
		c-1.19-1.23-1.82-2.02-2.62-2.49c-0.8-0.48-1.47-1.97-2.14-2.48c-0.39-0.3-0.78-0.59-1.18-0.86c-0.04-0.03-0.07-0.05-0.11-0.08
		c0.27-0.13,0.54-0.27,0.8-0.41c-0.03-0.09-0.06-0.18-0.09-0.26l-0.1-0.28c-0.2-0.59-0.29-1.27-0.25-1.91l0-0.01
		c-1.65,1.1-3.59,1.58-5.71,1.62c-1.65,0.03-2.65-0.87-2.97-2.38c-0.35-1.62,0.39-3.8,1.61-4.29c0.47-0.19,1.31-0.11,1.67,0.21
		c0.42,0.36,0.56,1.11,0.71,1.71c0.05,0.21-0.21,0.52-0.37,0.75c-0.38,0.58-1.14,1.27-0.2,1.79c0.91,0.49,1.77-0.03,2.24-0.96
		c0.74-1.43-0.22-3.94-1.87-4.99c-1.42-0.9-3.2-0.57-4.37,0.82c-2.27,2.69-1.66,6.78,1.35,9.02c-2.67-0.38-4.03-1.97-4.16-5.09
		c-0.11-2.64,1.11-4.63,3.36-6.04c-3.69,0.47-5.67,7.44-1.64,11.4c-2.62-0.21-5.18-4.28-3.56-7.57c1.93-3.93,5.1-6.54,9.55-7.31
		c2.67-0.46,5.06,0.47,6.49,2.31c0.37-1.04,0.78-2.06,1.17-3.06c0,0,0,0,0,0c-0.46-0.11-0.91-0.22-1.35-0.34
		c-4.31-1.2-8.41-0.97-12.4,1.07c-3.81,1.95-7.7,2.47-11.63,1.79c0.12-0.55,0.25-1.09,0.38-1.64c3.06,0.95,6.38,0.78,9.03-0.51
		c-1.88,0.14-4.01,0.43-6.13,0.41c-1-0.01-1.92-0.15-2.78-0.39c0.09-0.36,0.19-0.71,0.28-1.07C20,64,20.54,64.06,21.1,64.02
		c3.17-0.19,6.37-0.73,9.42-1.6c3.95-1.12,7.89-1.35,11.93-1.15c0.93,0.05,1.86,0.09,2.79,0.12c0,0,0,0,0,0
		c0.17-0.55,0.37-1.07,0.6-1.58c-1.92,0.02-3.85,0.01-5.84,0.01c0.04-0.38,0.01-0.5,0.06-0.57c1.05-1.58,1.54-3.09,1.63-4.55
		c0.33-0.27,0.5-0.41,0.83-0.68c0.14,0.02,0.28,0.04,0.42,0.06c0.72,0.1,1.44,0.22,2.16,0.34c-0.03,1.17-0.16,2.38-0.39,3.64
		c0.58-1.17,0.89-2.35,0.98-3.54v0c0,0,0,0,0,0c0.61,0.11,1.23,0.23,1.84,0.36c0.06,0.01,0.12,0.03,0.19,0.04
		c0.48,0.1,0.96,0.22,1.43,0.34c0.17-0.15,0.34-0.3,0.51-0.44c0.6-0.48,1.2-0.98,1.79-1.47c0.52-0.44,1.07-0.9,1.61-1.34
		c0.16-0.13,0.31-0.26,0.44-0.38c-5.82,1.22-11.82,0.96-17.9-0.18c-2.1-0.39-4.27-1.61-5.9-3.02c-0.81-0.7-1.62-1.41-2.38-2.17
		c1.12-1.73,2.32-3.4,3.59-5.01c0.6,0.84,1.37,1.57,2.33,2.13c3.96,2.32,8.08,4.3,12.88,4.43c3.6,0.09,7.12-0.15,10.58-0.99
		c0.32-0.47,0.6-0.96,0.86-1.47c-4.59,1.32-9.29,1.79-13.95,0.83c-3.22-0.66-6.27-2.22-9.38-3.42c-0.37-0.14-0.66-0.52-0.93-0.74
		c1.55,0,3.14,0.22,4.63-0.07c1.32-0.25,2.57-0.98,3.76-1.66c0.69-0.4,1.17-0.53,1.95-0.2c4.94,2.08,10.01,3.15,15.26,2.81
		c0.13-0.21,0.26-0.42,0.39-0.63c-5.21,0.49-10.26-0.6-15.17-2.52c-0.18-0.07-0.35-0.16-0.51-0.26c-0.12-0.07-0.22-0.18-0.25-0.2
		c0.66-1.99,1.27-3.81,1.9-5.71c0.17,0.1,0.46,0.19,0.62,0.38c3.91,4.78,8.89,6.63,14.38,6.86c0.34-0.47,0.68-0.92,1.03-1.35
		c-4.79,0.01-9.34-1.25-13.21-4.93c-1.88-1.79-3.09-3.85-3.6-6.01c1.32-0.91,2.67-1.76,4.06-2.57c-0.01,0.48,0.01,0.95,0.07,1.42
		c0.12,0.93,0.38,1.92,0.86,2.71c2.38,3.96,5.82,6.42,10.47,6.95c0.96,0.11,1.96-0.16,2.94-0.25c-0.01-0.15-0.02-0.29-0.03-0.44
		c-0.25-0.06-0.51-0.15-0.76-0.17c-2.78-0.19-5.35-0.99-7.67-2.55c-3.01-2.03-4.48-5.24-4.52-8.46c0.81-0.44,1.63-0.86,2.46-1.27
		c-0.89,2.49-0.38,4.49,1.48,5.54c-1.71-1.62-1.43-3.58-1.17-5.7c1.31-0.64,2.65-1.21,4-1.76c-0.83,2.18-0.71,4.76,0.57,7.02
		c2.13,3.78,5.71,5.79,9.51,5.85c0.57-0.36,1.12-0.71,1.58-1.09c0.29-0.24,0.63-0.51,0.99-0.78c-4.41,1.02-9.15-1.2-10.96-5.47
		c-0.99-2.34-0.48-4.93,1.15-6.6c1.37-0.48,2.77-0.91,4.18-1.29c1.48,0.44,2.69,1.74,2.81,3.52c0.08,1.16-0.57,1.73-1.81,1.49
		c-0.77-0.15-1.61-0.28-1.68,0.68c-0.04,0.54,0.48,1.34,0.98,1.64c1.94,1.17,4.64-0.28,4.98-2.63c0.33-2.27-0.57-4.05-2.17-5.45
		c2.02-0.43,4.07-0.77,6.16-1c0.57,0.95,0.98,2.05,1.23,3.34c0.74,3.85-1.17,6.92-4.95,7.94c-0.38,0.1-0.74,0.29-1.1,0.44
		c2.54,0.25,4.47-0.55,5.74-2.55c0.52-0.82,0.8-1.48,1-2.29c0.65-2.39,0.2-4.9-1.07-6.97c0.96-0.09,1.92-0.17,2.88-0.22
		c0.61,1.27,1.04,2.64,1.24,4.09c0.39-0.34,0.81-0.61,1.23-0.82c-0.34-1.1-0.67-2.2-0.99-3.31c0.6-0.02,1.19-0.05,1.79-0.05
		c1.79,0,3.55,0.09,5.3,0.24c0.05,0.95-0.78,1.89-1.93,2.56c0,0.38,0.33,0.11,0.72,0.21c0.23,0.12,0.45,0.26,0.68,0.43
		c0.6-0.34,1.22-0.66,1.86-0.96c1.26-0.58,2.52-1.14,3.81-1.6c1.47,0.25,2.92,0.55,4.36,0.89c-2.87-0.18-5.74,0.76-8.62,2.96
		c0.16,0.17,0.32,0.34,0.47,0.5c0.05,0.05,0.1,0.1,0.14,0.16c0.15-0.13,0.3-0.26,0.46-0.38c4-3.19,8.98-3.69,12.81-1.23
		c1.54,0.99,2.82,2.28,2.68,4.28c-0.14,1.94-1.58,2.97-3.18,3.76c-0.97,0.47-1.93,0.73-2.45-0.67c-0.07-0.2-0.53-0.58-0.77-0.39
		c-0.41,0.2-0.3,0.69-0.23,0.97c0.27,1.08,1.34,1.66,2.65,1.31c2.25-0.6,3.75-2.1,4.38-4.33c0.59-2.09-0.37-3.81-2.06-4.83
		c-0.37-0.23-0.75-0.43-1.12-0.62c1.46,0.49,2.89,1.02,4.3,1.61c0.45,0.97,0.74,2.04,0.8,3.17c0.23,4.12-3.11,7.67-7.24,7.76
		c-3.86,0.08-5.44-2.96-5.18-5.93c0.15-1.74,1.13-2.25,2.78-1.73c1.02,0.32,1.56-0.12,1.5-1.21c-0.08-1.35-1.69-2.65-3.14-2.17
		c-1.09,0.36-2.26,1.14-2.9,2.07c-1.54,2.24-1.16,5.88,0.55,8.11c1.77,2.31,4.71,3.24,7.58,2.47c0.51-0.14,1.07-0.05,1.61-0.07
		c-0.04,0.55-0.08,1.1-0.12,1.66c0,0.02,0,0.04-0.01,0.05c-0.67,2.57-1.56,3.09-3.76,1.74c-1.54-0.94-2.88-2.21-4.31-3.32
		c-0.99-0.77-2.07-1.22-3.26-1.34c0.12,0.12,1.2,1.6,1.32,1.72c2.43,0.79,3.22,2.54,5.32,3.89c1.16,0.74,2.33,1.66,4.17,1.37
		c0.01,0.07-0.01-0.1,0.07,0.36c0.67,3.82,3.34,6.05,7.22,6.34c3.3,0.25,6.08-0.78,8.28-3.12c2.62-2.79,2.29-7.17-0.55-9.66
		c-2.88-2.53-6.97-2.34-9.4,0.42c-2.44,2.77-1.15,7.34,2.37,8.4c1.4,0.42,2.62-0.08,3.56-1.46c1.01-1.5,1.19-3.47,0.33-4.44
		c-0.27-0.3-0.68-0.55-1.07-0.65c-0.24-0.07-0.71,0.1-0.82,0.3c-0.11,0.19,0.03,0.65,0.21,0.85c1.06,1.18,0.98,2.74-0.25,3.76
		c-1,0.83-2.34,0.53-3.33-0.78c-0.97-1.27-1.32-2.72-0.67-4.19c0.77-1.74,2.32-2.52,4.14-2.65c2.12-0.15,3.86,0.72,5.05,2.47
		c1.24,1.81,1.24,3.76,0.3,5.73c-2.07,4.31-9.19,5.19-12.36,2.3c-1.53-1.4-2.2-3.17-2.09-5.15c0.13-2.43,0.92-4.69,2.36-6.69
		c2.1-2.91,5.12-3.14,8.26-2.71c2.99,0.42,5,2.28,6.16,5.02c0.35,0.83,0.51,1.74,0.72,2.63c0.73,3.11,2.53,4.81,5.65,5.31
		c0.46,0.07,0.92,0.19,1.38,0.29c-0.76,2.25-3.51,4.05-6.98,5.21c0.12,0.08,0.24,0.15,0.35,0.22c0.08,0.05,0.14,0.09,0.22,0.13
		c0.37-0.13,0.74-0.28,1.1-0.44c1.38-0.62,2.79-1.29,3.95-2.27c0.69-0.58,1.6-1.67,2.11-2.83c0,0,0.6,0,1.35-0.2
		c-0.49,2.4-1.59,4.25-3.41,5c-1.3,0.54-2.67,0.92-4.05,1.26c1.17,0.52,2.38,1.23,3.25,2.41l0.74,0.21l0.32,0.09
		c0.25-0.06,0.5-0.09,0.73-0.09c0.63,0,1.45,0.21,2.12,1.05c0.53,1.12,1.08,2.35,1.17,2.82c0.21,0.84,0.22,1.48,0.06,1.99l0.5,0.36
		c1.66-1.33,4.14-1.76,6.18-0.9c2.58,1.09,4.06,4.42,3.17,7.1c-0.9,2.69-4.48,3.4-6.42,1.26c-0.92-1.02-0.94-2.19-0.05-3.07
		c0.99-0.97,1.73-0.95,2.91,0.08c0.05,0.05,0.17,0.02,0.35,0.03c0.03-0.96-0.54-1.61-1.32-1.46c-1.01,0.19-2.21,0.59-2.82,1.33
		c-0.5,0.61-0.56,1.94-0.28,2.77c0.56,1.68,1.95,2.5,3.76,2.6c1.73,0.09,3.23-0.29,4.3-1.76c0.87-1.21,1.22-2.85,1.09-4.52
		c1.01,3.26,1.74,6.64,2.21,10.1c-0.26-0.16-0.51-0.34-0.78-0.49c-1.88-1.09-4.2-1.42-6.31-2.13c-1.7-0.57-3.5-1-5.04-1.87
		c-0.54-0.31-0.94-0.8-1.2-1.4l-0.22,0.3l0.31,0.9l-0.72,0.72c-0.29,0.28-0.58,0.52-0.85,0.72c-0.08,0.06-0.15,0.12-0.22,0.17
		c-0.66,0.53-4.82,2.77-7.65,3.31c-0.57,0.08-1.15,0.14-1.72,0.19c-0.49,0.04-0.98,0.06-1.47,0.09c0,0-0.01,0.01-0.01,0.01
		c-0.08,0.43-0.28,0.78-0.6,1.04c-0.15,0.13-0.27,0.34-0.39,0.6c1.06-0.12,2.13-0.2,3.19-0.26c0.72-0.04,1.42-0.1,2.12-0.19
		c0.02,0,0.04,0,0.06,0c0.27-0.02,0.56-0.07,0.86-0.13c2.18-0.36,4.25-1.05,6.09-2.55c1.06-0.86,2.32-0.9,3.65-0.46
		c1.1,0.36,2.23,0.58,3.38,0.67c2.05,0.17,3.92,0.74,5.65,1.87c0.75,0.49,1.47,1.02,2.18,1.55c0.08,0.88,0.15,1.76,0.19,2.64
		c-2.11-1.44-4.5-2.42-7.19-2.96c-1.82-0.36-3.59-1.08-5.42-1.34c-4.23-0.6-7.78,1.13-10.99,3.74c0.81-0.46,1.63-0.92,2.44-1.38
		c3.81-2.13,7.76-2.62,11.94-1.05c1.34,0.5,2.73,0.9,4.12,1.24c1.89,0.47,3.61,1.26,5.11,2.39c0.03,0.81,0.06,1.62,0.06,2.43
		c0,0.47-0.03,0.94-0.04,1.41C139.08,78.76,135.22,76.66,130.97,75.21z M105.31,81.67c-0.41-0.86-0.41-0.86,0.28-1.57
		C105.98,80.73,105.55,81.15,105.31,81.67z M104.22,81.29c-0.1,0.81-0.46,1.45-0.83,2.2C103.42,81.92,103.52,81.64,104.22,81.29z
		 M103.64,80.73c0-0.46,0-0.83,0-1.19C103.96,79.91,104.23,80.29,103.64,80.73z"/>
	<path d="M85,135.07c-0.01-0.06-0.03-0.11-0.05-0.17c-0.05-0.14-0.1-0.29-0.04-0.44c0.04-0.1,0.01-0.17-0.02-0.26
		c-0.05-0.13-0.08-0.27-0.12-0.4c0.01,0,0.01-0.01,0.02-0.01c0.04,0.05,0.09,0.11,0.13,0.16c0-0.14-0.1-0.22-0.17-0.32
		c0.02-0.14-0.14-0.21-0.14-0.36c0.05,0.06,0.08,0.1,0.12,0.14c0.01-0.12-0.08-0.2-0.13-0.29c0.04-0.15-0.09-0.22-0.14-0.32
		c0.01-0.02,0.02-0.03,0.03-0.04c-0.11-0.12-0.21-0.23-0.31-0.35c-0.07-0.08-0.12-0.16-0.19-0.24c-0.04-0.05-0.07-0.09-0.08-0.16
		c-0.06-0.35-0.22-0.66-0.41-0.95c-0.09-0.14-0.16-0.29-0.18-0.45c-0.03-0.26-0.14-0.49-0.32-0.69c-0.06-0.06-0.12-0.13-0.18-0.19
		c-0.17-0.16-0.34-0.32-0.56-0.42c-0.11-0.06-0.22-0.13-0.33-0.19c-0.03-0.02-0.06-0.05-0.1-0.07c-0.05-0.03-0.14-0.07-0.24-0.1
		c0.18-0.22,0.34-0.61,0.42-1.02c0.11-0.55,0-1.41-0.99-1.51c-0.99-0.1-1.01,1.12-1.01,1.47c0,0.35,0.17,0.6,0.17,0.81
		c-0.21-0.01-0.4,0-0.54,0.03c-0.27,0.08-0.53,0.16-0.78,0.28c-0.35,0.17-0.61,0.41-0.75,0.76c-0.04,0.1-0.1,0.17-0.18,0.23
		c-0.12,0.11-0.25,0.22-0.35,0.34c-0.12,0.15-0.26,0.27-0.44,0.34c-0.17,0.07-0.32,0.17-0.45,0.28c-0.09,0.08-0.19,0.15-0.3,0.19
		c-0.09,0.03-0.16,0.08-0.2,0.17c-0.03,0.06-0.05,0.13-0.07,0.19c-0.04,0.02-0.08,0.05-0.11,0.07c-0.01,0.07-0.02,0.14-0.02,0.21
		c-0.04,0.09-0.09,0.19-0.13,0.29c-0.03,0.06-0.06,0.11-0.12,0.14c-0.06,0.03-0.11,0.07-0.16,0.11c-0.02,0.01-0.02,0.04-0.04,0.07
		c0.06-0.02,0.1-0.04,0.13-0.06c-0.19,0.2-0.26,0.42-0.24,0.69c0,0.04-0.01,0.09-0.03,0.13c-0.07,0.14-0.14,0.29-0.26,0.4
		c-0.03,0.03-0.06,0.07-0.08,0.11c-0.08,0.13-0.15,0.26-0.22,0.39c-0.1,0.17-0.08,0.33,0.03,0.47c0.06,0.08,0.14,0.14,0.19,0.22
		c0.07,0.13,0.1,0.14,0.19,0.14s0,0.05,0.15,0.07c0.15,0.02,0.19,0.01,0.22,0.01c0.03,0,0.04,0.07,0.11,0.07s0.17-0.06,0.17-0.06
		c0.12-0.04,0.17-0.12,0.18-0.22c0.01-0.26-0.11-0.36-0.17-0.29c-0.06,0.08-0.08,0.11-0.12,0.06s-0.17-0.13-0.09-0.18
		c0.08-0.05,0.21-0.26,0.23-0.29c0.07-0.12,0.14-0.24,0.22-0.36c0.05,0.02,0.08,0.03,0.12,0.04c0.04,0.09,0.01,0.15-0.02,0.21
		c-0.08,0.17,0,0.43,0.25,0.47c0.13,0.02,0.24-0.07,0.2-0.2c-0.05-0.15-0.01-0.27,0.06-0.39c0.12-0.2,0.09-0.39-0.02-0.59
		c-0.03-0.06-0.07-0.13-0.1-0.18c0.07-0.09,0.12-0.17,0.17-0.24c0.36-0.1,0.65-0.27,0.78-0.64c0.05-0.14,0.14-0.27,0.1-0.43
		c-0.01-0.03,0.01-0.06,0.02-0.09c0.02-0.07,0.04-0.14,0.06-0.23c0.09-0.11,0.11-0.12,0.25-0.16c0.04-0.01,0.08-0.03,0.11-0.05
		c0.14-0.1,0.28-0.2,0.42-0.3c0.06,0.06,0.08,0.12,0.08,0.2c-0.01,0.14,0,0.27,0,0.41c0.07,0.08,0.14,0.16,0.22,0.24
		c-0.1,0.34-0.13,0.7-0.11,1.06c0.01,0.23,0,0.46-0.03,0.68c-0.03,0.22-0.03,0.44-0.04,0.66c0,0.07-0.01,0.13-0.05,0.2
		c-0.12,0.22-0.24,0.45-0.34,0.67c-0.12,0.25-0.21,0.52-0.24,0.8c-0.01,0.12-0.01,0.25-0.03,0.37c-0.02,0.16-0.03,0.31-0.01,0.47
		c0.01,0.19-0.05,0.36-0.19,0.48c-0.13,0.11-0.2,0.27-0.33,0.38c-0.01,0.01-0.02,0.02-0.02,0.03c-0.05,0.15-0.11,0.3-0.16,0.45
		c-0.02,0.05-0.02,0.11-0.02,0.16c-0.01,0.08-0.03,0.15-0.04,0.23c-0.02,0.2,0.03,0.38,0.11,0.57c-0.09,0.07-0.1,0.16-0.06,0.26
		c0.01,0.03,0.01,0.05,0.02,0.08c0.03,0.07,0.01,0.14-0.05,0.19c-0.06,0.06-0.13,0.11-0.2,0.16c-0.09,0.06-0.17,0.12-0.19,0.24
		c-0.01,0.08-0.06,0.15-0.14,0.2c-0.04,0.02-0.08,0.04-0.11,0.06c-0.08,0.11-0.13,0.22-0.22,0.3c-0.09,0.08-0.11,0.16-0.07,0.27
		c0.06,0.06,0.13,0.1,0.22,0.11c0.04,0,0.08,0.01,0.12,0.03c0.09,0.04,0.18,0.04,0.27,0c0.07-0.03,0.14-0.06,0.2-0.08
		c0.12-0.04,0.23-0.1,0.28-0.22c0.02-0.05,0.07-0.08,0.13-0.04c-0.11,0.2-0.08,0.3,0.13,0.41c0.03,0.02,0.05,0.03,0.08,0.06
		c0.16,0,0.3-0.04,0.39-0.19c0.08-0.15,0.17-0.29,0.26-0.43c-0.05-0.17-0.04-0.32,0.02-0.47c0.04-0.1,0.04-0.21,0.01-0.32
		c-0.03-0.09-0.04-0.19-0.04-0.28c0-0.18,0.06-0.34,0.12-0.51c0.02-0.06,0.04-0.13,0.08-0.19c0.15-0.22,0.24-0.44,0.2-0.71
		c-0.01-0.12,0.02-0.24,0.11-0.33c0.04-0.03,0.06-0.08,0.1-0.12c0.08-0.09,0.1-0.19,0.08-0.31c-0.01-0.09,0-0.18,0-0.27
		c0.04-0.01,0.06-0.03,0.09-0.04c0.29-0.4,0.64-0.55,0.88-0.81c0.24-0.26,0.31-0.14,0.43-0.04c0.11,0.1,0.49,0.45,0.61,0.62
		c0.19,0.05,0.28,0.17,0.33,0.35c0.02,0.09,0.06,0.17,0.09,0.26c0.03,0.07,0.07,0.14,0.1,0.21c0.03,0.08,0.08,0.15,0.14,0.22
		c0.08,0.09,0.16,0.16,0.26,0.22c0.03,0.01,0.05,0.04,0.07,0.06c0.13,0.14,0.22,0.29,0.23,0.5c0.01,0.14,0.05,0.29,0.08,0.43
		c0.01,0.03,0.02,0.06,0.04,0.09c0.12,0.15,0.21,0.33,0.37,0.44c0.07,0.05,0.1,0.12,0.1,0.2c0,0.07-0.01,0.15-0.01,0.22
		c0,0.17,0.02,0.34,0.01,0.51c-0.01,0.17-0.01,0.34,0.01,0.52c0.02,0.15,0.08,0.22,0.23,0.24c0.05,0.01,0.1,0.01,0.14,0.01
		c0.04-0.04,0.07-0.08,0.11-0.11c0.08-0.06,0.11-0.13,0.09-0.23c0-0.02,0-0.04-0.01-0.06c0.03,0,0.05-0.01,0.06,0
		c0.09,0.04,0.16,0.1,0.2,0.19c0.07,0.14,0.14,0.17,0.29,0.14c0.03-0.01,0.07-0.01,0.09-0.01c0.15,0.05,0.3,0.02,0.45-0.02
		c0.15-0.04,0.23-0.23,0.14-0.36c-0.07-0.1-0.14-0.2-0.21-0.31c-0.02-0.04-0.04-0.08-0.05-0.13c-0.04-0.16-0.09-0.31-0.23-0.41
		c-0.09-0.07-0.14-0.17-0.16-0.28c-0.04-0.17-0.08-0.33-0.11-0.5c-0.04-0.22-0.12-0.43-0.13-0.66c0-0.2-0.07-0.39-0.2-0.54
		c-0.03-0.04-0.05-0.08-0.08-0.13c-0.13-0.23-0.13-0.23-0.37-0.35c-0.12-0.18-0.25-0.36-0.39-0.57c0-0.23,0-0.49,0-0.75
		c0-0.07-0.01-0.15,0-0.22c0.03-0.21,0.03-0.41-0.04-0.61c-0.08-0.22-0.16-0.44-0.25-0.66c-0.02-0.05-0.05-0.08-0.08-0.13
		c-0.05-0.07-0.09-0.15-0.14-0.22c-0.04-0.06-0.07-0.13-0.11-0.19c-0.05-0.07-0.08-0.14-0.06-0.23c0-0.02,0-0.05,0-0.07
		c-0.03-0.09,0-0.18,0.04-0.27c0.12-0.33,0.28-0.66,0.3-1.02c0.11-0.08,0.11-0.08,0.16-0.24c0.02-0.07,0.04-0.15,0.13-0.18
		c0.12,0.16,0.24,0.31,0.37,0.48c0.05,0.13,0.04,0.29,0.01,0.44c-0.04,0.2-0.03,0.39,0.01,0.59c0.01,0.07,0.04,0.14,0.08,0.2
		c0.14,0.22,0.3,0.43,0.52,0.57c0.01,0.21,0.13,0.46-0.06,0.48c-0.13,0.01-0.23-0.08-0.29,0.03c-0.08,0.13-0.18,0.15-0.27,0.28
		c0.01,0.06-0.05,0.16-0.06,0.23c-0.02,0.16,0.01,0.18,0.04,0.33c0.05,0.05,0.08,0.14,0.15,0.12c0.08-0.03,0.07-0.01,0.08-0.09
		c0.01-0.06,0.02-0.16,0.02-0.21c0-0.06,0.12-0.07,0.17-0.11c0.07,0.02,0.14,0.04,0.2,0.06c0.01,0.06,0.03,0.11,0.03,0.17
		c0.01,0.08,0.02,0.15-0.03,0.23c-0.22,0.19-0.22,0.26-0.14,0.36c0.09,0.1,0.2-0.02,0.28-0.08c0.08-0.06,0.29-0.37,0.28-0.28
		s-0.15,0.31-0.21,0.43s0.11,0.16,0.24,0.16s0.3-0.3,0.3-0.43s0.16,0,0.11,0.16c-0.05,0.16-0.23,0.32-0.14,0.41s0.25,0.09,0.32-0.06
		c0.08-0.14,0.08-0.43,0.1-0.4c0.03,0.03-0.07,0.49,0.06,0.57s0.2-0.22,0.26-0.36c0.05-0.12,0.08-0.25,0.11-0.38
		c0.02-0.12,0.02-0.23-0.06-0.34C85.09,135.42,85.04,135.25,85,135.07z"/>
	<path d="M37.32,67.64c0.87,0.74,2.34,1.42,2.82,2.53c0.52,1.21,0.12,2.82,0.12,4.47c1.33-1.59,1.37-3.98,0.25-5.59
		C39.63,67.81,38.17,67.3,37.32,67.64z"/>
	<path d="M31.48,46.23c3.28,3.71,15.55,5.1,23,3.84c0.2-0.48,0.46-0.91,0.73-1.3C47.36,50.31,39.38,50.77,31.48,46.23z"/>
	<path d="M113.57,100.1c-2.25,2.96-5.24,4.53-8.59,5.29c0.2,0.38,0.38,0.78,0.55,1.18c3.06-0.75,5.73-2.36,7.99-4.66
		c2.48-2.52,3.03-6.43,1.4-9.44c-0.64-1.18-1.45-2.23-3.38-2.33C115.25,92.6,116.04,96.85,113.57,100.1z"/>
	<path d="M103.91,103.52c0.92-0.02,1.86-0.31,2.76-0.92c2.43-1.63,3.99-3.87,4.03-6.89c0.03-2.41-2.72-4.19-4.91-3.19
		c-0.36,0.16-0.74,0.86-0.67,1.22c0.1,0.45,0.58,1.02,1.02,1.15c2.28,0.69,2.6,1.41,1.31,3.5c-0.37,0.6-0.85,1.17-1.38,1.63
		c-1.47,1.25-2.97,1.28-4.17,0.14c0.3,0.63,0.68,1.28,1.14,1.98C103.32,102.58,103.62,103.05,103.91,103.52z"/>
	<path d="M133.51,58.87c1.96,0.32,3.48,2.63,2.99,4.55c-0.25,0.96-0.92,1.3-1.85,1.15c-0.39-0.07-0.77-0.25-1.15-0.38
		c-0.04,0.17-0.09,0.33-0.13,0.5c0.7,0.13,1.47,0.51,2.07,0.33c0.61-0.19,1.33-0.85,1.5-1.45c0.59-2.11-0.47-4.29-2.26-5.08
		c-2-0.88-4.44-0.33-5.61,1.54c-0.02,0.04-0.04,0.08-0.06,0.11c0.16,0.13,0.31,0.28,0.44,0.46
		C130.37,59.22,131.8,58.59,133.51,58.87z"/>
	<path d="M97.62,43.32c0.16,0.37,0.31,0.75,0.44,1.15c0.2,0.6,0.42,1.21,0.63,1.8l0.22,0.61c0.2,0.55,0.36,1.1,0.52,1.63
		c0.17,0.57,0.34,1.12,0.53,1.65c0.31-0.01,0.65,0.02,1,0.11c0.89,0.22,1.75,0.56,2.61,0.9c0.13,0.35,0.84,0.96,0.61,0.96
		c-0.08,0-0.14,0.03-0.21,0.06c-0.12-0.03-0.24-0.07-0.37-0.1c-0.72-0.19-1.52-0.39-2.21-0.25c-0.16,0.03-0.31,0.13-0.46,0.25
		c0.17,0.28,0.35,0.53,0.54,0.69c0.41,0.36,0.79,0.72,1.15,1.1c0.03,0.01,0.06,0.04,0.09,0.05c0.26,0.41,0.57,0.8,0.85,1
		c0.11,0.13,0.23,0.25,0.33,0.38c0.01-0.02,0.01-0.04,0.02-0.05c0.79,0.96,1.8,3.42,1.83,3.32c0.04-0.11-0.38-0.38-0.24-1.33
		c0.03-0.23,0.02-0.43-0.02-0.62l0.02-0.01c-0.01-0.01-0.02-0.03-0.03-0.04c-0.13-0.57-0.5-1.04-0.66-1.89
		c-0.22-1.15,0.59-0.99,1.01-1.91s0.8-0.08,2.06-0.99c1.25-0.91,0.77-0.51,1.09-1.53c0.06-0.12,0.11-0.24,0.18-0.34
		c-3.51-0.02-6.76-0.71-8.76-2.22c0,0,5.43,1.42,10.42,1.13c0.2-0.05,0.4-0.1,0.62-0.13c0.16-0.19,0.36-0.39,0.59-0.56
		c-0.06,0-0.11,0.01-0.17,0.01C106.39,48.36,101.22,47.83,97.62,43.32z"/>
	<path d="M120.26,42.73c-0.1,1.15-2.01,3.92-5.5,4.99c0.18,0.06,0.36,0.13,0.53,0.2C120.42,45.87,120.26,42.73,120.26,42.73z"/>
	<path d="M94.27,63.53c-0.19-0.32-0.38-0.64-0.57-0.95c0,0.22-0.01,0.44-0.01,0.66c0,0.2,0,0.4-0.01,0.59
		c0.02,0.07,0.04,0.14,0.05,0.22c0.15,0.74,0.09,1.52,0.13,2.44C94.35,65.53,94.46,64.5,94.27,63.53z"/>
	<path d="M56.48,75.81c-0.03,0.2-0.03,0.35-0.03,0.48c0.94,0.17,1.81,0.52,2.51,1.24c0.47-0.92,0.88-1.93,1.24-3.02
		c-0.11,0-0.22,0.01-0.33,0.01c-0.82-0.15-2.13-0.33-3.59-0.6C56.5,74.48,56.57,75.12,56.48,75.81z"/>
	<path d="M62.32,65.26c-0.03-0.33-0.06-0.67-0.07-1.01c-0.33,0.06-0.66,0.11-0.98,0.15c-0.83,0.09-1.67,0.17-2.5,0.24
		c-0.17,0.42-0.39,0.88-0.69,1.3c-0.04,0.05-0.08,0.11-0.11,0.16c1.47-0.08,2.94-0.18,4.4-0.34C62.35,65.6,62.34,65.43,62.32,65.26z
		"/>
	<path d="M85.94,98.8c-0.13-0.22-0.27-0.43-0.4-0.65c-0.66,0.07-1.28,0.23-1.86,0.46c0,0.25-0.01,0.51-0.01,0.76
		c0.26-0.11,0.52-0.21,0.79-0.29C84.97,98.91,85.47,98.83,85.94,98.8z"/>
	<path d="M62.54,61.63c-1.04,0.33-2.08,0.63-3.12,0.88c-0.08,0.22-0.16,0.47-0.23,0.74c1.06-0.23,2.11-0.52,3.16-0.83
		C62.39,62.16,62.46,61.9,62.54,61.63z"/>
	<path d="M85.22,103.32c0.33-0.08,0.77,0.31,1.17,0.45c0.65,0.22,1.32,0.41,1.98,0.62c0.06-0.69,0.36-1.46,0.14-2.05c0,0,0,0,0,0
		c-0.19-0.3-0.37-0.6-0.56-0.9c-0.09-0.14-0.21-0.29-0.33-0.44c-0.79-0.68-1.89-0.79-3.08-0.28c-0.31,0.14-0.61,0.29-0.89,0.45
		c-0.03,1.08-0.06,2.16-0.12,3.23c-0.01,0.13-0.03,0.26-0.05,0.39C83.95,104.08,84.63,103.46,85.22,103.32z"/>
	<path d="M97.96,67.79c-0.22-0.36-0.43-0.71-0.65-1.02c-0.11-0.16-0.42-0.59-0.58-0.68c-0.41-0.24-0.76-0.51-1.07-0.8
		c-0.03,0.17-0.07,0.35-0.12,0.53c-0.26,1.01-0.7,1.84-1.29,2.49c0.03,0.08,0.05,0.16,0.08,0.24l0.66,2.25
		c1.18-0.8,2.4-1.45,3.71-1.87C98.43,68.55,98.19,68.16,97.96,67.79z"/>
	<path d="M90.7,109.97c-0.16-0.84-0.25-1.69-0.25-2.58c-0.87,0.71-1.98,1.14-3.31,1.28c-0.56,0.06-1.15,0.02-1.7-0.09
		c-1.12-0.22-2.35-0.38-2.6-1.76c-0.07,0.17,0.11-1.01-0.19,0.51c-0.3,1.52-1.48,1.47-1.48,1.47c0.14,0.14,0.3,0.28,0.46,0.42
		C84.14,111.2,87.79,111.49,90.7,109.97z"/>
	<path d="M47.87,101.79c1.25,0.34,2.48,0.49,3.69,0.5c0.09-0.16,0.19-0.33,0.29-0.5C50.55,101.91,49.23,101.92,47.87,101.79z"/>
	<path d="M31.62,97.82c1.81-1.93,1.5-4.28,1.11-6.57c-0.94-5.53-3.61-8.78-7.62-9.33C32.21,85.31,33.09,91.04,31.62,97.82z"/>
	<path d="M66.47,106.73c1.69-0.8,2.87-1.78,3.16-2.9c-1.03,0.66-2.06,1.24-3.11,1.76c-0.05,0.28-0.07,0.58-0.05,0.93
		C66.47,106.59,66.47,106.66,66.47,106.73z"/>
	<path d="M69.26,106.99c-0.94,0.46-1.89,0.93-2.84,1.39c-0.03,0.29-0.07,0.57-0.12,0.85C67.74,108.6,68.91,107.76,69.26,106.99z"/>
	<path d="M71.47,97.34c-0.15,0.24-0.29,0.47-0.44,0.71c1.06,1.2,1.95,2.55,2.87,3.73C73.92,100.6,72.9,98.89,71.47,97.34z"/>
	<path d="M74.41,95.63c-0.11-0.44-0.22-0.95-0.29-1.49c-0.12-0.14-0.26-0.28-0.39-0.41c-0.14,0.23-0.29,0.46-0.43,0.69
		c0.39,0.4,0.76,0.82,1.12,1.25C74.41,95.65,74.41,95.64,74.41,95.63z"/>
	<path d="M130.45,103.02c2.74,0.6,5.78-3.24,4.99-6.24C134.99,99.91,133.38,101.98,130.45,103.02z"/>
	<path d="M127.66,99.05c1.28-0.82,1.58-2.53,0.71-3.91c-1.08-1.7-2.95-2.26-4.65-1.2C127.5,93.73,128.45,95.04,127.66,99.05z"/>
</g>
<g>
</g>
<g>
</g>
<g>
</g>
<g>
</g>
<g>
</g>
<g>
</g>
</svg>
