<?xml version="1.0" encoding="utf-8"?>
<!-- Uploaded to SVGRepo https://www.svgrepo.com -->
<svg version="1.1" id="Layer_1" xmlns="http://www.w3.org/2000/svg" xmlns:xlink="http://www.w3.org/1999/xlink" x="0px" y="0px"
	 width="256px" height="155px" viewBox="0 0 256 155" enable-background="new 0 0 256 155" xml:space="preserve">
<path d="M212.512,68.537c-0.41,0-0.82,0.102-1.229,0.102c0.205-1.946,0.307-3.893,0.307-5.839c0-33.395-27.044-60.439-60.439-60.439
	C120.624,2.361,95.424,25,91.429,54.4c-4.098-1.332-8.298-2.151-12.702-2.151c-22.946,0-41.59,18.644-41.59,41.59
	c0,0.205,0.102,0.41,0.102,0.512c-1.844-0.307-3.79-0.512-5.737-0.512C15.112,93.839,2,107.054,2,123.239
	C2,139.424,14.712,153,31,153c0,0,180.771,0,182,0c22.946,0,41-19.927,41-42.873C254.102,87.18,235.458,68.537,212.512,68.537z
	 M172.047,82l-48.742,49.913L138.101,96h-20.424l30.523-51h24.354l-21.611,37H172.047z"/>
</svg>
